<svg xmlns="http://www.w3.org/2000/svg" viewBox="0 0 177.41 192.25"><defs><style>.a{fill:#3c4669;}</style></defs><path class="a" d="M779,270.8a14.52,14.52,0,0,1-1.49-.33,5.58,5.58,0,0,0-3-.39,2.73,2.73,0,0,0-2.51,3.13,1.72,1.72,0,0,1-.13.85c-1.15,1.85-.09,3.68.06,5.5,0,.47.51.92.83,1.35.63.87,1.33,1.69,1.94,2.57s.52,1.54-.43,2.23c-.43.31-.91.57-1.33.9s-.48.44-.23,1.51a8.67,8.67,0,0,0,1-.37c1.13-.55,2.23-1.18,3.38-1.7a6,6,0,0,1,1.81-.47,1.79,1.79,0,0,0,1.62-1.07,3.22,3.22,0,0,1,2.51-2.19c.07,0,.13-.13.33-.36-.52-.28-1-.51-1.49-.79-1-.6-2-1.22-3-1.85a1.18,1.18,0,0,1-.41-1.67c.52-1,1.08-2,1.66-2.91.37-.63.82-1.21,1.21-1.82s.73-1.4-.23-2.06c1.65-.07,1.83.11,1.48,1.35a7.48,7.48,0,0,1-1.56,3.26,4.91,4.91,0,0,0-.69,1.11c-.76,1.49-.6,2,.88,2.79.74.38,1.56.59,2.29,1a26.43,26.43,0,0,1,3.15,1.8c.29.21.29.85.49,1.5a4.73,4.73,0,0,0,4.27-.08c.65-.31,1.29-.67,2-1a1.15,1.15,0,0,1,1.57.28,1.34,1.34,0,0,1-.25,1.85,17.63,17.63,0,0,1-2.31,1.51,7.61,7.61,0,0,1-1.23.47,2.8,2.8,0,0,0-2,1.94,4.09,4.09,0,0,1-2.76,2.63,8.18,8.18,0,0,0-3.65,2.81,7.53,7.53,0,0,1-.83,1,4,4,0,0,0-1.3,3.27,4.25,4.25,0,0,1-3.07,4.44c-3.27,1.23-3.5,1.41-4.39,4.8s-1.73,6.61-2.4,9.95a13.64,13.64,0,0,0,1.57,9.75A5.5,5.5,0,0,0,774,329a8.92,8.92,0,0,1,2.41,2.71,11.68,11.68,0,0,0,1.34,1.72c.89,1,1.84,1.85,2.76,2.77a8.25,8.25,0,0,0,.73.72,31.39,31.39,0,0,0,4.39,3.13c1.6.8,2.72,2.14,4.14,3.12a20,20,0,0,1,3,3.14c.52.57,1,1.16,1.55,1.73,1.34,1.45,3,2.66,3.66,4.63a1.41,1.41,0,0,0,.31.49,37.49,37.49,0,0,1,4.55,6.93c1,1.69,1.72,3.52,2.79,5.13,1.45,2.2,3.07,4.28,4.69,6.36a32.42,32.42,0,0,1,4.13,8c.49,1.21,1.07,2.4,1.67,3.57a34.32,34.32,0,0,1,3.77,11.48,25.45,25.45,0,0,1-.63,8.56c-.15.72-.35,1.43-.47,2.15A58.72,58.72,0,0,1,815,417.83a19.31,19.31,0,0,1-3.67,6.28c-.59.64-1.05,1.4-1.59,2.1a21.08,21.08,0,0,1-4.15,4.29,10.63,10.63,0,0,0-2.29,2.44,34.14,34.14,0,0,1-6.78,7c-2.06,1.63-4,3.37-6.1,5-1.06.84-2.22,1.56-3.33,2.34-2.86,2-5.7,4.08-8.58,6.09a3.18,3.18,0,0,1-1.47.58c-2.76.28-5.53.41-8.28.75s-5.13-.26-7.69-.57c-1.47-.18-3-.63-4.44.21-.46.26-.93.52-1.37.82-1.16.8-2.3,1.64-3.47,2.42a2.56,2.56,0,0,1-1.21.47,8.35,8.35,0,0,0-3.7,1.24,15.74,15.74,0,0,1-6.33,1.62,31.24,31.24,0,0,1-8.31,0,38.12,38.12,0,0,1-8.19-2.13,19,19,0,0,0-2.94-.87,33.58,33.58,0,0,1-6.8-2.63,10.33,10.33,0,0,1-1.29-.94,5,5,0,0,0-1.64-.92,9.94,9.94,0,0,1-4.47-2.38,10.69,10.69,0,0,0-5.35-2.13c-3.11-.58-6.19-1.31-9.28-2-.91-.2-1.79-.47-2.69-.71a10.84,10.84,0,0,1-4.51-2.31,7.34,7.34,0,0,0-1-.83,34.83,34.83,0,0,1-5.51-4.54,28.58,28.58,0,0,1-3.47-4.11c-1.16-1.55-2.13-3.26-3.33-4.77a7.65,7.65,0,0,0-4-2.29,4,4,0,0,1-1.1-.32c-2.14-1.52-4.26-3.07-6.38-4.6a3.61,3.61,0,0,0-.84-.58c-2.68-1-4.75-3-7.23-4.37a2.83,2.83,0,0,1-.92-.72c-1.9-2.45-4-4.73-4.74-7.95-.47-2.07-1.46-4-2-6.07s-1.07-4.46-1.6-6.68a7.76,7.76,0,0,1-.1-3.77c.07-.28.09-.58.15-.86a14.2,14.2,0,0,0,.26-5.51c-.55-3.42.21-6.71,1.2-9.94.59-1.95,1.42-3.83,2.15-5.75.05-.14.07-.31.17-.4,1.33-1.27,1.51-3,1.92-4.65a22,22,0,0,1,2.6-6.5,29.55,29.55,0,0,1,5.71-7,27.38,27.38,0,0,0,2.65-2.51,38,38,0,0,1,7.76-6.13c2.23-1.4,4.47-2.79,6.75-4.1,1-.55,2.06-.86,3.07-1.33,3.54-1.62,7-3.42,10.62-4.85,4-1.57,8.07-2.92,12.17-4.16,3-.91,6.07-1.46,9.09-2.24,1.36-.35,2.69-.85,4-1.28.84-.26,1.7-.45,2.51-.79,2.29-.95,4.55-2,6.83-3,1.61-.69,3.25-1.32,4.84-2.06a25.5,25.5,0,0,0,3.88-2,31.47,31.47,0,0,0,4.07-3.31,32.49,32.49,0,0,0,4.47-5.18c1.06-1.57,2-3.19,3.16-4.73,1.31-1.81,2.71-3.56,4.08-5.32a14.42,14.42,0,0,0,1.14-1.34c1.53-2.57,4.16-4.07,6-6.3a24,24,0,0,0,3-4,41.91,41.91,0,0,1,3.07-4.79,9.34,9.34,0,0,0,1.55-4.49c.08-.58.12-1.17.2-1.75a1.89,1.89,0,0,1,1.73-1.72c1.28-.18,2.58-.25,3.87-.42a2.06,2.06,0,0,0,1.06-.38c1.19-1.06,2.58-1.94,3.37-3.4a2.37,2.37,0,0,1,2.17-1.22,8.82,8.82,0,0,1,4.51,1,.51.51,0,0,1,.21.2A3.78,3.78,0,0,1,779,270.8ZM750.41,437.57l0,0c-.48.41-1,.8-1.42,1.25s-.38,1.15.41,1.22c1.39.11,2.84.26,3.93-1a10.15,10.15,0,0,1,1.17-1.1,2.81,2.81,0,0,0,1-2.3c0-1.65.17-3.3.23-4.95a5.16,5.16,0,0,0-.31-1.19l-5.93,7.07ZM683.53,433c.85.12,1.06,1.4,2.13,1.23a2.1,2.1,0,0,0-1.26-1.62c-.46-.29-.74-.53-.69-1.12s-.28-.77-1-.74c0,.4-.07.76-.1,1.12-.09-.12-.22-.22-.26-.35-.35-1.1-.35-2.45-1.91-2.69,0,0-.07-.08-.07-.12,0-1-.74-1.53-1.15-2.27-1.51-2.76-2.06-5.84-3.06-8.77a1.56,1.56,0,0,1,0-.57c.08-1.16.19-2.31.25-3.47,0-.8-.08-1.54-1.15-1.7.78-1.79,1.7-3.44.81-5.55a7.6,7.6,0,0,0-1.16.8,4.88,4.88,0,0,0-1.41,3.43,17.11,17.11,0,0,1-.19,3.93,11.41,11.41,0,0,0,0,5.2,4.45,4.45,0,0,0,.6,1.44,1.92,1.92,0,0,1,.28,1.78,3,3,0,0,0,0,1.55c.94,3.54,2.92,6.58,4.62,9.75a9.23,9.23,0,0,0,1.58,1.91,25.49,25.49,0,0,0,2.39,2.15,48.58,48.58,0,0,0,5.17,3.79,50.37,50.37,0,0,0,5.85,2.62,22.85,22.85,0,0,0,7.27,1.52,32.1,32.1,0,0,1,4.47.65,9.35,9.35,0,0,1,2.24,1c1,.53,1.92,1.16,2.91,1.67,1.34.68,2.72,1.27,4.07,1.94a1.73,1.73,0,0,1,.77.66,2.81,2.81,0,0,0,1.56,1.19,19.08,19.08,0,0,0,6,1.89,2.52,2.52,0,0,1,.84.24,27.89,27.89,0,0,0,8.44,2.1c3.51.43,7,.61,10.39-.62a3.4,3.4,0,0,1,.57-.08c5.21-.57,9.45-3.12,13.39-6.39a24.54,24.54,0,0,0,4.93-5.73c.42-.65,1.22-1.19,1.35-1.87a5.12,5.12,0,0,1,1.94-2.8c1.1-1,2.19-2.05,3.26-3.1a10.28,10.28,0,0,0,1.13-1.34,38.69,38.69,0,0,1,2.28-3.21,19.35,19.35,0,0,0,4.52-8.4c.06-.26.31-.46.48-.69a17.76,17.76,0,0,1-.6,3.79c-.21.85-.47,1.69-.76,2.51a13,13,0,0,1-.94,2.28c-.88,1.51-2,2.91-2.77,4.47A27.69,27.69,0,0,1,766.8,443a99.08,99.08,0,0,0-6.38,8,2.76,2.76,0,0,0-.28.77,34,34,0,0,0,10.1.79,23,23,0,0,0,4.84-1,13,13,0,0,0,2.53-1.05c.65-.33,1.17-.89,1.82-1.22a51.55,51.55,0,0,0,6.79-4.55c1.53-1.12,3.12-2.17,4.6-3.35,2.59-2,4.52-4.69,6.59-7.22a30.91,30.91,0,0,1,2.81-3.13c2.12-2,4.35-3.77,6.47-5.71a12.53,12.53,0,0,0,1.85-2.24c1.59-2.33,3-4.77,4.72-7a11.9,11.9,0,0,0,2.41-7.51,8.59,8.59,0,0,1,.07-2c.85-3.39.67-6.87,1-10.3a3.48,3.48,0,0,0,0-1c-.5-2.63-1-5.26-1.53-7.88a16.69,16.69,0,0,0-1-3.2c-.62-1.43-1.46-2.76-2.11-4.17a16.32,16.32,0,0,1-.63-2.23,13.44,13.44,0,0,0-.65-2.07c-2.3-4.82-5.87-8.72-9.47-12.56A72.9,72.9,0,0,0,795,357.3a28.52,28.52,0,0,0-3.34-2.95c-1.32-.81-2.44-2-3.77-2.76-2.66-1.59-4.83-3.78-7.25-5.66-.2-.16-.26-.51-.39-.77l.23-.19c3.46,2.29,7,4.43,10.24,7.06s6.58,5.22,10,8a4.79,4.79,0,0,0-1-2.63c-1.17-1.55-2.37-3.09-3.57-4.63a43.46,43.46,0,0,0-9.36-8.75c-2-1.37-4-2.65-5.9-4.08a31.16,31.16,0,0,1-6.91-7.08,10.91,10.91,0,0,0-3.8-3.24c.85,3.63,2.52,6.64,3.64,9.87-1.09-.83-2.09-1.66-2-3.23a3,3,0,0,0-.33-1.38c-.9-1.94-1.9-3.85-2.76-5.81a10.85,10.85,0,0,1-.87-2.93,25.59,25.59,0,0,1,0-8.73c.26-1.19.5-2.39.77-3.58a22.91,22.91,0,0,1,3.54-8.73,26.31,26.31,0,0,1,4.69-5,6.44,6.44,0,0,0,2.32-3.43,3.64,3.64,0,0,1,.73-1.71c2-1.88,3.44-4.39,6.43-5.07,1.49-.33,1.92-1.41,1.6-2.89-1.26-.25-1.27,1.68-2.74,1.49l2.17-3.12-.25-.21c-1.27.86-2.58,1.65-3.78,2.6s-2.57,2.23-3.86,3.35a12.4,12.4,0,0,0-3.13,3.63,13,13,0,0,1-1.3,1.77c-.23.31-.45.63-.67.94a12.12,12.12,0,0,1-1.59,2.23,13.31,13.31,0,0,0-2.85,3.49,1.59,1.59,0,0,1-1.5.91c-1.49.07-1.95.77-1.76,2.33l.9,0c-.6,2.3-1.17,4.51-1.77,6.72-.34,1.27-.77,2.51-1.07,3.79-.2.84-.22,1.72-.39,2.56a4.06,4.06,0,0,1-.53,1.46,3.79,3.79,0,0,0-.47,3.57l1.45.61c-.49.88-1.4,1.4-.95,2.54a2.61,2.61,0,0,0,2,1.79c-.22.79-.74,1.36-.24,2.25s1.41.52,1.91,1.06c-.52,1.45-.52,1.45.66,2.46.11.09.23.17.34.27a.85.85,0,0,1,.06,1.39c-.7.66-1.43,1.27-2.23,2-.85-1.5,1.14-1.71,1-2.9l-1.67-1.62c-.36.19-.62.31-.87.46a7.9,7.9,0,0,1-.88.53,2.09,2.09,0,0,1-.66,0,2.3,2.3,0,0,1,.09-.76c.14-.24.5-.37.61-.61a1.37,1.37,0,0,0,.1-.95,1.32,1.32,0,0,0-2-.63c-.66.47-1.26,1-1.94,1.59,0-1.24,0-1.24.87-2.08s1-.94.31-2.07a5.82,5.82,0,0,0-.49-.73.93.93,0,0,0-1.41-.2c-.44.31-.85.78-1.33.86-1,.19-1.4.89-1.78,1.72s-.44,1.74-1.3,2.41c.13-3.21,2.2-5.72,2.67-9.06l-2,1.28c.49-2,2-3.66,1.21-5.73-1.58,0-2.47,1.42-3.87,1.69a15.13,15.13,0,0,1,2-1.84,8.67,8.67,0,0,1,1.07-.76,3.32,3.32,0,0,0,1.61-2.15c.26-.88-.44-1.28-.8-1.87.79-1.21,2.56-1.84,2.09-3.77a2.27,2.27,0,0,0-1.9,1.48c-.77,2-1.48,4.09-3.14,5.63a1.37,1.37,0,0,0-.23.37l-6,10.17a3,3,0,0,1-.39.41,155.13,155.13,0,0,1,15.83-28.13c.29,1.17-1.17,1.85-.8,3l1.43.64c-.76.32-1.55.59-2.27,1a3.34,3.34,0,0,0-1.75,3c1,.06,1.52-.68,2.09-1.23a1.52,1.52,0,0,1,1.35-.64c1.38.12,2.19-.81,2.21-2.52l-1.66.41c.27-1,1.13-1.27,2-1.59,1.12-.44,2.09-1,2.19-2.41l-1.31-.65c.44-.24.68-.38.93-.5a7.17,7.17,0,0,0,3-2.29c2-2.88,4.1-5.69,6.14-8.54a6.77,6.77,0,0,0,.55-1.26l-.25-.26-3.38,1.78a.23.23,0,0,0-.09.12c-.74,1.86-2.29,3.14-3.43,4.7s-2.2,3-3.3,4.58a16,16,0,0,1,1.61-3.57,20.06,20.06,0,0,1,2.09-3,3.53,3.53,0,0,0,1-3.58c-.65-2.38-.53-2.5,1.54-3.95l.12-.08c.67-.51.75-.88.3-1.61s-.85-1.3-1.27-2a.91.91,0,0,0-1.22-.44c-.26.58-.48,1.17-.78,1.71s-.79,1.1-1.08,1.7c-1.29,2.62-2.51,5.26-3.8,7.88a5.9,5.9,0,0,1-1.05,1.14l0,0a18.41,18.41,0,0,1,.65-2.07c.37-.84.85-1.63,1.26-2.45,1-2,2-4,3-6a16.37,16.37,0,0,0,1.38-3.17,4.13,4.13,0,0,0,.09-2.92c-.83-.05-1.15.34-1.45,1-.76,1.62-1.64,3.18-2.48,4.77l0,0a18.08,18.08,0,0,1,.48-2c.26-.73.68-1.4,1-2.12a2.68,2.68,0,0,0,.32-2.11,1.34,1.34,0,0,0-1.84.7c-.29.56-.49,1.17-.74,1.74a6.71,6.71,0,0,1-1.63,2.81c.24-1.79,1.53-3.3,1.38-5.22-.19-.08-.36-.17-.54-.23-1.14-.38-1.52-.2-1.8.92-.18.71-.25,1.45-.46,2.14a15.49,15.49,0,0,1-1.17,3.27c-1.45,2.47-3,4.89-4.61,7.26-1.94,2.85-4,5.63-6,8.44a52.13,52.13,0,0,0-3.14,4.57,98.94,98.94,0,0,1-6.89,9.95,24.66,24.66,0,0,1-3.35,3.43c-1.61,1.47-3.31,2.86-5,4.26a4,4,0,0,1-1.18.55c-1.69.59-3.42,1.08-5.08,1.74-3.08,1.23-6.08,2.63-9.18,3.81-2.64,1-5.36,1.77-8.05,2.64-.23.07-.48.09-.71.14-1.4.34-2.89.41-4.08,1.4a2.36,2.36,0,0,1-.8.32c-2.43.7-4.87,1.37-7.29,2.09-.88.26-1.72.68-2.59,1-2.35.75-4.75,1.35-7.06,2.2s-4.65,2-6.93,3c-1.23.58-2.33,1.47-3.59,1.92a17.92,17.92,0,0,0-4,2.45,39.27,39.27,0,0,0-3.62,3c-.73.65-1.36,1.42-2.06,2.16.72.52,1.7.18,2,1.27l-1.26.3c-.81.19-1.64.32-2.42.58a4.88,4.88,0,0,0-3,2.9c.81.39,1.83-.67,2.46.71-.49.15-.87.29-1.27.37a5.94,5.94,0,0,0-4.43,3.23c-.57,1.17-1.13,2.36-1.69,3.54q-1.29,2.78-2.55,5.55c0,.06.06.18.15.41.28-.1.64-.12.84-.31.49-.47.89-1,1.34-1.54.29-.33.54-.79.9-.92,2-.72,3.27-2.23,4.59-3.7a3.84,3.84,0,0,0,1.23-2.65l-2.36.44,0,0a3.92,3.92,0,0,1,2.7-1.18,2.42,2.42,0,0,0,1.17-.42c2.21-2,4.37-4,6.57-6a9.4,9.4,0,0,1,1.43-1,5.1,5.1,0,0,0,.77-.4,57.08,57.08,0,0,1,6.91-4.84,7.57,7.57,0,0,1,1.33-.59c1.06-.47,2.14-.91,3.18-1.42a31.9,31.9,0,0,1,6.6-2.7c2-.46,3.89-1.21,5.83-1.85a35.49,35.49,0,0,1,6.55-1.95c.27,0,.5-.26.77-.35,1.36-.47,2.61-1.36,4.16-1.18l0-.05c-.5,1.11-1.63,1.34-2.6,1.71a41.29,41.29,0,0,0-4.36,1.57,20,20,0,0,1-2.85,1.11c-1.24.41-2.52.72-3.75,1.17a12.86,12.86,0,0,1-4.47,1.17,2,2,0,0,0-.69.22,22.8,22.8,0,0,0-4.76,2.51,4.53,4.53,0,0,1-1.32.6,18.6,18.6,0,0,0-6.37,3.18c-2.27,2-5.14,3.13-7.16,5.42a3.84,3.84,0,0,1-.73.48,3.48,3.48,0,0,0-.67.53c-1.1,1.23-2.2,2.45-3.27,3.7-.85,1-1.92,1.83-2,3.31,0,.24-.27.49-.45.7a19.65,19.65,0,0,0-2.12,2.36c-.42.66-1.16,1.3-1,2.33,1.89-.26,3.06-2,5-2.08-.06.13-.07.24-.13.28-1.92,1.23-3.85,2.43-5.75,3.7a4.18,4.18,0,0,0-1.17,1.27,18.37,18.37,0,0,0-1.19,2.34,1.85,1.85,0,0,0-.07,1.77,2.85,2.85,0,0,0,1.67-2.16,10.38,10.38,0,0,1,.84-2.16c0-.07.25-.07.4-.11.14.42.27.81.42,1.29a30.45,30.45,0,0,0,4.45-2.3,9,9,0,0,0,1.77-2.65c.1-.16.11-.38.21-.54a23.54,23.54,0,0,1,2-3c1.84-2,3.77-3.91,5.72-5.81a4.59,4.59,0,0,1,1.39-.66l0,0a7.13,7.13,0,0,1-1,1.27,39.27,39.27,0,0,0-7.24,9.1c-2.29,3.73-3.2,7.94-4,12.15,0,.16.09.35.13.5,1.08.19.93-1.56,2.22-1.19a21.24,21.24,0,0,0-2.55,2.82,5.3,5.3,0,0,0-.5,4c.62-.53,1.06-.88,1.47-1.26s.55-.71.91-.93a2.35,2.35,0,0,0,1.12-1.78c.08-.48.14-1,.26-1.44s.35-1.09,1.17-1.18c-.05.4-.07.68-.11,1-.29,2-.6,3.95-.87,5.93a7.72,7.72,0,0,0,0,1.25,4,4,0,0,0,2.62-2.49c1.18-2.62,2.43-5.21,3.63-7.82.54-1.15,1-2.31,1.57-3.46.26-.57.47-1.28,1.25-1.26a1.69,1.69,0,0,0,1.43-.86c1.33-1.67,2.55-3.44,4-5.05,1.73-2,3.59-3.83,5.43-5.71a1.43,1.43,0,0,1,1.62-.53c-1.78,2.29-3.57,4.41-5.15,6.68a28.87,28.87,0,0,0-4,7.35,1.58,1.58,0,0,0,1.68-.66,9.65,9.65,0,0,0,.83-1.71,18.66,18.66,0,0,1,3.46-5.71c.77-.87,1.59-1.7,2.41-2.53s1.42-1.34,2.13-2l.14.14c-.29.56-.59,1.12-.89,1.68l.3.28a4.39,4.39,0,0,0,1.07-.73,11.17,11.17,0,0,0,1.34-2.08c.9-1.87,2.68-2.92,3.83-4.54l.24.18-1.23,2.23c2,0,3.43-.91,5-1.25.21.82-.37,1-.77,1.29-1.24,1-2.86,1.74-3,3.69a.72.72,0,0,1-.46.5c-1.61.37-2.67,1.53-3.83,2.58-.84.76-1.63,1.45-.89,2.68a4.8,4.8,0,0,0-1.3.77,2.9,2.9,0,0,1-1.69.95,2.86,2.86,0,0,0-2.48,2.51,1.34,1.34,0,0,1-1,1.26,3.66,3.66,0,0,0-1.84,2l1.08,1.1a7.87,7.87,0,0,1-1.11.63,3.28,3.28,0,0,0-2.35,3,1.91,1.91,0,0,1-.9,1.6c-.08.05-.08.24-.12.36l1.22.62a8.74,8.74,0,0,1-1,.85c-2.12,1.21-3,3.23-3.55,5.45-.2.75-.44,1.49-.66,2.24a49,49,0,0,0-1.59,5.62,55.88,55.88,0,0,0-.54,9.6,15.72,15.72,0,0,1-.38,2.43c0,.34-.07.69-.1,1a.91.91,0,0,0,.6-.66c.15-1,.26-1.93.37-2.9a58.24,58.24,0,0,1,2.17-11,4.33,4.33,0,0,0,.24-1,12.69,12.69,0,0,1,1.69-4.93c.18-.37.39-.83,1.16-.66-.64,2.13-1.82,4.05-2.13,6.27s-1.26,4.35-1.3,7a11.27,11.27,0,0,0,1.14-.89,9,9,0,0,0,2.27-4.2,45.42,45.42,0,0,1,3.48-8.83c1-2.21,2.19-4.35,3.38-6.47.82-1.48,1.76-2.9,2.69-4.31s2.14-3,3.09-4.58a18.48,18.48,0,0,1,2.84-3.86c.87-.85,1.55-1.88,2.33-2.81a12.54,12.54,0,0,1,1-1.07c1.49-1.42,3-2.82,4.59-4.32a2.23,2.23,0,0,1-.58,1.88c-.68.7-1.36,1.4-2.06,2.08a25.28,25.28,0,0,0-2.13,2,70.65,70.65,0,0,0-6.4,8.66c-2.42,4.1-5.15,8-7.28,12.29a65.16,65.16,0,0,0-3.61,8.91,2.35,2.35,0,0,0,.07,1.41,1.52,1.52,0,0,1-.34,1.61,3.41,3.41,0,0,0-.69.93c-.31.76-.82,1.54-.26,2.48,1.42-.75,2.52-1.61,2.68-3.27a10.76,10.76,0,0,1,.31-1.58,1.2,1.2,0,0,1,1-1.06,22.51,22.51,0,0,0-.46,3.85c.06,1.32-1.22,2.38-.65,3.77a1.27,1.27,0,0,0,.48,0,2.49,2.49,0,0,0,.51-.27,6.84,6.84,0,0,0,2.51-3.84,62.31,62.31,0,0,1,3.58-8.31c.94-1.76,1.91-3.51,2.85-5.27a38.69,38.69,0,0,1,7.24-9.84l0,0c0,.41.09.92-.11,1.22-1,1.4-2,2.75-3,4.12-.46.62-.95,1.24-1.35,1.9-.87,1.4-1.69,2.84-2.52,4.26-.22.37-.33.85-.63,1.1a5.37,5.37,0,0,0-1.42,2.34,11.78,11.78,0,0,1-1.08,2.39,15.11,15.11,0,0,0-1.68,3.85c-.21.55-.3,1.13-.51,1.68a28.76,28.76,0,0,0-1.56,6.35,1.69,1.69,0,0,0,.84,1.84l0,0c-1.58,2-2.28,5.15-1.43,6.87a5.23,5.23,0,0,0,2.61-3.49c.12-.77.17-1.55.31-2.31,0-.22.3-.4.6-.77.16.82.26,1.4.4,2.15l2.46-1.47c-1.11,1.42-2.3,2.46-2.84,3.77a5.15,5.15,0,0,0,.32,4.55,15.36,15.36,0,0,0,2.45-2.32,4.65,4.65,0,0,0,.88-2.7,8.36,8.36,0,0,1,.71-4,3.37,3.37,0,0,0,.33-1.26c0-2.27,1.24-4.15,1.9-6.21,0,0,.16,0,.34-.09.23,1.06-.29,2-.5,2.95-.47,2.14-1,4.25-1.51,6.38a2.69,2.69,0,0,0,.06,1.57c.18.38.74.58,1.19.89a4.15,4.15,0,0,0-1.84,3.67c0,1.35-.38,2.75.28,4.36a8.17,8.17,0,0,1,1.29-1.45,3.45,3.45,0,0,0,1.35-3.37,23.56,23.56,0,0,1,.66-5.63c0-.26.31-.47.46-.71l.3.12c0,.57-.08,1.14-.16,1.7-.12.91-.31,1.82-.42,2.74a2,2,0,0,0,.48,1.92l1.93-.76.16.27a10.84,10.84,0,0,0-1.88,1.67,13,13,0,0,0-1.09,2.49c-1.07-.15-1.07-.16-1.78.64a12,12,0,0,0-1,1.25c-.63.92-.52,1.48.47,2,.67.36,1.4.61,2,.86a17.41,17.41,0,0,0,2.4-1.71,8.32,8.32,0,0,0,2.13-4.1c.26-1.09.51-2.18.72-3.28.67-3.44,1.27-6.89,2-10.32.23-1.07.79-2.07,1.12-3.13.53-1.67,1-3.36,1.5-5,.11-.33.47-.58.72-.87l0,0c.09.32.33.68.25.95a18.62,18.62,0,0,1-1.11,3.28,36.56,36.56,0,0,0-2.63,9.39c-.37,1.91-.54,3.86-1,5.76a5,5,0,0,0,.07,2.73,1.49,1.49,0,0,1-.16,1.48,7.84,7.84,0,0,0-.8,5.92,1.27,1.27,0,0,0,1.23,1.21c.7,0,1.21-.32,1.4-1.21a8.1,8.1,0,0,0,.17-2.3,24.94,24.94,0,0,1,1.24-11.24,3.22,3.22,0,0,1,.49-.69l.35.13c-1,4-2,8-1.13,12.22a4.44,4.44,0,0,0,2.72-2.45,36.38,36.38,0,0,0,1.29-4,26.85,26.85,0,0,1,1.47-4.41c.62-1.16,1-2.4,1.51-3.58s.58-2.36,1-3.48q1.47-3.66,3.14-7.24c.69-1.5,1.57-2.91,2.29-4.4,1-2.14,2-4.32,3-6.48.3-.66.63-1.31,1-1.95a12.52,12.52,0,0,0,.9-1.64,30.27,30.27,0,0,1,4.54-8.64,4.83,4.83,0,0,1,.68-.58l.3.2a15.49,15.49,0,0,1-.66,1.5c-1.09,1.89-2.29,3.72-3.29,5.66-1.08,2.11-2,4.32-3,6.49-.64,1.42-1.26,2.85-1.92,4.26-1.4,3-2.89,6-4.22,9-1.19,2.72-2.25,5.5-3.28,8.29s-2,5.7-2.91,8.57c-.41,1.24-.44,2.64-1,3.76-1.2,2.25-1.14,4.72-1.63,7.09a1.65,1.65,0,0,0,.68,1.67,1,1,0,0,0,1.65-.37,4.65,4.65,0,0,0,.28-1.28c.21-2.13.22-4.3.62-6.39.54-2.82,1.36-5.59,2.08-8.37.11-.4.25-.84.89-.83a4.75,4.75,0,0,1-.5,2.7,60.71,60.71,0,0,0-2.19,10.42,16.7,16.7,0,0,0,.06,2.15,11.62,11.62,0,0,0,1.08-.89,13.73,13.73,0,0,1,1.69-2,5.38,5.38,0,0,0,1.85-3.37,5.88,5.88,0,0,1,.22-.85c.61-1.78.86-3.68,2.32-5.12a5.24,5.24,0,0,0,1.32-2.41,36.06,36.06,0,0,1,2.69-7.83,10.68,10.68,0,0,0,.43-1.24c.67-1.93,1.34-3.86,2-5.79.12-.34.26-.77.9-.58a5.11,5.11,0,0,1-.56,2.35c-.39.83-.69,1.71-1,2.57l-1.26,3.1c-.27.67-.57,1.34-.78,2s-.3,1.53-.59,2.24c-.91,2.24-1.54,4.59-2.66,6.77a31.54,31.54,0,0,0-1.67,5c-.34,1.06-.62,2.15-1,3.2a22.2,22.2,0,0,0-1.34,6,7.6,7.6,0,0,0,.13,1.11,12.37,12.37,0,0,0,1.64-1.24c1-1.12,2-2.29,2.87-3.49a3.36,3.36,0,0,0,.72-1.72c.09-2,.9-3.79,1.39-5.67a2.7,2.7,0,0,1,.48-.76l.32.11a9.48,9.48,0,0,0-.44,2.18c0,.73-.85,1.37-.18,2.26a3.78,3.78,0,0,0,.53-.59c1.12-2.05,2.29-4.08,3.33-6.17,1.16-2.31,2.2-4.67,3.27-7a9,9,0,0,0,.43-1.39c.23-.84.43-1.69.69-2.52s.48-1.38.72-2.07c.45-1.28.89-2.57,1.35-3.85.05-.13.24-.21.37-.32a6.18,6.18,0,0,1-.34,2.06c-.19.65-.41,1.3-.6,2-.48,1.68-.87,3.39-1.47,5-.7,1.87-1.66,3.64-2.37,5.5a61.31,61.31,0,0,1-4.2,8.95,4.25,4.25,0,0,0-.54,1.35,5.73,5.73,0,0,1-1.16,2.48,5.9,5.9,0,0,0-.76,1.24,8.41,8.41,0,0,0-.22,1.57c.81-.22,1.37-.33,1.91-.52a15.23,15.23,0,0,1,1.87-.8,1.93,1.93,0,0,0,1.61-1.8c.32-1.72.75-3.42,1.2-5.12a8.87,8.87,0,0,1,.77-1.58l.33.12c-.27,1.8-1.36,3.5-.93,5.41.15,0,.21,0,.24,0a6.3,6.3,0,0,0,.48-.55,66.76,66.76,0,0,0,6.68-11.3,57.53,57.53,0,0,0,2.29-5.36c.5-1.52,1-3,1.5-4.58.57-1.85,1.13-3.72,1.65-5.59.35-1.31.66-2.64.92-4a22.14,22.14,0,0,1,.67-3.88c.61-1.56.81-3.2,1.36-4.75.38-1.09.88-2.14,1.32-3.21h0c.11.26.34.54.31.77a15.27,15.27,0,0,1-.58,2.86,49,49,0,0,0-2.06,8.16c0,.34-.16.66-.24,1-.47,1.93-.88,3.87-1.41,5.79-.68,2.43-1.35,4.88-2.22,7.25s-2.08,4.93-3.14,7.38a18.72,18.72,0,0,1-1.53,3.3,8,8,0,0,0-1.7,4.19c-.09,1.69-.42,3.38-.6,5.07a9.77,9.77,0,0,0,.13,1.68,7.78,7.78,0,0,0,1-1c1.25-1.92,2.54-3.81,3.67-5.79,1-1.68,1.72-3.48,2.58-5.23.35-.72.53-1.61,1.57-1.72l0,0a8.88,8.88,0,0,1-.51,1.8c-1.47,2.75-3,5.47-4.5,8.21-.55,1-1.25,2-.5,3.09-1.07,1-2.06,2-3,2.92a1.16,1.16,0,0,0-.32,1.55c1.28-.08,2-1.05,2.87-1.69s1.67-1.35,3-1.06c.12-.72.23-1.33.31-1.95.22-1.49.4-3,.65-4.48a2.39,2.39,0,0,1,.46-.79c.66.44.42,1,.36,1.41-.16,1-.4,2-.56,3a3,3,0,0,0,.31,2.26,9.32,9.32,0,0,0,2.65-3c1.86-2.79,3.7-5.6,5.57-8.39a5.25,5.25,0,0,1,.91-.8,2.55,2.55,0,0,1-.61,2.14c-1.21,1.77-2.45,3.52-3.67,5.28a1.46,1.46,0,0,0-.09,1.88,3,3,0,0,1,.42,1.5c.12,1.9.16,3.8.26,5.69A10.89,10.89,0,0,0,743,437c1.25-.84,2.22-1.57,3.27-2.18a1.74,1.74,0,0,0,1-1.93c-.13-1-.27-1.93-.36-2.9a4.74,4.74,0,0,1,.24-1.17c1.3,2,.81,4.1,1.77,6,.4-.15.9-.19,1.16-.47a27.21,27.21,0,0,0,2.34-2.79c1.25-1.74,2.41-3.53,3.63-5.3.28-.41.55-.9,1.21-.8a2.86,2.86,0,0,1-.81,2.18,1.23,1.23,0,0,0,0,1.7,2.52,2.52,0,0,1,.36,1.51c0,.72-.19,1.45-.24,2.18a9.74,9.74,0,0,0,.06,1.2c.29,0,.42,0,.47-.06a15.12,15.12,0,0,0,3.76-5.51,2.16,2.16,0,0,1,.37-.78,28.13,28.13,0,0,0,3.64-6,73.92,73.92,0,0,0,4.58-11.54c1.06-3.28,1.87-6.66,2.65-10a35.13,35.13,0,0,0,.62-5c.1-1.16,0-2.33.07-3.49a37.1,37.1,0,0,0-.51-8.74c-.29-1.28-.63-2.54-.89-3.82-.18-.86-.26-1.73-.42-2.59a3,3,0,0,1,.32-2.21c.67,3.43,1.42,6.59,1.87,9.79a62.15,62.15,0,0,1,.25,13.15,33.24,33.24,0,0,1-1.47,7.44c-1,3.26-1.72,6.6-2.77,9.83a50,50,0,0,1-5.4,11.48,10.38,10.38,0,0,0-2,5.29c0,.87-.16,1.74-.24,2.61a5.27,5.27,0,0,0,.35,3,5.59,5.59,0,0,0,1-.65,23.36,23.36,0,0,0,1.54-1.76c2.63-3.27,2.45-2.13,1.94-6.25,0-.37-.12-.79.6-1,.22.66.44,1.32.66,2,1,0,1.3-.74,1.64-1.33,1.48-2.52,2.94-5,4.32-7.62a14.61,14.61,0,0,0,2.18-6.45,4.89,4.89,0,0,1,.41-1.39,26,26,0,0,0,1.68-7.22,28.29,28.29,0,0,0,.25-6.1,3.75,3.75,0,0,1,0-.58,42.64,42.64,0,0,0-.56-9.3,89.34,89.34,0,0,1-1.49-9.24,67.69,67.69,0,0,0-1.44-8.18c-.53-2.47-1.19-4.91-1.85-7.35-.48-1.78-1-3.54-1.59-5.3-.29-.93-.61-1.85-.92-2.77-.76-2.22-1.53-4.42-2.27-6.64a2.27,2.27,0,0,1,.13-2.18c.41.94.62,1.93,1,2.86.58,1.6,1.31,3.15,1.86,4.76.83,2.44,1.51,4.94,2.34,7.39a78.24,78.24,0,0,1,3.57,15.49c.3,2.36.73,4.71,1.07,7.08.43,3,.92,6.06,1.18,9.11a54.14,54.14,0,0,1,.1,6.86,46.49,46.49,0,0,1-.64,6.67c-.45,2.33-1.24,4.6-1.87,6.9a26.64,26.64,0,0,1-.72,2.83c-.59,1.48-1.38,2.89-2,4.36a37.23,37.23,0,0,1-4.62,7.78,10.81,10.81,0,0,0-2.27,5.76,6.44,6.44,0,0,1-.34,1.12c-.4-.66.09-1.4-.75-1.81-1.64,1.89-3.79,3.38-4.93,5.83a5.48,5.48,0,0,1,.51.35,4.61,4.61,0,0,1,.37.4,1.85,1.85,0,0,1-.23.45,55.9,55.9,0,0,1-9.26,8.26,27.31,27.31,0,0,1-4.25,2.24,4.78,4.78,0,0,1-2.25.54,4.15,4.15,0,0,0-2.23.45,1.53,1.53,0,0,1-1.24.11,3,3,0,0,0-3.19.14,2.61,2.61,0,0,1-2.38-.12l1.5-.84a1.32,1.32,0,0,0-1.81-.33c-.56.23-1.14.4-1.78.62.07-.46.11-.78.18-1.22-1.64-.45-3.14-1.09-4.84-.27a2.8,2.8,0,0,1-2.62-.35l.83-1.3a5.14,5.14,0,0,0-3.79-1.1c-1,.15-1.2.53-.92,1.74a14.92,14.92,0,0,1-2.42-.74c-2.15-1-4.28-2.11-6.36-3.28s-4.34-2.6-6.5-3.91c-.48-.29-.95-.59-1.43-.9l1.14-1.48a3.29,3.29,0,0,0-3-1.08c-.72.87-.06,1.38.55,1.92-1.21,0-1.41-.59-1.51-1.49-.11-1.08-.93-1.34-1.75-.64-.23.19-.38.47-.62.61-.61.34-1.16,1-2,.53,0-.44,0-.88,0-1.3a1.2,1.2,0,0,0-.94-1.17,8,8,0,0,0-3.92-.41,11.37,11.37,0,0,0-4.37-2c.08,2.16,1,3.09,2.87,3.42,1,.18,2,.54,3,.81C689.27,438.38,687.12,437.34,683.53,433Zm-28.44-75c-.18.15-.34.22-.4.33-1.69,3.35-3.57,6.62-5,10.08A105.39,105.39,0,0,0,646.24,379a39.2,39.2,0,0,0-.13,20.92,5.1,5.1,0,0,0,.24.69,51.94,51.94,0,0,1,2.89,8.12,5,5,0,0,0,1,1.71c.57.75,1.5,1.22,1.57,2.35,0,.31.43.64.73.87,2.79,2.2,5.57,4.41,8.42,6.54a14.29,14.29,0,0,0,2.83,1.46,16.7,16.7,0,0,1,4,1.84,24.27,24.27,0,0,0,2.26,1.42c-.14-2-.19-3.75-.39-5.45-.16-1.29-.53-2.56-.77-3.85-.12-.61-.16-1.24-.21-1.72l-2-1.31-1.26,1.53c-.15-.56-.25-1-.37-1.36s-.14-.8-.36-.92a19.41,19.41,0,0,0-3.73-1.74,2.19,2.19,0,0,1-1.18-.57c-1.92-2.38-4.14-4.5-5.74-7.15a40.44,40.44,0,0,1-3.23-5.37c-.4-1-.61-1.78.29-2.64a3.28,3.28,0,0,0,.34-3.29,13.57,13.57,0,0,0-2.39-2.51,1.75,1.75,0,0,1-.71-2.13,20,20,0,0,0,.38-2.3c.12-1.06.12-2.14.31-3.19.4-2.1.95-4.18,1.34-6.29a29.24,29.24,0,0,1,1.76-5.71,13.18,13.18,0,0,0,1.05-3.18,10.17,10.17,0,0,1,1.66-4c.22-.38.48-.73.71-1.11C656.22,359.34,656.21,359.28,655.09,358Zm130.43-73.26c-.31-.87-.9-.82-1.5-.76a1.84,1.84,0,0,0-1.66,1,4.33,4.33,0,0,1-2.59,2.22,3.31,3.31,0,0,0-1.19.79c-.87,1-1.72,2-2.5,3-1.25,1.68-2.43,3.41-3.64,5.12-.48.69-.94,1.39-1.41,2.09a1.08,1.08,0,0,0,1.6-.12,8.48,8.48,0,0,0,1.11-1.35c3.15-4.49,6.64-8.64,11.37-11.57A2.76,2.76,0,0,0,785.52,284.77ZM758.21,437.66a10,10,0,0,1-.71,1,13.63,13.63,0,0,0-1.18,1.08,4.15,4.15,0,0,0-.43,1.15,3.58,3.58,0,0,0,1.16.38,3.4,3.4,0,0,0,3.29-2.6,12.72,12.72,0,0,0,.39-5.35,6.25,6.25,0,0,0-.43-1c-1.3,1.75-2.9,3-3.64,5Zm-92.44-54c-2.79.69-4.67,4.9-3.66,7.56a2,2,0,0,0,2.13-.88,16.42,16.42,0,0,0,1.63-3.41A4.67,4.67,0,0,0,665.77,383.62Zm59,50,.35.28,2.55-1.76a2.15,2.15,0,0,0,.87-1.61c.24-1.83.51-3.65.75-5.48a3.58,3.58,0,0,0-.2-.87c-1,1.17-1.81,2.15-2.62,3.16-.1.13-.18.42-.1.53.59.9,0,1.46-.54,2A4.76,4.76,0,0,0,724.73,433.63Zm16.75.51c-1.1.14-4.39,2.35-4.76,3.17a.92.92,0,0,0,.64,1.45,11.09,11.09,0,0,0,1.69.45c1,.16,2.53-.6,2.65-1.36A7.53,7.53,0,0,0,741.48,434.14Zm-85.39-31.73a3.13,3.13,0,0,0-.16-2.91,10.46,10.46,0,0,0-1.78-1.58c-1.08.86-1.21,1.17-.73,2.3a16.24,16.24,0,0,0,.86,1.51c.63,1.12,1.86,1.76,2.27,3.11.19.63,1,1.07,1.61,1.65.43-1.14.43-1.27.05-3C657.89,402.07,657.51,401.85,656.09,402.41Zm7.28-31.32-.32-.22a15.05,15.05,0,0,0-2,1,3.44,3.44,0,0,0-1.36,1.4,19.79,19.79,0,0,0-.86,3.67c-.13.76.43,1.12,1.07.69a4.16,4.16,0,0,0,1.38-1.42c.72-1.32,1.3-2.71,1.9-4.09A4.58,4.58,0,0,0,663.37,371.09Zm3.83,30.41a8,8,0,0,0,2.17-4.77c.12-1.18.62-2.43,0-3.7a3.75,3.75,0,0,0-2,2c-.59,1,.4,1.58.63,2.36-.44.19-1,.27-1.14.54a6.58,6.58,0,0,0-.31,2.13C666.53,400.58,666.49,401.23,667.2,401.5Zm74.11,27c-1.92,1.39-2.62,3.31-3.75,4.89-.35.48-.83,1-.55,1.74a1.6,1.6,0,0,0,1.69-.53,7.73,7.73,0,0,1,1.46-1.17,2.61,2.61,0,0,0,1.45-3C741.51,429.91,741.44,429.39,741.31,428.52Zm-23,17.05c-1.26-1.85-2.34-2.05-3.89-.64a14.45,14.45,0,0,0,1.26,1.12c.67.47,1.39.89,2.09,1.31a21.26,21.26,0,0,0,2,1.14c1.12.49,1.72.22,2.45-.92l-2.46-1.79c-.82.88-1.59,1.1-1.9.59Zm-8.61-12.42a1.63,1.63,0,0,0,2.57-1.08,24.15,24.15,0,0,0,.37-3.19c.05-.53,0-1.08,0-1.69-.34.09-.51.08-.6.17-.56.54-1.12,1.08-1.63,1.67-1.31,1.5-1.3,1.51,0,3Zm-38.28-45.56c2.54-1.29,4.13-4.36,3.24-6.09C672.16,382.56,671,384.09,671.42,387.59Zm51.32,42.84c-1.1.3-2.18.56-3.23.9-.28.09-.68.39-.7.63a11.68,11.68,0,0,0,.27,3.74C721.23,434,722.72,431.81,722.74,430.43Zm28.79,16c.81-.87,2.43-1.49,2.65-3.33-.22-.08-.36-.19-.48-.16a10.18,10.18,0,0,0-5.62,3.05c-.08.1,0,.34,0,.45ZM677.9,413.88c.85-.06,1.57-.18,1.79-1.07a12.07,12.07,0,0,0,0-4.28C677.36,408.91,676.66,411.21,677.9,413.88Zm5.3-9.07c-1.27.72-2.27,1.39-2.41,2.75a22.74,22.74,0,0,0,0,2.61c0,.25.18.68.34.71a1.07,1.07,0,0,0,.9-.22,3.81,3.81,0,0,0,.81-1.49c.27-1.17.4-2.38.56-3.58A2.93,2.93,0,0,0,683.2,404.81Zm7.63,11a9.71,9.71,0,0,0-1.52.85,8.68,8.68,0,0,0-1,1.2,1.32,1.32,0,0,0,.08,2.05,2.28,2.28,0,0,0,2.22.75A22,22,0,0,0,690.83,415.79ZM672.48,381l.29.15c.84-.49,1.7-.94,2.49-1.5a2.42,2.42,0,0,0,1.13-2.36.73.73,0,0,0-1-.73,3.09,3.09,0,0,0-.92.38C672.89,377.83,672.77,379.44,672.48,381Zm74.94,55c-.37-.08-.56-.19-.72-.15a9.82,9.82,0,0,0-3.71,2.4,1,1,0,0,0,0,1.54,1.19,1.19,0,0,0,1.68-.1c.76-.81,1.49-1.65,2.18-2.51A5.41,5.41,0,0,0,747.42,435.91Zm-16.54-.45c.37.38.65.7,1,1,.54.51,1.1.6,1.62,0,.74-.91,1.49-1.8,2.18-2.75.15-.21,0-.62,0-.94-.36,0-.81-.13-1,0C733.41,433.56,732.25,434.45,730.88,435.46ZM660.42,379c-1.13-.22-1.65-.07-1.84.85a41.45,41.45,0,0,0-.54,4.46c0,.14.26.31.57.67A40.77,40.77,0,0,0,660.42,379Zm37.67,46.5c1.15-.84,1.3-1.69.55-3.13A1.78,1.78,0,0,0,697,423.9c0,1.06-.77,2.25.25,3.38l1.74-.73Zm48.85,16c-2-.35-3.79.6-4,2.09.71.08,1.42.2,2.13.25C746.82,444,747.28,443.44,746.94,441.53Zm-9.42.48c.88.41,1.63.82,2.43,1.11s1.27,0,1.47-.67c.26-1,0-1.64-.86-1.85A2.53,2.53,0,0,0,737.52,442Zm-59.63-34.13c2-1,2.64-2.46,1.94-4.06C677.89,404,677.11,405.58,677.89,407.88Zm7.22-40.2c2.16.22,3.42-.84,3.61-3A3.35,3.35,0,0,0,685.11,367.68Zm-20.17,37.75a9.28,9.28,0,0,0,0-1c0-.48,0-1-.55-1.22a1.43,1.43,0,0,0-1.58.47,2.73,2.73,0,0,0,.1,2.6.91.91,0,0,0,1.4,0A5.58,5.58,0,0,0,664.94,405.43Zm89,42.3a11.19,11.19,0,0,0,5.08-4.79.71.71,0,0,0-.57.07c-1.13.75-2.23,1.55-3.37,2.28A2.55,2.55,0,0,0,753.94,447.73Zm-7.21-2.55a1.85,1.85,0,0,0-2.15-.14,16.22,16.22,0,0,0-2.32,2.3C744,448,745.3,447.31,746.73,445.18ZM674.82,406c1.77-1.56,2.3-3,1.6-4.26A2.84,2.84,0,0,0,674.82,406Zm-21.1-28.4c.69-1.5.73-2.46.11-3.56a13.86,13.86,0,0,0-1.7,1.3c-.68.68-.59,1.15.21,1.62A11.22,11.22,0,0,0,653.72,377.64Zm3.9-1.84c-2,1.06-2.25,2.17-1,4.24C657.72,379.39,658.19,377.58,657.62,375.8Zm29,38.11-.39-.17a21.24,21.24,0,0,0-1.43,1.58,1,1,0,0,0-.1.93c.49.67,1.09,1.26,1.82,2.07A9.88,9.88,0,0,0,686.59,413.91Zm-21.7-17.19c0-.76-.29-1.18-.8-1.24a3.58,3.58,0,0,0-1.65.26,1.36,1.36,0,0,0-.45,1.89c.35.67,1,.49,1.39.28A10,10,0,0,0,664.89,396.72Zm38.81,37.61a2.69,2.69,0,0,0-.48-.79c-.5-.46-1.28-.33-2,.24a1.46,1.46,0,0,0-.58,1.79.94.94,0,0,0,.5.46A3,3,0,0,0,703.7,434.33Zm-10.58-.41a2.79,2.79,0,0,0,2.57-1.87c-1.13-1-1.77-1.18-2.58-.59C692.49,431.91,692.48,432.58,693.12,433.92Zm-33-28.55c-.53,2.09.32,3.52,2.17,3.79A3.26,3.26,0,0,0,660.15,405.37Zm-3.07-5.54c.12-.53.32-.88.21-1.05a3,3,0,0,1-.26-2.28.84.84,0,0,0-1-1.09,1,1,0,0,0-.92,1.32A6.63,6.63,0,0,0,657.08,399.83Zm94.69,41.82c-.47-.3-.87-.78-1.24-.76a3.79,3.79,0,0,0-1.88.65c-.26.18-.29.87-.2,1.29,0,.2.6.44.91.41A3.36,3.36,0,0,0,751.77,441.65ZM760.09,313c1.34-.24,2.6-1.9,2.89-3.67C761.32,309.15,760.14,310.6,760.09,313ZM732.38,440.3a3.27,3.27,0,0,0,2.79.92c.51-1.49.47-1.81-.28-2.17S733.36,438.93,732.38,440.3Zm-67.19-45.74a6.19,6.19,0,0,0,0-3.59c-1.08.34-1.83.95-1.89,1.81S664.25,394.09,665.19,394.56Zm14.14-24.3L679,370c-1,1.2-1.93,2.38-2.84,3.6-.19.26-.32.84-.17,1,.38.51.75,0,1.11-.21a.57.57,0,0,0,.22-.19A18.63,18.63,0,0,0,679.33,370.26Zm36.45,65.55c.78.13,1.6.28,2-.38a2.44,2.44,0,0,0-.12-2.48A2.52,2.52,0,0,0,715.78,435.81Zm-61-48.61c1.73-.09,2.32-.62,2.07-1.79a1.08,1.08,0,0,0-.6-.68,1.37,1.37,0,0,0-1.73,1.73A5.56,5.56,0,0,0,654.73,387.2Zm81,63.45c.71.51,1.2.88,1.89.53s1.41-.65,2.06-1.06c.49-.3.93-.74.33-1.44Zm-82.44-80.58a7.69,7.69,0,0,0-1.17,4A2.38,2.38,0,0,0,653.28,370.07Zm78.58,67.73-2-.92c-.59,1.6-.51,2,.48,3A2.72,2.72,0,0,0,731.86,437.8Zm62.46-154.42a3.17,3.17,0,0,0-2.48,1c-.68.52-1.83.26-2.25,1.33C792,285.84,793.6,285.08,794.32,283.38Zm-129,117.12c.2-.9,0-1.65-.54-1.71s-1.41.65-1.55,1.46a1.09,1.09,0,0,0,.86,1.15A1,1,0,0,0,665.29,400.5Zm23.42,33.6c-.35.18-1,.3-1.1.6A1.67,1.67,0,0,0,688,436a1.9,1.9,0,0,0,1.84.86C690.13,435.7,689.53,435,688.71,434.1Zm75.6-121c-1.35-.05-2,.5-2.23,1.42-.1.39.16.87.26,1.31.42-.17,1-.23,1.22-.54A10.32,10.32,0,0,0,764.31,313.08Zm-112,85.07c1.81-1,1.11-2.4,1.1-3.61,0-.15-.48-.29-1-.59C652.39,395.48,652.37,396.71,652.34,398.15Zm14.52,6.56c1.94-.41,2.35-1.18,1.72-3.28C667.73,402.43,666.71,403.14,666.86,404.71Zm-5.71-4.1c-.77-.13-1.36-.22-1.74.38a1.92,1.92,0,0,0,.57,2.21C661,402.67,661,401.71,661.15,400.61Zm71.25,45.55a16,16,0,0,0,2.31.48c.55,0,.92-.66.83-1.31-.08-.47-.42-.73-.83-.59A3.86,3.86,0,0,0,732.4,446.16Zm6.31.6a1.33,1.33,0,0,0,1.89-.12,1.83,1.83,0,0,0,.5-2.06C739.88,444.77,739.88,444.77,738.71,446.76Zm-51.63-19.31a1.8,1.8,0,0,0-.52-.08,5.66,5.66,0,0,0-.82.28c-1.37.58-1.44,1.13-.3,2.29C686.38,429.31,686.62,429,687.08,427.45Zm77.17-116.26c.43-.25.91-.36,1.06-.65.45-.83,1.22-1.58,1.07-2.7C765,308.19,764.23,309.34,764.25,311.19ZM679.81,375c-1.72.1-2.4,1-2.11,2.72A2.68,2.68,0,0,0,679.81,375Zm28.33,60.48a3,3,0,0,0-2.69.41c-.2.12-.28.61-.23.89s.41.41.65.43A2.38,2.38,0,0,0,708.14,435.52Zm-46.51-51.75a2.93,2.93,0,0,0-1,3.85C661.63,386.44,661.6,385.18,661.63,383.77Zm8.23,3a4.31,4.31,0,0,0-1.3,4.08,1.48,1.48,0,0,0,1.13-1.34C669.82,388.6,669.81,387.68,669.86,386.75Zm51.66,48.34c1.76.2,2.61-.82,2.11-2.44A3.22,3.22,0,0,0,721.52,435.09Zm15.14,10.51a3,3,0,0,0,2.09-1.49c-.71-.38-1.29-.85-2-.5C736.22,443.83,736.23,444.58,736.66,445.6Zm-78.2-79.75c-1.48.61-2,1.81-1.83,3.86A7.67,7.67,0,0,0,658.46,365.85ZM695.7,428c-1-.86-1.73-.76-2.14.27a.94.94,0,0,0,.05.79,1,1,0,0,0,.76.23A1.61,1.61,0,0,0,695.7,428Zm-3.51-3.24a1.86,1.86,0,0,0,1.58,1,.8.8,0,0,0,1-.64c.15-.56-.28-.8-.69-.92A1.53,1.53,0,0,0,692.19,424.8Zm-2.4,7.38a15.5,15.5,0,0,0,1.11-2.06c.2-.56-.27-.9-.86-.68C689,429.81,688.85,430.61,689.79,432.18Zm42.92,15.61c-.9-.49-1.54-1-2.48-.82a1.55,1.55,0,0,0,.34,1.76c.59.44,1.07-.2,1.57-.44A3.7,3.7,0,0,0,732.71,447.79Zm-66.1-56.35c1.09-1.1,1.27-2.1.64-3.17C666.34,389.11,666.19,389.79,666.61,391.44Zm-11-23.17c-1.85.78-2,1.58-.69,2.71A3.74,3.74,0,0,0,655.66,368.27Zm106.47-50.44a2,2,0,0,0-.66,2.93A2.29,2.29,0,0,0,762.13,317.83Zm-81.34,96.26a2.17,2.17,0,0,0,.43,2.32c.12.16.46.35.58.29a1,1,0,0,0,.46-.63A2.07,2.07,0,0,0,680.79,414.09Zm90-114c-1.43.23-1.88.73-1.85,2.08C770.22,302.13,770.78,301.51,770.82,300.11Zm-75.45,59c-1.85,0-2.55.67-2.51,2.29A5,5,0,0,0,695.37,359.13ZM653.6,378.75l-.21-.41-1.56-.22a1.72,1.72,0,0,0,.73,2.05Zm45,50.26c-.78-.19-1.24-.21-1.38.46a.9.9,0,0,0,.62,1.13c.43.07,1.24-.38,1.22-.81S698.72,429.16,698.63,429Zm63-103a5.57,5.57,0,0,0-.1-3.47C760.46,323.55,760.46,324.26,761.6,326.05Zm-58.25,103.5c.09-.83.27-1.53-.3-2.24a1.37,1.37,0,0,0-1,1.29C702.07,429.23,702.64,429.39,703.35,429.55Zm-18-59.75c-1.79-.36-2.43.28-2.14,1.87C684.19,371.45,684.55,370.57,685.32,369.8ZM679.41,418c.55-1.1.32-1.73-.28-2.24-.15-.13-.55-.22-.63-.14s-.33.56-.25.72A14.77,14.77,0,0,0,679.41,418Zm11.19,7.67c-.62,0-1.18.15-1.36.78-.06.2.25.62.49.76a1,1,0,0,0,.9,0A1.08,1.08,0,0,0,690.6,425.63Zm-5.07-5.9a1,1,0,0,0-.77-1.38,1,1,0,0,0-.85.28c-.24.35.3,1.34.77,1.39C685,420.05,685.33,419.8,685.53,419.73ZM724.67,437c.69-1,1.58-1.43,1.66-2.53C724.6,434.77,724.41,435,724.67,437Zm-8.36,5.5a8,8,0,0,0,1.24-.61c.22-.17.47-.57.41-.78a.72.72,0,0,0-1.08-.39A1.2,1.2,0,0,0,716.31,442.47Zm-51.4-31.83a14.89,14.89,0,0,0,.1-1.73c0-.17-.3-.48-.42-.47a1,1,0,0,0-.67.41C663.65,409.33,664,410,664.91,410.64ZM739.8,451a4.65,4.65,0,0,0,3.46-1.84C741.57,449.17,740.94,450.56,739.8,451Zm-53.35-28.41c-.46-.23-.84-.58-1.22-.57-.56,0-.88.47-.87,1.12C685.15,423.61,685.76,423.41,686.45,422.55Zm-33.73-38-.85-1.27c-.23.18-.61.32-.67.55-.11.45-.18,1.05.4,1.23C651.84,385.13,652.2,384.79,652.72,384.54ZM705,426.32c.66-1.47.66-1.47-.07-2.13C703.94,425.4,703.94,425.66,705,426.32Zm23.52,10.58L726.6,438l2,1.15C728.57,438.28,728.53,437.77,728.48,436.9Zm-7.38,7.6c.09.77.48.92,1,.8.65-.16.9-.64.87-1.55Zm.29-5.07c-1.09-.57-1.29-.5-2.06.58C720.23,440.64,720.42,440.6,721.39,439.43Zm8.64,5.24a2,2,0,0,0,1.89-.76C730.87,443.23,730.5,443.36,730,444.67Zm-47.38-16.94c.56-.49.58-1,.14-1.41a.63.63,0,0,0-.62.07C681.74,426.94,682,427.36,682.65,427.73Zm20,2.95c-.65-.42-1.26-.58-1.84.11C701.66,431.8,702,431.78,702.68,430.68Zm26.57,18,.35-.32c-.19-.32-.31-.79-.6-.94s-.8,0-1.13.6ZM687.7,424.25l-.36-.29-1.42.62,1.28,1C687.42,425,687.56,424.64,687.7,424.25Zm16.76,5.42c.65-1,.37-1.72.1-2.72A3,3,0,0,0,704.46,429.67Zm-9.75,5.19c1,.36,1.32.15,1.34-1A1.27,1.27,0,0,0,694.71,434.86Zm16.2,1.44c-1.64.35-1.78.56-1.19,1.78Zm4.39,3.1a1,1,0,0,0-1.44.41c-.06.09.06.4.18.48.42.3.94,0,1.31-.69C715.37,439.57,715.33,439.51,715.3,439.4Zm-4.24,2.71a2.22,2.22,0,0,0,1.77,1.57c.12,0,.32-.34.51-.56Zm49.18-127.74c-.53.34-1,.47-1.07.73s.12.65.2,1c.25-.16.59-.26.72-.48A4.29,4.29,0,0,0,760.24,314.37Zm-73,117.12,1.27.48c.28-.55.43-1-.1-1.22S687.5,430.79,687.26,431.49Zm40.26,8.74c-.57-.58-.94-1.08-1.7-.82C726.19,440.51,726.19,440.51,727.52,440.23Zm-59.4-28.67a1.54,1.54,0,0,0-.19-2A1.4,1.4,0,0,0,668.12,411.56Zm21.43,10.13c-.35-.58-.66-.95-1.22-.64a.64.64,0,0,0-.19.59C688.51,422.25,689,422.09,689.55,421.69Zm-28.94-27.85c-1.14.25-1.22.42-.76,1.53C660.56,395.08,660.67,394.53,660.61,393.84Zm21.53,19.53a.81.81,0,0,0,.05-1.24C681.19,412.64,681.19,412.64,682.14,413.37Zm51.64,29.27c-.35-.39-.7-.72-1.15-.21a.78.78,0,0,0,0,.73C733.18,443.47,733.52,443.19,733.78,442.64Zm-53-17.45c.18-.66.25-1.2-.45-1.37a.78.78,0,0,0-.61.44C679.64,424.9,680,425.18,680.77,425.19Zm10.8,7.32-.75.59c.18.24.33.57.58.69s.47-.15.71-.25C692,433.24,691.79,432.94,691.57,432.51ZM653.1,391.35c.61-.73.88-1.23.43-2C652.81,389.79,652.7,390.32,653.1,391.35Zm2,2.86c.33-.26.55-.35.59-.49a2.19,2.19,0,0,0,.05-.81c0-.05-.33-.15-.37-.1a2.05,2.05,0,0,0-.45.65C654.85,393.6,655,393.81,655.08,394.21ZM757,442c-.83,0-1.41,0-1.5,1A1.31,1.31,0,0,0,757,442Zm-11.95,5.66.12.33c1.12.27,1.23.19,1.21-1Zm-59.51-21.32c-.26-.29-.4-.55-.61-.65s-.36.18-.54.28c.13.23.21.52.4.64S685.22,426.46,685.57,426.32Zm-5.91-5.57a.81.81,0,0,0-1.2.41c0,.1.13.31.2.47l1-.59S679.66,421,679.66,420.75Zm-23.16-31.6-.45,0c-.51.47-.49.91.37,1.58C656.46,390,656.48,389.58,656.5,389.15Zm41.46,45c1.17-.26,1.18-.27.8-1.14A1,1,0,0,0,698,434.12Zm2.86-6.33c.51-.17.75-.44.49-.94a.42.42,0,0,0-.37-.11C700.41,427,700.51,427.36,700.82,427.79Zm-45.6-48.13c-.31.44-.6.88-.16,1.47C655.93,380.71,655.64,380.19,655.22,379.66Zm104.17-60.11c-.94.82-.94.83-.26,1.77C759.22,320.69,759.29,320.22,759.39,319.55ZM720.26,442.49c-1,.25-1,.25-.76,1.35Zm-32.83-13c.54-.12.93-.24.93-.78,0-.11-.25-.33-.36-.32C687.49,428.46,687.32,428.81,687.43,429.48Zm34.32,7.81-.07-.42c-.49-.25-.89-.19-1.44.58Zm-40-12.93c.39-.2.59-.47.33-.88a.53.53,0,0,0-.49,0C681.3,423.79,681.33,424.11,681.78,424.36ZM671,390.14a1,1,0,0,0-.29,1.38A.87.87,0,0,0,671,390.14Zm73.4,60.1c.89.1.89.1,1.4-.6Zm-37.63-18.19-.15-.45a7.13,7.13,0,0,0-.78.26s.09.3.14.46Zm29.61,16.89c.63.14,1,.07,1.12-.49C737,448.14,736.68,448.25,736.4,448.94Zm-54.14-28.68-.34-.65c-.18.1-.48.19-.49.31a.77.77,0,0,0,.3.53C681.79,420.5,682,420.35,682.26,420.26Zm60.82,21.47-.35-.49c-.13.11-.35.19-.37.32s.13.3.21.46ZM672.67,410.5l-.26,0,0,.79.27,0ZM726,443.15c0-.13-.06-.26-.08-.39l-.78.15c0,.13.07.38.08.38C725.43,443.26,725.69,443.2,726,443.15Zm9.59,6.51c-.15-.16-.25-.34-.31-.33a1.71,1.71,0,0,0-.47.23c.09.13.18.35.27.36S735.33,449.78,735.54,449.66Zm2-9.21c-.08-.18-.14-.39-.18-.39a3.1,3.1,0,0,0-.6.15c.08.14.13.38.23.41S737.33,440.53,737.55,440.45ZM714.85,438l.14.35.68-.38-.11-.21Zm-49-28.06.24,0,.22-1-.34-.06ZM727.78,446l-.24-.31-.77.63.16.24a3.41,3.41,0,0,0,.63-.24C727.66,446.29,727.71,446.13,727.78,446Zm-60.1-39.41c-.14-.08-.27-.21-.33-.18a.53.53,0,0,0-.23.3s.19.22.24.2S667.55,406.76,667.68,406.61ZM656,383.05c-.13-.19-.22-.4-.27-.39a1.13,1.13,0,0,0-.46.24s.1.32.15.32A2.12,2.12,0,0,0,656,383.05Zm40.28,46.69-.43.22.29.56c.11-.08.31-.15.31-.22A1.84,1.84,0,0,0,696.27,429.74Zm-38.52-40.11.21.07c.06-.12.17-.23.18-.36a1.22,1.22,0,0,0-.12-.4l-.22,0C657.78,389.19,657.77,389.41,657.75,389.63Zm2.72,7.31c-.13.12-.28.2-.29.3s.12.22.18.33c.12-.1.27-.17.34-.3S660.57,397.08,660.47,396.94ZM699,435.37a2.93,2.93,0,0,0-.49.37s.1.22.16.34a2.37,2.37,0,0,0,.47-.26S699.08,435.6,699,435.37Zm2.46,2.74c-.15.14-.32.21-.33.31s.12.22.19.34c.1-.08.27-.14.3-.23S701.54,438.3,701.46,438.11Zm21.4.32.22.1c.07-.17.14-.33.2-.5l-.2-.11Zm29.68,10.7.28-.18a1.72,1.72,0,0,0-.27-.27s-.21.13-.2.15A1.37,1.37,0,0,0,752.54,449.13Zm-92.09-57.58a2,2,0,0,0-.37.27c0,.05,0,.25.06.25s.29,0,.35-.06S660.48,391.77,660.45,391.55Zm17.74,27.61c.15-.11.33-.19.33-.26a.51.51,0,0,0-.21-.34s-.29.09-.3.16S678.11,419,678.19,419.16Zm33.49,18.2s.1,0,.12,0,0-.08,0-.12-.1,0-.12,0S711.68,437.32,711.68,437.36Zm-36.06-97.29.27-.28c-.06-.06-.15-.19-.19-.18a1.54,1.54,0,0,0-.3.22ZM677.08,380c0-.07,0-.19-.06-.21s-.15,0-.23,0l.08.29Z" transform="translate(-642.61 -268.97)"/><path class="a" d="M738.81,416.91c0-.47-.14-1,.06-1.4a75.13,75.13,0,0,0,4.35-9.8c1.5-3.94,2.68-8,4-12h0a1.17,1.17,0,0,1,.37,1.32c-.25,1-.44,2-.77,3-1.19,3.41-2.35,6.83-3.67,10.18-1,2.5-2.14,4.92-3.28,7.35a7.59,7.59,0,0,1-1.09,1.35Z" transform="translate(-642.61 -268.97)"/><path class="a" d="M708.86,335a2,2,0,0,1,1.78-1,1.52,1.52,0,0,1-1.81,1Z" transform="translate(-642.61 -268.97)"/><path class="a" d="M811,404l1.85,2c.79-1.32.81-3,1-4.57.17-1.78-1.36-2.79-2-4.35,1.1,0,1.38,1,2.23,1.15.7-.45.6-1.2.55-1.91-.13-1.78,0-3.6-.66-5.32a4.38,4.38,0,0,1-.1-1.16c.32.24.54.33.58.47.71,2.32,1.44,4.73,1.12,7.13s-.22,4.78-1.16,7a16,16,0,0,0-.38,1.85,16.24,16.24,0,0,1-.66,1.76c-.16.41-.38.79-.55,1.19-.69,1.71-1.36,3.43-2.06,5.14a2.52,2.52,0,0,1-.3.45c-.14,0-.27.08-.33,0-1.33-.89-1.65-.86-2.67.32l-1.76,2c.55.78,1,.18,1.32.08-.14.68-.29,1.34-.46,2.14-2.54,1-4.55,2.58-4,5.88-.46.24-1-.1-1.3.43a21.36,21.36,0,0,1-4.24,4.41,25.2,25.2,0,0,0-1.75,2c-.26.28-.53.69-.85.76-1,.19-1.54,1-2.26,1.52s-1.26,1.07-1.1,2.06a1,1,0,0,1-.31.78c-1,.85-2,1.67-3.06,2.47-.65.5-1.36.91-2,1.4s-1.42,1.16-2.3,1.89l-.33-1.41c-.53.28-1,.5-1.43.75a13.37,13.37,0,0,0-1.58,1,2.27,2.27,0,0,0-.7.87,11.5,11.5,0,0,0-.45,1.58,13.76,13.76,0,0,1-10,1.92,3,3,0,0,0-3.2.81c-.18.22-.15.61-.24,1l-.84,0c-.11-.43-.21-.83-.31-1.19a64.65,64.65,0,0,0,4.87-4.27l-1.09-1a9,9,0,0,1,2.75-2.84,3.34,3.34,0,0,0,1.9-2.59c.08-.65.34-.9,1.07-.81a1.71,1.71,0,0,0,2-1.79c0-.59-.08-1.17-.09-1.76a3.67,3.67,0,0,1,.62-2.27c.67.16,1.35.71,2.12.1.15-.12.66.22,1,.36.06,0,.2-.06.22-.12.57-1.6,1.76-3.15.38-4.9-.09-.11-.2-.2-.34-.34-1.18.17-1.56,1.71-2.9,1.8.05-.8.73-.95,1.16-1.25a2.64,2.64,0,0,0,1.15-3.32c-.15-.43-.25-.87-.41-1.48,1.25.22,1,1.46,2,1.9,1-.64,2.23-1.32,2.26-2.65a3.78,3.78,0,0,0-1.81-3.69c-.29-1.42-.56-2.71-.83-4,.19-.05.4-.16.43-.11.74.95,1.81,1.68,1.86,3.07a2.28,2.28,0,0,0,1.06,2,3.87,3.87,0,0,0,1-3c0-.28-.6-.57-1-.95a2.64,2.64,0,0,0-.38-3c-.55-.7-.88-.81-1.58-.29-.5.37-.94.84-1.41,1.26l-1.59,1.41-.28-.27c.47-.51.93-1,1.42-1.52a9.62,9.62,0,0,1,.8-.63c1.05-.82,1.71-1.75.92-3.13-.07-.11.06-.34.13-.66a6.26,6.26,0,0,0,.86.65c.19.1.54.15.66,0s.38-.57.3-.72a11.75,11.75,0,0,0-1.28-1.93c-.11-.15-.53-.13-.79-.08a4.54,4.54,0,0,0-1,.52c.42-1.13,1.4-1.85.54-3.05,2.08.07,2.53-1.85,4.07-2.9a3.81,3.81,0,0,1-.21,1.14,10.21,10.21,0,0,1-1.21,1.64c-.95,1-.64,1.94-.1,2.93a7.4,7.4,0,0,0,.71.88,3.8,3.8,0,0,0,2-3c.14-3.16.57-6.31.07-9.49-.48-3-.94-6-1.2-9s-1.49-5.62-2.16-8.44q-.67-2.85-1.45-5.66c-.36-1.32-.77-2.62-1.25-3.9-1.45-3.84-2.31-7.84-3.42-11.78-.33-1.17-.72-2.32-1-3.49-.16-.59-.23-1.2-.34-1.8l.36-.12c.15.37.33.73.44,1.1.87,3,1.73,6.1,2.6,9.14,0,.05,0,.1,0,.15.4,1.23.64,2.61,2.52,2.62-.4.51-.83.81-.9,1.19a2.84,2.84,0,0,0,.31,1.25c.3.88.59,1.76.93,2.63a35.68,35.68,0,0,1,1.85,6.9c.25,1.38.87,2.69,1.2,4.06.63,2.64,1.2,5.3,1.75,8a36.67,36.67,0,0,1,.63,3.75c.16,1.54.32,3.08.52,4.61.17,1.37-.19,2.8-.16,4.2,0,1.11.44,2.22.4,3.31a21,21,0,0,1-.7,3.08,12.7,12.7,0,0,0-.2,2,3.8,3.8,0,0,0,.22.94l1.74-1.52.22.18a2.41,2.41,0,0,1-.18.77,11.75,11.75,0,0,1-1.07,1.57,7.31,7.31,0,0,0-1.68,6.84,2.18,2.18,0,0,0-1.19,2.39c.29-.08.62-.07.77-.23.94-1.05,1.85-2.13,2.76-3.21a1.19,1.19,0,0,0,.31-.49c.15-.86.37-1.63,1.45-1.66a7.76,7.76,0,0,0,1-2.2c.42-3.82.81-7.66,1-11.5.12-2.07-.18-4.17-.26-6.26,0-.6-.22-1.27.47-1.85a3.44,3.44,0,0,1,.39.76,7.27,7.27,0,0,1,.23,1.59c0,3,0,6,0,9.06a42.72,42.72,0,0,1-.47,4.49c-.1.81.07,1.43.82,1.72-.14.89-.55,1.77-.33,2.45a11.55,11.55,0,0,0,1.68,2.57,6.51,6.51,0,0,0,2.29-2.36c.18-.24-.09-.89-.26-1.31-.28-.67-.67-1.29-.95-2-.08-.21,0-.5.12-1l1.36,1.57a3,3,0,0,0,.71-2.16c.15-3.21.32-6.42.39-9.63a26.59,26.59,0,0,0-.35-3.19c-.14-1.35-.28-2.71-.4-4.06a3.71,3.71,0,0,1,.23-.79,4.61,4.61,0,0,1,.44.93,45.69,45.69,0,0,1,.91,4.89c.14,1.63,0,3.29,0,4.94,0,2,0,3.95,0,5.95a4,4,0,0,0,.88.18,1.49,1.49,0,0,1,1.6,1c.57,1.34,1.1,2.7,1.64,4.05l1.24,3c.38-.52.66-.75.74-1a31.61,31.61,0,0,0,.89-3.7,3,3,0,0,0-.34-1.79c-.7-1.28-1.54-2.48-2.31-3.72a2.43,2.43,0,0,1-.2-.54c.53-.41.86-.14,1.13.23.53.71,1,1.43,1.55,2.14.22.3.47.58.74.91.23-.19.46-.29.5-.44.47-1.46,1-2.92,1.3-4.41.11-.5-.24-1.1-.4-1.65-.08-.27-.2-.53-.34-.9,1.48-.46,1.46-1.69,1.44-2.85a24.64,24.64,0,0,0-.7-6.93c-.76-2.5-1-5.17-2-7.6-.49-1.17-1-2.31-1.58-3.44-1.07-2.19-2.23-4.34-3.23-6.56-1.27-2.83-3.33-5.14-4.88-7.79-.64-1.09-1.26-2.19-2-3.24a17.68,17.68,0,0,0-1.58-1.9,6,6,0,0,1-.89-1.1c1.11,1.12,2.81,1.56,3.42,3.27a9.58,9.58,0,0,0,1.38,1.87c1.39,2.05,2.8,4.09,4.13,6.18.66,1,1.16,2.13,1.75,3.2,1,1.93,2.12,3.84,3.14,5.78a16.11,16.11,0,0,1,.82,2c.37,1,.72,2,1.08,3a3.55,3.55,0,0,1,.21.54c.77,3.82,2.08,7.53,2.24,11.46a12.85,12.85,0,0,1-.18,1.73c-.18,1.69-.46,3.39.51,5a1.57,1.57,0,0,1,0,1.67l-1.16-1.15c-.29.64-.52,1-.66,1.47a14.85,14.85,0,0,1-.69,2.35,5,5,0,0,0,0,4.47c.43,1,1,1.19,1.68.35a25.6,25.6,0,0,0,2.12-2.95c.24-.39.35-1.28.13-1.46C811.37,406.29,811.43,405.05,811,404Zm-10.94,3.3-.4.17c-.52,1.81-1,3.62-.23,5.51.27.68.5,1.37.75,2.06l1.4,3.78a2.45,2.45,0,0,0,2.21-3.2c-.23-.7-.51-1.38-.68-2.09a18.53,18.53,0,0,0-2.11-5.27A5.67,5.67,0,0,0,800.07,407.3Zm-5.36,10.21a5,5,0,0,0-2.62,2.05c-.49.66.2,3.35.9,3.74l.13.05a2.22,2.22,0,0,0,2.8-1.92A8.05,8.05,0,0,0,794.71,417.51Zm-10.16,11.68-.3,0a5,5,0,0,0-.12-.53c-.26-.83-.67-1-1.36-.56s-.84,1-.59,2.05a1.36,1.36,0,0,0,2.39.75,12.18,12.18,0,0,0,1.5-2.45c.19-.37.3-.93-.31-1.07a.84.84,0,0,0-1.06.73C784.62,428.45,784.6,428.82,784.55,429.19Zm-10.39,17.14c-.39-1-.72-1.82-1-2.65s-.63-.91-1.31-.54a3,3,0,0,0-1.42,2.93.89.89,0,0,0,.52.58C772.06,446.83,773.21,447,774.16,446.33Zm15.35-29.59c-.13,0-.32-.05-.4,0-.8.71-1.61,1.4-2.35,2.17a1.06,1.06,0,0,0-.12.94,4.41,4.41,0,0,0,1.41,1.95A5.7,5.7,0,0,0,789.51,416.74Zm3-3.81c-1.31,2.56-1.63,4.28-1,5.56a3.84,3.84,0,0,0,2.44-2.62C794.22,414.79,793.38,413.82,792.46,412.93Zm-7.87,12.14c3-1.14,3.09-3,1.16-4.59-.68.27-1.36.7-1.4,1.46A20.88,20.88,0,0,0,784.59,425.07ZM791,421.3a3.31,3.31,0,0,0-2.19,2.82.82.82,0,0,0,1.12.9,4.57,4.57,0,0,0,1.38-.45c.27-.16.6-.63.54-.87A23.63,23.63,0,0,0,791,421.3Zm-6.25,15.09c-1.18-.07-1.73.29-1.91,1.12a2.63,2.63,0,0,1-1.07,1.65,1.36,1.36,0,0,0-.71,1.42,1.13,1.13,0,0,0,1.43-.5c.54-.74,1.1-1.47,1.6-2.24A10.31,10.31,0,0,0,784.75,436.39ZM795.6,430c2-1.27,2.25-2,1.33-3.3C794.76,427.15,794.36,428.09,795.6,430Zm-9.06,0a2.85,2.85,0,0,0,2.2-.61c.52-.52.15-2.19-.54-2.38a.7.7,0,0,0-.63.21A6.83,6.83,0,0,0,786.54,430Zm-1.29-22.17c-.36.49-.53,1-.87,1.15a1.08,1.08,0,0,0-.65,1.61c.26.61.32,1.35,1.22,1.37A5.29,5.29,0,0,0,785.25,407.79Zm12.92,16.71c.94-.71,1.85-1.35,2.7-2.06.4-.34.33-.78-.3-1.21-.83.53-1.75,1-2.59,1.69C797.51,423.28,797.5,423.83,798.17,424.5Zm-1.45-5.75a7.09,7.09,0,0,0,.51-4.21C795.27,415.79,795.14,416.89,796.72,418.75Zm-4.23,6.83a3.81,3.81,0,0,0-2.64.77c-.23.18-.22.78-.14,1.16a.87.87,0,0,0,.78.32A3.32,3.32,0,0,0,792.49,425.58Zm6.27-10.72c-.17,1.6-.3,2.9-.45,4.36C800.09,418.11,800.23,416.74,798.76,414.86Zm-20.13,30.62.15-.45c-.29-.32-.61-.91-.88-.89a3.14,3.14,0,0,0-1.4.7c-.38.26-.84.54-.57,1.35Zm14-16.58c-2,.26-2.43,1-1.62,2.49A2.9,2.9,0,0,0,792.64,428.9Zm14.92-17a3.5,3.5,0,0,0-.93,2.86C808.24,413.81,808.44,413.24,807.56,411.87Zm-18.94,21.46c1.47-.2,1.63-1,.54-2.49C789,431.67,788.81,432.42,788.62,433.33Zm-11.91.9.42.2,1.23-.95c-.54-.51-1-.79-1.49-.37C776.66,433.3,776.76,433.84,776.71,434.23Zm21.87-7.6c1-.72,1.13-1,1.09-1.93C798.08,425.56,798.08,425.56,798.58,426.63Zm-13.32,11,.24.25c1.52-.46,1.7-.69,1.15-1.8C786.15,436.68,785.71,437.18,785.26,437.67Zm1.2-4.34c-.65.23-1,.26-1.21.45s-.35.64-.25.82c.25.45.69.31,1,0A6,6,0,0,0,786.46,433.33Zm-7.34,5.38-.23-.24c-1.48.53-1.55.61-1.44,1.76ZM782,424.48c-.78-.09-1.06.26-1.09.78s0,.94.84,1C781.84,425.65,781.92,425.08,782,424.48Zm-8,14.75c1.24-.34,1.24-.34,1.4-1.13C774.49,438.33,774.49,438.33,774,439.23Zm-2,2.07-.28-.31c-.61.15-1.2.32-1.2,1.54Zm37.92-27.52a1.41,1.41,0,0,0,.32-1.38C809.79,412.84,809.46,413.17,809.92,413.78Zm-26.78,12.33.45,0c0-.3,0-.6-.05-.9h-.32C783.19,425.5,783.17,425.8,783.14,426.11Zm17.42-6.26c-.12-.11-.23-.23-.34-.35l-.61.62.37.36ZM790.06,437l-.28-.26c-.18.22-.37.44-.55.67l.21.17Zm4.4-6.49-.36-.15-.3.74c.12,0,.34.12.36.09A7,7,0,0,0,794.46,430.5ZM774.6,441.24l.34.14.16-.71-.24-.07Zm3.7-.28.13.19.55-.36-.13-.2Zm10.4-5.6c-.11-.12-.21-.29-.27-.27a.36.36,0,0,0-.28.25c0,.09.12.21.19.31Zm-5-2.4-.12-.25a1.48,1.48,0,0,0-.32.21s.08.18.13.27Zm2.94-7.88-.32.25.24.25a1.8,1.8,0,0,0,.26-.29S786.75,425.17,786.67,425.08Z" transform="translate(-642.61 -268.97)"/><path class="a" d="M757.72,423.91c.21-.62.4-1.25.64-1.87,1.11-2.8,2.09-5.67,3.38-8.39a40.7,40.7,0,0,0,2.35-7.95c.28-1.13.68-2.23.89-3.38.51-2.72,1.08-5.45,1.37-8.21s.29-5.63.42-8.45a2.79,2.79,0,0,1,0-.58c.63-2.7.32-5.44.22-8.15-.09-2.32-.5-4.63-.74-6.95a35.57,35.57,0,0,1-.34-4.37,22.26,22.26,0,0,0-.95-6.18,3.05,3.05,0,0,1-.09-1.35,19.13,19.13,0,0,1,1.68,7.16c0,.92.09,1.85.18,2.77.3,3.1.6,6.2,1,9.29.47,4.24,0,8.47-.19,12.7a93.06,93.06,0,0,1-2.29,15,77.74,77.74,0,0,1-6.1,17.18c-.24.52-.49,1.05-.76,1.57-.06.11-.21.18-.32.27Z" transform="translate(-642.61 -268.97)"/><path class="a" d="M751.9,421.63c.23-.52.45-1,.71-1.55,1.4-2.84,2.94-5.61,4.19-8.52,1-2.36,1.67-4.88,2.5-7.32a18.61,18.61,0,0,0,.84-2.09c.16-.68,0-1.43.11-2.14.37-3,.82-6.08,1.14-9.13s.53-6.36.76-9.55c.06-.77,0-1.56,0-2.33a4.29,4.29,0,0,1,.29-1l.35,0c0,1.29-.1,2.57,0,3.85.12,2.92-.64,5.8-.28,8.73a15.27,15.27,0,0,1-.24,3.49,64.69,64.69,0,0,1-3.47,15.8,29,29,0,0,1-3.38,6.78c-1.15,1.62-2.08,3.4-3.1,5.11Z" transform="translate(-642.61 -268.97)"/><path class="a" d="M687.78,349.74a13.06,13.06,0,0,1,1.61-1.63A74,74,0,0,1,701,341.4c3-1.37,6.08-2.33,9.06-3.62,2.32-1,4.81-1.56,6.92-3.09a18.54,18.54,0,0,1,3.27-1.45L716,336a4.48,4.48,0,0,1-.65.34c-2.09.9-4.23,1.71-6.28,2.71-3.27,1.6-6.8,2.58-10,4.5-2.44,1.49-5.05,2.69-7.43,4.31-.28.18-.65.22-.94.39a2.72,2.72,0,0,0-1,.72,1.45,1.45,0,0,1-2,.72Z" transform="translate(-642.61 -268.97)"/><path class="a" d="M743,383.16c.19-1,.32-2,.58-3q1.53-5.72,3.14-11.4c.95-3.32,1.95-6.62,2.95-9.91.31-1,.7-2,1.08-3,0-.11.21-.16.37-.28.53.45.38,1,.22,1.47-1.14,3.57-2.3,7.13-3.41,10.7-.52,1.67-.94,3.37-1.39,5.06-.7,2.64-1.32,5.29-2.11,7.9a13,13,0,0,1-1.45,2.51Z" transform="translate(-642.61 -268.97)"/><path class="a" d="M752.13,330.33a8.62,8.62,0,0,1-1.2,3.54c-1.22,2.38-2.47,4.74-3.72,7.11-.46.86-.88,1.75-1.42,2.56-1.71,2.57-2.67,5.52-4,8.26a7.28,7.28,0,0,1-2.27,2.93,2.3,2.3,0,0,1,.07-.84c.52-1,1.1-1.95,1.64-2.92a27.62,27.62,0,0,0,1.52-2.83,46.72,46.72,0,0,1,3.67-7.14c1.39-2.28,2.49-4.74,3.69-7.13.6-1.21,1.15-2.45,1.72-3.67Z" transform="translate(-642.61 -268.97)"/><path class="a" d="M741.33,331.18c.33-.54.63-1.12,1-1.64.92-1.25,1.94-2.44,2.81-3.74s1.63-2.76,2.44-4.15c.15-.25.21-.66.42-.75,1.45-.63,1.63-2.22,2.54-3.25,0,0,.09,0,.13,0C750.75,320.37,744.27,329.13,741.33,331.18Z" transform="translate(-642.61 -268.97)"/><path class="a" d="M758.08,381.08a6.5,6.5,0,0,1,.57,2.06,57.14,57.14,0,0,1-1.8,11.39c-.43,1.49-.74,3-1.14,4.52-.12.44-.12,1-.9,1.21a5.88,5.88,0,0,1,0-1.13c.49-2,1-4,1.51-5.95a44.53,44.53,0,0,0,1.53-9.93c0-.73.15-1.45.23-2.18Z" transform="translate(-642.61 -268.97)"/><path class="a" d="M753.55,405.11c-.3.81-.57,1.63-.91,2.42-1.26,2.94-2.53,5.87-3.85,8.79a3.74,3.74,0,0,1-2.07,2.05,4.33,4.33,0,0,1,.26-1.11c1.18-2.17,2.45-4.3,3.58-6.49a20.16,20.16,0,0,0,1-3A4.5,4.5,0,0,1,753.55,405.11Z" transform="translate(-642.61 -268.97)"/><path class="a" d="M747.22,393.69q1.71-6.66,3.43-13.31a4.2,4.2,0,0,1,.36-1.12,5.14,5.14,0,0,0,.7-2.93,3.59,3.59,0,0,1,.53-1.72,13.6,13.6,0,0,1-1.17,6.16,4.86,4.86,0,0,0-.32,1.26c-.31,1.52-.57,3.06-.91,4.57s-.85,3.21-1.21,4.82a3.19,3.19,0,0,1-1.43,2.28Z" transform="translate(-642.61 -268.97)"/><path class="a" d="M792.19,366.91a2.26,2.26,0,0,1,1.59,1.39c.87,2.2,1.84,4.37,2.52,6.64a31.1,31.1,0,0,1,.71,4.86c.08.62.09,1.26.13,1.88h0a4.62,4.62,0,0,1-.59-1,17.71,17.71,0,0,1-.73-3.25c-.17-2.59-1.51-4.8-2.13-7.24a19.4,19.4,0,0,0-1.5-3.29Z" transform="translate(-642.61 -268.97)"/><path class="a" d="M755.94,304.14c-.3,2.84-7.16,12.62-9.62,14.12.08-.27.08-.47.18-.59,1.22-1.45,2.46-2.88,3.69-4.32a4.06,4.06,0,0,0,.73-.9,23.44,23.44,0,0,1,2.86-4.56,22.57,22.57,0,0,0,1.18-2.17C755.27,305.18,755.61,304.67,755.94,304.14Z" transform="translate(-642.61 -268.97)"/><path class="a" d="M802.1,383.06c1.31,2.55,2.68,5.09,2.85,8a45.85,45.85,0,0,1-.17,4.68h-.33c-.25-2.14-.35-4.31-.8-6.41s-1.27-4.13-1.93-6.2Z" transform="translate(-642.61 -268.97)"/><path class="a" d="M726.11,392.9a14.48,14.48,0,0,1,1.07-2.19c1.21-1.62,1.73-3.56,2.66-5.31a.4.4,0,0,1,.07-.13,7.82,7.82,0,0,0,2.15-3.85c0-.06.16-.09.38-.2a2.69,2.69,0,0,1,.22.89,3.15,3.15,0,0,1-.47,1.36c-1.5,2-2.36,4.33-3.53,6.5a22.31,22.31,0,0,1-1.68,2.54C726.86,392.68,726.56,392.71,726.11,392.9Z" transform="translate(-642.61 -268.97)"/><path class="a" d="M790.88,379.8c.73,3.31,1.78,6.56,1.8,10a1.35,1.35,0,0,1-.48,1,17.48,17.48,0,0,1-.52-1.7c-.43-2.44-.83-4.88-1.25-7.31-.13-.74-.29-1.46.48-2Z" transform="translate(-642.61 -268.97)"/><path class="a" d="M696.78,351.57a2.29,2.29,0,0,1-1.06,2.25c-1.45,1.05-2.9,2.1-4.34,3.17-.54.4-1,.88-1.6,1.26a4.94,4.94,0,0,1-1.26.33,5.66,5.66,0,0,1,2.32-2.36,38.68,38.68,0,0,0,6-4.63Z" transform="translate(-642.61 -268.97)"/><path class="a" d="M755.43,358.63c-.93,6.8-1.73,10.57-2.59,11.9a3.49,3.49,0,0,1-.07-.76c.44-2.68.88-5.36,1.35-8a10.71,10.71,0,0,1,.54-2.11,4.11,4.11,0,0,1,.77-1Z" transform="translate(-642.61 -268.97)"/><path class="a" d="M758.73,375c-.67-.36-.52-1-.48-1.52.15-2,.34-3.95.5-5.93.12-1.44.23-2.87.36-4.48C759.71,364.6,759.38,373.66,758.73,375Z" transform="translate(-642.61 -268.97)"/><path class="a" d="M673.73,365.8a15.54,15.54,0,0,1,1.16-2.63c1.26-1.85,2.62-3.63,4-5.39.62-.8,1.38-1.49,2.22-2.38,0,.38.09.68,0,.84a13.31,13.31,0,0,1-1.68,2.18,19.52,19.52,0,0,0-3.87,4.9,20.53,20.53,0,0,1-1.83,2.45Z" transform="translate(-642.61 -268.97)"/><path class="a" d="M699,389.88a18.75,18.75,0,0,1,2.53-4.73c.77-1.18,1.47-2.39,2.2-3.6.31-.51.65-1,1.33-1v0l-1,1.93c-.44.86-.84,1.74-1.31,2.57a10.38,10.38,0,0,1-1.3,1.89,5.16,5.16,0,0,0-1.42,2.15,1,1,0,0,1-1.06.79Z" transform="translate(-642.61 -268.97)"/><path class="a" d="M743.35,314.39c4-3.21,6.55-7.64,9.6-11.84C752.39,305.19,745.84,313.34,743.35,314.39Z" transform="translate(-642.61 -268.97)"/><path class="a" d="M763,339.4c1,2.9,1,6.08.1,7.69-.61-.82-.24-1.72-.34-2.53s-.22-1.73-.29-2.59S762.08,340.28,763,339.4Z" transform="translate(-642.61 -268.97)"/><path class="a" d="M685.63,407.46a1.93,1.93,0,0,1,.73-1.81,7.26,7.26,0,0,0,2.35-3.61,1.22,1.22,0,0,1,.48-.54c.32.94-.39,1.68-.5,2.53s-.27,1.8-.45,2.91c-1.21-.92-1.82.13-2.63.5Z" transform="translate(-642.61 -268.97)"/><path class="a" d="M696.4,335.71c-1.53.71-3.06,1.43-4.6,2.1-.47.21-1,.39-1.35-.29C691.75,336.37,694.84,335.31,696.4,335.71Z" transform="translate(-642.61 -268.97)"/><path class="a" d="M698.94,389.86a7,7,0,0,1-.26,1.8c-.73,1.73-1.56,3.42-2.35,5.13a4,4,0,0,1-1.31,2c0-.28-.12-.46-.07-.59.82-2,1.62-3.93,2.51-5.86a24.54,24.54,0,0,1,1.5-2.49Z" transform="translate(-642.61 -268.97)"/><path class="a" d="M709.84,386.47c.13.37.33.62.26.77a20,20,0,0,1-2.56,4.93C707.09,390.93,708.22,388.2,709.84,386.47Z" transform="translate(-642.61 -268.97)"/><path class="a" d="M713.16,393.65c.28-.86.49-1.53.7-2.2s.5-1.56.74-2.35a1.37,1.37,0,0,1,1.25-1.18,3.78,3.78,0,0,1,0,1A12,12,0,0,1,713.16,393.65Z" transform="translate(-642.61 -268.97)"/><path class="a" d="M785.33,394.79a16.27,16.27,0,0,1-4.6,5c0-1.2.91-1.42,1.29-2a18,18,0,0,1,1.43-1.83C783.94,395.43,784.36,394.75,785.33,394.79Z" transform="translate(-642.61 -268.97)"/><path class="a" d="M758.62,292.93c.66-1.43,1.34-2.86,2-4.3.31-.7.59-1.42.87-2.14.15-.39.18-.86.73-.91,0,.06.12.11.11.13a22.09,22.09,0,0,1-3.06,6.65,2.74,2.74,0,0,1-.67.54Z" transform="translate(-642.61 -268.97)"/><path class="a" d="M735.83,361.05c.2-2.05,1.54-4.29,3-5,0,.09.11.2.08.26-.78,1.39-1.56,2.79-2.38,4.16-.14.23-.46.35-.69.52Z" transform="translate(-642.61 -268.97)"/><path class="a" d="M713.25,342c1.21-1,2.38-1.95,3.62-2.86a4.39,4.39,0,0,1,2-.76c-.1.18-.14.46-.29.55-1.6,1-3.22,2-4.84,3a1.49,1.49,0,0,1-.57.07Z" transform="translate(-642.61 -268.97)"/><path class="a" d="M752.27,391.82c.09.29.3.6.26.88a19.66,19.66,0,0,1-1.61,5.06c-.37-1.33.36-2.16.45-3.09a22.48,22.48,0,0,1,.59-2.8Z" transform="translate(-642.61 -268.97)"/><path class="a" d="M704.36,353.28c-.13.18-.19.4-.32.46-.82.4-1.65.78-2.48,1.14a1.16,1.16,0,0,1-.69,0c-.45-.11-.88-.29-1.48-.5.27-.2.48-.48.65-.46,1.07.15,1.93-.44,2.89-.71C703.36,353.12,703.82,352.85,704.36,353.28Z" transform="translate(-642.61 -268.97)"/><path class="a" d="M704.8,346.78c-.22.32-.37.73-.67.93-1.59,1.07-3.22,2.08-5,3.19.5-1.28,2.88-2.95,5.65-4.09Z" transform="translate(-642.61 -268.97)"/><path class="a" d="M698.69,376.44c1.18-1.93,2.32-3.9,4.69-4.7-.71.77-1.42,1.53-2.11,2.31a14.76,14.76,0,0,0-1.26,1.6,1.63,1.63,0,0,1-1.34.75Z" transform="translate(-642.61 -268.97)"/><path class="a" d="M755.43,358.65a9.88,9.88,0,0,1,1.22-6.18,27.45,27.45,0,0,1-1.23,6.15Z" transform="translate(-642.61 -268.97)"/><path class="a" d="M684.21,349.54a63.5,63.5,0,0,1,5.79-4l.26.28a5.44,5.44,0,0,1-.72.72c-1.28.88-2.55,1.77-3.88,2.58a5.68,5.68,0,0,1-1.47.4Z" transform="translate(-642.61 -268.97)"/><path class="a" d="M743.2,362.24a13.86,13.86,0,0,1-2.89,5.41A13.76,13.76,0,0,1,743.2,362.24Z" transform="translate(-642.61 -268.97)"/><path class="a" d="M758.11,381.07a16.84,16.84,0,0,1,.28-5c.68.11.74.54.65.91-.31,1.37.42,3-.95,4.1Z" transform="translate(-642.61 -268.97)"/><path class="a" d="M781.43,355.91a4.14,4.14,0,0,1-1.66-2.86c0-.24.26-.53.39-.8.2.17.47.31.58.53.31.64.59,1.3.84,2a7.09,7.09,0,0,1,.21,1Z" transform="translate(-642.61 -268.97)"/><path class="a" d="M684.19,349.51c-.82.82-1.62,1.66-2.46,2.45-.57.54-.77.56-1.9.44,1.12-.9,2.18-1.77,3.28-2.58a3.35,3.35,0,0,1,1.1-.28Z" transform="translate(-642.61 -268.97)"/><path class="a" d="M736.67,347c0,1.49-.93,2.89-2.55,4.1-.14-1,.53-1.55,1-2.14S736.06,347.76,736.67,347Z" transform="translate(-642.61 -268.97)"/><path class="a" d="M758,344.67c.3,1.12-.25,2.14-.42,3.21s-.33,2.08-.52,3.18C756.5,350,756.89,347.13,758,344.67Z" transform="translate(-642.61 -268.97)"/><path class="a" d="M713.25,342l0,0c-.13.8-.85,1-1.41,1.3-1.09.68-2.17,1.39-3.26,2.08l0,0c.06-1,.82-1.51,1.5-2C711,342.73,711.93,341.87,713.25,342Z" transform="translate(-642.61 -268.97)"/><path class="a" d="M737.12,346.26c.5-1.68,1.91-2.7,2.86-4.41.23,1.37-.64,1.91-1.08,2.63A3.33,3.33,0,0,1,737.12,346.26Z" transform="translate(-642.61 -268.97)"/><path class="a" d="M785.41,356l2.75,3.92c-.68-.12-.69-.12-1.92-1.64C785.72,357.59,785.05,357,785.41,356Z" transform="translate(-642.61 -268.97)"/><path class="a" d="M770.16,342c-.27-.89.41-1.21.92-1.59s.77-.86,1.22-.3-.16.93-.57,1.22S770.91,342.19,770.16,342Z" transform="translate(-642.61 -268.97)"/><path class="a" d="M673.71,365.77c-.38,1.83-1.86,3-2.82,4.51a2.74,2.74,0,0,1,.25-.87c.84-1.21,1.72-2.41,2.59-3.61Z" transform="translate(-642.61 -268.97)"/><path class="a" d="M681.86,355.08a8.36,8.36,0,0,1,3-3A4.63,4.63,0,0,1,681.86,355.08Z" transform="translate(-642.61 -268.97)"/><path class="a" d="M719.55,346.31c.31-1.43,1.87-2.83,3.61-3.45Z" transform="translate(-642.61 -268.97)"/><path class="a" d="M715.77,348.91l-3.8,3.51c.21-1,.22-1,1.65-2.13.65-.53,1.23-1.15,1.84-1.73Z" transform="translate(-642.61 -268.97)"/><path class="a" d="M722,358.85c-.07-1,1-2.35,2.35-3A7.25,7.25,0,0,1,722,358.85Z" transform="translate(-642.61 -268.97)"/><path class="a" d="M729.38,332.12a6.36,6.36,0,0,1,3.74-2.64,11,11,0,0,1-3.76,2.61Z" transform="translate(-642.61 -268.97)"/><path class="a" d="M718.74,373.35a3.33,3.33,0,0,1,.26-.79,23.38,23.38,0,0,1,1.35-2.05c.12-.17.47-.17.72-.25,0,.25.17.6.06.74-.69.86-1.43,1.66-2.15,2.48Z" transform="translate(-642.61 -268.97)"/><path class="a" d="M789.87,376.48a7.42,7.42,0,0,1-.62-1.14c-.43-1.25-.82-2.52-1.17-3.63,1.16.82,1.79,2.42,1.76,4.79Z" transform="translate(-642.61 -268.97)"/><path class="a" d="M711.83,333.74a6,6,0,0,1,3.85-1.54A6.23,6.23,0,0,1,711.83,333.74Z" transform="translate(-642.61 -268.97)"/><path class="a" d="M722.73,329.23l-3.09,1.53C719.93,329.43,720.55,329.1,722.73,329.23Z" transform="translate(-642.61 -268.97)"/><path class="a" d="M729.6,370.78a4.12,4.12,0,0,1-1.1,2.74C728.09,372.32,728.37,371.6,729.6,370.78Z" transform="translate(-642.61 -268.97)"/><path class="a" d="M704.82,346.81c.72-.46,1.46-.9,2.17-1.4a1.23,1.23,0,0,1,1.58,0l0,0a21.78,21.78,0,0,1-2.26,1.27,5.54,5.54,0,0,1-1.49.16Z" transform="translate(-642.61 -268.97)"/><path class="a" d="M724.11,397.22c.47-.92.43-2.1,1.37-2.83A2.17,2.17,0,0,1,724.11,397.22Z" transform="translate(-642.61 -268.97)"/><path class="a" d="M737.46,372.22a7.11,7.11,0,0,1,2.32-3.07l-1.91,3.28Z" transform="translate(-642.61 -268.97)"/><path class="a" d="M771.15,373.31a3.29,3.29,0,0,1-.46-3.85C770.83,370.64,771,371.82,771.15,373.31Z" transform="translate(-642.61 -268.97)"/><path class="a" d="M766.6,282.39c-.58,1.34-1.17,2.68-1.75,4a5.44,5.44,0,0,1,1.78-4Z" transform="translate(-642.61 -268.97)"/><path class="a" d="M668.31,376.05c.31-.86.61-1.72,1-2.82C669.75,374.48,669.49,375.19,668.31,376.05Z" transform="translate(-642.61 -268.97)"/><path class="a" d="M746.17,356.15a6.78,6.78,0,0,1,1.81-3.09l-1.44,3.28Z" transform="translate(-642.61 -268.97)"/><path class="a" d="M714.15,379.34l-1.74,3.39-.34-.16c.55-1.15,1.11-2.29,1.66-3.44Z" transform="translate(-642.61 -268.97)"/><path class="a" d="M732.1,342.25c.41-1.23,1.6-1.78,2.33-2.73l.22.19-2.27,2.73Z" transform="translate(-642.61 -268.97)"/><path class="a" d="M687.78,349.74l0,0c-1,1.16-1.23,1.37-2.19,1.67A2.13,2.13,0,0,1,687.78,349.74Z" transform="translate(-642.61 -268.97)"/><path class="a" d="M706.75,377.14l1.57-2.8c.16,1.29.12,1.37-1.25,3Z" transform="translate(-642.61 -268.97)"/><path class="a" d="M781.7,394.36c.07-.87.12-1,1.15-2C783.2,393.3,783,393.65,781.7,394.36Z" transform="translate(-642.61 -268.97)"/><path class="a" d="M749.52,349.74l1.13-3.2A3.92,3.92,0,0,1,749.52,349.74Z" transform="translate(-642.61 -268.97)"/><path class="a" d="M707.12,355.44a2.87,2.87,0,0,1-2.71,2.41l2.73-2.38Z" transform="translate(-642.61 -268.97)"/><path class="a" d="M735.21,377a3.76,3.76,0,0,1,1.48-2.48A2.88,2.88,0,0,1,735.21,377Z" transform="translate(-642.61 -268.97)"/><path class="a" d="M743.06,322a1.07,1.07,0,0,1,.16-1.35,2.3,2.3,0,0,1,1.8-1.09L743,322Z" transform="translate(-642.61 -268.97)"/><path class="a" d="M733.11,380.65a3.15,3.15,0,0,1,1.16-2.17C734.5,379.85,734.46,379.93,733.11,380.65Z" transform="translate(-642.61 -268.97)"/><path class="a" d="M790.91,379.78a2.6,2.6,0,0,1-1-3.3l0,0c.35,1.1.69,2.2,1,3.3Z" transform="translate(-642.61 -268.97)"/><path class="a" d="M744.29,359.72l1.3-2.39a2.43,2.43,0,0,1-1,2.56Z" transform="translate(-642.61 -268.97)"/><path class="a" d="M743,322l-2.55,2.17-.25-.31a4.35,4.35,0,0,1,2.82-1.83Z" transform="translate(-642.61 -268.97)"/><path class="a" d="M704.71,369.65l.93-1.39c.44,1.11.42,1.15-.65,1.6Z" transform="translate(-642.61 -268.97)"/><path class="a" d="M697,405.82a1.72,1.72,0,0,1-.69,1.68l-.35-.15.62-1.68Z" transform="translate(-642.61 -268.97)"/><path class="a" d="M767.59,344.55a1.53,1.53,0,0,1,.3,2C767.28,345.87,767.77,345.15,767.59,344.55Z" transform="translate(-642.61 -268.97)"/><path class="a" d="M755.31,298.94l-1.42,2.57a2.47,2.47,0,0,1,1.43-2.54Z" transform="translate(-642.61 -268.97)"/><path class="a" d="M705.64,395.33c.22-.55-.17-1.35.64-1.74.48,1.05.48,1.05-.66,1.71Z" transform="translate(-642.61 -268.97)"/><path class="a" d="M731.09,354.41a2.17,2.17,0,0,1-1.25,1.88C729.8,355.36,730.27,355,731.09,354.41Z" transform="translate(-642.61 -268.97)"/><path class="a" d="M792.22,366.9a2.52,2.52,0,0,1-1-2.07c1,.46.86,1.34,1,2.08Z" transform="translate(-642.61 -268.97)"/><path class="a" d="M710.56,385.83l.74-2.07.29.1A2.3,2.3,0,0,1,710.56,385.83Z" transform="translate(-642.61 -268.97)"/><path class="a" d="M735.44,327.77c.5-1,.52-1,1.66-1.59-.3.93-.43,1-1.68,1.56Z" transform="translate(-642.61 -268.97)"/><path class="a" d="M726.23,348.86l-1.53,1.86C724.86,349.79,725.16,349,726.23,348.86Z" transform="translate(-642.61 -268.97)"/><path class="a" d="M708.38,366.18a2,2,0,0,1-.89,1.23l-.3-.22.9-1.24Z" transform="translate(-642.61 -268.97)"/><path class="a" d="M755.32,299a3.75,3.75,0,0,1,1.11-2.59l.29.16-1.41,2.4Z" transform="translate(-642.61 -268.97)"/><path class="a" d="M753.67,403.81c0-.87,0-.87.81-1.16A1,1,0,0,1,753.67,403.81Z" transform="translate(-642.61 -268.97)"/><path class="a" d="M727.93,333c-.63.41-1.09,1.16-2.19,1.14a2.47,2.47,0,0,1,2.21-1.11Z" transform="translate(-642.61 -268.97)"/><path class="a" d="M705,380.57c.21-.81.31-1.68,1.1-2.19,0,.94-.66,1.48-1.12,2.15Z" transform="translate(-642.61 -268.97)"/><path class="a" d="M727.2,339l1.22-1.36C728.17,338.69,728.17,338.69,727.2,339Z" transform="translate(-642.61 -268.97)"/><path class="a" d="M695.78,420.1c.07.8.11,1.34.16,1.88C695.28,421.48,695.25,420.94,695.78,420.1Z" transform="translate(-642.61 -268.97)"/><path class="a" d="M722.13,336.57a1.63,1.63,0,0,1,1.69-1.26,2.37,2.37,0,0,1-1.7,1.23Z" transform="translate(-642.61 -268.97)"/><path class="a" d="M734.15,363c.62.79.18,1.27-.67,1.63.23-.55.45-1.09.68-1.63Z" transform="translate(-642.61 -268.97)"/><path class="a" d="M722.12,336.54a2.47,2.47,0,0,1-2,.91,2.21,2.21,0,0,1,2-.88Z" transform="translate(-642.61 -268.97)"/><path class="a" d="M732.27,367.07c-.16-.64,0-1,.66-1.22A1,1,0,0,1,732.27,367.07Z" transform="translate(-642.61 -268.97)"/><path class="a" d="M762.39,290.66a2,2,0,0,1,0,.46c-.19.42-.39.84-.66,1.41C761.71,291.58,761.71,291.58,762.39,290.66Z" transform="translate(-642.61 -268.97)"/><path class="a" d="M719.69,342l-1.37.1C718.92,341.44,718.92,341.44,719.69,342Z" transform="translate(-642.61 -268.97)"/><path class="a" d="M759.06,339.81l-.49,2.24-.16,0c.12-.74.25-1.48.37-2.22Z" transform="translate(-642.61 -268.97)"/><path class="a" d="M758.6,292.9l-.93,2.21a2,2,0,0,1,1-2.18Z" transform="translate(-642.61 -268.97)"/><path class="a" d="M764.16,293.2a2.26,2.26,0,0,1-.75,2l-.27-.14c.35-.6.69-1.21,1-1.82Z" transform="translate(-642.61 -268.97)"/><path class="a" d="M706.7,350l-1.53.57c.38-.89,1-.63,1.38-.88Z" transform="translate(-642.61 -268.97)"/><path class="a" d="M707.14,355.47l1.17-1.16c.16,1.12-.48,1.18-1.19,1.13Z" transform="translate(-642.61 -268.97)"/><path class="a" d="M715.42,376.61c-.17.4-.33.78-.48,1.16l-.3-.13c.18-.34.35-.69.54-1C715.2,376.58,715.31,376.61,715.42,376.61Z" transform="translate(-642.61 -268.97)"/><path class="a" d="M735.83,361.05l0,0c-.11,1-.91,1.45-1.65,1.93h0A3.45,3.45,0,0,1,735.83,361.05Z" transform="translate(-642.61 -268.97)"/><path class="a" d="M759.22,360.08c0,.56.08,1.12.13,1.68h-.14c-.09-.59-.17-1.18-.26-1.78Z" transform="translate(-642.61 -268.97)"/><path class="a" d="M660.87,358.8a1.64,1.64,0,0,1-1.53.77c.44-.7,1-.66,1.55-.74Z" transform="translate(-642.61 -268.97)"/><path class="a" d="M767.33,340.59c.09.36.18.72.26,1.08l-.32.09c-.1-.34-.21-.69-.32-1Z" transform="translate(-642.61 -268.97)"/><path class="a" d="M735.42,327.74l-1,1.05-.27-.31c.24-.48.75-.6,1.27-.71Z" transform="translate(-642.61 -268.97)"/><path class="a" d="M763.18,283.89c-.12.19-.24.38-.37.57l-.21-.13.38-.57Z" transform="translate(-642.61 -268.97)"/><path class="a" d="M789.89,362.92l-.42-.93.24-.1c.13.31.27.62.41.93Z" transform="translate(-642.61 -268.97)"/><path class="a" d="M708.15,349.6l.64-.1.06.21-.65.23C708.18,349.83,708.16,349.72,708.15,349.6Z" transform="translate(-642.61 -268.97)"/><path class="a" d="M712.24,362.19l-.43.7-.22-.13.44-.7Z" transform="translate(-642.61 -268.97)"/><path class="a" d="M797.14,381.68c0,.41.08.82.14,1.51a1,1,0,0,1-.12-1.52Z" transform="translate(-642.61 -268.97)"/><path class="a" d="M752,343l.26-.88h.21a1.94,1.94,0,0,1,0,.54,2.13,2.13,0,0,1-.28.41Z" transform="translate(-642.61 -268.97)"/><path class="a" d="M713.86,346.24l.29-.29.29.37c-.1.07-.2.21-.29.2S714,346.36,713.86,346.24Z" transform="translate(-642.61 -268.97)"/><path class="a" d="M678.87,353.81l-.66.57-.17-.17c.19-.23.39-.45.59-.67Z" transform="translate(-642.61 -268.97)"/><path class="a" d="M722.23,332.77l-.71.22-.08-.21c.23-.09.45-.18.69-.26,0,0,.09,0,.11.06S722.24,332.66,722.23,332.77Z" transform="translate(-642.61 -268.97)"/><path class="a" d="M726.5,340.24l-.45.45-.15-.14.44-.47Z" transform="translate(-642.61 -268.97)"/><path class="a" d="M713,361.16l.32-.53.15.09-.3.54Z" transform="translate(-642.61 -268.97)"/><path class="a" d="M696.8,351.59h1.11l-.06.36-1.07-.37Z" transform="translate(-642.61 -268.97)"/><path class="a" d="M730.91,344c-.11.15-.23.29-.34.43l-.18-.14.34-.43Z" transform="translate(-642.61 -268.97)"/><path class="a" d="M728,333.06c.26-.65.87-.76,1.43-.94l0,0c-.48.31-1,.62-1.43.94Z" transform="translate(-642.61 -268.97)"/><path class="a" d="M764.49,356.54v-.49c.08,0,.22,0,.23,0a2.73,2.73,0,0,1,0,.41Z" transform="translate(-642.61 -268.97)"/><path class="a" d="M779.34,418.64l-.49.7-.22-.25.73-.42Z" transform="translate(-642.61 -268.97)"/><path class="a" d="M751.44,344.86c0-.07-.07-.16-.05-.21s.13-.1.2-.14.07.17,0,.22S751.51,344.82,751.44,344.86Z" transform="translate(-642.61 -268.97)"/><path class="a" d="M762.37,297c0-.15.11-.3.17-.44s.12,0,.11,0-.06.31-.09.47Z" transform="translate(-642.61 -268.97)"/><path class="a" d="M763.67,288.67l-.23.08c0-.09-.09-.23-.07-.24a1.1,1.1,0,0,1,.32-.11Z" transform="translate(-642.61 -268.97)"/><path class="a" d="M787.5,369.52c-.08,0-.17.09-.23.07s-.09-.14-.13-.21l.3-.11Z" transform="translate(-642.61 -268.97)"/><path class="a" d="M728.27,358.39c0,.08.08.18.05.24s-.14.1-.21.15l-.1-.33Z" transform="translate(-642.61 -268.97)"/><path class="a" d="M730.43,369.16l.14.22-.31.14c0-.09-.07-.19,0-.25S730.36,369.2,730.43,369.16Z" transform="translate(-642.61 -268.97)"/><path class="a" d="M731.71,323.87l-.2,0s0-.11,0-.11l.21,0Z" transform="translate(-642.61 -268.97)"/><path class="a" d="M779.36,418.67l.55-.6.13.18-.7.39Z" transform="translate(-642.61 -268.97)"/><path class="a" d="M675.87,356.15l.24-.43.14.13-.4.27Z" transform="translate(-642.61 -268.97)"/><path class="a" d="M732,353.24l.13.18c-.06.05-.12.13-.19.14s-.09-.11-.14-.17Z" transform="translate(-642.61 -268.97)"/><path class="a" d="M748.74,351.54l-.21.06s0-.11,0-.11a.9.9,0,0,1,.21-.08Z" transform="translate(-642.61 -268.97)"/><path class="a" d="M750.41,437.57c.36-1.66,1-2.18,2.46-1.9a4.91,4.91,0,0,1-2.48,1.87Z" transform="translate(-642.61 -268.97)"/></svg>