<svg xmlns="http://www.w3.org/2000/svg" viewBox="0 0 117.1 105.27"><defs><style>.a{fill:#3c4669;}</style></defs><path class="a" d="M588.33,463.1a1.24,1.24,0,0,1,1.38.93,10.69,10.69,0,0,1,.51,1.73,4.68,4.68,0,0,0,1.24,2.84,2.12,2.12,0,0,1,.42,1.1c.69,3.5,1.36,7,2.06,10.51.86,4.34,1.8,8.67,1.77,13.13,0,1.21.18,2.41.2,3.62a38.23,38.23,0,0,1-2.42,13c-.34,1-.58,2-.88,3s-.6,2.35-1.05,3.47c-.89,2.19-1.78,4.39-2.87,6.49s-2.32,4-3.54,5.95a29.6,29.6,0,0,1-8.9,8.61c-1.7,1.16-3.26,2.53-4.92,3.75a8.61,8.61,0,0,1-1.74.8c-.18.08-.4.08-.58.15a45.3,45.3,0,0,0-4.85,2.07,24,24,0,0,1-7.64,2.22,50,50,0,0,1-9.47.62,73.53,73.53,0,0,1-11.85-1,22,22,0,0,1-8.39-3.23c-1.57-1-3.22-1.9-4.72-3a23.62,23.62,0,0,1-6.62-7.54c-.64-1.13-1.26-2.29-1.93-3.41-1.66-2.75-3.28-5.53-5-8.22a4.28,4.28,0,0,0-3-1.9,2.6,2.6,0,0,1-2.23-1.52,8.88,8.88,0,0,0-1.71-1.8c-.45.29-1,.46-1.24.83a9.87,9.87,0,0,0-1.62,3c-.41,1.75-1.05,3.46-1.48,5.21a19.18,19.18,0,0,0-.22,2.53c-.2,1.86-.39,2-2.22,2.47a6.17,6.17,0,0,1-2.78.49,4,4,0,0,1-3.43-3.8c-.1-2.11-.35-2.31-2.5-2.09-1,.1-2,.17-3,.2a2.74,2.74,0,0,1-2.92-1.94,19.27,19.27,0,0,1-1.37-6c0-.08.11-.15.29-.39a11.54,11.54,0,0,0,4.89,2,4.31,4.31,0,0,0,1.78.14c2.69-.5,5.05-1.52,6.66-4A43.65,43.65,0,0,1,496,510a2,2,0,0,1,2-.71,3.82,3.82,0,0,0,3.27-1.18,22.51,22.51,0,0,1,3.06-2.16,7,7,0,0,1,6.54-.27,2.32,2.32,0,0,0,2.48-.28,50,50,0,0,0,10.77-10c2.77-3.31,5.41-6.75,8.87-9.44,2.06-1.6,3.81-3.61,5.89-5.18,2.75-2.1,5.67-4,8.54-5.91s5.69-3.79,8.54-5.67c1.6-1.06,3.21-2.08,4.81-3.13a35.15,35.15,0,0,0,7.77-6.16,37.37,37.37,0,0,0,2.5-3.57c.11-.16.15-.38.27-.53,1.4-1.56,1.21-3.53,1.44-5.4a11.5,11.5,0,0,1,.51-2.16c.6-1.81,1.28-3.59,1.87-5.41.31-1,.86-1.2,1.67-.6a2.72,2.72,0,0,1,1,2.42,12.84,12.84,0,0,0-.13,1.5,10.26,10.26,0,0,0,.48,2.79,14,14,0,0,1,1.05,4.67A3.2,3.2,0,0,0,581,456.5c1.17.58,2.28,1.27,3.42,1.89a1,1,0,0,1,.62,1.09c-.13,1.42.7,2.12,1.91,2.52.62.2,1.33.26,1.41,1.13-.49.58-1.14.3-1.71.27-1.62-.08-2.19-.64-2.45-2.27-.29-1.88-.93-2.63-2.85-3a3.56,3.56,0,0,1-2.89-2.54,2.07,2.07,0,0,0-.2-.56,8.42,8.42,0,0,1-1.61-3.7c0-.19-.3-.34-.65-.73-.3,1.51-.71,2.74,0,4a2.25,2.25,0,0,1,.31,1.87,3,3,0,0,0-.07.9c.05,1.17.4,1.54,1.53,1.63.4,0,.81,0,1.21,0a2.72,2.72,0,0,1,2.47,1.47,3.39,3.39,0,0,1,.45,1.57,1.8,1.8,0,0,0,1.49,1.81,3,3,0,0,0,.89.17c1.48,0,2.28,1.37,3.55,1.81.2.07.35.5.39.78.33,2.19.74,4.38.91,6.58a11.38,11.38,0,0,0,1.2,4.32c.65,1.32,1.17,2.71,1.75,4.08a3.24,3.24,0,0,0-1.09-.16c-1,.31-1.23.9-.68,2,.8,1.67,1.68,3.32,2.57,5a3.12,3.12,0,0,1,.5,2.08c-1.47-.39-2.31-1.82-3.94-1.8-.35,1.35.53,2.32.85,3.43.38,1.37,1.94,1.31,2.52,2.22l-1.33,1.75a1.6,1.6,0,0,1-.21-.41c-.14-1.31-1-1.88-2.16-2.24-.82-.26-1.07-.11-1.25.76a2.69,2.69,0,0,0,1.13,2.91c.56.41,1.13.8,1.8,1.28l-1.23.91c.14.53.25,1,.41,1.48a1.2,1.2,0,0,1-.37,1.36,1.11,1.11,0,0,1-1.38.18c-.86-.35-1.72-1.29-2.54-.06l-1.09-.65c-1.27,1.73-1.19,2.25.45,3.21a4.47,4.47,0,0,0,2.2.86c.49,0,1,.44,1.47.69-.36.74-.64,1.33-1,2.15-.22-1.57-.8-2.5-2.25-2.69a7.46,7.46,0,0,1-1.39-.58A7.65,7.65,0,0,0,583,505a5.49,5.49,0,0,0,0,1,5.82,5.82,0,0,0,3.15,4.36,2.76,2.76,0,0,1,.63.56l-.15.18-1.55-.22c-.14.5-.26.88-.41,1.41a12.82,12.82,0,0,0-1.64-2.66,3.48,3.48,0,0,0-2.84-1.05c-.85,1.41.77,2.53.41,3.85a19.54,19.54,0,0,0-1.09-2,2.91,2.91,0,0,1-.7-2.06c0-.43-.47-.91-.73-1.37s-.94-1.13-.81-1.49c.36-1.06-.13-2-.1-3l0,0c.21.33.46.65.64,1a20.15,20.15,0,0,0,1,2.05,1.31,1.31,0,0,0,2.46-.09c.59-1.14.44-1.71-.66-2.39l-1.6-1,1.58-.37c-.11-.54-.2-1-.31-1.57,1,.83.94,2.16,2,2.61,1.42-1.05,1.61-2.33.56-3.51-.44-.49-.87-1-1.51-1.75h1.79c-.09-.69-.16-1.23-.24-1.77l.24-.06,1.57,2.85c.38-.72.87-1.25.76-1.54A15.48,15.48,0,0,0,584,494.7l2.54.51a14.74,14.74,0,0,0-.51-1.67c-.77-1.69-1.55-3.38-2.4-5a9.16,9.16,0,0,0-1.26-1.49L581,488.48a5.84,5.84,0,0,1,.39-1.28,2.58,2.58,0,0,0-.26-3c-.57-.94-1.2-1.86-1.69-2.85a4.73,4.73,0,0,1-.88-2.38c1.77,1.67,2.14,4,3.68,5.49a3.36,3.36,0,0,0,1-4.22c-.49-.89-1-1.73-1.56-2.6l-2.1-3.57a2.1,2.1,0,0,1,1.1.85c.71,1.1,1.38,2.22,2.06,3.34.3.49.47,1.14,1.34,1,.68-1.58.93-3.05-.57-4.37a14.23,14.23,0,0,1-1.22-1.54c-.64-.75-1.31-1.48-2-2.25-.3.24-.5.33-.59.49-.76,1.24-1.54,2.47-2.2,3.76a2.3,2.3,0,0,0,.07,1.41,6.73,6.73,0,0,0,.58,1.25l-.23.11-1.24-1.41c-.5.58-.91,1-1.25,1.48-.91,1.27-1.75,2.58-2.67,3.83-.63.85-1.44,1.57-2,2.45a29,29,0,0,1-4.25,5.25,27.52,27.52,0,0,0-2,2.07q-2.88,3.41-5.69,6.84c-.77.93-1.48,1.9-2.21,2.85a2,2,0,0,1-1.76.82c.94-1,1.73-1.79,2.41-2.65,2.15-2.71,4.23-5.48,6.4-8.19.87-1.09,2-2,2.83-3.13,2-2.61,4-5.25,6-7.95,1.65-2.34,3.23-4.75,4.71-7.2a16.75,16.75,0,0,0,2.66-6.37,10.77,10.77,0,0,1,.44-2.48c.5-1.34.09-2-1.55-2.74-.33.56-.69,1.14-1,1.73s-.63,1.27-1,1.87-.79,1.16-1.2,1.73-.82,1.15-1.26,1.7-.94,1-1.41,1.57-.81,1-1.22,1.46a74.59,74.59,0,0,1,4.19-6.47c.82-1.2.75-1.6-.41-2.8a73.85,73.85,0,0,1-5,7.11c-1.92,2.19-3.33,4.84-6,6.71a2.66,2.66,0,0,1,.19-.77,57.37,57.37,0,0,1,4-5.48,51.25,51.25,0,0,0,4.53-6.38,4,4,0,0,0,.34-1.09c-.25,0-.37-.1-.43-.06a3.72,3.72,0,0,0-.57.48,68.89,68.89,0,0,1-7.59,7.1c-.63.47-1.3.9-2,1.35l0,0a2.64,2.64,0,0,1,1.32-2.08,7.23,7.23,0,0,0,.85-.6q2.79-2.64,5.55-5.31a4.15,4.15,0,0,0,.47-1,11.36,11.36,0,0,0-1,.55c-2.58,1.84-5.12,3.71-7.73,5.51-1.9,1.31-3.88,2.5-5.81,3.77-2.65,1.74-5.25,3.55-7.93,5.24a64.24,64.24,0,0,0-11.08,8.33c-.36.35-.77.65-1.16,1a45.39,45.39,0,0,0-6.61,6.61c-2,2.53-4,5-6.24,7.36a37.49,37.49,0,0,1-9.58,7.68c.42,1.39.45,1.46,1.68,1.18,1.07-.25,2.1-.64,3.17-.92,1.84-.47,3.7-.89,5.55-1.35a4.35,4.35,0,0,0,1-.41c1.13-.55,2.27-1.1,3.38-1.69,2.12-1.14,4.29-2.18,5.91-4.09a8.79,8.79,0,0,1,2.19-1.57,25.85,25.85,0,0,0,6-4.76l0,0a2.63,2.63,0,0,1-1.15,2.6c-2.18,2-4.85,3.35-7,5.48a71.56,71.56,0,0,1-7,5.7,12.29,12.29,0,0,1-2.83,1.68c-1.77.72-3.59,1.31-5.42,1.86a1.82,1.82,0,0,0-1.5,1.81c0,.36,0,1,.2,1.05a2.46,2.46,0,0,0,1.4,0,3.37,3.37,0,0,0,1-.6c.49,1.54.68,1.63,2.21,1.34a1.64,1.64,0,0,1,1,.13c1,.46,1.11.42,1.31-.72.07-.43,0-.91.74-1a5.29,5.29,0,0,0,.17,1.5,1.45,1.45,0,0,0,.92.79,1.61,1.61,0,0,0,1.14-.49c.22-.2.19-.66.35-1a7,7,0,0,1,.74-.93c.14,1,.23,1.68.32,2.38.3.07.54.16.78.19,1.59.19,1.9-.1,2.06-1.75a12,12,0,0,1,.44-1.74,3.73,3.73,0,0,1,.27,1.56c.12,2,.29,2.1,2.3,2h.3c1-.11,1-.23,1-1.25,0-.83.16-1.67.25-2.5v0a16.1,16.1,0,0,1,.7,1.45c.16.42.18.89.33,1.32.24.67.8.85,1.76.68a1,1,0,0,0,1-1.24c-.09-.85-.21-1.7-.24-2.55a2.39,2.39,0,0,1,.3-.83l.34,0c.12.52.25,1,.34,1.55.46,2.54.57,3.08,3.62,2.06,1.06-.35,1.16-.58,1-1.68-.2-1.4-.42-2.79-.6-4.19a2.29,2.29,0,0,1,.18-.73,2.71,2.71,0,0,1,.65,1.39c.22,1.08.41,2.17.62,3.25.1.51.24,1,.89,1.06a1.58,1.58,0,0,0,2-1.9c-.17-1.09-.47-2.16-.66-3.25a7.49,7.49,0,0,1,0-3.33c.51,2.11.89,4.24,1.31,6.35.25,1.24.83,1.48,1.93.88a1.26,1.26,0,0,0,.8-1.32c-.1-.85-.22-1.7-.33-2.55s-.3-1.89-.39-2.84a3.66,3.66,0,0,1,.24-1l.32.07c.14,1,.26,2.08.42,3.12s.37,2.16.58,3.37c.59-.08,1.08-.13,1.56-.23,1.57-.32,2-.87,1.71-2.4-.11-.65-.3-1.28-.38-1.93a7,7,0,0,1-.09-3.23,2.62,2.62,0,0,1,.44,1c.22,1.24.4,2.48.64,3.71s.71,1.35,1.69.85c1.75-.88,2-1.5,1.36-3.38-.33-1-.57-2.1-.86-3.15l.33-.13c.26.57.54,1.12.76,1.7.52,1.36.95,2.77,2.19,3.71l0,0c-.13.46-.45,1-.35,1.38.33,1.47.79,2.9,1.24,4.34a1,1,0,0,0,.46.56c.71.34,1.46.6,2.17.95a2,2,0,0,0,2.1-.43c.58-.39.41-1,.28-1.51s-.34-1-.48-1.43-.16-.73-.27-1.23c1.42,1.11,2.67,2.09,3.94,3,.27.21.66.52.91.45,1-.25,1.3.4,1.86.92.88.83,1.74,1.91,3.07,1.3.59.67,1.11,1.24,1.7,1.9-.25.35-.07,1.18-.92,1s0-.89-.3-1.26c-1.29-.61-1.47-.61-2.17,0a1.84,1.84,0,0,0-.36,2.57c.23.38.54.71.77,1l-.91,2a2.39,2.39,0,0,1-.47-1.06,6.3,6.3,0,0,0-.8-1.72,1.71,1.71,0,0,0-2-.22c-.55.38-.46.94-.37,1.5a6.35,6.35,0,0,1,.14,1.5c0,.47-.32.72-.78.41a9,9,0,0,0,.08-1.61c-.07-.64-.77-.9-1.06-.4-.55.95-1.41,1-2.28,1.15-1.41.3-1.6.72-1.49,2.1a2.27,2.27,0,0,0,1.54,2.31c.06,0,.08.17.15.35-.81.41-1.33-.06-1.81-.57A7.49,7.49,0,0,0,564,526c-1.2-.45-1.29-.41-1.93.75-.37-.13-1-.46-1.05-.36-.78,1-1.74.39-2.63.4a2.48,2.48,0,0,0-.65.21c-.54,1.11.07,1.93.63,2.78-1.21.12-1.26.17-1.89-.44a8.09,8.09,0,0,0-4.74-2,3,3,0,0,0-2,.23c-.62.9.92,1.86-.4,2.5-.15-.11-.28-.14-.31-.22-.76-2-2.78-2.26-4.38-3.1-.11-.06-.3,0-.44,0-.7.14-.93.62-.52,1.21a5.34,5.34,0,0,0,1,1.11c1.07.88,2.17,1.72,3.25,2.58-1.65-.76-3-2.19-4.93-2.09a5.53,5.53,0,0,0-4.36-3.18c-.86,1.11.37,1.94.53,2.91-2.08-.74-3.3-2.69-5.31-3.34-1.07,1.65.4,2.38,1,3.38-.66-.27-1.49-.44-1.73-.91-.49-1-1.42-1.25-2.14-1.85s-.82-.51-1.39.26c-.11.15-.25.28-.39.44-.69-.4-.49-1-.52-1.51-.06-1.32-.54-1.82-1.92-2-.88,1.42.22,2.16,1.3,3.05l-1.56.28-.41,1.87c-.81-.49-.6-1.2-.63-1.82-.06-1.33-.39-1.73-1.9-2.18-.12.74-.25,1.47-.4,2.36-.9-.62-.66-1.31-.69-1.93a8.37,8.37,0,0,0-.22-2.07c-.31-1-.6-1.07-2-.68l.85,2.8c-.55,1.16-.52,1.14.51,2.21a13.79,13.79,0,0,0,6.56,4,8.4,8.4,0,0,0,4,.18c1.23-.25,2.47-.47,3.7-.72a1.93,1.93,0,0,1,2.16,1c1.67,2.47,3.68,4.4,6.9,4.77a42.3,42.3,0,0,0,8.84.62c1.64-.15,3.31-.16,4.92-.46,2.51-.48,5-1.1,7.47-1.76a26.08,26.08,0,0,0,7.67-3.39c.93-.6,1.81-1.27,2.77-1.83a14.64,14.64,0,0,0,4.55-3.65.74.74,0,0,1,.21-.22,5.28,5.28,0,0,0,2-2.52,9.55,9.55,0,0,1,1-1.33,25.42,25.42,0,0,0,2.9-3.62,67.36,67.36,0,0,0,2.76-6.19c.64-1.47,1.24-3,1.84-4.45a43.84,43.84,0,0,0,1.92-5,23.9,23.9,0,0,0,.6-8c-.11-1.45-.17-2.91-.31-4.36-.16-1.71-.31-3.42-.61-5.1-.54-3.07-1.18-6.13-1.78-9.19a23.48,23.48,0,0,0-1-4.85C589.61,468.86,589.16,465.93,588.33,463.1Zm-1.47,22.76c1.29.19,1.5.12,1.66-.64a6.55,6.55,0,0,0-1.89-6.05,1.59,1.59,0,0,0-.49-.24c-.14.09-.25.12-.3.19a2,2,0,0,0-.32.51,3.88,3.88,0,0,0,.48,4.12l-1.48-.6c-1.78,1.72-1.91,2.31-.91,4.35.26.54.58,1.05.83,1.6a3.23,3.23,0,0,0,2.78,1.75,3.41,3.41,0,0,0,.29-3.32C587.29,487,587.07,486.41,586.86,485.86Zm-49,35.58c-.25-.86-.45-1.75-.78-2.58-.14-.36-.53-.85-.85-.88a6.7,6.7,0,0,0-2.22.23,1.14,1.14,0,0,0-.67.84c0,1.39.1,2.79.2,4.19a.85.85,0,0,0,.89.84c.53,0,1.06,0,1.75-.08l-.77-1.49,1.59.19c.31-.47.59-.88.86-1.3l.33,1.47c.45,1.88,2,2.62,4.13,1.81l-1.51-1.84,1.11-.26a9.33,9.33,0,0,0-.68-4.31,1,1,0,0,0-.67-.5,4.53,4.53,0,0,0-1-.06c-1.35-.06-1.56.19-1.5,1.5A18.58,18.58,0,0,1,537.83,521.44Zm22.2-2.52.59.43c.41-.9,1-1,1.93-.72,1.29.33,2-.5,1.62-1.85-.52-1.94-1.12-3.85-1.73-5.77a9.44,9.44,0,0,0-.75-1.41c-.82.49-1.53.85-2.17,1.31a2.06,2.06,0,0,0-.87,2.49c.51,1.84.94,3.69,1.4,5.54a2.38,2.38,0,0,1-1.16-1.83c-.32-1.21-.58-2.44-.94-3.64a1.43,1.43,0,0,0-.66-.89,2.18,2.18,0,0,0-2.81,2.38c.22,1.13.65,2.22.82,3.35.19,1.31,1.12,1.71,2.15,2a1.79,1.79,0,0,0,2.13-1C559.67,519.14,559.88,519,560,518.92Zm-26.62,19.71c-1.28-1.69-3.46-.39-4.65-2,0,0-.19,0-.29,0-2-.17-2.79-.81-3.36-2.71-1.61-.36-1.9-.59-2.15-1.71.85.33.85.33,1.58.08-.91-1.77-.91-1.77-2.58-1.19a.49.49,0,0,1-.29,0,3.49,3.49,0,0,1-.35-.26l.76-1.06-3.92-4.15-.81.88c-1.26-.43-.12-2.58-2-2.47-.36,1.32-.71,2.54.29,3.82s1.58,2.56,2.42,3.8a4.74,4.74,0,0,0,1.11.91,7.6,7.6,0,0,1,1.15.85c1.28,1.39,2.21,3,3.8,4.21a26.91,26.91,0,0,0,8.36,4.39,3.69,3.69,0,0,0,1.92.08,1.55,1.55,0,0,1,1.39.22,1.62,1.62,0,0,0,1,.34,6.19,6.19,0,0,1,2.62.55,9,9,0,0,0,2.21.45c3.17.14,6.34.37,9.5.27a51.82,51.82,0,0,0,6.39-.94,9.83,9.83,0,0,1,1-.2,17.24,17.24,0,0,0,6.77-1.93,12.35,12.35,0,0,1,1.77-.83c3.92-1.29,7.28-3.63,10.79-5.68a13.69,13.69,0,0,0,2.18-1.62c4.87-4.38,8-9.91,10.47-15.87.15-.35.35-.77-.28-1.12-.28.39-.59.77-.85,1.18-1.09,1.69-2.12,3.43-3.25,5.09a48.92,48.92,0,0,1-7.42,8.32,11.67,11.67,0,0,1-2.11,1.39c-.85.48-1.77.86-2.61,1.37-1.45.87-2.74,2-4.55,2.17a.67.67,0,0,0-.52.27c-.56,1-1.62,1.12-2.54,1.47-1.45.54-3,.74-4.24,1.83-.08.07-.27,0-.54.06l.73-1.23c-1.78.14-3.33.1-4,2l-1.84-.68a2.23,2.23,0,0,1-2.06,1.51c-1.07.14-1.77-.52-2.53-.94-1.83,1.19-1.83,1.19-2.64.93l1.24-.78c-1.32-.72-2.06-.59-2.95.43s-1.39.83-1.86-.3c-.18-.45-.36-.77-.87-.9-1.24-.32-1.68,0-2,1.48-1.37-.34-2.92.05-4-1.17a.74.74,0,0,0-.55-.2c-1.34.16-2.49-.49-3.9-.89.53-.5,1-.93,1.44-1.38s1.21-.61,1.37-1.51c-.84.34-1.52.64-2.22.89C533.37,536.71,533.36,536.7,533.41,538.63Zm-33.34-27.48a12.68,12.68,0,0,1-1.95,0,2.78,2.78,0,0,0-2.59.9,14.61,14.61,0,0,0-2.19,2.67,9.1,9.1,0,0,1-5.24,4.07,7.73,7.73,0,0,1-4.87.3,12.16,12.16,0,0,0-2.66-.21,2.31,2.31,0,0,0,1.92,2.47,14.12,14.12,0,0,0,4.93.28,3.87,3.87,0,0,1,4.24,3,8.83,8.83,0,0,0,.57,1.39c.35.68,1,.6,1.6.49a1.44,1.44,0,0,0,1-.77,25.82,25.82,0,0,1,2.64-5.57,1.65,1.65,0,0,0,.3-1.83,1.86,1.86,0,0,0-1.89.69c-.43.49-.79,1-1.21,1.54a2.61,2.61,0,0,1-2.43,1.24c-.26,0-.48-.29-.72-.44.18-.26.33-.72.54-.75,1.09-.15,1.58-1,2.17-1.73a18.37,18.37,0,0,1,1.92-2.12c.69-.65,1.49-1.18,2.22-1.78,1.65-1.38,3.28-2.78,4.95-4.15a1.57,1.57,0,0,1,.94-.39c1.84.06,3.89-.4,4.95,1.81a2.29,2.29,0,0,0,.64.64,1.72,1.72,0,0,0,1.56.47,3.48,3.48,0,0,0-.74-4.69,5.22,5.22,0,0,1-.72-.77c-1.26-1.74-3.63-1.58-5-.94A11.61,11.61,0,0,0,500.07,511.15ZM545,520.73l1.83.89c.14-.16.33-.28.32-.38-.1-1.33-.2-2.67-.38-4-.08-.59-.56-.79-1.14-.66-.79.17-1.57.33-2.35.51-.94.22-1.17.49-1.07,1.48.13,1.3.37,2.59.53,3.88.31,2.42,2.77,3.3,4.4,3.34A.78.78,0,0,0,548,525a1.83,1.83,0,0,0-1.32-2.08c-.84-.28-1.72-.44-2.64-.66Zm8.43-6.54c-2.23.49-2.58,1-2.21,2.92.16.79.29,1.58.47,2.37a3.94,3.94,0,0,0,.43,1.11,1.72,1.72,0,0,0,2,.55c.5-.13.81-.37.77-.94A19.49,19.49,0,0,0,553.44,514.19Zm15.72,8.34c.33-.21.73-.43,1.08-.7,1.23-1,1.22-1.83,0-2.79a17.79,17.79,0,0,0-1.63-1.09,1.79,1.79,0,0,0-2.62.52,1.66,1.66,0,0,0,.35,2.29,20.41,20.41,0,0,0,2.34,1.64A1.84,1.84,0,0,0,569.16,522.53Zm1.47-5.4a8,8,0,0,1,.44,1c.29,1.06,1.18,1.28,2.06,1.47a1.4,1.4,0,0,0,1.58-1.07c.27-1.55-1.7-3.75-3.27-3.62-.24,0-.59.13-.66.29-.38.87-1.26,1-2.12,1.43l.86,1.32Zm-6.89,7.16c.08,0,.48-.06.87-.15,1-.23,1-.47,1.06-1.46,0-1.51-2.8-2.93-4.1-2.35-.52.23-.86.59-.62,1.17.32.74.7,1.45,1.06,2.16S562.82,524.38,563.74,524.29Zm-12.68-4.44a9.39,9.39,0,0,0-.95-3.86c-.05-.14-.3-.25-.47-.29a1.59,1.59,0,0,0-2,1.82c.05.45.06.9.12,1.34a11.08,11.08,0,0,0,.35,1.91,1,1,0,0,0,.73.57,3.24,3.24,0,0,0,1.08-.19l-.07-1.47Zm33.8-45a3.08,3.08,0,0,0-.13-3.45,26.16,26.16,0,0,0-2.1-2.37c-.47-.53-1-.41-1.45,0a1.06,1.06,0,0,0-.12,1.61c1.1,1.41,2.26,2.78,3.41,4.16C584.51,474.84,584.66,474.8,584.86,474.82Zm-52.41,48c0-1.11.1-2,.06-2.86a1.76,1.76,0,0,0-2.19-1.81c-.36.07-.89.46-.93.76a8.06,8.06,0,0,0,.39,3.74l.43.25.39-1C531.27,522.18,531.73,522.42,532.45,522.79Zm23.74-.69a14,14,0,0,0,.39,1.56,2.87,2.87,0,0,0,3.49,1.81c1-.36,1.27-1.13.49-1.81a13.3,13.3,0,0,0-2.92-1.77C557.33,521.74,556.82,522,556.19,522.1Zm33-20.62a4.9,4.9,0,0,0-1.08-3.23c-.33-.44-.76-.89-1.4-.51s-1.08,1.67-.7,2.11A3.79,3.79,0,0,0,589.16,501.48Zm-1.08-22.12a3.88,3.88,0,0,0-1.15-5C585.71,476.06,586.12,478,588.08,479.36Zm-61.76,38.79c-.17,3.18.09,3.7,1.87,3.77a4.27,4.27,0,0,0,0-2.78C528,518.13,527.67,518,526.32,518.15Zm29.74,7.5a3.58,3.58,0,0,0-3.29-2.5c0,1-.16,2.1.68,2.76A2.11,2.11,0,0,0,556.06,525.65Zm-15.7,11.49c-.46-.95-.91-1.41-1.74-1.28a2.78,2.78,0,0,0-2,1.62.65.65,0,0,0,.87.81C538.42,538,539.31,537.57,540.36,537.14Zm11.74-11.93c.22-2.93-1-3.24-2.72-2.35C549.77,523.93,550.5,524.58,552.1,525.21Zm33.14-55c.55-2.15.4-2.5-1.48-3.48C582.87,467.94,583.42,469.31,585.24,470.24Zm-51,64.93c-1.52-.73-2.64-.18-3.74.09-.19,0-.4.72-.29,1s.68.6.89.51C532.06,536.34,533,535.8,534.21,535.17Zm-11.93-14.94c0-.78.11-1.41.09-2a.66.66,0,0,0-.8-.69,1.47,1.47,0,0,0-1,.5C520,519.06,520.43,519.7,522.28,520.23Zm69.48-31.81a3.64,3.64,0,0,0-1.6-3.15C589.3,486.59,589.79,487.61,591.76,488.42Zm-61.52,46.06c-.93-.55-1.66-1-2.47-.28a1.18,1.18,0,0,0-.3,1.81ZM515.3,515.7c1.24-.11,1.22-1,1.34-1.75,0-.23-.17-.7-.29-.7a1.11,1.11,0,0,0-.88.28A2,2,0,0,0,515.3,515.7Zm3,4.39a2.08,2.08,0,0,0,.27,2.6.51.51,0,0,0,.91-.25,3.09,3.09,0,0,0-.19-1.42C519.11,520.69,518.7,520.47,518.27,520.09Zm5.05-.45,1.56.47a1.59,1.59,0,0,0-.14-2c-.15-.15-.72-.17-.79-.06A11.05,11.05,0,0,0,523.32,519.64Zm8.94,6.87.38-.21c0-.36,0-.85-.18-1a3.52,3.52,0,0,0-1.32-.58c-.09,0-.34.19-.4.34a.58.58,0,0,0,.1.52C531.29,525.89,531.78,526.19,532.26,526.51Zm55.06-56.29c-1,1.39-.86,2,.42,2.89A3.8,3.8,0,0,0,587.32,470.22Zm-45.18,68.15c-1-.45-1.65-.43-2,.09a.91.91,0,0,0-.09.69.56.56,0,0,0,.46.27C541.14,539.26,541.87,539.18,542.14,538.37Zm-33.77-23.15c-.22.88-.54,1.78.63,2.49A2.07,2.07,0,0,0,508.37,515.22Zm16.91,9.21c.2-1.49-.16-1.85-1.45-1.55C523.8,523.81,524.37,524.18,525.28,524.43Zm-9.41-1.24c.2-.41.29-.62.41-.83s.42-.74,0-1.05c-.17-.12-.61-.14-.67,0a2,2,0,0,0-.37,1C515.23,522.56,515.56,522.8,515.87,523.19Zm66-17c-.18.42-.53.84-.44,1.14.16.54.69.63,1.28.4C582.89,507,582.64,506.58,581.83,506.16Zm-44.83,21c.54-.43.67-.85.26-1.21s-.87-.32-1.45.18ZM513.89,525c.77-1,.31-1.55-.15-2.3A2,2,0,0,0,513.89,525Zm41.24,2.54,1.52,1C556.6,527,556.53,527,555.13,527.53Zm-42.19-14.14-.33,0a1.43,1.43,0,0,0,.46,1.8C513,514.6,513,514,512.94,513.39Zm53.56,3.16a6.29,6.29,0,0,0-1.18-.46c-.09,0-.36.32-.36.5,0,.44.23.78.74.62C565.93,517.14,566.11,516.89,566.5,516.55Zm-61.93-1.49c.45-.49.46-.89,0-1.21-.09-.07-.43,0-.51.14C503.77,514.49,504,514.82,504.57,515.06Zm2-.79c-.48.6-.53,1,.31,1.29C507.19,515,507.19,514.61,506.57,514.27Zm43.79,11.18-1.26-.83C549.32,525.79,549.32,525.79,550.36,525.45Zm15.94.15a3.43,3.43,0,0,0-.8-.52c-.12,0-.3.17-.46.26.17.2.3.47.52.58S565.92,525.77,566.3,525.6Zm-46.6-.25c-.32-1.22-.32-1.22-1.21-1.31Zm47.2-3.2c-.29.45-.47.61-.46.74s.22.26.33.38c.14-.15.36-.28.4-.45S567,522.48,566.9,522.15Zm9-3.94c.11-.26.27-.46.23-.57a.55.55,0,0,0-.43-.27.53.53,0,0,0-.3.41C575.39,517.91,575.63,518,575.87,518.21ZM555.94,523l-.22-.36a1.87,1.87,0,0,0-.59-.25c-.09,0-.31.36-.28.39a1,1,0,0,0,.52.38C555.54,523.21,555.75,523.07,555.94,523Zm-37.12-5,.35-.19c-.1-.24-.21-.49-.31-.74l-.47.24Zm71.69-38.95-.37,0c.05.25.09.49.14.74l.23,0ZM515.6,517.68l-.06.27.72.21.09-.38Zm57.25-57.09a2.72,2.72,0,0,0,.32-.52c0-.05-.17-.16-.26-.24a2.06,2.06,0,0,0-.33.4S572.72,460.42,572.85,460.59Zm1.86-3.26-.21-.11c0,.07-.11.15-.11.23s.13.08.2.11Z" transform="translate(-478.82 -441.86)"/><path class="a" d="M563.27,508.59a17.82,17.82,0,0,1,1.69-2.06c1.14-1,1.23-1.09.77-2.59-.32-1.06-.71-2.09-1-3.15a4.75,4.75,0,0,1-.21-1.56c1.14,1.55,1.09,3.63,2.4,5.07,1.82-1,2.41-2.35,1.72-4-.45-1.11-1-2.18-1.5-3.29a4.29,4.29,0,0,1-.34-1.58c1,.68,1,1.86,1.59,2.75a28.57,28.57,0,0,1,1.43,2.82c1.21-.45,1.87-1.08,1.79-2.27-.05-.88.36-1.2,1.19-1.07l0,0v3.35c-.31,0-.81-.68-1.27,0s-1,1.08-.79,1.87a14.14,14.14,0,0,0,.41,1.45c.41,1.19.87,2.36,1.24,3.56.46,1.49,1.73,2.2,2.92,2.87.58.32,1.5.06,2,.06a5.9,5.9,0,0,0,.82,1.49,6.2,6.2,0,0,0,2.53,1.51,12.44,12.44,0,0,1,3,1.91l-1.44.45c.09.71.18,1.41.26,2.1l-.32.08a2.55,2.55,0,0,1-.36-.52c-.18-.58-.3-1.17-.48-1.75-.32-1-.73-1.85-2-2a5.67,5.67,0,0,1-1.56-.7c-.14.38-.23.65-.36,1-.53-1.79-1.94-2.47-3.61-3.07l-.28,1.06c-1.63-2.93-2-6.28-3.89-9.12a3.94,3.94,0,0,0-2.15,3.05,12.31,12.31,0,0,0,.68,3.51l-.3.1c-.25-.68-.5-1.35-.74-2-.5-1.37-.86-1.47-2-.6l-1.83,1.32Z" transform="translate(-478.82 -441.86)"/><path class="a" d="M563,471.4c-1.56,2.08-3.76,3.45-5.72,5.08s-3.79,3.12-5.7,4.67a3.91,3.91,0,0,1-1.36.75,3,3,0,0,1,1.35-1.85,8.84,8.84,0,0,0,1.19-.9,40.93,40.93,0,0,1,6-4.95c.94-.66,1.72-1.53,2.6-2.28a1.53,1.53,0,0,1,1.63-.5Z" transform="translate(-478.82 -441.86)"/><path class="a" d="M576,481.93c1.87,3.39,3.92,6.67,5,10.41C579.27,488.91,577.16,485.65,576,481.93Z" transform="translate(-478.82 -441.86)"/><path class="a" d="M542.91,494.82c1.19-1,2.37-1.94,3.58-2.88a5,5,0,0,1,1.47-.83,14.15,14.15,0,0,1-3.67,3.65c-.3.23-.92,0-1.4,0Z" transform="translate(-478.82 -441.86)"/><path class="a" d="M573.57,496.42c0-.63,0-1.27-.06-1.89a7.4,7.4,0,0,1-.15-1.68,5.68,5.68,0,0,1,.54.92c.28.77.65,1.25,1.53.65-.07.8-.13,1.51-.2,2.21h0l-1.7-.23Z" transform="translate(-478.82 -441.86)"/><path class="a" d="M571.4,488.28a5.62,5.62,0,0,1,1.18,3.17A4.59,4.59,0,0,1,571.4,488.28Z" transform="translate(-478.82 -441.86)"/><path class="a" d="M575,490c-.43-.95-.86-1.9-1.28-2.85l.3-.14c.43,1,.85,1.9,1.28,2.86Z" transform="translate(-478.82 -441.86)"/><path class="a" d="M577.17,502.56l-1.29-3a4.56,4.56,0,0,1,1.27,3Z" transform="translate(-478.82 -441.86)"/><path class="a" d="M570.86,495.18c.14.39.3.81.46,1.23l-.33.14c-.15-.41-.3-.82-.44-1.24,0,0,0-.09.06-.11S570.7,495.19,570.86,495.18Z" transform="translate(-478.82 -441.86)"/><path class="a" d="M578.84,497.05c.25.47.5.93.74,1.4l-.21.12-.77-1.39Z" transform="translate(-478.82 -441.86)"/><path class="a" d="M546.57,485l-.89.6-.14-.2.9-.59Z" transform="translate(-478.82 -441.86)"/><path class="a" d="M541.07,530.36l.94.18,0,.23-.93-.06C541.06,530.6,541.06,530.48,541.07,530.36Z" transform="translate(-478.82 -441.86)"/><path class="a" d="M551.7,530.52l.83.57-.12.19-.88-.47Z" transform="translate(-478.82 -441.86)"/><path class="a" d="M573.62,502.48c0,.3.07.6.11.9l-.24,0-.18-.91Z" transform="translate(-478.82 -441.86)"/><path class="a" d="M575.52,508.49l-.38-1.07.17-.06.3,1.1Z" transform="translate(-478.82 -441.86)"/><path class="a" d="M549.41,482.86l-.59.57-.27-.25.54-.67Z" transform="translate(-478.82 -441.86)"/><path class="a" d="M561.23,480.15a1.41,1.41,0,0,1,1.15-1.2l0,0-1.15,1.2Z" transform="translate(-478.82 -441.86)"/><path class="a" d="M569.72,492.11l-.51-.8.32-.13c.05.32.11.64.17,1Z" transform="translate(-478.82 -441.86)"/><path class="a" d="M562.38,479l.42-.83.25.2-.7.6Z" transform="translate(-478.82 -441.86)"/><path class="a" d="M569.7,492.14l.39,1.2-.31.06c0-.43,0-.86-.06-1.28Z" transform="translate(-478.82 -441.86)"/><path class="a" d="M572.72,497.59l0,0,.81-1.2,0,0Z" transform="translate(-478.82 -441.86)"/><path class="a" d="M561.2,480.12l-.62.6-.14-.2.79-.37Z" transform="translate(-478.82 -441.86)"/><path class="a" d="M564.34,529.61c-.11,0-.21.09-.27.07a.41.41,0,0,1-.19-.2s.09-.11.15-.17Z" transform="translate(-478.82 -441.86)"/><path class="a" d="M575.23,496.63c0,.27,0,.53,0,.8l-.23-.05.28-.76Z" transform="translate(-478.82 -441.86)"/><path class="a" d="M586.61,504.21l.06.22-.11,0a1.66,1.66,0,0,1-.06-.21Z" transform="translate(-478.82 -441.86)"/><path class="a" d="M536.83,512.86l.18-.61.2.09-.39.53Z" transform="translate(-478.82 -441.86)"/><path class="a" d="M586,483.73l.93,2.16A2.28,2.28,0,0,1,586,483.73Z" transform="translate(-478.82 -441.86)"/></svg>