<svg xmlns="http://www.w3.org/2000/svg" viewBox="0 0 100.78 120.63"><defs><style>.a{fill:#3c4669;}</style></defs><path class="a" d="M479.29,227.7a36.48,36.48,0,0,1,2,3.39c.84,1.77,1.46,3.64,2.27,5.43a9.2,9.2,0,0,0,1.41,2.1c1.28,1.5,2.66,2.92,3.91,4.44s1.27,2.87-.17,4.4c-1.27,1.35-2.68,2.58-4,3.91a6.08,6.08,0,0,0-1.88,5.23c.33,2.46-1.1,4.11-2.73,5.64a8.05,8.05,0,0,1-1.4,1.06c-1.72,1-1.94,2.69-1.86,4.45a2.29,2.29,0,0,0,2.36,2.31c.79.07,1.59.11,2.38.25a3.83,3.83,0,0,1,3.05,2.54,3.06,3.06,0,0,1,.23,1.51,2.65,2.65,0,0,0,.65,2.19c2.26,3,5.38,3.9,8.92,4.15,5,.35,9.95,1.15,14.46,3.64,4.14,2.28,8.31,4.55,12.5,6.73,1.74.91,3.6,1.6,5.4,2.38a12.62,12.62,0,0,1,1.76.76c3.58,2.21,7.63,3,11.63,3.82,2,.43,4,.74,6,1.09,1.53.27,2.79-.54,4.11-1.06,1.73-.69,3.41-1.48,5.12-2.23a3.85,3.85,0,0,0,1.13-.56c1.22-1.21,2.38-2.48,3.62-3.77.94.25.94,1,.85,1.75a21,21,0,0,0-.33,2.21,4.43,4.43,0,0,0,1.69,3.79c.25.2.55.48.82.47,1.61,0,1.76,1.09,1.82,2.26a12.88,12.88,0,0,0,1.23,5.73,5.54,5.54,0,0,1,.42,4.12,13.57,13.57,0,0,0-.25,2.7,3.56,3.56,0,0,1-1.44,2.89c-.83.67-1.61,1.39-2.41,2.1a5.41,5.41,0,0,0-1.59,3.06c-.36,1.6-.6,3.28-1.83,4.53a4.84,4.84,0,0,1-1.47,1.17c-1.68.73-2.7,2.15-3.81,3.49-.28.32-.45.74-.75,1-2,2-3.95,4.05-6.14,5.79a30.31,30.31,0,0,1-5,2.73,8.16,8.16,0,0,0-1.16.52c-2.13,1.53-4.66,2.26-6.9,3.57a10.79,10.79,0,0,1-5,1.52,21.48,21.48,0,0,0-2.79.62,24.32,24.32,0,0,1-2.82.44c-1.69.15-3.39.29-5.09.33-1.32,0-2.66-.05-4-.12-1.12-.05-2.23-.15-3.35-.25a13.79,13.79,0,0,1-1.57-.22c-2.39-.53-4.79-1-7.16-1.61a26.23,26.23,0,0,1-4.58-1.34c-2.13-1-4.14-2.2-6.19-3.32a7.15,7.15,0,0,0-1.26-.7,15.66,15.66,0,0,1-5.32-2.82,28.27,28.27,0,0,1-3.62-3.11q-3.6-3.94-7-8.11a18.92,18.92,0,0,1-1.66-3.08c-.7-1.31-1.48-2.59-2.07-3.95a45,45,0,0,1-1.64-4.65c-.64-2.14-1.23-4.3-1.75-6.48a38.35,38.35,0,0,1-.93-7.1,62.14,62.14,0,0,1,1-13.21c.26-1.52.72-3,1.07-4.51s.79-3.3,1.08-5a8.57,8.57,0,0,0-1-5.85c-.45-.78-.73-1.65-1.11-2.48a3.34,3.34,0,0,1,.78-4c.69-.74,1.38-1.48,2.11-2.19a13,13,0,0,0,2.77-3.87c1-2,2.15-3.94,3-6a21.59,21.59,0,0,0,.95-4.49c.05-.31-.21-.69-.36-1-.28-.63-.58-1.25-.87-1.88a4.71,4.71,0,0,1,.67-5.13,9.41,9.41,0,0,0,1.81-5.17c.31-3,.6-5.9.89-8.85Zm54.44,88.95a8.81,8.81,0,0,1-.61-1.42c-.29-1.11-.32-1.19-1.5-1.22-.46,0-.93.05-1.43.08a22.26,22.26,0,0,0-.54,6,9.78,9.78,0,0,1-.78-4.21c0-.5-.2-1.33-.48-1.41a6.22,6.22,0,0,0-2.47-.14c-.73.1-.68.84-.74,1.42,0,.25-.1.49-.15.77-.88-.11-.82-.72-.82-1.22a1.35,1.35,0,0,0-1.36-1.47c-.37-.05-.74-.08-1.11-.11a1,1,0,0,0-1.21,1c-.17,2.39-.32,4.79-.36,7.18a1.62,1.62,0,0,0,.87,1.2,7.46,7.46,0,0,0,3.41.53c0-.62,0-1.2,0-1.77s-.22-1.22.67-1.88c0,.93,0,1.56,0,2.18.16,1.81.38,2,2.22,2.25a8.1,8.1,0,0,1,.81.16c-1,.94-2.17,1.63-2.55,2.64a4,4,0,0,0,.24,3.6c1-.94,1.86-1.73,2.67-2.56a2.73,2.73,0,0,0,.91-2.9c-.47-1.32.1-2.55.16-3.85a5.16,5.16,0,0,1,.44,1.6c.1.69,0,1.53.33,2a2.44,2.44,0,0,1,.26,2.34c-.37,1.57-.36,3.06,1.75,4a6.73,6.73,0,0,1-1.49.61c-1.06.1-2.12.1-3.18.13s-1.85-.07-2.29,1c-1.49-1.56-3.08-.77-4.78-.64l.16,2.87a1.54,1.54,0,0,1-.71-1.05c-.11-2.28-.9-2.43-3.08-2.43-.42,0-.84.06-1.2.08l-.92,1.63c-.23-2.06-1.51-2.54-2.88-2.86-1.67-.39-1.86-.25-2.16,1.46,0,.06-.17.1-.46.27-.12-.61-.22-1.15-.34-1.68-.23-1.07-.92-1.39-1.87-.89-.34.18-.67.38-1.15.65.46-1.74.46-1.71-1.16-2a1.91,1.91,0,0,1-1-.67.93.93,0,0,0-1.26-.29c-.25.13-.53.21-1.06.42,1-1.84-.76-2-1.5-3.15.84.3,1.41.52,2,.7s1.16.31,1.42-.29a6.35,6.35,0,0,0,.4-2c.05-.6.13-1.28-.61-1.68l-1.91,1.18a4,4,0,0,0-1.86,5.19,7.45,7.45,0,0,1,.18,1.18,2.38,2.38,0,0,1-.62-1.42c-.07-1-.32-1.87-1.51-2.07a14.23,14.23,0,0,0,1.07-2.57,3.94,3.94,0,0,0-.22-2.93l-1.65.64c.6-.73,1.18-1.47,1.79-2.19a1.23,1.23,0,0,0,.19-1.6c-.41-.58-1-.45-1.57-.18a2.91,2.91,0,0,0-1.74,2.62c-.08,1.06.11,1.23,1.37,1.32a5.24,5.24,0,0,1-.62,1.09,2.26,2.26,0,0,0-.63,2.48c.06.15,0,.34-.08.88-.68-1.2-1.09-2-.77-3.12a14.72,14.72,0,0,0,.26-2.82c-.55.15-.9.15-1.1.32-1,.86-1.53,3.61-.83,4.74a46.89,46.89,0,0,0,4.2,6.54,2.36,2.36,0,0,0,2.1,1.11,3.46,3.46,0,0,1,1.49.42c.77.35,1.53.73,2.27,1.16a5.74,5.74,0,0,1,1.66,1.18,8.11,8.11,0,0,0,6.09,3.05c1.37.11,2.71.52,4.08.7a11.65,11.65,0,0,0,3,.15c3-.36,6-.8,9-1.3,1.19-.2,2.33-.65,3.51-1a18.56,18.56,0,0,1,3.07-.68,4.64,4.64,0,0,0,2.39-.77c.39-.27.75-.62,1.16-.85a31.59,31.59,0,0,0,6.54-5c.21-.2.78-.38.9-.27.45.4,0,.75-.24,1.07-.07.08-.16.18-.25.19-1,.16-1.44,1-2,1.75a11.89,11.89,0,0,1-3.92,3.2c-.37.21-.72.46-1.07.7a40.89,40.89,0,0,1-3.69,2.47,11.25,11.25,0,0,1-4,1.51,15.87,15.87,0,0,0-4.59,1.21c-1,.42-2,1.14-3.19.77s-2.24,1-3.21-.28c-.07-.09-.42,0-.61,0-2.19.77-4.42.22-6.62.11a7.55,7.55,0,0,1-2.92-.75,2.42,2.42,0,0,0-2.38-.09,5.09,5.09,0,0,0-1.52-.6c-1.94,0-1.94.07-2.48-1.77,0-.08-.15-.13-.38-.32l-1.81.94c-.66-.61-.66-.61-.58-1.59s-.3-1.38-1.29-1.24c-.21,0-.4.13-.61.18-1.08.29-1.29.15-1.6-1a3.85,3.85,0,0,0-.27-.74c-.49-1-.89-1-1.67-.31s-.91.74-1.91-.19c.41-.85,1.19-1.65.71-2.72-2.16-.74-2.08,1.47-3,2.37-1.47-1.23-2.82-2.3-2.7-4.37,0-.9-.55-.94-1.33-.76-1,.23-1.37-.16-1.25-1.18.05-.44.1-.88.18-1.69l-2.11,1.28c-1.15-.93-1.13-.92-.77-2.22a11.68,11.68,0,0,0,.18-1.73l-2.55.45c-.17-.61-.33-1.24-.53-2L477.4,321a18,18,0,0,0,1.36-1.22c.22-.24.54-.73.44-.87a2.79,2.79,0,0,0-1.11-1c-.54-.26-.87.14-1.07.65a3.26,3.26,0,0,1-.45.62c-.2-.24-.3-.35-.4-.48-.54-.69-1.36-1.31-.28-2.27.31-.26,0-.73-.43-.79a2.69,2.69,0,0,0-.86.23c-.89-2.29-1-4.67-1.29-7s-1.12-4.72-1.61-7.08-.45-4.66-1.47-7.23a11.08,11.08,0,0,0-.59,1.34,21.86,21.86,0,0,0-.28,8.1c.06.42.45.79.64,1.2s.38.83.25,1c-1,1.1-.26,1.94.31,2.85a2.22,2.22,0,0,1,.4,1.16,13.64,13.64,0,0,0,1,6.23c.77,1.86,1.71,3.66,2.65,5.44a37.09,37.09,0,0,0,2.81,4.81,17.26,17.26,0,0,0,3.56,3.63,15.82,15.82,0,0,1,4.36,4.61,5.39,5.39,0,0,0,3.06,2.38,18.5,18.5,0,0,1,4,1.71c1.89,1.17,4.07,1.84,5.74,3.38a2.16,2.16,0,0,0,.87.39,34.44,34.44,0,0,0,5.7,1.49c3.17.29,6.27,1,9.49,1.19a46,46,0,0,0,10.49-.48c2.34-.42,4.7-.53,6.94-1.53,2.77-1.23,5.69-2.14,8.52-3.22a9.48,9.48,0,0,0,1.41-.83c-.42-.83-.89-.83-1.43-.54l-1.28.67,0,0a4.48,4.48,0,0,1,.69-1c1.84-1.39,3.71-2.75,5.56-4.11a2.3,2.3,0,0,0,.29,2.69l1.69-1c-.5-.86-.29-2.12-1.74-1.95.63-.56,1-1.43,1.92-1.91,0,1.15,0,2.14.83,2.8,1.8-.65,1.94-1,1.2-2.51-.25-.53-.5-1.06-.7-1.61s.11-.87.77-1c.36,1,.7,2,1,3,1,.05,1.27-.45,1.21-1.18a9.76,9.76,0,0,0-.46-2.66,4.64,4.64,0,0,1,.13-3.53c.47,1.7.54,3.5,1.24,5.19,1.15-.86,1.32-1.34,1-2.49-.21-.82-.4-1.65-.6-2.48s-.37-1.66-.61-2.48c-.33-1.14-1.13-1.4-2-.65a5.8,5.8,0,0,0-.91,1.11c-.4.56-.78,1.14-1.16,1.71a3.89,3.89,0,0,1,.27-1.14c.69-2.49,1.37-3.09,4-3.23a2.43,2.43,0,0,0,2.32-1.65,14.3,14.3,0,0,0,.72-3.09c.25-1.83.73-2.38,2.54-2.73.46-.09,1.09-.14,1.32-.45,1-1.36,2.45-2.5,2.22-4.56a38.91,38.91,0,0,1,0-4.45c0-.4-.08-.79-.16-1.5a5,5,0,0,0-.74.93c-.59,1.37-1.12,2.77-1.7,4.14s-1.22,3-1.95,4.38a7.67,7.67,0,0,1-3.78,3.32c-2.12,1-4.28,1.92-5.89,3.72-.23.25-.64.31-1,.49l-1.34-1.62c1.67-.89,1.5-2.39,1.51-3.82a6.15,6.15,0,0,1,0-1,3.65,3.65,0,0,1,.28-.73l.24.05c.08,1.08.16,2.16.24,3.27,2.12-.51,2.93-1.51,2.92-3.35,0-.69.08-1.38.11-2.07s0-1.13,0-1.73l-1.5-.33a15.94,15.94,0,0,0,4.29-3.36,11.3,11.3,0,0,1,2.32-2.41c1.29-.91,1.64-2.26,2.28-3.57-1.15-.81-2.1-.37-3,.17s-2.07,1.31-3.17,1.83a2.94,2.94,0,0,0-1.62,1.18,1.24,1.24,0,0,1-1.63.66,3.64,3.64,0,0,0-3,.4,6.09,6.09,0,0,1-3.9.49,23.89,23.89,0,0,0-7-.65,4.74,4.74,0,0,1-3.37-.7,1,1,0,0,0-.59-.18c-2.86.24-5.45-.83-8-1.72-2.11-.72-4.11-1.79-6.21-2.53a20.08,20.08,0,0,1-5.77-2.67c-1.1-.84-2.22-1.65-3.38-2.41-2.15-1.38-4.4-2.63-6.49-4.09a24.6,24.6,0,0,0-7-3.42,32.58,32.58,0,0,0-4.06-.74,9.62,9.62,0,0,1-2.5-.43,44.08,44.08,0,0,1-6.17-3.32,4.71,4.71,0,0,1-2.38-4.72,1.66,1.66,0,0,0-.05-1.09,2.6,2.6,0,0,0-1.19-.9c-.15-.05-.68.49-.77.83a5.15,5.15,0,0,0,0,1.71c.21,1.71,1.39,3,2.14,4.43a35.52,35.52,0,0,0,2,3.65,51.87,51.87,0,0,0,7.2,8.86,58,58,0,0,0,8.21,6.61c.88.58,1.68,1.27,2.52,1.9a12,12,0,0,0,1.55,1.13c.66.36,1.12.13,1.35-.58.33-1,.09-1.59-.91-2.29-.44-.31-.89-.58-1.33-.88l.16-.27c1.57.59,3.19,1.09,4.72,1.78a56.92,56.92,0,0,0,11.49,4.27,14.82,14.82,0,0,1,1.59.53c-.31.39-.66.63-.86.55a13.49,13.49,0,0,0-4.42-1c-.15,0-.29-.14-.44-.19-1-.35-2-.68-3-1.05s-2.08-.8-3.12-1.22c-.44-.18-.85-.45-1.3-.6-1.2-.4-1.66-.08-1.86,1.16a1.77,1.77,0,0,0,.61,1.71,3.38,3.38,0,0,0,3.33.84,8.78,8.78,0,0,1,0,2.37c-.89,2.85-.71,5.79-.93,8.69,0,.3,0,.78.23.89,1,.6,1.95,1.51,3.37,1.23a40.49,40.49,0,0,0,.75-7,2.43,2.43,0,0,0-1.23-2.4c-.48-.31-1.15-.53-1.36-1.48a7.67,7.67,0,0,0,1.72.75,5.7,5.7,0,0,0,1.64-.24,10.37,10.37,0,0,1,.19,2c-.2,2.49-.51,5-.72,7.45a8.36,8.36,0,0,0,.27,1.8,9.19,9.19,0,0,1,2.18,0,8.37,8.37,0,0,1,1.87,1.15c.11-.86.25-1.46.26-2.06,0-2.62,0-5.23.08-7.85a4.16,4.16,0,0,1,.9-2.88c0,.79.08,1.21.07,1.62,0,2.93-.13,5.86-.09,8.78,0,.86-.61,1.94.22,2.57a8.89,8.89,0,0,0,2.52.91,1.87,1.87,0,0,0,.32.08c.78.12,1.09-.09,1.13-.92.12-2.29.18-4.58.27-6.87a1.32,1.32,0,0,0-1.14-1.49c-.59-.13-1.16-.34-1.74-.51,1.24-.63,2.62.29,3.57-.9a3.71,3.71,0,0,0,4.25.57,12.11,12.11,0,0,0,2.37.44,20.88,20.88,0,0,1,4.87,0,3.49,3.49,0,0,0,1.09-.15,7.57,7.57,0,0,1,.94-.07c1.21,0,2.42,0,3.62,0,.3,0,.59,0,1,.06-.54,2.88.64,5.7-.17,8.84-1.14-2.72,0-5.4-1-7.74-2.82.17-3.07.49-3.55,3Zm-50.34-2.47-.17-.3c.13-.16.22-.38.38-.45a3.13,3.13,0,0,0,2-2.79c0-.49.54-1,0-1.44s-1.12-.05-1.62.23a1.78,1.78,0,0,0-.7.63c-.38.71-.68,1.46-1,2.26a2.69,2.69,0,0,1-.3-.79c0-.9.05-1.8.06-2.71,0-.56.34-1.25-.32-1.6s-1.17.28-1.66.65-.68.54-1.24,1c-.23-1.25-.39-2.18-.56-3.09l-1.45-.31c1.06-1.23,2.53-2.13,1.71-3.95a2.3,2.3,0,0,0-2.68,1.62l-.32-.16c-.1-1.53-.2-3.05-.32-4.9,1-1.61.94-2-.5-3.61-.22.49-.42.89-.56,1.3s-.2.82-.3,1.24c-.67-2,.83-4.1-.52-6.14l-1.58.44c0,.5,0,.87,0,1.23.33,4.1.78,8.18,2.44,12a10.92,10.92,0,0,1,.56,1.67,19.85,19.85,0,0,0,3.64,7.57,10.4,10.4,0,0,0,2,1.76c.64.48,1.37.83,2,1.27a3.62,3.62,0,0,0,3.05.49c1.23-.31,2.49-.56,3.74-.77,1.41-.23,1.6-.55,1.05-2-.94-.14-1.4,1.34-2.76.72.8-.64,1.48-1.12,2.07-1.7.3-.29.7-.95.58-1.12a2.3,2.3,0,0,0-1.32-.95,2.54,2.54,0,0,0-2.67,2.21c-.05.34-.14.69-.26,1.22l-.9-1Zm52.26-12.77c-.94-.35-1.63-.59-2.3-.86-2.77-1.1-5.56-2.16-8.3-3.33a68.69,68.69,0,0,1-6.91-4c-4.32-2.49-8.82-4.67-13.22-7-1.85-1-3.89-1.08-5.87-1.46-.12,0-.27.12-.54.23.23.34.38.81.63.87,1.17.31,1.79,1.29,2.64,2a8.81,8.81,0,0,0,1.21.76c.87.5,1.77.95,2.61,1.5,2,1.31,3.92,2.75,6,4a26.43,26.43,0,0,0,7.57,3.33,11.66,11.66,0,0,1,1.3.6c1.69.63,3.36,1.33,5.08,1.83,2.66.77,5.35,1.38,8,2.07A2,2,0,0,0,535.65,301.41Zm-59.17-8.59c1-1.7,1-3.84,2.61-5.12a4.82,4.82,0,0,1-.39,1.79c-.53,1.3-1,2.58.18,3.77-.61.72-1.76,1.07-1.16,2.26.52,1,1.42.69,2.36.73.25-.73.52-1.42.71-2.12a31.4,31.4,0,0,1,.84-3.24,2.55,2.55,0,0,0-.44-2.66c-.9-1.25-1.78-2.52-2.58-3.83-.92-1.5-1.71-3.07-2.64-4.56a7.7,7.7,0,0,1-1.21-4.87,8,8,0,0,0,0-2.54,12.2,12.2,0,0,1,0-5.07c.09-.53.33-1.12-.3-1.75-.9,1.08-1.75,2.09-2.59,3.11a2,2,0,0,0-.33,2.35,7.77,7.77,0,0,1,.54,1.67,39.88,39.88,0,0,1,.75,8.09c.06,1.2.24,2.4.4,3.93.51-.83.81-1.39,1.18-1.89.19-.25.57-.61.76-.56.58.16.39.64.23,1.05-.35.89-.72,1.78-1,2.69a1.65,1.65,0,0,0,.49,2.05c.29-.61.51-1.12.79-1.59s.29-1.32,1.46-1c-.28.93-.54,1.77-.79,2.61a22.44,22.44,0,0,0-.71,2.61A1.87,1.87,0,0,0,476.48,292.82Zm24.46,16-.5-.14c.05-.73.05-1.47.17-2.19a1.9,1.9,0,0,0-1.1-2.22c-1.31-.73-2-.44-2.18,1-.19,1.64-.35,3.28-.51,4.92a2,2,0,0,0,1,2.32c.12.05.17.23.27.36l-1.47,1c.74.32,1.1.62,1.34.55.7-.22,1.41-.55,1.58-1.41.13-.62.19-1.26.31-1.89.08-.43.09-.94.84-1.05-.1,1.62-.18,3.14-.3,4.66-.08.94.12,1.27,1,1.48a2.4,2.4,0,0,0,2.91-2c.2-2,.25-4,.27-6.06a1.7,1.7,0,0,0-.65-1.16,10.85,10.85,0,0,0-1.9-.93C501.63,307.11,501.28,308,500.94,308.81Zm-15.45-13.58a3.4,3.4,0,0,1,0,.81c-.52,2.1-1,4.21-1.63,6.3-.19.67-.33,1.2.27,1.65,2.29-.35,2.49-.66,2.92-2.7.32-1.56,0-3.21.8-4.68.27-.51-.08-.89-.44-1.25-1.13-1.12-2.23-2.28-3.35-3.4-.36-.36-.77-.66-1.42-1.21a36.18,36.18,0,0,0-1.89,7.33l1.73.65c-.52.4-.83.67-1.17.88a.83.83,0,0,0-.31,1.33.94.94,0,0,0,1.37.38,3.07,3.07,0,0,0,1-1.34c.35-1,.53-2.06.8-3.08C484.39,296.25,484.49,295.53,485.49,295.23Zm-4.7-59.52c-.1.25-.31.52-.28.76a9.92,9.92,0,0,1-1.63,7.14,1.56,1.56,0,0,0-.13,1.66,23.09,23.09,0,0,1,1.9,6.56,4.62,4.62,0,0,0,.36.87c.21-.26.36-.36.4-.49.66-2.58,1.39-5.14,1.95-7.73C484.06,241.19,482.1,238.57,480.79,235.71Zm8,61.35a6.77,6.77,0,0,0-.29,1c-.31,2-.55,4-.9,6-.16,1-.84,1.92.37,2.69.07,0,.08.33,0,.43a.75.75,0,0,0,.14,1.12,3.93,3.93,0,0,0,1,.7,1.87,1.87,0,0,0,1.93-1.09,8.42,8.42,0,0,0,.37-1.71c.21-1.63.35-3.27.59-4.9C492.33,299.2,491.13,297.55,488.76,297.06Zm4.55,3.49a5.43,5.43,0,0,0-.42,1.12c-.24,1.85-.43,3.7-.67,5.55-.11.89-.29,1.77-.42,2.66-.2,1.28.3,1.71,1.51,1.34a4.14,4.14,0,0,1,1.37-.38c1,.06,1.32-.45,1.4-1.32.17-1.8.41-3.6.52-5.41C496.72,302,495.71,300.9,493.31,300.55Zm-5.67-19.72c.09-1-.46-1.09-.87-1.29-1.44-.71-2.23-2.08-3.23-3.23a2.53,2.53,0,0,1-.27-1.67,2.82,2.82,0,0,0-2.56-3.33c-1-.12-2-.12-3-.17-.36,1.37-.39,1.42.66,2,1.25.65,1.87,1.53,1.45,3a1.93,1.93,0,0,0,.61,2,9.67,9.67,0,0,0,5.45,2.71A14,14,0,0,0,487.64,280.83Zm74.27,36.7a3.23,3.23,0,0,0,3-2.29,31.1,31.1,0,0,0,.79-4.22,1.38,1.38,0,0,0-.19-.75c-.58-1-1.17-2-1.79-3-.12-.19-.36-.29-.73-.58a6,6,0,0,0-.22,1.41c.29,2,.09,4.16,1.08,6.08a1.78,1.78,0,0,1,.18.93.76.76,0,0,1-.43.55.75.75,0,0,1-.63-.32,9.28,9.28,0,0,1-.32-1.06,14.33,14.33,0,0,0-.73-1.24C560.83,314.73,561.6,316,561.91,317.53Zm-7.33,11a17.43,17.43,0,0,0,2-1.41,1.44,1.44,0,0,0,.34-1c0-.83-.1-1.67-.15-2.5A2,2,0,0,0,555,322c-1,.06-1.52.53-1.37,1.7C553.78,325.19,554.18,326.67,554.58,328.57Zm-44.93-.39a8,8,0,0,0,3.34,1.36c.77.2,1.23-.38,1.26-1.09a24.21,24.21,0,0,0-.11-3.18.66.66,0,0,0-1.06-.54C511.81,325.65,510.41,326.47,509.65,328.18Zm41.83-15.44a10.83,10.83,0,0,0,3.19-3.4,1,1,0,0,0,.07-.75c-.28-.73-.62-1.43-.93-2.12-2.2.55-2.51.92-2.59,3,0,.53-.11,1.06-.08,1.59A15,15,0,0,0,551.48,312.74Zm-36.06,15.41c1.39-.87,2.75-1.46,3.53-2.8.15-.26.36-.61.3-.86-.31-1.31-1.54-.83-2.36-1.11-.61-.2-1.34-.25-1.53.62A6.93,6.93,0,0,0,515.42,328.15ZM476,262.82l.4.35c1.09-1.09,2.69-1.73,3.34-3.13a12,12,0,0,0,.95-6c-1.78,2.1-2,4.64-3.46,6.51A14.57,14.57,0,0,0,476,262.82Zm23.8,60.24c1.43-.4,2.38-1.51,3.44-2.42.65-.57.47-1.25-.27-1.68a2.22,2.22,0,0,0-3.22.54A3.27,3.27,0,0,0,499.8,323.06Zm-11-2c-1.16.09-2.15.22-3.13.21-2,0-2.8.94-2.48,3,1.46.24,1.77.09,2.47-1,.27-.45.35-1.14,1.21-1.14l.31,1.69,1.62-.38Zm19.83,2.17c-2.89,1.19-3.66,1.82-3.83,3.18a18.94,18.94,0,0,0,2,1c1,.35,1.73.07,2-.78A5.18,5.18,0,0,0,508.61,323.27Zm11.88,5.67c1.18-.82,2.27-1.54,3.32-2.31a1.27,1.27,0,0,0,.55-.74,1.11,1.11,0,0,0-.28-.92,2.5,2.5,0,0,0-3.49.77A3.92,3.92,0,0,0,520.49,328.94Zm-1.41-1.71a7.93,7.93,0,0,0-3.15,1.58,4.58,4.58,0,0,0-.56,1c1.23.85,2.76,1,3.53.46S519.63,328.54,519.08,327.23Zm40.08-7.13c1.06-.23,1.41-.75,1.39-1.42a12.8,12.8,0,0,0-.33-2.83c-.29-1.17-.86-1.42-2-1.09s-1.39.84-1,2.2l1.36-1.3C558.76,317.26,558.94,318.57,559.16,320.1Zm-54.25,4a5,5,0,0,0,2.07-1.48c.41-.43,1.42-.61,1.1-1.33-.22-.51-1.05-.75-1.62-1.08a.83.83,0,0,0-.6-.16c-.35.13-.9.3-1,.55A5.19,5.19,0,0,0,504.91,324.13Zm9-1.36c-1-.36-1.56-.61-2.16-.78-1.68-.5-2.42.12-2.2,1.88a10.51,10.51,0,0,0,.44,1.5A14.2,14.2,0,0,0,513.94,322.77Zm10.77,8a3.3,3.3,0,0,0-.39-2.82A4.42,4.42,0,0,0,521,330.4,4.05,4.05,0,0,0,524.71,330.81Zm-31.75-12c.48-.36.79-.56,1.06-.81a6.44,6.44,0,0,0,1-1c.36-.5.53-1.16,0-1.59-.27-.22-.85-.09-1.29-.1a.91.91,0,0,0-.3.11c-.79.33-1.75.71-1.7,1.65C491.79,317.7,492.52,318.25,493,318.85Zm64.36-.49a2.2,2.2,0,0,0-.54,2.19c.25,1.13.48,2.28.72,3.42.11.51.19,1,.82,1.23.62-.57.46-1.18.3-1.81-.28-1.13-.54-2.27-.82-3.4C557.68,319.52,557.52,319.05,557.32,318.36ZM488,331.41c.84.14,1.09-.41,1.28-1.07.28-1,.43-2,1.47-2.53.11-.06,0-.44.06-.72C488.08,327.93,487.49,328.86,488,331.41ZM479.42,307a16.33,16.33,0,0,0,2.07-1.1.94.94,0,0,0,.18-1.42,1.11,1.11,0,0,0-1.4-.42C479,304.57,478.76,305.34,479.42,307Zm6.21-58.77c1.52-1.08,2.23-1.91,2.43-2.79C485.93,245.47,485.2,246.25,485.63,248.27Zm71.84,54.8a2.84,2.84,0,0,0-1.61,3.93C556.85,305.8,556.77,304.27,557.47,303.07Zm-27.66,27.82c.17-.78.32-1.45-.72-1.9l-1.33,1.55.16.35Zm-49.4-8.53c.63-.51,1.14-.94,1.67-1.36-.45-.69-.89-1-1.43-.6S479.81,321.34,480.41,322.36Zm61.91,16.37a1.38,1.38,0,0,0,1.57-.89c.19-.58-.15-1-.73-1.12A1.39,1.39,0,0,0,542.32,338.73Zm-66.08-38.36c.95.28,1.37,0,1.47-.61s-.21-1-1-1.2C476.54,299.18,476.4,299.73,476.24,300.37Zm9.7,26.44c1.37.24,1.63-.06,1.38-1.59C486.07,325.52,486.07,325.52,485.94,326.81Zm-2.43-20c-.39.39-.78.8-.17,1.26.16.12.8-.09.9-.3C484.53,307.18,484.05,307,483.51,306.81Zm12.34,5.29c-.39-.23-.67-.49-.77-.43a3.79,3.79,0,0,0-.71.68c.19.14.43.44.56.4A3.86,3.86,0,0,0,495.85,312.1Zm-8.73-2.53c-.63.36-.77.75-.38,1.4C487.34,310.6,487.64,310.25,487.12,309.57Zm5.79,4.68c-.29-.24-.46-.51-.63-.5s-.37.25-.56.39c.14.18.26.49.42.51S492.55,314.45,492.91,314.25Zm-1.43,14.53-.53.06.07,1a3.78,3.78,0,0,0,.54-.07C491.56,329.41,491.51,329.09,491.48,328.78Zm-5.65-23.93c-.47.64-.47.64.21,1C486,305.45,485.89,305.15,485.83,304.85Zm3.48,20.33c-.43.36-.66.68-.25,1.08.07.08.33.06.43,0C490,325.89,489.81,325.56,489.31,325.18ZM472.19,288.4a1.79,1.79,0,0,0,0-.45c0-.05-.15-.08-.23-.12a2.07,2.07,0,0,0-.08.42S472.06,288.34,472.19,288.4Zm90.49,12.92.5.28c0-.08.14-.22.12-.24a4.7,4.7,0,0,0-.43-.35Zm-83.21-3.72c-.13,0-.28.09-.28.12a2.26,2.26,0,0,0,.11.37c.09,0,.24-.06.24-.1A1.34,1.34,0,0,0,479.47,297.6Zm86.38,11.68c.07-.08.17-.15.18-.22s-.08-.15-.13-.23a.86.86,0,0,0-.21.26S565.79,309.22,565.85,309.28Z" transform="translate(-466.11 -227.7)"/><path class="a" d="M534.6,328.5l-2.2,1a.83.83,0,0,1,.31-1.25c1.28-.81,1.35-2.05,1.36-3.35,0-.45,0-.9.08-1.58.39.89.71,1.53.94,2.2a2,2,0,0,1,.09,1.06c-.15.67-.4,1.31-.61,2Z" transform="translate(-466.11 -227.7)"/><path class="a" d="M533.69,316.67a3.33,3.33,0,0,1,.4,1c0,1.32,0,2.64,0,4.14a5.15,5.15,0,0,1-.39-5.18Z" transform="translate(-466.11 -227.7)"/><path class="a" d="M540.29,325.05l1.66-3.83C543.15,322,542.93,322.59,540.29,325.05Z" transform="translate(-466.11 -227.7)"/><path class="a" d="M538.8,339.51l-3.72,2-.2-.4c1.31-.55,2.19-2,3.94-1.6Z" transform="translate(-466.11 -227.7)"/><path class="a" d="M542.09,316.79v1.74c-.61-.56-.4-1.16-.37-1.74Z" transform="translate(-466.11 -227.7)"/><path class="a" d="M534.57,328.53a1.8,1.8,0,0,1,.59,1.91c-.7-.6-.38-1.34-.56-1.94Z" transform="translate(-466.11 -227.7)"/><path class="a" d="M539.08,325c.22.51.38.9.63,1.5C538.76,326,538.76,326,539.08,325Z" transform="translate(-466.11 -227.7)"/><path class="a" d="M520.47,306.75l-1.47-.18A1.07,1.07,0,0,1,520.47,306.75Z" transform="translate(-466.11 -227.7)"/><path class="a" d="M541.85,315.23a4,4,0,0,1,.12-.58s.17,0,.26,0c0,.23,0,.45-.05.67Z" transform="translate(-466.11 -227.7)"/></svg>