<svg xmlns="http://www.w3.org/2000/svg" viewBox="0 0 186.37 153.96"><defs><style>.a{fill:#3c4669;}</style></defs><path class="a" d="M756,88a37.62,37.62,0,0,1,4.55-21.08,34.31,34.31,0,0,1,10-11.49c1.7-1.23,3.64-2.11,5.41-3.23a24.07,24.07,0,0,1,9.15-3.47,44,44,0,0,1,7.59-1.06,2.83,2.83,0,0,0,1.31-.3,1.35,1.35,0,0,1,1.28.07,5.32,5.32,0,0,0,1.56.43,45.63,45.63,0,0,1,15.39,4.75,19.75,19.75,0,0,1,3.7,2.34c2.06,1.67,4.05,3.43,6,5.25a18.89,18.89,0,0,1,5,7.44c.5,1.38,1.08,2.72,1.6,4.09a8.8,8.8,0,0,1,.57,1.83c.7,4.89,1.54,9.77,1.17,14.73a13.22,13.22,0,0,1-.69,2.94c-.75,2.44-1.55,4.86-2.35,7.29a21,21,0,0,1-3.35,5.64c-1.18,1.62-2.51,3.14-3.84,4.65a16,16,0,0,1-2.39,2.26c-4.51,3.34-9.29,6.2-14.78,7.61-1.84.47-3.79.48-5.68.79-5.23.85-10.4.09-15.57-.56a13.94,13.94,0,0,1-4-1.12c-3-1.34-6-2.79-8.9-4.29a9.46,9.46,0,0,1-2.34-1.85,55.31,55.31,0,0,1-4.61-5.08,23.6,23.6,0,0,1-2.79-5c-.95-2.27-1.65-4.65-2.41-7A19.56,19.56,0,0,1,756,88Zm67.71,10A45.63,45.63,0,0,0,827,88.76a22.54,22.54,0,0,0,.56-8.18,12.35,12.35,0,0,1-.16-2.19,19.39,19.39,0,0,0-1.18-7.28,23,23,0,0,0-6.56-10.61c-1.59-1.37-3.09-2.87-4.71-4.2a14.93,14.93,0,0,0-3.22-2.06c-2.51-1.12-5.07-2.11-7.63-3.08a31.73,31.73,0,0,0-11-1.87,20,20,0,0,0-4.1.25c-2.42.46-4.83,1.07-7.21,1.72a12.67,12.67,0,0,0-3,1.25c-2.45,1.43-4.91,2.85-7.23,4.48a52.2,52.2,0,0,0-8.12,7.75,5.16,5.16,0,0,0-.61.91,40.57,40.57,0,0,0-4.27,11.25,16,16,0,0,0-.1,7.88,28.65,28.65,0,0,1,.6,7.09,11.56,11.56,0,0,0,.51,3.51c1.62,4.92,3.87,9.48,7.72,13.11a15.29,15.29,0,0,0,5.4,3.67,49.16,49.16,0,0,1,4.58,1.84c3.42,1.6,7.09,1.62,10.57,1.93,1-1,1.75-1.88,2.59-2.72a16.47,16.47,0,0,0,3.29-4.36c1-2,1.93-3.95,2.75-6a39.17,39.17,0,0,0,1.58-5c.29-1.15.3-2.36.51-3.53.08-.42.32-.88.94-.57,1,3.27-.94,6.19-1.3,9.45a7.1,7.1,0,0,0,1.45.17c2-.17,2.61-.66,2.88-2.62.18-1.36.16-2.74.22-4.11,0-.64,0-1.28.08-1.92,0-.13.21-.24.32-.35.8,1,.87,1,.85,1.51,0,1.74-.16,3.47-.25,5.2,0,.88.61,1.31,1.45,1A2.58,2.58,0,0,0,807,99.46c0-1.55,0-3.11,0-4.67,0-.3-.11-.78.63-.8.64,1.82-.25,3.92.75,5.89.69-.25,1.29-.42,1.84-.67a1.62,1.62,0,0,0,.92-1.82c-.07-.55-.21-1.08-.27-1.63-.12-1.05-.21-2.1-.34-3.46,1.3.66,1.15,1.67,1.35,2.48s0,2,.86,2.82a6.53,6.53,0,0,0,2.89-2,7.38,7.38,0,0,0-.7-4.35c-.22-.56-.65-1.12.07-1.83,1.26,1.41,1.21,3.44,2.32,4.85,1.78-1.17,1.87-1.29,1.41-2.83-.37-1.22-.89-2.4-1.28-3.62-.12-.36-.36-.87.34-1.13,1.46,1.25,1.26,3.39,2.47,4.75,2.09-.77,2.44-1.38,1.73-3.15-.44-1.11-1-2.17-1.46-3.26-.17-.41-.43-.83.06-1.4,1,.29,1,1.35,1.42,2s.93,1.74,1.39,2.61c.89-.48.78-1.17.75-1.78a8.76,8.76,0,0,0-.24-1.91c-.16-.61-.49-1.17-.71-1.77s-1-.9-.45-1.83a5.32,5.32,0,0,1,1,.93,8,8,0,0,1,.59,7.57,3.46,3.46,0,0,0-.37,1.56,12.77,12.77,0,0,1-.47,4.89,3.4,3.4,0,0,0,.1,2.12l-1.17-.74c.21-1.72,1-3.38.22-5.1-1.9.84-2.43,1.38-2.59,2.86-.11,1.09-.08,2.19-.13,3.29a7.21,7.21,0,0,1-.62,3.23l-1.36-.77c-1.76,1.45-1.28,3.92-2.71,5.54-.52-1.1.4-2.18-.58-3.17a4.87,4.87,0,0,0-2.65,1.66c-.16.23-.09.62-.12.87.73.34,1.36-.54,1.91.17-.37,1.15-1.37,1.64-2.27,2.27a2,2,0,0,0-.74,2.68,15.58,15.58,0,0,0,6-4c2.38-2.75,5-5.36,6.57-8.72C823.45,98.11,823.57,98.09,823.66,98.05Zm-34.27,17.73a7.81,7.81,0,0,0,1.41.32c1.91-.08,3.83-.14,5.74-.31a37.1,37.1,0,0,0,7.81-1.46,12.18,12.18,0,0,0,5-2.59c-.1-.68-.19-1.29-.3-2.08-1.79.54-3.39.85-4.23,2.54a2.77,2.77,0,0,1-.72.81c-.09.08-.3,0-.45,0-.07-.52-.14-1-.21-1.51a4.85,4.85,0,0,0-4.61,1.43c-.4.43-.81,1-1.74.71.42-.7,1.22-1.42,1.14-2-.21-1.4,1.22-1.2,1.53-2,.16-.41.29-.82.45-1.27a4.53,4.53,0,0,0-3.5-.67,1.81,1.81,0,0,0-.92.53,3.33,3.33,0,0,0-.63.89,14,14,0,0,1-4.69,5.28A7.56,7.56,0,0,0,789.39,115.78Zm18.53-11.53a4.67,4.67,0,0,0,2.5-.7,2.21,2.21,0,0,0,.71-2,3.53,3.53,0,0,0-.46-1.09C807.48,101.94,807.28,102.22,807.92,104.25Zm7.53-6.53c-.77.51-1.46.91-2.08,1.4-1,.79-1,1.81-.59,3.18,1.1-.4,2.25-.56,2.81-1.58A3,3,0,0,0,815.45,97.72ZM806.23,103c-.8.2-1.42.31-2,.51-1.19.41-1.26.62-.88,2.24a1.46,1.46,0,0,0,.5.14,7.42,7.42,0,0,0,1.32-.3C806.3,105.25,806.35,105.13,806.23,103Zm-5.18,1.7a5.1,5.1,0,0,0-3-.39c-.3,0-.68.56-.79.93-.16.54.28.83.77.88a12.25,12.25,0,0,0,2.18.1C801,106.22,801.26,105.7,801.05,104.74Zm4.4,2.52a18.73,18.73,0,0,0-2.57.62,1.85,1.85,0,0,0-.79,1c-.11.26,0,.62.09.94C805,109.6,805.18,109.5,805.45,107.26Zm13.38-11.73c-1.89,1.25-2,1.45-1.23,3.94C819.16,99,819.26,98.67,818.83,95.53ZM806.92,108.6c1.36-.42,2.45-.69,3.15-1.72a.84.84,0,0,0,0-.74c-.1-.19-.46-.41-.62-.36C808.27,106.14,807,106.46,806.92,108.6Z" transform="translate(-729.74 -47.25)"/><path class="a" d="M867.5,115.8a50.51,50.51,0,0,1,10.89,1.38,46.77,46.77,0,0,1,11.28,4.22q2,1.17,4.09,2.25a18.52,18.52,0,0,1,5.92,4.38,5.84,5.84,0,0,0,1.22,1.11,38.45,38.45,0,0,1,6.14,5.47,16.86,16.86,0,0,1,2.13,2.5,41.3,41.3,0,0,1,5.75,11.78c1.27,4.81,1.75,9.71.3,14.62-.24.79-.32,1.62-.52,2.41a8.45,8.45,0,0,1-.63,2.09c-1.3,2.41-2.37,5-4.36,6.94s-3.74,4-6.19,5.38a37,37,0,0,1-9.74,3.61,35.37,35.37,0,0,1-6.81.71c-1.64.09-3.29.28-4.93.24-1.91,0-3.83-.21-5.73-.44a57,57,0,0,1-7.85-1.22,79.54,79.54,0,0,1-8.74-3.19,32.48,32.48,0,0,1-8.84-5.47c-1.67-1.42-3.51-2.66-5.11-4.15a34.93,34.93,0,0,1-11.18-20.89,18.84,18.84,0,0,1-.15-4.11c.17-2.47.39-4.94.79-7.37a15,15,0,0,1,2.18-5.89,16.26,16.26,0,0,0,.9-1.7A23.72,23.72,0,0,1,849,119.74,37.84,37.84,0,0,1,867.5,115.8Zm.78,1.6c-5.89-.16-10.5.25-14.79,2.45a2.28,2.28,0,0,1-.51.21c-3.42,1-5.84,3.27-8.08,5.9-4.31,5.07-6.14,11.15-7.31,17.52a6.59,6.59,0,0,0-.09,1.09,28.76,28.76,0,0,0,1.64,10.52,16.37,16.37,0,0,0,2.55,4.52c1.29,1.67,2.48,3.42,3.91,4.95,2.59,2.78,4.91,5.88,8.56,7.51a28.44,28.44,0,0,1,3.73,2.31c3.65,2.36,7.71,3.72,11.82,5.06,3.81,1.24,7.71,1.49,11.62,1.81a49.28,49.28,0,0,0,7.39-.09,31.11,31.11,0,0,0,10.89-2.63,13.73,13.73,0,0,0,4.44-2.69,56.59,56.59,0,0,0,4.39-4.91c4.13-5.5,4.93-11.86,4.49-18.5,0-.09,0-.18-.06-.27-.25-2.77-1.33-5.32-2.2-7.91a23.94,23.94,0,0,0-7.09-10.91c-2.58-2.2-5.1-4.46-7.65-6.68a2.31,2.31,0,0,0-.45-.32c-2.71-1.51-5.36-3.17-8.17-4.48a51.62,51.62,0,0,0-7.47-2.71A40.76,40.76,0,0,0,868.28,117.4Z" transform="translate(-729.74 -47.25)"/><path class="a" d="M764.48,201.2l-10.72-1.15c-3.3-.33-6.1-1.9-8.81-3.62-1.85-1.17-3.55-2.6-5.4-3.78a14.51,14.51,0,0,1-4.61-5.36c-1-1.74-1.84-3.58-2.73-5.39a22.88,22.88,0,0,1-2.44-8.66,15.82,15.82,0,0,1,.08-3,64.21,64.21,0,0,1,1.64-10.3,7.49,7.49,0,0,1,.2-1.07c1.5-3,3-6.08,4.54-9.08a25.91,25.91,0,0,1,5.27-6.65,26.85,26.85,0,0,1,2.37-1.85c1.38-1.06,2.79-2.07,4.13-3.18a23.43,23.43,0,0,1,5.57-3.47,61.66,61.66,0,0,1,10.84-3.87c1.61-.36,3.23-.68,4.86-.89,2.09-.27,4.2-.33,6.29-.62a27.92,27.92,0,0,1,10.88.71c.53.13,1.06.27,1.6.37a31.89,31.89,0,0,1,12.22,5.38c1.58,1.08,3.3,2,4.44,3.62,2.69,3.95,5.24,8,6.57,12.59a30.12,30.12,0,0,1,.85,11.72,41.48,41.48,0,0,1-2,9.38,11,11,0,0,1-1.37,3,11.29,11.29,0,0,0-1.24,2.13A22.66,22.66,0,0,1,800,187,107.6,107.6,0,0,1,786,195.78a32.19,32.19,0,0,1-3,1.31c-1.45.58-2.92,1.1-4.35,1.7a21.33,21.33,0,0,1-7.42,1.81C769,200.69,766.69,201,764.48,201.2Zm-31.7-30.43a10.38,10.38,0,0,1,.15,1.91,19.12,19.12,0,0,0,1.41,8.6,21.23,21.23,0,0,0,5.06,8.41,32.68,32.68,0,0,0,10.27,6.21,23.76,23.76,0,0,0,8.85,1.64c1.83,0,3.66.23,5.49.18,2.19-.07,4.38-.36,6.57-.49a18.43,18.43,0,0,0,6.14-1.35c2.2-.92,4.4-1.83,6.58-2.77a30.91,30.91,0,0,0,6.2-3.53c1-.7,1.8-1.57,2.78-2.23a66.58,66.58,0,0,0,8.87-7.37,10.34,10.34,0,0,0,2.52-3.23,63,63,0,0,0,3.58-9.2,34.5,34.5,0,0,0,1.49-11.4,26.08,26.08,0,0,0-10.69-19.61,20.63,20.63,0,0,0-4.5-2.61,56.31,56.31,0,0,0-9.76-2.79,16.91,16.91,0,0,0-4.35-.51c-4.11.2-8.21.59-12.32.91a5.23,5.23,0,0,0-.54.12,79,79,0,0,0-12.26,4,14.17,14.17,0,0,0-3.08,1.75c-3.09,2.44-6.11,5-9.13,7.47a5.84,5.84,0,0,0-1.12,1.21,53.07,53.07,0,0,0-5,8.18C733.64,159.51,732.19,164.94,732.78,170.77Z" transform="translate(-729.74 -47.25)"/><path class="a" d="M789.22,86.79a31.9,31.9,0,0,1-2.55,15.13c-.89,2-2.09,3.82-4.34,4.66a19.38,19.38,0,0,0-3.13,1.7,2.64,2.64,0,0,1-2.37.25,17.88,17.88,0,0,1-3.49-1.54c-3-2-5.61-4.38-6.69-8-.68-2.27-1.47-4.52-2-6.83a15.16,15.16,0,0,1,1.09-10.94c.42-.81.83-1.63,1.21-2.46a9.71,9.71,0,0,1,3.94-4.42c1.09-.67,2.09-1.49,3.19-2.13a6.35,6.35,0,0,1,2.48-1.06c3.09-.23,6,.23,8.29,2.63a14.43,14.43,0,0,1,2.58,3.85A20.07,20.07,0,0,1,789.22,86.79Zm-5.84-6.24a3.13,3.13,0,0,1,.44-.1.59.59,0,0,1,.23,0c-.09,0-.21-.14-.29-.12a2,2,0,0,0-.41.22c-.52-.89-.52-.89-1.66-.58,0-.17,0-.34-.05-.5a.28.28,0,0,0-.14-.19c-.06,0-.16,0-.24,0a1.13,1.13,0,0,0,.11.34,1.29,1.29,0,0,0,.39.33ZM782,94.89,779.25,96,776.68,96c.64-.62.89-1,1.24-1.17,1.81-.63,3.65-1.18,5.48-1.76a8.92,8.92,0,0,0,1.53-.53c.48-.27.54-.69-.13-1.21a57.33,57.33,0,0,0-6.15,1.86,14.31,14.31,0,0,1-7.17,1.22,19.07,19.07,0,0,0-3,0,10.44,10.44,0,0,0-1.32.23,5.61,5.61,0,0,0,1,3.77,30.22,30.22,0,0,0,4.42.22A13.25,13.25,0,0,0,779,96.44c.12-.08.14-.32.21-.47,1.19.28,2.2.14,2.74-1.14a3.63,3.63,0,0,0,.71.16c.08,0,.17-.2.25-.31-.08,0-.17-.09-.23-.07A6.65,6.65,0,0,0,782,94.89Zm-6-4c.28-.59.35-1,.56-1.11a12.18,12.18,0,0,1,2.38-.59c1.9-.28,3.81-.47,5.7-.74.61-.08,1-.39.58-1.27a15.54,15.54,0,0,0-5.6.11c-2.6.48-5.21.82-7.85,1-2,.17-4,.24-5.73,1.44a16.38,16.38,0,0,0,0,2c.16,1.19.61,1.58,1.83,1.55a40.79,40.79,0,0,0,5.2-.29,25.38,25.38,0,0,0,9-2.83Zm9.53-6.17c-.32-.49-.44-.9-.66-1-2.36-.68-4.68-1.52-7.2-1.35-2.1.14-4.19.16-6.28.35a22.88,22.88,0,0,0-3.75.68,2,2,0,0,0-1.23,1,3.76,3.76,0,0,0-.23,3.38,3.47,3.47,0,0,0,.87.08c1.53-.19,3.06-.41,4.59-.61,2.54-.32,5.07-.62,7.6-1,.57-.09,1.31,0,1.52-1-.65-.08-1.27-.15-1.89-.24s-1.27.27-1.79-.6C779.9,82.78,782.55,84.77,785.53,84.71Zm-17.74-2.86c1.42-.08,2.59-.15,3.77-.2s2.19-.07,3.29-.11,2.38-.07,3.56-.16,2.22.5,3.44.18c-.82-1.26-2.2-.57-3.1-1.28l-.13-1.67c-3.09-.42-6.06.34-9,.52C768.37,79.2,767.75,80.21,767.79,81.85Zm1.51,18a4.26,4.26,0,0,0,.17,1.22,3.58,3.58,0,0,0,4.69,1.62,7.2,7.2,0,0,1,2.81-.84,3.53,3.53,0,0,0,1.28-.46q2.34-1.12,4.67-2.29c.26-.12.74-.24.31-.86-.82.31-1.64.66-2.49.94-.42.13-1.07.34-1.29.15-1.09-1-2.05-.35-3,.09a5.55,5.55,0,0,1-2.64.45C772.34,99.81,770.89,99.86,769.3,99.86Zm1.06-22.35c3.2.28,6.46-.35,9.58,0,.74-.57,1.35-1.05,2.09-1.64a12.35,12.35,0,0,0-1.85-.67,18.94,18.94,0,0,0-9.12.87A1.08,1.08,0,0,0,770.36,77.51ZM776.13,104c.72,1.34,1.16,1.66,2,1.42a5.33,5.33,0,0,0,3.43-2.5,5.87,5.87,0,0,0,.31-1.42C779.51,101.7,777.88,103,776.13,104Z" transform="translate(-729.74 -47.25)"/><path class="a" d="M795.34,95.52a9.1,9.1,0,0,1-.17,1.29,39.58,39.58,0,0,1-6.55,12.87,6.44,6.44,0,0,1-4.85,2.66c-.06,0-.13-.11-.2-.18.11-.78.82-.9,1.37-1.15a7.23,7.23,0,0,0,3-2.71,44.24,44.24,0,0,0,5.55-10.37A3.26,3.26,0,0,1,795.34,95.52Z" transform="translate(-729.74 -47.25)"/><path class="a" d="M780.31,109.93a6.73,6.73,0,0,1,2.5-2,13,13,0,0,0,5.29-6.44c1-2.33,2-4.69,3-7a4.83,4.83,0,0,1,.62-.81c.22.39.56.72.5.91-1.29,3.79-2.38,7.65-4.83,10.94a10.27,10.27,0,0,1-3.88,3.35c-1,.47-1.89,1-2.84,1.51Z" transform="translate(-729.74 -47.25)"/><path class="a" d="M824.28,78.07c1.53,1.41,1.55,1.46,1.47,3.07C824.71,80.32,824.59,79.15,824.28,78.07Z" transform="translate(-729.74 -47.25)"/><path class="a" d="M868.68,132.77a12.64,12.64,0,0,1-1.79,7.6,54.83,54.83,0,0,1-6.61,8.76c-1.48,1.67-3.16,3-5.63,2.93a8.39,8.39,0,0,0-2.63.74,4.6,4.6,0,0,1-3.21.11,26.5,26.5,0,0,0-3.44-.82,4.57,4.57,0,0,1-3-2.25,12,12,0,0,1-1.73-7.36,16.13,16.13,0,0,1,1.16-5.06c.59-1.43,1-2.95,1.45-4.42a2.57,2.57,0,0,1,.47-.95A32.58,32.58,0,0,1,854,124.82a14.48,14.48,0,0,1,6.41-1.24,9.67,9.67,0,0,1,5.1,1.8,6.52,6.52,0,0,1,3.19,5.47C868.7,131.49,868.68,132.13,868.68,132.77Zm-8.81,2.79c-.18-.05-.35-.12-.52-.16a1.22,1.22,0,0,0-.27,0c.11.09.22.23.34.24a1.62,1.62,0,0,0,.51-.14c1.49,1.48,2,1.73,3.93,1.61C862.49,136.18,861.1,136.06,859.87,135.56Zm2.55-5.4.83.8c0-.64-.48-.67-.9-.72-2.33-2-5.19-2.5-8.1-2.82a5.07,5.07,0,0,0-1.89.23c-.25.07-.47.5-.55.8s.27.52.47.57c1.68.38,3.38.7,5.08,1a1,1,0,0,0,.53,0c1.09-.62,2.11-.18,3.17.1A5.16,5.16,0,0,0,862.42,130.16Zm-19.86,11c1.05,0,2,0,3,0,1.18-.06,2.36-.22,3.55-.28,1,0,2-.06,2.61-1.12a2,2,0,0,1,1.46-.58,11.86,11.86,0,0,1,2.73.14c1.7.31,3.38.74,5.08,1.08.47.1.62-.21.5-.65a3.71,3.71,0,0,0-.5-.23,44.62,44.62,0,0,0-10.77-1.87c-2.46-.11-4.9-.41-7.34.63A3.69,3.69,0,0,0,842.56,141.18Zm10.52-4.4c1.09-1.74,1.09-1.74,3.54-2a12.25,12.25,0,0,0-1.42-.56,54.46,54.46,0,0,0-8.9-1.14,1.78,1.78,0,0,0-1.22.46,2.9,2.9,0,0,0-1.1,2.73A82.47,82.47,0,0,0,853.08,136.78Zm5.86,6.61a12.36,12.36,0,0,0-4.17-1.15,45,45,0,0,0-8.2-.16,6.73,6.73,0,0,0-4.51,1.53c.05,1.93.36,2.26,1.93,2,1-.15,2-.41,3-.57,1.23-.19,2.47-.34,3.73-.51-.47-1.27-.36-1.67.5-1.66,2,0,4,.17,6,.29C857.78,143.22,858.36,143.32,858.94,143.39Zm-15,6c.55-.05,1-.07,1.44-.14,1.64-.26,3.55.14,4.47-1.89.11-.25.62-.36,1-.43a6.85,6.85,0,0,1,3.51,0,8.82,8.82,0,0,0,1.59.4c.29,0,.75,0,.66-.78a4.15,4.15,0,0,0-1.11-.38c-1.72-.13-3.45-.32-5.18-.28a14.91,14.91,0,0,0-6.88,1.43c-.13.07-.19.28-.38.57Zm13.25-17.91a16.84,16.84,0,0,0-7.32-1.59,3.71,3.71,0,0,0-2.92,1.7c.19.23.28.47.4.48,2.71.33,5.42.62,8.19.93Zm-5.73,18.64c-2.09-.42-2.42-.37-4.06.42A4,4,0,0,0,851.42,150.1Zm7.27-23.61-.07.25a10.64,10.64,0,0,0,1.69.6c.43.09.92,0,.69-.85Zm-1.25,10.87c-.74-.63-1.19-1-1.92-.48Z" transform="translate(-729.74 -47.25)"/><path class="a" d="M884.44,169.23a11.61,11.61,0,0,0,1.44.53,1.29,1.29,0,0,0,1.43-.58c.5-.75,1-1.48,1.66-2.41.68,1.34-.77,2-.41,3.14.21.08.56.34.83.28a1.9,1.9,0,0,0,1.12-.65,15,15,0,0,0,1-2c.19-.37.42-.73.74-1.27.49,1.07-.21,1.63-.34,2.31-.19,1-.12,1.44.42,1.66a1.54,1.54,0,0,0,2.11-.7c.29-.66.45-1.38.68-2.07.11-.32.25-.62.43-1.06.93,1.21-.15,2.29.26,3.39a3,3,0,0,0,2.75-.18c.14-.91.29-1.87.47-3.11.29.43.56.67.61.95.14.62.16,1.26.24,1.9,1,.57,1.79.06,2.77-.22.2-.93.4-1.88.63-2.93a14.82,14.82,0,0,1,.18,6.63,2.06,2.06,0,0,1-1.27,1.79c0-1.45,1-2.75.27-4.07a2.82,2.82,0,0,0-2.64.4,2,2,0,0,0-.84,1.32,3.55,3.55,0,0,0,.37,1.4l-2.49,2.49c-.18-.48-.35-.94-.5-1.37a3,3,0,0,0-3.58,1.45,5.34,5.34,0,0,1-1.78,2.07,34,34,0,0,0-4-.49c-1.08,0-2.11.21-3.15-.43a1.91,1.91,0,0,0-2.08.3l-1,.75c-.76-.44,0-.89-.32-1.47a4.06,4.06,0,0,0-4.4-.2,3.3,3.3,0,0,0-2.38-2.06c-1.25-.45-2,.6-3.18.9a4,4,0,0,1,.08-.83,5.46,5.46,0,0,1,.35-.74,1.57,1.57,0,0,0-2-1c-.58.12-1.09.78-1.78.19.29-.82,1.17-.74,1.72-1.15s1.16-.83,1.81-1.3a2.48,2.48,0,0,0-3.15-1.15c-1.3.42-2.58,1-3.86,1.43-.35.12-.69.23-.89-.36.95-1,2.66-.56,3.53-1.75-.55-1.15-1-1.45-2-1.13-1.22.39-2.41.86-3.62,1.28-.41.14-.84.22-1.2.32-.41-.55-.16-.9.19-1,2.11-.34,3.86-1.55,5.75-2.38a32.25,32.25,0,0,0,4.74-3.19c.57-.39,1.07-1,2.07-.78-.36,1.38-2.12,1.45-2.44,2.78.23.81.89.85,1.48.51a12.23,12.23,0,0,0,1.68-1.4,3.77,3.77,0,0,1,2.48-1.34c-.57,1.64-2.46,2-2.9,3.52,1.36,1,1.6,1.06,2.51.19.52-.51,1-1.09,1.52-1.58a3.83,3.83,0,0,1,1-.43c0,1.46-1.64,1.72-1.51,3,1.73,1,1.75,1,2.79-.35a15.61,15.61,0,0,1,1.21-1.48c.14-.14.46-.12,1-.23l-1.45,3.14c.7.23,1.19.42,1.71.57a1.71,1.71,0,0,0,1.93-.68c.79-1,1.59-2,2.59-3.2C886,166.9,884.46,167.73,884.44,169.23ZM879.2,175c.11.12.21.31.34.35a13.75,13.75,0,0,0,1.56.41c1.46.26,2-.12,2.55-1.87C880.81,173,880.51,173.07,879.2,175Zm-.44-2a3.67,3.67,0,0,0-3.19-.59c-.37.07-.72.49-1,.83-.1.14,0,.66.1.7a8.48,8.48,0,0,0,2.55.72C878,174.74,878.47,174.08,878.76,173.07Zm7.27-1.84a3.29,3.29,0,0,0-3.15-.43c-.33.15-.51.64-.8,1a2.94,2.94,0,0,0,3.12.62C885.52,172.34,885.68,171.77,886,171.23Zm-4.67-.59c-2.28-1.39-3.12-1.24-3.74.56,2,.82,2.06.9,2.72.54A4.52,4.52,0,0,0,881.36,170.64Zm16.2.34c-.74.14-1.36.23-2,.39a1.19,1.19,0,0,0-.88,1.23.89.89,0,0,0,.31.68,2,2,0,0,0,2.06-.15C897.73,172.72,898,172.07,897.56,171Zm-27.91-2.37a2.71,2.71,0,0,0,2.17.94c.45,0,1.19-.67,1.08-1.05a1.71,1.71,0,0,0-.77-1C871,167,870.31,167.63,869.65,168.61Zm21.76,5.06c1.26,0,1.74-.24,1.94-1a1.1,1.1,0,0,0-.24-1,1.59,1.59,0,0,0-2.19.33,1.74,1.74,0,0,0-.21,1.24C890.76,173.49,891.28,173.6,891.41,173.67Zm-6.93,2.16c1.77.82,2.18.79,3-.13a.82.82,0,0,0-.42-1.44C885.81,174,885.59,174.11,884.48,175.83Zm3.93.53a2.76,2.76,0,0,0,2.83,0,1.18,1.18,0,0,0,.57-.85c0-.23-.4-.59-.69-.67C889.91,174.55,889,174.92,888.41,176.36Zm-17.71-4.07a1.54,1.54,0,0,0,2.09.82,2.33,2.33,0,0,0,1.07-1.08c.19-.33-.47-.75-1.19-.82A1.75,1.75,0,0,0,870.7,172.29Zm-1.09-5.6a.94.94,0,0,0-1.11-.88,7,7,0,0,0-1.59.92c-.4.29-.17.84.33,1a1.82,1.82,0,0,0,2.17-.6A1.42,1.42,0,0,0,869.61,166.69Zm7,2.82c-2-1.12-2-1.11-3,.44C875.29,171.13,875.29,171.13,876.64,169.51Zm11.61,1.57a6.29,6.29,0,0,0-1.26,1c-.15.19,0,.89.08.93a3.46,3.46,0,0,0,1.56.18c.56-.07,1-.83.73-1.24A4.49,4.49,0,0,0,888.25,171.08Z" transform="translate(-729.74 -47.25)"/><path class="a" d="M855.58,167.24c2.89-1.25,5.15-2.19,7.38-3.2,2.08-.94,3.79-2.64,6.1-3.14-1.79,2.3-4.52,3.18-6.76,4.77C860.18,165.85,858.42,167.54,855.58,167.24Z" transform="translate(-729.74 -47.25)"/><path class="a" d="M853.06,164c.5-.15,1-.35,1.51-.45a20.43,20.43,0,0,0,7.23-3.11,22.55,22.55,0,0,1,2.12-1.24c.25-.13.62,0,1.12,0C862.06,162.24,856.57,164.58,853.06,164Z" transform="translate(-729.74 -47.25)"/><path class="a" d="M851.78,161.39c1.39-.51,2.59-.9,3.75-1.41s2.44-1.18,3.64-1.83a8.89,8.89,0,0,1,3.38-1.43c.24,1-.48,1.08-.88,1.31a33.22,33.22,0,0,1-9.48,3.92C852.13,162,852,161.7,851.78,161.39Z" transform="translate(-729.74 -47.25)"/><path class="a" d="M859.82,154.73c-.65,1.62-1.48,2.13-4.21,3.08s-5.63,1.25-7.25.77c.77-.66,1.63-.46,2.36-.62s1.62-.27,2.42-.44a17.6,17.6,0,0,0,2.37-.63,23.47,23.47,0,0,0,2.2-1.07Z" transform="translate(-729.74 -47.25)"/><path class="a" d="M847.49,155.72c.61-.89,1.57-.75,2.4-.93s2-.34,3-.59a23.81,23.81,0,0,0,2.59-.86c.82-.31,1.47-1.08,2.41-1,.45.46.12.77-.16.92a18.75,18.75,0,0,1-3.16,1.6A19.74,19.74,0,0,1,847.49,155.72Z" transform="translate(-729.74 -47.25)"/><path class="a" d="M906.76,165.07c1.25,1.73,1.35,2.24,1.06,4.74a3,3,0,0,1-.42-.73C907.18,167.87,907,166.65,906.76,165.07Z" transform="translate(-729.74 -47.25)"/><path class="a" d="M909.5,162.7c.33.34.54.45.55.57.07.8.09,1.59.14,2.53C909.39,164.9,909.39,164.9,909.5,162.7Z" transform="translate(-729.74 -47.25)"/><path class="a" d="M793.36,184c-.12-.73-.24-1.45-.37-2.27a3.23,3.23,0,0,0-2.39,1.9,12,12,0,0,0-.06,3.17c-1-.85-.47-2-1.13-2.6-1.95.51-2.23.8-2.34,2.39,0,.55,0,1.11-.06,1.64,0,.22-.28.4-.45.63-.89-.8.15-1.83-.46-2.65a2.11,2.11,0,0,0-2.46,1.2c-.37.62-.6,1.33-.93,2a1.89,1.89,0,0,1-1,1c.13-.82.27-1.65.42-2.55-2.7.11-3.5,1.89-4,3.86l-.35.05c-.13-.51-.24-1-.38-1.65-2.38.22-3.35,1.95-4.24,3.81-1-.39-.09-1.25-1-1.89a3.17,3.17,0,0,0-2.37.73,11.29,11.29,0,0,0-1.76,2.25c-.18-.74-.31-1.23-.43-1.72-1.42.09-1.42.09-2.9,1.95a4.76,4.76,0,0,1,.23-2.69c.15-.81.4-1.6.54-2.42s-.41-1.18-1.17-1.1a1.73,1.73,0,0,0-1.65,1.22c-.46,1.48-1,3-1.46,4.43a2.62,2.62,0,0,1-.75,1.09c-.09-2,1.31-3.74,1.11-5.73-.67-.79-1.53-.5-2.34-.72-1.21,2-1.12,4.48-2.81,6.19.37-1.29.81-2.56,1.09-3.86a27,27,0,0,0,.51-3.81c.09-1.37,0-2.75,0-4.12a18.24,18.24,0,0,1,0-3.77c.58-.14.75.13.77.53.11,2,.2,4,.3,6,0,.45.06.89.1,1.33.3.17.53.4.77.41a10.66,10.66,0,0,0,1.47-.12c.18-.31.35-.47.34-.62-.06-1.83-.14-3.66-.22-5.48,0-.91-.14-1.83-.13-2.74,0-.29.3-.57.69-1.27a19.32,19.32,0,0,1,.46,2.23c.09,1.46.1,2.93.16,4.4a15.22,15.22,0,0,0,.16,1.91,1.15,1.15,0,0,0,1.31,1.09c.94-.05,1.45-.44,1.48-1.28,0-1.26.3-2.63-1.23-3.36a2.43,2.43,0,0,0,.73-2.28,16.87,16.87,0,0,1-.19-2.46.74.74,0,0,1,.69-.87c.64,1.35.22,3,1.22,4.47a3.9,3.9,0,0,0,.89-.18,1.09,1.09,0,0,0,.59-1.14c0-.83-.12-1.65-.12-2.47,0-.41-.08-.93.62-1.15.58.54.35,1.29.46,2s.29,1.4.43,2.09a3.88,3.88,0,0,0,3.69-.71c.64-1.8-.75-3.71.53-5.35,0,0,.17,0,.33,0,.64,1.5-.12,3.27.72,4.75a3.65,3.65,0,0,0,2.69-.83c.5-1.42-.51-3,.25-4.58.81.58.46,1.39.63,2l.56,1.94a11.74,11.74,0,0,0,1.41-.39c1.39-.62,1.54-.89,1.4-2.28-.08-.73-.22-1.45-.25-2.18a4.29,4.29,0,0,1,.23-1.08,2.5,2.5,0,0,1,1,1.86c.1.61.3,1.2.45,1.79,1.92-.21,2.21-.48,2-1.86-.09-.61-.24-1.21-.38-1.86,1.07-.11.69.71.93,1.08s.4.79.59,1.17c1.55-.41,1.78-.67,1.57-1.7-.16-.81-.37-1.6-.49-2.41a4.4,4.4,0,0,1,.27-1.21c1.08,1.1.79,2.5,1.71,3.52a3.87,3.87,0,0,0,1.09-.36,1.27,1.27,0,0,0,.43-1.48c-.3-1-.87-2-.58-3.34,1.21.72.85,2.33,2.13,3,.79,0,1.33-.55,1.81-1.45L793,164.49c1.71,1.09,1.6,2.94,3.15,3.65l1.26-.82c.17-1.64-1.62-2.44-1.21-3.95,0-.06.14-.08.39-.21l2.21,3.15a3.13,3.13,0,0,0,1-.28c.73-.49.87-.95.46-1.59-.54-.84-1.16-1.64-1.73-2.47-.25-.35-.63-.7-.26-1.33,1.23.41,1.62,1.62,2.32,2.49s1.4,1.9,2.19,3c.43-.31.92-.48,1.07-.82a1.56,1.56,0,0,0-.06-1.25c-.39-.72-1-1.34-1.4-2a24.33,24.33,0,0,1-1.34-2.39c-.12-.24,0-.6.21-1,1.55,2.82,4,5,5.2,8.11-1,.5-1-.69-1.84-.61a1.8,1.8,0,0,0-.87,2.36,24.56,24.56,0,0,1,.76,2.92,8,8,0,0,1-.05,1.56c-.88-.79-.57-1.61-.84-2.23s-.6-1.27-1-2.14l-1.72,1.53c.28,2.25,1.67,4.18,1.24,6.44,0,0-.15.06-.4.15l-.76-2.41c-2.36,1-2.61,1.49-2.64,3.61,0,1.13.28,2.34-.64,3.9-.15-1.59-.25-2.69-.36-3.81a3.44,3.44,0,0,0-3.12,3c-.11.63-.09,1.28-.17,1.91a5.89,5.89,0,0,1-.29,1ZM770.63,186c.52,0,.88-.07,1.23-.13a7.41,7.41,0,0,0,1.06-.24c1-.33,1.39-.77,1.27-1.8-.07-.69.07-1.5-.82-2.09a6.3,6.3,0,0,0-3.13.81C769.93,184.51,769.94,184.51,770.63,186Zm7.58-5.92c-1.38.19-2.5.31-3,1.25a2.89,2.89,0,0,0,.46,3.22c.79-.34,1.54-.62,2.25-1a1.46,1.46,0,0,0,.85-1.58A13.87,13.87,0,0,0,778.21,180.12Zm-8.12,10.59c.85-.13,1.47-.18,2-.33,1.94-.52,2.28-1.34,1.44-3.37C770.38,187.5,770.34,187.54,770.09,190.71Zm9.77-3.83c.52-.17.94-.3,1.35-.45a6.93,6.93,0,0,0,1-.45,2,2,0,0,0,.82-2.61c-.09-.2-.48-.47-.63-.41a7.16,7.16,0,0,0-2.42,1.11C779.3,184.68,779.13,185.66,779.86,186.88Zm-1.16-1.65c-3.22.4-3.78,1-3.37,3.55C778.24,188.41,778.53,188.12,778.7,185.23Zm1.35-2.95a16.09,16.09,0,0,0,2-.86,1.57,1.57,0,0,0,.33-2.39,1,1,0,0,0-.67-.38c-1.82,0-2.59,1-2.2,2.83A4.18,4.18,0,0,0,780.05,182.28Zm-11,6.88c-.15-.26-.27-.82-.57-.95a1.72,1.72,0,0,0-1.27.22,2.89,2.89,0,0,0-.86,2.68.85.85,0,0,0,.6.45,1.51,1.51,0,0,0,1.87-1.15C768.92,190.06,769,189.69,769.06,189.16Zm-1.93-2.48c.76.25,1.56.11,1.72-.68a6.62,6.62,0,0,0-.17-2.61.72.72,0,0,0-1.12-.34,1.75,1.75,0,0,0-.79,1A3.46,3.46,0,0,0,767.13,186.68Zm25.76-9.28c-2.62.65-3.16,1.67-1.85,3.47C793.43,179.79,793.56,179.54,792.89,177.4Zm2.13-6.7c-2.25,1.3-2.29,1.42-1.1,3.3C796.3,173,796.4,172.77,795,170.7Zm-8.69,10.62c-2.23.43-2.51,1-1.81,3.38C786.65,184.16,786.69,184.09,786.33,181.32Zm2.76-1.57a1.3,1.3,0,0,0-1.68.92,1.81,1.81,0,0,0,.46,2.35C789.63,181.94,789.63,181.94,789.09,179.75Zm1.36-3.53c2.27-.79,2.34-.95,1.27-2.79C789.72,174.24,789.66,174.38,790.45,176.22Zm4.24,1.46A8.67,8.67,0,0,0,796,177c.87-.68,1.09-1.64.53-2s-1.09,0-1.83.75A1.26,1.26,0,0,0,794.69,177.68Zm-8.53.27a2.27,2.27,0,0,0-.59-.88c-.21-.14-.7,0-1,.18a1.4,1.4,0,0,0-.65,2,1,1,0,0,0,.81.53C785.57,179.78,786.14,179,786.16,178Zm11.21-6.51a1.68,1.68,0,0,0,1.47-1.62,1.22,1.22,0,0,0-.35-.95,1.06,1.06,0,0,0-1-.06,2.29,2.29,0,0,0-1,1.12A1.29,1.29,0,0,0,797.37,171.44Zm.92,3.05a2.34,2.34,0,0,0,2.07-1.5c.1-.49-.43-1.2-.86-1.15a1.92,1.92,0,0,0-1.61,2.09C797.93,174.15,798.17,174.33,798.29,174.49Zm-10.65,3.6a4.54,4.54,0,0,0,.79-.35c.66-.47.75-.84.47-1.67-.13-.36-.34-.66-.78-.61a1.39,1.39,0,0,0-1.18,1.31,1.65,1.65,0,0,0,.14.8A2.16,2.16,0,0,0,787.64,178.09Zm14.14-11c-.45-.21-.73-.47-1-.44a1.46,1.46,0,0,0-.88.54,1,1,0,0,0,0,.92.92.92,0,0,0,.9.11A5.39,5.39,0,0,0,801.78,167.1Z" transform="translate(-729.74 -47.25)"/><path class="a" d="M752,178.6h1.36c.33,5,.49,9.92-1.56,14.61-.3.7-.33,1.64-1.4,2-.14-2.21,1.91-3.85,1.4-6.18-1.15.39-.95,1.73-1.71,2.26s-1.7,1-2.39,1.41a8.93,8.93,0,0,1-5.81-3.23,24.35,24.35,0,0,1-5.51-9.38,40.77,40.77,0,0,1-1.42-9.2,13.79,13.79,0,0,1,.75-4.29c.34-1.33.87-2.61,1.34-3.9a4.38,4.38,0,0,1,.61-1.2c1.79-2.3,3.32-2.41,6-1a10.64,10.64,0,0,1,5.16,6.07,53.43,53.43,0,0,1,2.35,7.87C751.39,175.8,751.67,177.14,752,178.6Zm-13,2.94c1.49-.45,2.49-1.72,3.81-2.5.71-.42,1.3-.9,1.08-2-.07-.32.53-.88.94-1.16.74-.51,1.58-.87,2.36-1.32a.48.48,0,0,0,.12-.48,1.83,1.83,0,0,0-.58-.43.38.38,0,0,0-.26,0,21.46,21.46,0,0,0-7.33,4.1,3.44,3.44,0,0,0-1,1.54A2,2,0,0,0,739,181.54Zm6.9-11.37c-1.49-.17-2.57.61-3.72,1a13.91,13.91,0,0,0-4.5,3.09c-1,.95-.88,1.89.28,3l5-3.75V172C743.76,171.16,745.31,171.53,745.9,170.17Zm1.32,7.84a26.71,26.71,0,0,0-5.89,3.56,6.38,6.38,0,0,0-1.33,1.37,1.42,1.42,0,0,0-.12,1.23,1.57,1.57,0,0,0,1.1.6c1.07.1,1.89-.6,2.75-1.11s1.53-1,1.14-2.18c-.09-.29.29-.82.57-1.14C746.08,179.61,747,179.09,747.22,178ZM737,173.39l5.44-4.08-.64-1.83c-1.82.17-2.84,1.44-4.11,2.27S736.47,171.77,737,173.39Zm10.44,8.91c-1.72,1.81-3.94,2.78-6.17,3.89a5,5,0,0,0,2.25,2.44,4.7,4.7,0,0,0,2.62-1.85l-.45-1.43C746.35,184.25,747.69,183.8,747.48,182.3Zm-10.15-14.21a10.85,10.85,0,0,0,4-2.64c-.18-.62-.57-1-1.2-.68a16.87,16.87,0,0,0-2.35,1.39A1.57,1.57,0,0,0,737.33,168.09Zm10.89,19.16L748,187c-1,.77-1.92,1.53-2.86,2.32-.11.09-.11.33-.23.7.45,0,1,.12,1.18-.08C746.86,189.12,747.52,188.17,748.22,187.25Zm-7-24.81a1.28,1.28,0,0,0-2,.42c-.09.13,0,.42.06.89Z" transform="translate(-729.74 -47.25)"/><path class="a" d="M753.14,195.64c0-.32-.11-.7,0-1,1.5-3.14,1.7-6.5,1.82-9.89.06-1.45.12-2.9.18-4.27.64-.21.87-.05.89.41a53.35,53.35,0,0,1-.52,9.28C755.26,192.18,754.1,193.85,753.14,195.64Z" transform="translate(-729.74 -47.25)"/><path class="a" d="M802.46,155.44c2.63,2.25,4.14,4.38,4.33,6.13C802.92,157.26,802.64,156.86,802.46,155.44Z" transform="translate(-729.74 -47.25)"/><path class="a" d="M804,152.58a2.64,2.64,0,0,1,.64.38c.92,1.1,1.81,2.22,2.74,3.37-.31.13-.53.28-.6.23A7.8,7.8,0,0,1,804,152.58Z" transform="translate(-729.74 -47.25)"/><path class="a" d="M804.72,150a2.83,2.83,0,0,1,1.91,2.05C805.68,151.63,805.68,151.63,804.72,150Z" transform="translate(-729.74 -47.25)"/></svg>