<svg xmlns="http://www.w3.org/2000/svg" viewBox="0 0 345.03 234.98"><defs><style>.a{fill:#414868;}</style></defs><path class="a" d="M395.09,265.93c.66-.35,1.17-.6,1.65-.87a53.22,53.22,0,0,1,14.44-5.92,20,20,0,0,1,5.71-.52,8.87,8.87,0,0,1,8.07,7,8.46,8.46,0,0,1-.63,4.69,18.32,18.32,0,0,1-4,5.76,51.06,51.06,0,0,1-8.63,7.09,167.71,167.71,0,0,1-17.06,10.06,138.64,138.64,0,0,0-12.75,7.31,40.76,40.76,0,0,0-7,5.56,8.9,8.9,0,0,0-1.74,2.23,3.54,3.54,0,0,0,1.61.8c5.49,2.06,11,4.08,16.47,6.13a17.84,17.84,0,0,1,5.51,2.85,3.14,3.14,0,0,1,1.12,3.28c-.26,1.15-.81,1.52-1.95,1.3-.46-.1-.92-.25-1.38-.39a291.39,291.39,0,0,1-27.5-9.88,8.81,8.81,0,0,0-4.87-.28,28.18,28.18,0,0,0-9.49,3.19,60.46,60.46,0,0,0-19.25,16.08c-3.29,4.13-6.21,8.53-9.14,12.91-2.28,3.41-4.55,6.84-7.09,10.06a46.13,46.13,0,0,1-8.15,8.31,22.64,22.64,0,0,1-9.1,4.48,13.45,13.45,0,0,1-5.25.11,9.28,9.28,0,0,1-7-5.72,20.37,20.37,0,0,1-1.54-10,29.65,29.65,0,0,1,4.21-13,55.45,55.45,0,0,1,12.3-14.18,71.08,71.08,0,0,1,38.49-16.9c3.18-.37,6.35-.77,9.54-1,.4,0,.87.08,1.19-.33-.25-.47-.76-.53-1.18-.71-4.48-2-9-3.92-13.46-5.91a3.63,3.63,0,0,0-2.32-.21,167.09,167.09,0,0,0-18,5.09c-13.69,4.38-26.7,10.37-39.56,16.7-6.5,3.2-12.94,6.51-19.68,9.19A64.57,64.57,0,0,1,243,334.57a28.59,28.59,0,0,1-13-.78,12.94,12.94,0,0,1-4.23-2.2,7.4,7.4,0,0,1-2.62-8.29,13.11,13.11,0,0,1,3.08-5.17,27.84,27.84,0,0,1,6.13-4.84,74.86,74.86,0,0,1,16.43-7,231.66,231.66,0,0,1,27-6.38c7.59-1.42,15.18-2.86,22.83-4,6.8-1,13.64-1.68,20.5-2.14,1.48-.1,3-.23,4.43-.34,0-.43-.27-.51-.49-.62-9.39-4.46-18.44-9.57-27.67-14.34a2,2,0,0,0-2.32.12c-15.57,10-32.49,16.83-50.32,21.54a176.9,176.9,0,0,1-26.5,5,179.62,179.62,0,0,1-33.84.51,87,87,0,0,1-19.92-3.61,37,37,0,0,1-8-3.55,16.39,16.39,0,0,1-4.66-4.08,8,8,0,0,1-1.63-3.78,5.74,5.74,0,0,1,1.48-4.72,13.08,13.08,0,0,1,4.23-3.1,38,38,0,0,1,10.69-3.13,126.91,126.91,0,0,1,22.63-1.4c15.4.28,30.8.17,46.2.08a251.5,251.5,0,0,0,38.36-3.17,95.08,95.08,0,0,0,11.07-2.46c.23-.07.53,0,.69-.34-.11-.49-.58-.57-.93-.76-6.87-3.87-13.79-7.66-20.52-11.77a2.63,2.63,0,0,0-2.39-.26,177.32,177.32,0,0,1-33.6,6.87,174.31,174.31,0,0,1-30.65.19,251.45,251.45,0,0,1-28-3.63,113.7,113.7,0,0,1-22.72-6.39,32.4,32.4,0,0,1-7.5-4.22,13.69,13.69,0,0,1-3.21-3.32c-1.49-2.32-1.14-4.21,1.12-5.78a16.08,16.08,0,0,1,4.34-2,43.66,43.66,0,0,1,11.16-1.86,103.71,103.71,0,0,1,14.85.42c6.75.61,13.45,1.5,20.13,2.59a1.19,1.19,0,0,0,.32,0c0-.49-.44-.55-.72-.71a67,67,0,0,1-16.53-13.24,4.94,4.94,0,0,0-2.32-1.3,235.94,235.94,0,0,1-28.2-11.19A175,175,0,0,1,93.9,186.39a63.75,63.75,0,0,1-8.8-9.91,31.72,31.72,0,0,1-4.46-8.63,11.2,11.2,0,0,1-.56-4.41,4.53,4.53,0,0,1,4-4.29,14.87,14.87,0,0,1,6,.49,31.5,31.5,0,0,1,5.55,2,148.92,148.92,0,0,1,14.44,7.55c8.76,5.17,17.37,10.6,26,16,6.26,4,12.72,7.58,19.12,11.31a1.63,1.63,0,0,0,1.23.41c.19-.86.35-1.74.59-2.61,2-7.42,6.83-12.26,13.85-15A34,34,0,0,1,185,177.27,49.17,49.17,0,0,1,195.71,179c.4.1.81.18,1.32.29a4.46,4.46,0,0,0-.66-1.87A131.72,131.72,0,0,1,188,155.11a46.77,46.77,0,0,1-1.75-13.42,15.24,15.24,0,0,1,.63-4.09,9.16,9.16,0,0,1,.73-1.77,5.83,5.83,0,0,1,7.74-2.8,13.82,13.82,0,0,1,4.45,3.06,42.23,42.23,0,0,1,6.16,7.75c3.31,5.15,6.37,10.47,9.37,15.81,3.16,5.62,6,11.39,8.94,17.14.26.52.54,1,.85,1.61.61-.39.65-1,.83-1.42a28.63,28.63,0,0,1,7.78-11.18A24.55,24.55,0,0,1,253.06,160c8.13.85,15.08,4.45,21.16,9.72a59.36,59.36,0,0,1,20.14,36.43,43.41,43.41,0,0,1-1.47,21.16c-2.45,7.25-6.78,13-13.79,16.44-.87.43-.77,1-.61,1.68a93.62,93.62,0,0,0,5.32,16.39c.64,1.52,1.37,3,2.05,4.5a3.44,3.44,0,0,0,1.5,1.59c9.8,5.52,19.65,10.92,29.72,15.93a1.82,1.82,0,0,0,1.05.36c.29-.35-.06-.58-.21-.79-8.7-12.19-13.8-25.92-16.77-40.45a158.24,158.24,0,0,1-2.88-37.37,84,84,0,0,1,3.75-23,32.86,32.86,0,0,1,2.62-6.17,15.25,15.25,0,0,1,3.47-4.35,7.27,7.27,0,0,1,9.54-.2,14.22,14.22,0,0,1,4.11,5.24,37,37,0,0,1,2.94,9.93A117.55,117.55,0,0,1,326,200.58c0,.69,0,1.38.08,2.07.08,1,.11,1.07,1.16.77a27.87,27.87,0,0,1,5.8-1.09,28.57,28.57,0,0,1,17.06,4.37,35.25,35.25,0,0,1,4.66,3.38c1.43,1.22,1.13,1.11,2.49.12a33.92,33.92,0,0,1,10.8-5.4,25.36,25.36,0,0,1,27.75,8.87,34.29,34.29,0,0,1,7,16.29c1.93,12.24-.6,23.61-6.81,34.24A4.29,4.29,0,0,0,395.09,265.93ZM293.51,212.8a44.84,44.84,0,0,0-1.08-9.28c-2.91-13.22-9.27-24.42-19.7-33.16-5.48-4.59-11.67-7.86-18.86-8.79-9.29-1.21-17,1.72-22.79,9.24A29.23,29.23,0,0,0,226.2,181a43.34,43.34,0,0,0-.61,20.25c2.6,13.34,8.78,24.7,19.06,33.69a40.41,40.41,0,0,0,15.2,8.55,26.34,26.34,0,0,0,15.28.27,23.45,23.45,0,0,0,14-11.62C292.32,226.43,293.52,220.27,293.51,212.8ZM370,247.28a50.56,50.56,0,0,0-9.15-28.34,37.1,37.1,0,0,0-13.71-12.2,26.1,26.1,0,0,0-13.09-3,24.7,24.7,0,0,0-16.56,7.35A33.35,33.35,0,0,0,309.39,224a48.16,48.16,0,0,0-1.13,28.17,46.45,46.45,0,0,0,12.68,22.91c6,5.83,13.05,9.49,21.74,9.17a22.89,22.89,0,0,0,7.64-1.48,27.76,27.76,0,0,0,14.15-12.61C368.34,263.42,369.92,256.1,370,247.28ZM229.74,233.55c.28.21.49.37.71.52,1.36.93,2.72,1.88,4.09,2.79.85.55.9.53,1.42-.43a22.79,22.79,0,0,0,1.71-4.47,2.71,2.71,0,0,0-.59-2.75,59.67,59.67,0,0,1-13.46-31.42,3.32,3.32,0,0,0-1.1-2.21c-10.33-9.31-22.14-15.43-36.16-16.76a32.65,32.65,0,0,0-14.63,1.78c-6.59,2.46-11.2,6.86-13.19,13.73a24.83,24.83,0,0,0-.27,11.87,40.29,40.29,0,0,0,6.62,15.12A63.28,63.28,0,0,0,193.17,244a48.42,48.42,0,0,0,23.21,4.08,26.8,26.8,0,0,0,13.56-4.72,8,8,0,0,0,2.1-1.88l-4.25-3.14c-.5-.37-.77-.15-.91.37s-.24.93-.36,1.39a.46.46,0,0,1-.45.38.49.49,0,0,1-.45-.56,5,5,0,0,1,.1-.78,15.36,15.36,0,0,1,2.18-5.29,12,12,0,0,1,2.5-2.68c.29-.23.63-.49,1-.08s0,.68-.27.95C230.65,232.49,230,232.78,229.74,233.55Zm-64.29,57.39a2.83,2.83,0,0,1,1.57-.29c6.66,0,13.33.05,20-.24,3.83-.17,7.67-.29,11.5-.54q7.65-.51,15.29-1.19c5.83-.52,11.67-1,17.49-1.72,7.83-.92,15.6-2.25,23.35-3.71a298.07,298.07,0,0,0,29-7c1.4-.41,2.77-.94,4.24-1.44-1.54-1.38-1.62-1.38-3.31-.91s-3.49,1-5.25,1.36a195.86,195.86,0,0,1-30.38,4.05c-8.72.56-17.46.74-26.21.67-4.74,0-9.48,0-14.23,0-5,0-10,0-15-.08a178.78,178.78,0,0,0-22.2.48,60.44,60.44,0,0,0-13.47,2.53,18.89,18.89,0,0,0-5.82,2.94c-2.59,2.06-3,4.52-1.2,7.31a11.86,11.86,0,0,0,3.24,3.27,31.47,31.47,0,0,0,7.56,3.78A72.8,72.8,0,0,0,179.52,304a174.68,174.68,0,0,0,37.49-.33A191.38,191.38,0,0,0,252.25,296a173.18,173.18,0,0,0,39.39-17.7c.46-.28,1-.45,1.32-1.07-.63-.36-1.21-.63-1.73-1a2.54,2.54,0,0,0-2.68-.19,83.33,83.33,0,0,1-11.66,3.85,322,322,0,0,1-44.82,8.64c-10.73,1.33-21.53,2-32.32,2.54q-12.78.63-25.57.22A79.35,79.35,0,0,1,165.45,290.94Zm192-10.1A23.25,23.25,0,0,0,369,282.16a31.94,31.94,0,0,0,15.42-6.88c13.21-10.47,20.21-30.16,16.61-46.63a32.69,32.69,0,0,0-7.55-15.46,23.23,23.23,0,0,0-18-8c-6.6,0-12.34,2.52-17.58,6.35-.83.62-.82.67,0,1.58,11.29,11.9,16,30.56,12.16,46.68-1.92,8-5.66,15-12.18,20.31C357.72,280.26,357.46,280.39,357.47,280.84ZM90.77,170.46c3.31,1.89,6.23,4,9.35,5.77s6.38,3.65,9.55,5.5,6.23,3.7,9.35,5.54,6.26,3.65,9.39,5.46,6.28,3.63,9.43,5.41,6.39,3.63,9.62,5.39,6.27,3.49,9.49,5a1.16,1.16,0,0,0,.09-1.11,27.54,27.54,0,0,1-.79-7.29,1.92,1.92,0,0,0-1.17-2q-6-3.37-11.9-6.87c-8.4-5-16.53-10.35-24.86-15.42-7.46-4.55-14.9-9.14-22.9-12.71a36.46,36.46,0,0,0-5.06-2,16.56,16.56,0,0,0-5-.76c-2.72.1-4.1,1.68-3.82,4.37a13.82,13.82,0,0,0,.83,3.41,32.89,32.89,0,0,0,4.29,7.82A69.84,69.84,0,0,0,96.68,187a162.25,162.25,0,0,0,20.16,15.43,212.42,212.42,0,0,0,48,23c.34.11.67.37,1.05.19,0-.1,0-.22,0-.29a7.66,7.66,0,0,0-.45-.66,47.37,47.37,0,0,1-7.22-13.1,2.16,2.16,0,0,0-1.41-1.38,76.94,76.94,0,0,1-7.74-3.79c-12.59-6.85-24.88-14.22-37.05-21.78-6.88-4.27-13.92-8.28-20.44-13.11C91.32,171.28,90.9,171.22,90.77,170.46ZM254,255.26a19.09,19.09,0,0,0-2.26-1.43,3.64,3.64,0,0,0-2.72-.6,34.85,34.85,0,0,1-9.57-.18c-6.44-.83-12.88-1.7-19.3-2.71a24.47,24.47,0,0,0-5.05-.69,51.48,51.48,0,0,1-21.38-3.83,18.93,18.93,0,0,0-3.53-1c-6.76-1.24-13.56-2.21-20.39-3a119.56,119.56,0,0,0-19.93-.79,40.55,40.55,0,0,0-7.27,1,20.69,20.69,0,0,0-6.4,2.42c-1.71,1.09-1.93,2.16-.83,3.88a12.1,12.1,0,0,0,3.14,3.16,33.56,33.56,0,0,0,7.13,3.89,100.61,100.61,0,0,0,17,5.13,241.88,241.88,0,0,0,31.12,4.56,172.24,172.24,0,0,0,36.53-.35A197.74,197.74,0,0,0,258.49,259c.33-.09.73-.1.89-.63L257,257a1.52,1.52,0,0,0-1.07-.18c-2.1.38-4.23.44-6.35.67a216.42,216.42,0,0,1-27.77,1.16c-6.6-.14-13.19-.67-19.78-1.11-3.83-.26-7.65-.56-11.47-.93-6.52-.65-13-1.44-19.5-2.43a161.82,161.82,0,0,1-19.24-3.88c-.37-.1-.9,0-1.13-.62a7.91,7.91,0,0,1,1.15.13c5.76,1.31,11.6,2.22,17.46,3,6.39.83,12.8,1.55,19.22,2q8.53.66,17.06,1.17c5.11.29,10.21.63,15.33.79,10.67.34,21.3-.4,31.93-1.14C253.23,255.59,253.63,255.67,254,255.26Zm102.5,52.85a3.38,3.38,0,0,0-2-.3c-4.64.11-9.24.69-13.84,1.26a69.64,69.64,0,0,0-35.76,15.43A57.5,57.5,0,0,0,293.11,337a32.26,32.26,0,0,0-4.71,10.08,21.13,21.13,0,0,0,.41,13.2c1.68,4.31,5.21,6.28,9.78,5.6a19.47,19.47,0,0,0,7.8-3.13,35.78,35.78,0,0,0,7.4-6.55,100.07,100.07,0,0,0,7.76-10.35c3.21-4.72,6.34-9.48,9.83-14a63.54,63.54,0,0,1,18.69-16.51,33.21,33.21,0,0,1,10.83-4.16l2-.35a20.25,20.25,0,0,0-3.44-1.58c-.21-.09-.4,0-.61.07-1.84.54-3.69,1.05-5.52,1.59a99.69,99.69,0,0,0-56.37,45.18,1.37,1.37,0,0,1-.8.81,77.22,77.22,0,0,1,12.21-18.25C321.5,324.2,337.11,313.48,356.46,308.11Zm-28.78-12.87c-.68-.69-1.51-.44-2.27-.4q-4.23.26-8.45.58c-6.22.47-12.42,1.11-18.59,2-7.63,1.15-15.22,2.59-22.81,4a225,225,0,0,0-26.71,6.37,72.46,72.46,0,0,0-15.95,6.88,25.11,25.11,0,0,0-5.39,4.23,11.69,11.69,0,0,0-3,5.21,5.78,5.78,0,0,0,1.84,5.93,9.62,9.62,0,0,0,2.84,1.77,20.56,20.56,0,0,0,7.3,1.58A38.19,38.19,0,0,0,248.18,332a105.44,105.44,0,0,0,18.71-7.33c8.79-4.22,17.5-8.59,26.42-12.52a234.26,234.26,0,0,1,39.58-13.46c.37-.09.83,0,1.22-.52l-3.24-1.54a1.85,1.85,0,0,0-1.09-.1c-3,.4-6,.68-9,1.27-9.35,1.84-18.66,3.85-27.9,6.19-19.05,4.82-37.6,11-55.14,20-.4.21-.77.59-1.35.39.28-.62.89-.75,1.37-1a192.22,192.22,0,0,1,29.56-13.22,335.38,335.38,0,0,1,42.93-11.81c5.26-1.12,10.49-2.38,15.88-2.74A2.55,2.55,0,0,0,327.68,295.24Zm-4.33-8.51c-.08-.39-.11-.59-.17-.78-.93-2.95-1.88-5.88-2.78-8.84a3.74,3.74,0,0,0-1.06-1.55,44.73,44.73,0,0,1-7.35-9.83,52.89,52.89,0,0,1-6.59-22.34,45.92,45.92,0,0,1,5.12-25.49,4,4,0,0,0,.47-2.29c-.16-2.66-.35-5.31-.29-8,.13-4.9.2-9.8.36-14.7.12-3.62.34-7.23.56-10.84,0-.39-.17-.93.55-1.31,0,2,0,3.88,0,5.74s0,3.73,0,5.59,0,3.73,0,5.6,0,3.83,0,5.75,0,3.73,0,5.59-.08,3.63.11,5.71c.38-.43.53-.58.66-.74a29.13,29.13,0,0,1,10.85-9.22c.81-.38.87-.94.82-1.68-.21-3.24-.34-6.49-.61-9.73a53.82,53.82,0,0,0-2.21-12.07,20.32,20.32,0,0,0-3-6.16c-3.53-4.64-8.13-4.64-11.62,0a24.53,24.53,0,0,0-3.32,6.53,80.07,80.07,0,0,0-4.14,23.35,177.74,177.74,0,0,0,.88,25.06,121.85,121.85,0,0,0,6.16,28.5A95.17,95.17,0,0,0,320,284.4,5.64,5.64,0,0,0,323.35,286.73Zm-100.2-96.46a56.48,56.48,0,0,1,1.41-8.85,2,2,0,0,0-.35-1.52c-3.93-7.67-7.72-15.43-12.07-22.89-2.89-5-5.69-10-9-14.71a31.36,31.36,0,0,0-5.15-5.88,11.14,11.14,0,0,0-3.38-2.08,4.26,4.26,0,0,0-5.59,2,9.41,9.41,0,0,0-1.2,4.1A39,39,0,0,0,189,152.81c2.17,9.18,5.82,17.8,9.86,26.28a2.57,2.57,0,0,0,1.66,1.33,67,67,0,0,1,21,12.27c.29.25.52.67,1.13.62-.31-.62-.56-1.2-.89-1.73-1.4-2.32-2.78-4.66-4.26-6.94-7.87-12.12-14.84-24.75-21.78-37.41-.91-1.66-1.65-3.41-2.46-5.12l.28-.16C202.8,158.4,212.88,174.37,223.15,190.27Zm193.19,76.5a4.58,4.58,0,0,1-.61.35c-6.81,2.47-12.94,6.21-18.9,10.26a75.39,75.39,0,0,0-25.3,28.29c-.22.43-.42.86-.63,1.29s0,.68.4.85.88,0,1.2-.43a21.39,21.39,0,0,1,2.87-3.22,54.8,54.8,0,0,1,8.2-6.09c4.19-2.66,8.6-4.91,12.95-7.28a135.71,135.71,0,0,0,18.1-11.42,34,34,0,0,0,6.3-6.09,12.61,12.61,0,0,0,2.45-4.63,6.13,6.13,0,0,0-1.6-6.19,7.91,7.91,0,0,0-4.62-2.34,16.27,16.27,0,0,0-6.17.58c-6.24,1.53-11.81,4.5-17.21,7.88a12.5,12.5,0,0,0-2.89,2.49,40.17,40.17,0,0,1-9,7.81,8.22,8.22,0,0,0-2,1.8,52.7,52.7,0,0,0-8.47,14.77,30.5,30.5,0,0,0-2,10.3c0,.38-.13.81.37,1.2a29.14,29.14,0,0,1,2.49-5.48A66.86,66.86,0,0,1,383.44,287a101.75,101.75,0,0,1,19.74-14.6,65.12,65.12,0,0,1,11.42-5.32C415.12,266.89,415.64,266.49,416.34,266.77ZM227.88,236.52c1.53,1.17,3,2.43,4.62,3.48,5,3.28,9.93,6.63,15.05,9.68,9.48,5.64,19,11.12,28.61,16.6,6.33,3.62,12.75,7.09,19.21,10.48,11.45,6,22.85,12.13,34.51,17.76,5.95,2.87,12,5.46,18.06,8.13,15.06,6.63,30.18,13.11,46,17.88.61.19,1.21.41,1.83.57s.89-.14.79-.75a2,2,0,0,0-.77-1.18,9.18,9.18,0,0,0-2.46-1.47c-1.58-.64-3.16-1.28-4.76-1.86A659.49,659.49,0,0,1,307,280.34c-13.85-7.21-27.28-15.16-40.71-23.12-11.86-7-24-13.57-35.48-21.27-.57-.39-.92-.21-1.33.23l1.22,1.33C229.56,237.32,228.89,236.55,227.88,236.52Zm149.31,45.12a3.84,3.84,0,0,0-.64,0,28.92,28.92,0,0,1-12.8,2.14c-.68,0-.93.25-1.11.85A46.94,46.94,0,0,0,361.09,303a1.24,1.24,0,0,0,.88,1.16c1.59.61,3.17,1.26,4.75,1.9.33.13.67.36,1.16.05a33.92,33.92,0,0,1,2.73-12.8A57.55,57.55,0,0,1,377.19,281.64Zm-99-19.21c0-.21.08-.27.06-.3a142,142,0,0,1-4.82-15.34c-.22-.87-.67-1-1.49-.92A28,28,0,0,1,261,245.3c-.33-.08-.7-.31-1.08.15a105.91,105.91,0,0,0,5.28,9.4,3.1,3.1,0,0,0,1.28.92c3.21,1.88,6.42,3.76,9.65,5.61A7.49,7.49,0,0,0,278.19,262.43ZM356,301.61a8.18,8.18,0,0,0,0-.93,42.69,42.69,0,0,1,.33-11.29c.28-2,.73-4,1.17-5.95.08-.37.25-.78-.21-1-.8-.34-1.56-.83-2.53-.22a21.12,21.12,0,0,1-6.3,2.66c-.75.19-1.08.54-.94,1.34a45.18,45.18,0,0,0,4.13,12.86,2,2,0,0,0,.94,1ZM247.74,251.82c-.21-.26-.29-.41-.41-.48-4.37-2.74-8.58-5.72-13-8.39a1.27,1.27,0,0,0-1.79.2,24.33,24.33,0,0,1-9.75,5.24,3.44,3.44,0,0,0-1.32.5C224.72,250,244.11,252.21,247.74,251.82ZM328,282.53a60.71,60.71,0,0,0,1.35,6.17,2.63,2.63,0,0,0,1.59,1.81c4.19,1.85,8.35,3.76,12.52,5.64a1.64,1.64,0,0,0,1.15.3,4.11,4.11,0,0,0-.59-1.55,38.77,38.77,0,0,1-2.78-7.8,1.45,1.45,0,0,0-1.56-1.37,28.75,28.75,0,0,1-10.53-3C328.81,282.61,328.52,282.32,328,282.53Zm-88.64-50.41c-.42.25-.31.69-.47,1-.59,1.1-.27,1.89.63,2.75,3.49,3.36,7,6.69,10.68,9.82a23.14,23.14,0,0,0,3.13,2.45,1.49,1.49,0,0,0,1.25.37,105.89,105.89,0,0,1-6.61-9,4.58,4.58,0,0,0-1.18-1.06,53.62,53.62,0,0,1-6.26-5.41C240.16,232.71,239.89,232.21,239.34,232.12Zm44,33.33a1.67,1.67,0,0,0-.25-1.21,134.24,134.24,0,0,1-4.41-12.8c-.55-1.89-1.08-3.78-1.63-5.67-.1-.34-.12-.88-.55-.85a4,4,0,0,0-1.65.48c-.49.27-.14.78-.05,1.16A108.8,108.8,0,0,0,280,262.3,5.28,5.28,0,0,0,283.36,265.45Zm77,18.76c-.49.5-.27,1.38-.84,2-.48-1.05.46-2.12-.19-3.13-.6.29-.63.78-.71,1.23-.28,1.46-.56,2.92-.8,4.39a38.14,38.14,0,0,0-.22,12.7c.2,1.18.26,1.21,1.73,1.31,0-.32,0-.63,0-.95a54.13,54.13,0,0,1,.58-10.33C360.21,289,361.33,286.65,360.33,284.21Zm-98.15-31.15c-1.41-2.76-2.85-5.43-4.18-8.15a2,2,0,0,0-1.23-.93,40.59,40.59,0,0,1-5.35-2.49c-.29-.16-.56-.54-1.06-.23,1.93,2.69,3.81,5.39,5.89,8C257.82,251.14,260.08,251.94,262.18,253.06Zm87.23,45.56a2,2,0,0,0,0-.49,60,60,0,0,1-3.59-11.73,1.74,1.74,0,0,0-.13-.46.54.54,0,0,0-.65-.31c-.28.07-.51.21-.47.53.07.53.17,1,.25,1.57,0,.08-.06.16-.09.24-.36,0-.33-.6-.74-.58-.17.71.48,1.3.14,2-.93-1-.86-2.44-1.73-3.56a3,3,0,0,0,.14,1.7,64.63,64.63,0,0,0,3,8.07A4.91,4.91,0,0,0,349.41,298.62Zm-27.76-20.75a2.81,2.81,0,0,0,.4,1.59c.85,2.24,1.87,4.43,2.52,6.72.48,1.68,1.58,2.18,3.14,2.64-.5-2.55-1-4.93-1.43-7.32a1,1,0,0,0-.47-.61ZM237.94,236c-.26.46-.43.73-.58,1-.75,1.4-.84,1.25.5,2.08,2.25,1.41,4.54,2.78,6.82,4.15.28.16.57.54,1.1.16C243.11,241,240.53,238.55,237.94,236Z" transform="translate(-80.04 -132.51)"/><path class="a" d="M230.81,200.81c1.63,3.66,3.13,7.12,4.69,10.55,2.14,4.71,4.33,9.39,7.55,13.49a65.48,65.48,0,0,0,14,13.44,1.84,1.84,0,0,1,.32.4,2.21,2.21,0,0,1-1.8-.63c-6.94-4.83-13-10.5-17.23-17.94a77.72,77.72,0,0,1-7.46-18A2.08,2.08,0,0,1,230.81,200.81Z" transform="translate(-80.04 -132.51)"/><path class="a" d="M234,172.54c-1,4.14-2.25,8.21-3,12.39a47.92,47.92,0,0,0-.5,12.43C227.83,191,230.41,177.9,234,172.54Z" transform="translate(-80.04 -132.51)"/><path class="a" d="M287.3,201.72a6.44,6.44,0,0,1-1.36,3.48,18.11,18.11,0,0,1-3.44,3.92,2.28,2.28,0,0,1-1.08.65c-.29,0-.51-.15-.39-.5a.84.84,0,0,1,.26-.39A47.5,47.5,0,0,0,287.3,201.72Z" transform="translate(-80.04 -132.51)"/><path class="a" d="M282.42,185.82c-.06,3.41-2.62,8.65-4.57,9.73a.5.5,0,0,1-.13-.58C279.38,192.1,280.77,189.1,282.42,185.82Z" transform="translate(-80.04 -132.51)"/><path class="a" d="M288.9,209.22a11.56,11.56,0,0,1-3.62,4.49,10.7,10.7,0,0,1-3.26,2c-.26.08-.56.09-.71-.17a.47.47,0,0,1,.27-.66C284.37,213.46,286.5,211.2,288.9,209.22Z" transform="translate(-80.04 -132.51)"/><path class="a" d="M275,190.09a41.54,41.54,0,0,0,4.08-9.4C279.58,183.91,277.19,189.37,275,190.09Z" transform="translate(-80.04 -132.51)"/><path class="a" d="M288.28,221.18a4.08,4.08,0,0,1-1.21,1.57,19.58,19.58,0,0,1-5,3.42,6.54,6.54,0,0,1-1.36.44c-.23,0-.56.1-.64-.26a.43.43,0,0,1,.32-.49,19.56,19.56,0,0,0,4-2.05C285.59,223,286.8,222.18,288.28,221.18Z" transform="translate(-80.04 -132.51)"/><path class="a" d="M259.68,176.57a82.15,82.15,0,0,0,1.72-8.95C262.39,170.52,261.54,175.13,259.68,176.57Z" transform="translate(-80.04 -132.51)"/><path class="a" d="M286.11,197.58a12,12,0,0,1-5.31,7C282.59,202.25,284.14,199.74,286.11,197.58Z" transform="translate(-80.04 -132.51)"/><path class="a" d="M288.42,217.49a15.62,15.62,0,0,1-6.58,4.58,1.89,1.89,0,0,1-.47.11c-.21,0-.45,0-.5-.23a.71.71,0,0,1,.16-.41.67.67,0,0,1,.25-.19A68.48,68.48,0,0,0,288.42,217.49Z" transform="translate(-80.04 -132.51)"/><path class="a" d="M256.6,165.49c1.26,2.58.89,7.08-.94,8.88A39.84,39.84,0,0,0,256.6,165.49Z" transform="translate(-80.04 -132.51)"/><path class="a" d="M275.55,176.89a11.94,11.94,0,0,1-2.63,8.73c-.1-1.08.65-1.88.93-2.83s.65-1.91.93-2.88S275.29,177.9,275.55,176.89Z" transform="translate(-80.04 -132.51)"/><path class="a" d="M252.49,165.34a13.49,13.49,0,0,1-.41,7.1c-.08.25-.22.53-.55.45s-.28-.4-.22-.65C251.83,170,251.86,167.62,252.49,165.34Z" transform="translate(-80.04 -132.51)"/><path class="a" d="M271.42,175.17a9.82,9.82,0,0,1-1.35,6.63c-.14.25-.37.43-.64.26a.42.42,0,0,1-.1-.57C270.25,179.47,270.5,177.23,271.42,175.17Z" transform="translate(-80.04 -132.51)"/><path class="a" d="M247.26,214.23a1.55,1.55,0,0,1,1.34,1.15.44.44,0,0,1-.43.54c-.55.05-1.51-.76-1.45-1.23A.49.49,0,0,1,247.26,214.23Z" transform="translate(-80.04 -132.51)"/><path class="a" d="M265.45,224.3c-.11.49-.32.79-.77.71a1,1,0,0,1-.92-.94c0-.45.33-.64.76-.61A1,1,0,0,1,265.45,224.3Z" transform="translate(-80.04 -132.51)"/><path class="a" d="M245.72,217.37a.87.87,0,0,1-.9.88.66.66,0,0,1-.71-.69.79.79,0,0,1,.88-.88A.68.68,0,0,1,245.72,217.37Z" transform="translate(-80.04 -132.51)"/><path class="a" d="M263.49,231.51c.46.07.81.28.84.76a.6.6,0,0,1-.66.69.83.83,0,0,1-.85-.76C262.77,231.8,263.07,231.56,263.49,231.51Z" transform="translate(-80.04 -132.51)"/><path class="a" d="M260.93,227.52a.68.68,0,0,1-.72-.65c0-.37.23-.56.57-.59s.72.16.72.61A.6.6,0,0,1,260.93,227.52Z" transform="translate(-80.04 -132.51)"/><path class="a" d="M251.1,227.67c-.07.4-.26.64-.61.65a.52.52,0,0,1-.6-.55c0-.41.21-.71.65-.68S251,227.4,251.1,227.67Z" transform="translate(-80.04 -132.51)"/><path class="a" d="M268.89,232.37a.57.57,0,0,1-.7.47c-.38-.07-.73-.26-.63-.73s.44-.38.76-.35A.57.57,0,0,1,268.89,232.37Z" transform="translate(-80.04 -132.51)"/><path class="a" d="M257,221.92a.54.54,0,0,1-.64.56.62.62,0,0,1-.65-.57.53.53,0,0,1,.55-.63A.65.65,0,0,1,257,221.92Z" transform="translate(-80.04 -132.51)"/><path class="a" d="M258,231.61c-.05.37-.24.59-.62.54a.58.58,0,0,1-.5-.67c0-.28.15-.54.44-.55S257.94,231.2,258,231.61Z" transform="translate(-80.04 -132.51)"/><path class="a" d="M240.57,203.58c.31,0,.63.08.64.47a.47.47,0,0,1-.5.47.56.56,0,0,1-.66-.49C240,203.73,240.28,203.62,240.57,203.58Z" transform="translate(-80.04 -132.51)"/><path class="a" d="M247.69,205.49c0,.27-.1.47-.32.49a.59.59,0,0,1-.7-.62.36.36,0,0,1,.4-.38A.62.62,0,0,1,247.69,205.49Z" transform="translate(-80.04 -132.51)"/><path class="a" d="M260.09,216.69a.49.49,0,0,1,.46.54.39.39,0,0,1-.38.41c-.34,0-.44-.25-.43-.53S259.81,216.69,260.09,216.69Z" transform="translate(-80.04 -132.51)"/><path class="a" d="M313.46,232.35a2.83,2.83,0,0,1,.16,1.52c0,2.4-.09,4.8-.11,7.2a45.5,45.5,0,0,0,10.3,29.25,30,30,0,0,0,7.87,7.37c-.3.58-.61.18-.82.09A16.39,16.39,0,0,1,327,275a44.07,44.07,0,0,1-14.92-29.17,35.29,35.29,0,0,1,.86-12.23c.08-.31.17-.62.27-.92A2,2,0,0,1,313.46,232.35Z" transform="translate(-80.04 -132.51)"/><path class="a" d="M323.09,212.88c-1.66,2.47-3.35,4.91-5,7.39a35.57,35.57,0,0,0-3.47,7.95c.55-6.35,3.6-11.37,8.17-15.56Z" transform="translate(-80.04 -132.51)"/><path class="a" d="M366.11,238.53a1,1,0,0,1-.22,1.06,26,26,0,0,1-6.08,6.93,6.52,6.52,0,0,1-.94.6c-.19.11-.43.12-.53-.12a.9.9,0,0,1,.08-.44.23.23,0,0,1,.1-.12A69.45,69.45,0,0,0,366.11,238.53Z" transform="translate(-80.04 -132.51)"/><path class="a" d="M356.59,235.93c2.41-3.33,3.52-6.94,4.75-10.56C361.88,228.29,359,235,356.59,235.93Z" transform="translate(-80.04 -132.51)"/><path class="a" d="M357.06,257.7c3.47-1.61,6.32-4.11,9.51-6.57C365.09,253.91,359.84,257.58,357.06,257.7Z" transform="translate(-80.04 -132.51)"/><path class="a" d="M354.71,267.32c3.45-1.06,6.41-3.07,9.69-4.85C362.46,265.08,357.23,267.74,354.71,267.32Z" transform="translate(-80.04 -132.51)"/><path class="a" d="M359,222c0,2.92-1.94,7.32-3.65,8.64,0-.21,0,.09-.12-.07s-.08-.11-.06-.13C356.69,227.75,357.69,224.8,359,222Z" transform="translate(-80.04 -132.51)"/><path class="a" d="M358.23,241.85c2.23-2.55,3.73-5.59,5.73-8.29A16.13,16.13,0,0,1,358.23,241.85Z" transform="translate(-80.04 -132.51)"/><path class="a" d="M366.28,245.72c-1.22,2.86-5.76,7-7.91,7.14C361.37,250.76,363.57,248.16,366.28,245.72Z" transform="translate(-80.04 -132.51)"/><path class="a" d="M356.19,262.57c3.31-1.31,6.17-3.38,9.23-5.09A17.14,17.14,0,0,1,356.19,262.57Z" transform="translate(-80.04 -132.51)"/><path class="a" d="M354.84,217.4a12,12,0,0,1-1.68,7.26c-.16.26-.41.56-.76.3s0-.49.06-.72a54.76,54.76,0,0,0,2-5.69C354.59,218.16,354.71,217.78,354.84,217.4Z" transform="translate(-80.04 -132.51)"/><path class="a" d="M347.61,210.72a7,7,0,0,1-.35,6.14,1.19,1.19,0,0,1-.32.35.42.42,0,0,1-.57,0,.34.34,0,0,1-.1-.43c.81-1.68.77-3.52,1-5.3A4.5,4.5,0,0,1,347.61,210.72Z" transform="translate(-80.04 -132.51)"/><path class="a" d="M350.08,220.58a2.52,2.52,0,0,1-.06-.64c.58-1.85.73-3.79,1.19-5.86C352,216.47,351.46,219.42,350.08,220.58Z" transform="translate(-80.04 -132.51)"/><path class="a" d="M343.91,209.29a6.07,6.07,0,0,1-.72,5.37A11.8,11.8,0,0,1,343.91,209.29Z" transform="translate(-80.04 -132.51)"/><path class="a" d="M333.36,268.36c0,.45-.27.73-.7.7a.85.85,0,0,1-.91-.88.55.55,0,0,1,.6-.58A.89.89,0,0,1,333.36,268.36Z" transform="translate(-80.04 -132.51)"/><path class="a" d="M339.05,252.23c0,.54-.25.8-.65.86a.67.67,0,0,1-.86-.67c0-.43.32-.65.71-.69A.78.78,0,0,1,339.05,252.23Z" transform="translate(-80.04 -132.51)"/><path class="a" d="M328.42,257.08c.41.14.78.33.7.86a.6.6,0,0,1-.67.51.73.73,0,0,1-.73-.68C327.7,257.35,328,257.12,328.42,257.08Z" transform="translate(-80.04 -132.51)"/><path class="a" d="M331,263.16c-.09.46-.33.79-.84.74a.64.64,0,0,1-.61-.76.7.7,0,0,1,.73-.67A.71.71,0,0,1,331,263.16Z" transform="translate(-80.04 -132.51)"/><path class="a" d="M334,258.7c.43.06.87.17.9.69a.65.65,0,0,1-.74.66c-.44,0-.83-.23-.8-.78C333.35,258.9,333.6,258.73,334,258.7Z" transform="translate(-80.04 -132.51)"/><path class="a" d="M339.08,266.85a.45.45,0,0,1-.54.42c-.55,0-1.08-.57-1-1a.44.44,0,0,1,.46-.35A1.13,1.13,0,0,1,339.08,266.85Z" transform="translate(-80.04 -132.51)"/><path class="a" d="M342.25,260.83c.4,0,.75.15.81.59a.51.51,0,0,1-.54.62c-.47,0-.83-.23-.82-.76C341.71,261,342,260.85,342.25,260.83Z" transform="translate(-80.04 -132.51)"/><path class="a" d="M345.26,256.51a.77.77,0,0,1,.75.68.55.55,0,0,1-.6.6.72.72,0,0,1-.74-.67C344.64,256.75,344.92,256.57,345.26,256.51Z" transform="translate(-80.04 -132.51)"/><path class="a" d="M347.49,269.89a.65.65,0,0,1-.68-.68c0-.36.15-.62.53-.63a.66.66,0,0,1,.71.68C348.07,269.63,347.85,269.82,347.49,269.89Z" transform="translate(-80.04 -132.51)"/><path class="a" d="M334,275.4a.49.49,0,0,1-.4.57c-.4.07-.74-.07-.77-.53,0-.3.21-.46.48-.49A.55.55,0,0,1,334,275.4Z" transform="translate(-80.04 -132.51)"/><path class="a" d="M343,278.47c0,.23-.18.31-.36.31a.41.41,0,0,1-.34-.22c0-.18,0-.41.26-.43A.37.37,0,0,1,343,278.47Z" transform="translate(-80.04 -132.51)"/><path class="a" d="M172,221.39c3.54,3.11,7,6.26,10.52,9.34a55.25,55.25,0,0,0,27.42,12.75,35.3,35.3,0,0,0,5.06.4c-.55.72-1.22.56-1.78.56a34.79,34.79,0,0,1-7.11-.84,60.84,60.84,0,0,1-12.43-4,53,53,0,0,1-14.73-10.25,57.29,57.29,0,0,1-6.18-6.66A2.58,2.58,0,0,1,172,221.39Z" transform="translate(-80.04 -132.51)"/><path class="a" d="M163.18,194.39c.31,2.57.6,5.15.93,7.73a34.14,34.14,0,0,0,6,15.45,2.44,2.44,0,0,1,.23.46C165.79,214.75,161.33,203.3,163.18,194.39Z" transform="translate(-80.04 -132.51)"/><path class="a" d="M208.82,190.5a4.29,4.29,0,0,1,1.3,2.31,21.14,21.14,0,0,1,.66,8,9,9,0,0,1-.26,1.25c-.09.32-.25.6-.66.51s-.31-.39-.32-.64a7.16,7.16,0,0,1,.05-.8,34.61,34.61,0,0,0-.51-8.86C209,191.7,208.91,191.1,208.82,190.5Z" transform="translate(-80.04 -132.51)"/><path class="a" d="M188.78,182.21c3,2.26,4.66,5.4,5.8,8.86a1.51,1.51,0,0,1,.09.47c0,.21-.07.45-.32.47a.56.56,0,0,1-.4-.19,3.75,3.75,0,0,1-.48-.82,56.33,56.33,0,0,0-4.43-8.24A4.64,4.64,0,0,1,188.78,182.21Z" transform="translate(-80.04 -132.51)"/><path class="a" d="M215.36,194.94a11.37,11.37,0,0,1,.57,4.55,32.55,32.55,0,0,1-.58,5.39,6,6,0,0,1-.25.92c-.08.25-.19.52-.55.41a.44.44,0,0,1-.28-.51C214.82,202.14,214.9,198.53,215.36,194.94Z" transform="translate(-80.04 -132.51)"/><path class="a" d="M218.9,198.51c.41.36.38.94.46,1.4a20.66,20.66,0,0,1-.24,8.25,9,9,0,0,1-.65,1.62.43.43,0,0,1-.52.27.36.36,0,0,1-.22-.51c1.22-3.46.9-7,.91-10.6A.37.37,0,0,1,218.9,198.51Z" transform="translate(-80.04 -132.51)"/><path class="a" d="M204.59,188.62c.43.1.49.5.64.81a16.5,16.5,0,0,1,1.48,7.77,2.23,2.23,0,0,1-.09.63.57.57,0,0,1-.32.29.31.31,0,0,1-.37-.22,2.21,2.21,0,0,1-.13-.62,42.76,42.76,0,0,0-1.26-8.35A.91.91,0,0,1,204.59,188.62Z" transform="translate(-80.04 -132.51)"/><path class="a" d="M183.36,181.24a15,15,0,0,1,5.17,8.67c-1.06-.62-1.16-1.84-1.75-2.74s-1.14-1.92-1.74-2.85-1.3-1.9-2-2.85Z" transform="translate(-80.04 -132.51)"/><path class="a" d="M199.9,186.35a12.82,12.82,0,0,1,2.3,5.67,9.63,9.63,0,0,1,.33,2.67c0,.2,0,.46-.28.51s-.46-.23-.5-.48C201.38,191.88,200.45,189.17,199.9,186.35Z" transform="translate(-80.04 -132.51)"/><path class="a" d="M177.61,182c2.55,1.28,5.11,5.05,5,7.2-1-.54-1.15-1.62-1.71-2.39s-1-1.59-1.59-2.38S178.19,182.81,177.61,182Z" transform="translate(-80.04 -132.51)"/><path class="a" d="M176.77,190.44c-1-2.35-2.82-4-4.6-5.91C174.66,185.25,177,188.24,176.77,190.44Z" transform="translate(-80.04 -132.51)"/><path class="a" d="M225.27,225.67c.51,0,1,.06,1.08.57a.91.91,0,0,1-.64,1,1.66,1.66,0,0,1-1.8.07.6.6,0,0,1-.19-.84A1.74,1.74,0,0,1,225.27,225.67Z" transform="translate(-80.04 -132.51)"/><path class="a" d="M203.8,221.34a1.15,1.15,0,0,1-.67,1,1,1,0,0,1-1.17.12.53.53,0,0,1-.27-.52,1.48,1.48,0,0,1,1.85-1A1.15,1.15,0,0,1,203.8,221.34Z" transform="translate(-80.04 -132.51)"/><path class="a" d="M216.59,221.07c0,.55-.39.73-.84.78s-1,0-1.16-.54.36-.83.87-.88A1,1,0,0,1,216.59,221.07Z" transform="translate(-80.04 -132.51)"/><path class="a" d="M197.77,231.47a.8.8,0,0,1-.82.8.61.61,0,0,1-.65-.73c.06-.43.29-.82.82-.8S197.77,231,197.77,231.47Z" transform="translate(-80.04 -132.51)"/><path class="a" d="M197.8,236.32a.69.69,0,0,1,.8-.65.87.87,0,0,1,.91.71.62.62,0,0,1-.7.67A1,1,0,0,1,197.8,236.32Z" transform="translate(-80.04 -132.51)"/><path class="a" d="M205.72,235.93c-.08.41-.28.83-.76.81s-.49-.45-.46-.84.1-.78.58-.76S205.73,235.45,205.72,235.93Z" transform="translate(-80.04 -132.51)"/><path class="a" d="M208.28,227.53a.65.65,0,0,1-.76.6c-.37,0-.77-.1-.79-.57s.38-.57.76-.58S208.23,227,208.28,227.53Z" transform="translate(-80.04 -132.51)"/><path class="a" d="M209.78,233.09c.39,0,.72.2.76.65s-.21.58-.58.57a.64.64,0,0,1-.69-.53A.56.56,0,0,1,209.78,233.09Z" transform="translate(-80.04 -132.51)"/><path class="a" d="M189.79,214.74a.79.79,0,0,1-.76-.7c-.05-.38.24-.54.6-.52s.8.26.79.76C190.42,214.55,190.23,214.75,189.79,214.74Z" transform="translate(-80.04 -132.51)"/><path class="a" d="M192.3,226.18c-.4,0-.76-.17-.75-.62s.32-.52.66-.52.64.12.67.51S192.62,226.09,192.3,226.18Z" transform="translate(-80.04 -132.51)"/><path class="a" d="M216.27,228.54a.47.47,0,0,1-.57.41c-.42,0-.9-.12-.85-.7,0-.33.36-.35.63-.33S216.22,228.05,216.27,228.54Z" transform="translate(-80.04 -132.51)"/><path class="a" d="M214.86,235.19a.54.54,0,0,1-.49-.66.54.54,0,0,1,1.08.09A.56.56,0,0,1,214.86,235.19Z" transform="translate(-80.04 -132.51)"/><path class="a" d="M184.2,220.15c0,.33-.22.54-.51.55a.48.48,0,0,1-.53-.6.49.49,0,0,1,.56-.43A.52.52,0,0,1,184.2,220.15Z" transform="translate(-80.04 -132.51)"/><path class="a" d="M179.91,300.45c12.43.84,24.78-.4,37.14-.77C204.68,300.8,192.31,301.93,179.91,300.45Z" transform="translate(-80.04 -132.51)"/><path class="a" d="M211.66,297.81c-7.9.76-15.81,1.56-24,.74.46-.21.16-.09.25-.28,0,0,.08-.1.12-.1C195.9,298.59,203.78,297.79,211.66,297.81Z" transform="translate(-80.04 -132.51)"/><path class="a" d="M240.2,297c7.06-2,14-4.35,21.1-6.25A129.08,129.08,0,0,1,240.2,297Z" transform="translate(-80.04 -132.51)"/><path class="a" d="M171,287.24c6.58-.65,13.17-.38,19.75-.31C184.16,287.45,177.57,287.37,171,287.24Z" transform="translate(-80.04 -132.51)"/><path class="a" d="M231.21,284.38a145,145,0,0,1-18.51,1.25c1.47-.63,3.05-.41,4.58-.55s3.07-.21,4.61-.31,3.17-.27,4.76-.3S229.68,284,231.21,284.38Z" transform="translate(-80.04 -132.51)"/><path class="a" d="M228.89,282.73c-.07.38-.35.47-.7.49-4.07.29-8.13.62-12.21.75a1,1,0,0,1-.93-.39c4.72-.46,9.29-.65,13.87-.84Z" transform="translate(-80.04 -132.51)"/><path class="a" d="M208.47,295.53a.68.68,0,0,1-.59.46,113.74,113.74,0,0,1-14.17.66.68.68,0,0,1-.44-.24c5.09-.12,10.15-.58,15.22-.85Z" transform="translate(-80.04 -132.51)"/><path class="a" d="M189.14,284.78a71.77,71.77,0,0,1-13.75.36l13.86-.68Z" transform="translate(-80.04 -132.51)"/><path class="a" d="M245.27,292.63,256,289.58A32.56,32.56,0,0,1,245.27,292.63Z" transform="translate(-80.04 -132.51)"/><path class="a" d="M209,293.72a30.48,30.48,0,0,1-9.89.4Z" transform="translate(-80.04 -132.51)"/><path class="a" d="M188.59,282.7a64.46,64.46,0,0,1-9.72.47A47.16,47.16,0,0,1,188.59,282.7Z" transform="translate(-80.04 -132.51)"/><path class="a" d="M248.21,289.7l7.91-2.35C254.49,288.5,250,289.89,248.21,289.7Z" transform="translate(-80.04 -132.51)"/><path class="a" d="M249.37,288a10.46,10.46,0,0,1,4.08-.92A7,7,0,0,1,249.37,288Z" transform="translate(-80.04 -132.51)"/><path class="a" d="M208.49,295.56a3.71,3.71,0,0,1,1.9,0c-.64.07-1.26.45-1.91,0Z" transform="translate(-80.04 -132.51)"/><path class="a" d="M228.92,282.74h1.38a1.18,1.18,0,0,1-1.4,0Z" transform="translate(-80.04 -132.51)"/><path class="a" d="M395.81,228.8c3.72,8.62,2.76,23.08-5.47,32.95-.12-.59.29-.92.49-1.3a41.66,41.66,0,0,0,5.31-25.38c-.17-1.48-.23-3-.32-4.46C395.79,230,395.81,229.4,395.81,228.8Z" transform="translate(-80.04 -132.51)"/><path class="a" d="M394.79,225.3c-.59-.29-.63-.74-.78-1.12a21.43,21.43,0,0,0-5.08-7.46c-1.7-1.67-3.44-3.32-5.17-5-.38-.36-.78-.7-1.33-1.2C387,211,394.7,220.38,394.79,225.3Z" transform="translate(-80.04 -132.51)"/><path class="a" d="M373.86,214.45c-.93-2-2.45-3.63-3.84-5.64C372.31,210,374.14,212.64,373.86,214.45Z" transform="translate(-80.04 -132.51)"/><path class="a" d="M376.69,213.63c-.92-2.13-2.33-4-3.42-6A8.27,8.27,0,0,1,376.69,213.63Z" transform="translate(-80.04 -132.51)"/><path class="a" d="M364.12,211.45c2.11.56,4.14,2.67,4.3,4.29-.1,0-.25,0-.3,0C366.84,214.23,365.45,212.86,364.12,211.45Z" transform="translate(-80.04 -132.51)"/><path class="a" d="M367.31,210.05a7.39,7.39,0,0,1,3.93,4.92c-.95-.71-1.28-1.74-1.95-2.48S368,210.87,367.31,210.05Z" transform="translate(-80.04 -132.51)"/><path class="a" d="M365.74,217l-3.86-4.19A5.82,5.82,0,0,1,365.74,217Z" transform="translate(-80.04 -132.51)"/><path class="a" d="M373.64,263.15a1.28,1.28,0,0,1,1.16,1.07.67.67,0,0,1-.64.74,1.34,1.34,0,0,1-1.15-1.08A.65.65,0,0,1,373.64,263.15Z" transform="translate(-80.04 -132.51)"/><path class="a" d="M379.34,269.92c-.1.45-.36.76-.85.71a.6.6,0,0,1-.59-.74.76.76,0,0,1,.76-.65C379.09,269.22,379.31,269.49,379.34,269.92Z" transform="translate(-80.04 -132.51)"/><path class="a" d="M378.94,244.94c.46.14.82.39.8,1,0,.27-.14.54-.46.45a1,1,0,0,1-.87-.95C378.41,245.12,378.6,244.94,378.94,244.94Z" transform="translate(-80.04 -132.51)"/><path class="a" d="M383.2,259a.56.56,0,0,1-.63.58.59.59,0,0,1-.64-.56.55.55,0,0,1,.54-.64A.63.63,0,0,1,383.2,259Z" transform="translate(-80.04 -132.51)"/><path class="a" d="M369.49,274.27c0,.37-.22.61-.59.59a.63.63,0,0,1-.66-.7.51.51,0,0,1,.51-.49A.63.63,0,0,1,369.49,274.27Z" transform="translate(-80.04 -132.51)"/><path class="a" d="M375.21,246.18c0,.5-.29.64-.63.62s-.58-.22-.55-.59a.54.54,0,0,1,.62-.53A.59.59,0,0,1,375.21,246.18Z" transform="translate(-80.04 -132.51)"/><path class="a" d="M388.83,255.5a.52.52,0,0,1-.43.58.65.65,0,0,1-.85-.51c-.08-.31.16-.51.43-.57A.66.66,0,0,1,388.83,255.5Z" transform="translate(-80.04 -132.51)"/><path class="a" d="M373.21,269.77c0,.32-.21.55-.48.56-.46,0-.67-.28-.65-.7a.46.46,0,0,1,.54-.44A.61.61,0,0,1,373.21,269.77Z" transform="translate(-80.04 -132.51)"/><path class="a" d="M376.51,255.65c.36.09.57.32.48.68a.56.56,0,0,1-.73.41.47.47,0,0,1-.4-.57C375.9,255.78,376.17,255.67,376.51,255.65Z" transform="translate(-80.04 -132.51)"/><path class="a" d="M380.27,264.61a.45.45,0,0,1-.46.5.43.43,0,0,1-.51-.43c0-.23.15-.36.37-.39A.5.5,0,0,1,380.27,264.61Z" transform="translate(-80.04 -132.51)"/><path class="a" d="M374.66,276.11c0,.25-.18.39-.41.34a.56.56,0,0,1-.46-.54c0-.3.24-.33.43-.32A.46.46,0,0,1,374.66,276.11Z" transform="translate(-80.04 -132.51)"/><path class="a" d="M126.14,203.49c.21-.11.33-.22.38-.2,8,4.55,16.24,8.53,24.38,12.87-.37.38-.61.08-.85,0-6.79-3-13.41-6.4-19.92-10A28.68,28.68,0,0,1,126.14,203.49Z" transform="translate(-80.04 -132.51)"/><path class="a" d="M114.08,180.12c.18,0,.37-.12.46-.06,7.33,4.23,14.64,8.48,22.07,12.79C134.6,192.63,116.78,182.52,114.08,180.12Z" transform="translate(-80.04 -132.51)"/><path class="a" d="M96.39,182.12c.26-.28.44-.25.55-.16,6.4,4.89,13.06,9.38,19.72,13.88A138,138,0,0,1,96.39,182.12Z" transform="translate(-80.04 -132.51)"/><path class="a" d="M146.64,211.93c-3.5-1-14.18-6.54-15-7.77C132.59,204.35,143.92,210.17,146.64,211.93Z" transform="translate(-80.04 -132.51)"/><path class="a" d="M115.38,192c-3.24-1.17-12-6.63-13.61-8.38C102.19,183.73,114.51,191.25,115.38,192Z" transform="translate(-80.04 -132.51)"/><path class="a" d="M122.48,182.39l12,7.59C132.8,189.72,123.69,184.08,122.48,182.39Z" transform="translate(-80.04 -132.51)"/><path class="a" d="M115.7,190.41a83.37,83.37,0,0,1-9.38-6.23C107.52,184.37,113,188,115.7,190.41Z" transform="translate(-80.04 -132.51)"/><path class="a" d="M141.84,207.39a62,62,0,0,1-8.29-3.94C135,203.56,139.77,205.85,141.84,207.39Z" transform="translate(-80.04 -132.51)"/><path class="a" d="M124.38,181.92l7.67,4.94C130.62,186.56,126.09,183.75,124.38,181.92Z" transform="translate(-80.04 -132.51)"/><path class="a" d="M135.33,202.42a28.27,28.27,0,0,1,5.94,3A20.48,20.48,0,0,1,135.33,202.42Z" transform="translate(-80.04 -132.51)"/><path class="a" d="M204.68,253.34a173,173,0,0,1-21.37-1.23c.33-.21.09-.05.15-.25,0,0,0-.1.06-.11a1.29,1.29,0,0,1,.46-.11C190.86,252.36,197.81,252.42,204.68,253.34Z" transform="translate(-80.04 -132.51)"/><path class="a" d="M206.52,263.26c5.42.22,10.84.42,16.36.56C221,264.74,208.56,264.35,206.52,263.26Z" transform="translate(-80.04 -132.51)"/><path class="a" d="M177.19,260.31a111.06,111.06,0,0,1-17.39-2.49c1.92-.2,3.78.32,5.67.52s4,.54,6,.82l5.75.84Z" transform="translate(-80.04 -132.51)"/><path class="a" d="M162.08,246.89c-1.93.57-16.43,0-17.75-.72C150.15,246.1,155.94,246.62,162.08,246.89Z" transform="translate(-80.04 -132.51)"/><path class="a" d="M176.24,257.71c-2.83.5-12.4-.59-14.13-1.65Z" transform="translate(-80.04 -132.51)"/><path class="a" d="M200.85,250.68c-3.44.36-10.76-.35-12.18-1.22Z" transform="translate(-80.04 -132.51)"/><path class="a" d="M209.21,261.49l12.31.67a59.76,59.76,0,0,1-12.33-.27C209.19,261.76,209.2,261.62,209.21,261.49Z" transform="translate(-80.04 -132.51)"/><path class="a" d="M146.43,244.65a70.26,70.26,0,0,1,12.8.74A105.18,105.18,0,0,1,146.43,244.65Z" transform="translate(-80.04 -132.51)"/><path class="a" d="M218.87,260.25c-1.8.73-6.76.73-8.06.15a27.41,27.41,0,0,1,3.95-.14Z" transform="translate(-80.04 -132.51)"/><path class="a" d="M164.14,255.21a24.29,24.29,0,0,1,7.62.77A31.61,31.61,0,0,1,164.14,255.21Z" transform="translate(-80.04 -132.51)"/><path class="a" d="M189.19,247.73l8.05,1C195.18,249.18,190.6,248.63,189.19,247.73Z" transform="translate(-80.04 -132.51)"/><path class="a" d="M305.84,337c0,.59-.46.94-.76,1.36-3.77,5.35-7.71,10.58-11,16.25,0,.08-.15.12-.32.26-.16-.68.25-1.12.49-1.57a79,79,0,0,1,4.27-6.75q3-4.42,6.36-8.59c.28-.35.46-.86,1-.93Z" transform="translate(-80.04 -132.51)"/><path class="a" d="M319.4,339.53a106.55,106.55,0,0,1-9.49,10.77C310.09,348.94,315.65,342.56,319.4,339.53Z" transform="translate(-80.04 -132.51)"/><path class="a" d="M335.83,319.06c-4.39,3.75-8.75,7-12.79,10.56C323.8,327.88,333.21,320.09,335.83,319.06Z" transform="translate(-80.04 -132.51)"/><path class="a" d="M316.79,334c-3.91,4.45-8.05,8.72-11.73,13.57C305.43,345.68,314,335.86,316.79,334Z" transform="translate(-80.04 -132.51)"/><path class="a" d="M306.44,348A59.15,59.15,0,0,1,316.17,337C313.11,340.79,309.71,344.33,306.44,348Z" transform="translate(-80.04 -132.51)"/><path class="a" d="M327.46,317.38c-3.57,3-7.38,5.73-11,8.95.29-1.08.29-1.09,2.32-2.76.94-.78,1.89-1.54,2.84-2.3s1.84-1.43,2.79-2.12,1.94-1.36,2.91-2Z" transform="translate(-80.04 -132.51)"/><path class="a" d="M327.41,328a.85.85,0,0,1,.28-1.16,50.52,50.52,0,0,1,9.44-6.75C334,323.07,330.56,325.3,327.41,328Z" transform="translate(-80.04 -132.51)"/><path class="a" d="M294.86,349.28c.28-1.37,4.9-8.3,7.26-10.89C301.94,339.36,296.46,347.58,294.86,349.28Z" transform="translate(-80.04 -132.51)"/><path class="a" d="M322.14,318.08c.07.46-.32.64-.58.86q-3.42,3-6.86,6c-.11.1-.23.21-.42.07-.06-.49.34-.73.63-1,2.17-1.95,4.37-3.88,6.69-5.66a.76.76,0,0,1,.57-.22Z" transform="translate(-80.04 -132.51)"/><path class="a" d="M321.06,317a61.28,61.28,0,0,1-7.25,6.5,6.24,6.24,0,0,1,2.05-2.39c.81-.77,1.65-1.51,2.49-2.25s1.67-1.4,2.5-2.1Z" transform="translate(-80.04 -132.51)"/><path class="a" d="M308.34,348.79a57.3,57.3,0,0,1,7-7.9,9,9,0,0,1-2,2.68c-.78.94-1.61,1.84-2.41,2.77s-1.51,1.77-2.27,2.66Z" transform="translate(-80.04 -132.51)"/><path class="a" d="M294.11,346.69a48.07,48.07,0,0,1,5.53-8.62A64.12,64.12,0,0,1,294.11,346.69Z" transform="translate(-80.04 -132.51)"/><path class="a" d="M313.16,322c.33-1.41,3.07-3.7,6.28-5.23-.67.57-1.33,1.15-2,1.71l-2.08,1.73Z" transform="translate(-80.04 -132.51)"/><path class="a" d="M298.16,337.93l-5.09,7.53-.29-.2a53.9,53.9,0,0,1,5.11-7.53Z" transform="translate(-80.04 -132.51)"/><path class="a" d="M317.87,344.2a40.55,40.55,0,0,1-5.18,6.62A36.9,36.9,0,0,1,317.87,344.2Z" transform="translate(-80.04 -132.51)"/><path class="a" d="M329.45,329.21c.5-1.35,3.43-3.92,5.46-4.75Z" transform="translate(-80.04 -132.51)"/><path class="a" d="M305.87,337c-.05-.49.37-.67.6-1.14.13.71-.26.91-.63,1.11Z" transform="translate(-80.04 -132.51)"/><path class="a" d="M322.17,318.11c0-.43.45-.33.6-.57-.12.28-.16.65-.63.54Z" transform="translate(-80.04 -132.51)"/><path class="a" d="M273.91,310.88a3.42,3.42,0,0,1-.43.28c-8.68,3.42-17.4,6.77-26,11.27C249.74,319.72,269.51,311.2,273.91,310.88Z" transform="translate(-80.04 -132.51)"/><path class="a" d="M270.31,313.9c-.12.51-.61.51-1,.68-5.3,2.42-10.79,4.42-15.92,7.23a.32.32,0,0,1-.45,0c.25-.5.77-.65,1.2-.91A101.54,101.54,0,0,1,269.71,314a2.59,2.59,0,0,1,.63-.07Z" transform="translate(-80.04 -132.51)"/><path class="a" d="M276.09,315.42c-5.35,2.64-10.82,5-16.31,7.38C261.1,321.59,273.46,316,276.09,315.42Z" transform="translate(-80.04 -132.51)"/><path class="a" d="M250.8,325.19c1.2-1.49,9.21-5.37,12.68-6.08Z" transform="translate(-80.04 -132.51)"/><path class="a" d="M235.69,320.3A101.21,101.21,0,0,1,250,313.54l-14.16,7.08Z" transform="translate(-80.04 -132.51)"/><path class="a" d="M282,309q7.15-2.53,14.53-4.37l.1.29-14.52,4.46Z" transform="translate(-80.04 -132.51)"/><path class="a" d="M258.21,326.49a82.93,82.93,0,0,1,10-5.36A80.12,80.12,0,0,1,258.21,326.49Z" transform="translate(-80.04 -132.51)"/><path class="a" d="M247.09,312.22a78.14,78.14,0,0,1-9.23,5.19C238.51,316.47,243.4,313.7,247.09,312.22Z" transform="translate(-80.04 -132.51)"/><path class="a" d="M265.7,317.51a77.08,77.08,0,0,1,9.11-3.91l.13.3-9.12,4Z" transform="translate(-80.04 -132.51)"/><path class="a" d="M287.46,309.92a60.2,60.2,0,0,1,8.16-2.75l.1.3-8.13,2.79Z" transform="translate(-80.04 -132.51)"/><path class="a" d="M288.52,301.17a40.28,40.28,0,0,1-8.45,2.94l-.12-.38Z" transform="translate(-80.04 -132.51)"/><path class="a" d="M279.62,302.61a18.79,18.79,0,0,1,4.94-1.4A16.5,16.5,0,0,1,279.62,302.61Z" transform="translate(-80.04 -132.51)"/><path class="a" d="M294.36,309.58a14.59,14.59,0,0,1-4.34,1.58A11,11,0,0,1,294.36,309.58Z" transform="translate(-80.04 -132.51)"/><path class="a" d="M243.72,311.94c-.09.6-.66.56-1.05.74a18.8,18.8,0,0,1-3,1.14,14.9,14.9,0,0,1,4.13-1.85Z" transform="translate(-80.04 -132.51)"/><path class="a" d="M270.34,313.93c.28-.43.78-.31,1.15-.51a1.08,1.08,0,0,1-1.18.48Z" transform="translate(-80.04 -132.51)"/><path class="a" d="M243.76,312l1.12-.54a.89.89,0,0,1-1.15.51Z" transform="translate(-80.04 -132.51)"/><path class="a" d="M309.29,190.29c-.26,7.86.61,15.71.28,23.58C308.68,209.72,308.37,192.48,309.29,190.29Z" transform="translate(-80.04 -132.51)"/><path class="a" d="M315,180.63c.73,1.28,1.83,14.62,1.57,19-.11-.18.08,0-.13,0,0,0-.11,0-.12-.09-.72-6.11-1.08-12.25-1.52-18.39C314.78,181,314.74,180.73,315,180.63Z" transform="translate(-80.04 -132.51)"/><path class="a" d="M307.63,212.3c-.72-2.52-1.06-15.46-.45-17.17C307.6,196.34,307.93,208.55,307.63,212.3Z" transform="translate(-80.04 -132.51)"/><path class="a" d="M302.56,220.37q.72,6.39,1.43,12.77a55.08,55.08,0,0,1-2-12.73Z" transform="translate(-80.04 -132.51)"/><path class="a" d="M320,195.63a93.52,93.52,0,0,1-.85-11C320.1,186,320.37,189.86,320,195.63Z" transform="translate(-80.04 -132.51)"/><path class="a" d="M317.17,184.78c.48.69,1.09,7.67,1,11A41.41,41.41,0,0,1,317.17,184.78Z" transform="translate(-80.04 -132.51)"/><path class="a" d="M305,197.14a105.73,105.73,0,0,1,.27,13.2A69.31,69.31,0,0,1,305,197.14Z" transform="translate(-80.04 -132.51)"/><path class="a" d="M303.25,199.34c.43,3.39.29,6.79.5,10.25C303.08,208.31,302.7,202.27,303.25,199.34Z" transform="translate(-80.04 -132.51)"/><path class="a" d="M304.77,229.07a26.51,26.51,0,0,1-.53-7.69,1.83,1.83,0,0,1,.28.05s.11,0,.12.08A65.78,65.78,0,0,1,304.77,229.07Z" transform="translate(-80.04 -132.51)"/><path class="a" d="M317.35,277.42c0,.45,0,.89.09,1.7a34,34,0,0,1-2.43-5.27c1.25.46,1.07,1.7,1.88,2.15A2.5,2.5,0,0,1,317.35,277.42Z" transform="translate(-80.04 -132.51)"/><path class="a" d="M301.57,201.47a13.51,13.51,0,0,1,.18,4.91A12.48,12.48,0,0,1,301.57,201.47Z" transform="translate(-80.04 -132.51)"/><path class="a" d="M317.35,277.42a2.5,2.5,0,0,0-.46-1.42c0-.21-.12-.46.07-.6s.37.05.46.24a15.33,15.33,0,0,1,1.24,3.79C317.88,278.82,318,277.88,317.35,277.42Z" transform="translate(-80.04 -132.51)"/><path class="a" d="M210.05,179.56l-10-18.71c.4.26.12.1.33,0,0,0,.13,0,.15,0a5,5,0,0,1,.46.64,175.45,175.45,0,0,1,9,17.06A.89.89,0,0,1,210.05,179.56Z" transform="translate(-80.04 -132.51)"/><path class="a" d="M205.31,180.24c-3.45-6.12-6.92-12.25-9.85-18.65A160.24,160.24,0,0,1,205.31,180.24Z" transform="translate(-80.04 -132.51)"/><path class="a" d="M209.64,164.28c3.58,5.54,6.9,11.24,10.11,17C218.52,180.2,210.36,166.54,209.64,164.28Z" transform="translate(-80.04 -132.51)"/><path class="a" d="M204.87,174.88a116.49,116.49,0,0,1-7.47-13.31C198.37,162.33,204.07,172.56,204.87,174.88Z" transform="translate(-80.04 -132.51)"/><path class="a" d="M197.62,142.72c.93.6,6.79,10.61,7.32,12.44A107,107,0,0,1,197.62,142.72Z" transform="translate(-80.04 -132.51)"/><path class="a" d="M202.35,167.3c-2.27-3.59-4.29-7.3-6.29-11.29C197.11,156.81,201.82,165.28,202.35,167.3Z" transform="translate(-80.04 -132.51)"/><path class="a" d="M219.93,178.46a36.19,36.19,0,0,1-5.23-8.63C215.46,170.25,218.75,175.61,219.93,178.46Z" transform="translate(-80.04 -132.51)"/><path class="a" d="M206.36,154c-2.06-2.37-5.15-8-5.31-9.65Z" transform="translate(-80.04 -132.51)"/><path class="a" d="M201.74,177.76a38.34,38.34,0,0,1-3.66-6.88C199.12,171.75,201.16,175.6,201.74,177.76Z" transform="translate(-80.04 -132.51)"/><path class="a" d="M208.1,179a41.79,41.79,0,0,1-3.69-7.39A39.53,39.53,0,0,1,208.1,179Z" transform="translate(-80.04 -132.51)"/><path class="a" d="M216.39,169.82a36.25,36.25,0,0,1,3.49,6.17A18,18,0,0,1,216.39,169.82Z" transform="translate(-80.04 -132.51)"/><path class="a" d="M377.26,299.12c.7-3,7-10,12.62-14.17-.08.19,0-.12.13.07a.2.2,0,0,1,0,.13C385.66,289.7,380.87,293.86,377.26,299.12Z" transform="translate(-80.04 -132.51)"/><path class="a" d="M393.68,282.22a64.4,64.4,0,0,1,16.53-10.07C404.73,275.54,399,278.55,393.68,282.22Z" transform="translate(-80.04 -132.51)"/><path class="a" d="M410.24,279.43l-11.35,6.87-.23-.37A55,55,0,0,1,410.24,279.43Z" transform="translate(-80.04 -132.51)"/><path class="a" d="M388.61,288.68c-2.84,3.12-5.81,6.07-8.74,9.44C380.31,296.21,385.33,290.84,388.61,288.68Z" transform="translate(-80.04 -132.51)"/><path class="a" d="M379.72,288.11a56.54,56.54,0,0,1,10.38-10.18C386.83,281.5,383.14,284.65,379.72,288.11Z" transform="translate(-80.04 -132.51)"/><path class="a" d="M408.33,275.05c-3.18,2.08-6.46,4-9.9,6.29.64-1.16.64-1.16,2.28-2.22.8-.52,1.61-1,2.43-1.52s1.73-1,2.62-1.5A6.75,6.75,0,0,1,408.33,275.05Z" transform="translate(-80.04 -132.51)"/><path class="a" d="M408.92,265.34c-1,1.09-7.83,5.06-9,5.21A49.23,49.23,0,0,1,408.92,265.34Z" transform="translate(-80.04 -132.51)"/><path class="a" d="M380.43,285.33c.69-1.51,3.87-4.72,6.33-6.46-.1.18.06-.1.12.1a.22.22,0,0,1-.06.13Z" transform="translate(-80.04 -132.51)"/><path class="a" d="M400.79,281.11a26.52,26.52,0,0,1,7.47-4.22A48.94,48.94,0,0,1,400.79,281.11Z" transform="translate(-80.04 -132.51)"/><path class="a" d="M387.37,292.11l-4.84,4.57-.27-.28a29.33,29.33,0,0,1,4.83-4.55Z" transform="translate(-80.04 -132.51)"/><path class="a" d="M400.93,268.67c.77-1.06,3.55-2.8,5.72-3.59A22.16,22.16,0,0,1,400.93,268.67Z" transform="translate(-80.04 -132.51)"/><path class="a" d="M400.51,282.76a34.51,34.51,0,0,1,6.45-3.54A41.11,41.11,0,0,1,400.51,282.76Z" transform="translate(-80.04 -132.51)"/><path class="a" d="M384.15,296.12a9.43,9.43,0,0,1,3.26-2.79A11.33,11.33,0,0,1,384.15,296.12Z" transform="translate(-80.04 -132.51)"/><path class="a" d="M380.36,283.43a15.22,15.22,0,0,1,3.36-3.45A9.15,9.15,0,0,1,380.36,283.43Z" transform="translate(-80.04 -132.51)"/><path class="a" d="M249.86,249.65l1.69,1.31a21.24,21.24,0,0,1-4.89-2.67c.5-.35.77-.07,1.06.06s.68.28,1,.42Z" transform="translate(-80.04 -132.51)"/><path class="a" d="M249.86,249.65l-1.12-.88c-.16-.24-.56-.37-.37-.78a6.51,6.51,0,0,1,3.17,2.16C251,249.91,250.36,250.07,249.86,249.65Z" transform="translate(-80.04 -132.51)"/></svg>