<svg xmlns="http://www.w3.org/2000/svg" viewBox="0 0 1193.17 1422.15"><defs><style>.a{fill:#3c4669;}</style></defs><path class="a" d="M1737.45,2250.56a252.19,252.19,0,0,0-51.15-110.19c-50.3-62.84-131.94-104.4-213.38-97.51-39.38,3.33-81.05,18.17-106.84,49.48-23.95,29.09-30.18,68.41-50.62,99.71-9.88,15.14-23.41,27.36-40.33,34.1-5.88,2.23-11.85,4.38-16.29,9-4.65,4.89-6.8,11.63-8.35,18-3.61,14.84-5,30.1-7.25,45.18a215.1,215.1,0,0,1-10.89,42.15c-4.83,13.22-9.89,26.35-11.66,40.4-2.29,18.09,1.63,36.88,15.92,49.22,12.35,10.65,28.66,15.31,44.45,17.87,15.94,2.58,32,3.15,48.1,4.5-1.24,11.54-6,22.21-11.73,32.39-7.34,13-15.57,25.55-23.2,38.41-15.54,26.18-30.32,52.81-44.91,79.53s-29.09,53.11-43.53,79.71c-7.81,14.38-14.56,29.33-21.85,44-9,18.07-18.43,36-29.5,52.91-9.33,14.24-20.2,29.26-34.75,38.58a40.56,40.56,0,0,1-20.6,6.65c-10.08.55-20.1,1.26-27.69,7.44-4.17-7.51-8.34-15-12.44-22.54-16.34-30.1-32.75-60.17-50-89.75-8.59-14.72-17.74-29.1-26.41-43.78-6.79-11.5-12.88-23.57-14.31-36.81,29.44-2.23,62.87-1.23,87.6-18.58,14.57-10.23,21.78-26.14,21.58-43.82-.32-28.26-16.13-53.46-21.41-80.79-3.25-16.81-4.38-34-7.88-50.73-1.47-7-3.07-14.5-7.23-20.52-4.54-6.57-11.44-9.28-18.63-12-36.31-14.45-50.75-51.22-64.68-84.72-7.37-17.74-14.75-35.58-27.34-50.35-13.11-15.39-30.48-26.73-49-34.56-76.39-32.29-166-7.4-228.66,42.49-31.59,25.17-57.83,57.8-74.64,94.59-19.29,42.22-25.44,89.9-25.85,136-.8,89.79,25.58,175.77,64.24,255.85.41.89.8,1.79,1.21,2.68q5.64,12.33,11.56,24.55a6,6,0,0,0,2.25,2.44c.7,1.32,1.38,2.64,2.08,3.95C680.53,2893.92,740.66,2974.3,802,3053c2.52,3.23,5.07,6.45,7.6,9.68a48.34,48.34,0,0,1-6,14c-5.66,8.6-12.67,16.68-11.37,27.7,1.19,10,8.64,16.49,14.83,23.75,7.61,8.91,6.9,20.47,8.42,31.46,6,43.27,42.35,80.38,79.89,99.77,31.46,16.24,67.1,20.65,101.9,16.77,65.34,63,138.53,121.54,220.18,161.85,38.52,19,82.68,29.86,125.75,25.22,43.81-4.72,83.36-26.32,111.65-60.13,14.41-17.22,24.64-37.22,27.3-59.69,1.3-11,1.33-21.14,9.12-29.8,6.48-7.21,13.86-14.5,14-24.9.1-10.75-7.24-18.22-12.52-26.78-6.59-10.7-7.57-25.45-10.15-37.56q-4.45-20.87-8.9-41.73c-2.58-12.11-4.58-24.54-8.7-36.26-4.78-13.6-12.6-28-26.21-34.41-11.88-5.64-25-3.84-36.39,2a63,63,0,0,0-8.65,5.42,8.58,8.58,0,0,0-2.68,2.11,100.34,100.34,0,0,0-19.55,21.92c-9.73,14.43-13.93,30.43-20,46.47-4.08,10.71-10.35,23.8-20.21,31-.15.08-.3.13-.45.22-1.19.73-2.37,1.5-3.54,2.29a26.88,26.88,0,0,1-5.23,2,122,122,0,0,1-14.17-33.28c-3.61-14-3.85-27.85-3.51-42.22.31-13.64-.28-27.28-6.41-39.74a61.61,61.61,0,0,0-7.57-11.57c58.12-54.82,110.92-115.17,161.16-177.21,62.23-76.84,123.58-155.39,175.89-239.41,13.57-21.79,26.64-44.18,38.84-67.1a6.08,6.08,0,0,0,2-2.3q4.58-9.46,9-19c30-60,53.31-123.55,62.82-189.75C1747.4,2353,1747.25,2301.1,1737.45,2250.56ZM1278.8,3108.1c9.45,11.58,10.89,25.19,10.63,39.69-.29,15.75-.21,31,3.5,46.42a136,136,0,0,0,19,43.28,10.22,10.22,0,0,0,.72.94c-.29.53-.6,1-.86,1.58s-.56,1.22-.83,1.84c0,0,0-.06-.08-.08a3,3,0,0,0-1.49-.47,3,3,0,0,0-1.6.07l-1,.4a4.14,4.14,0,0,0-1.44,1.44l-.4,1a4.05,4.05,0,0,0,0,2.13l.3.72a6.53,6.53,0,0,0,.41,1,3.92,3.92,0,0,0,1.42,1.41l.12.09.1.07,0,0,.22.1a52.91,52.91,0,0,1-5.95,10.79c-9-7.66-19-14-29-20.17-2.43-1.49-4.91,1.88-3,3.89a241,241,0,0,0,24,22.6c-3.69,1.5-7.83,1.86-12.47,2-1.73,0-3.43.18-5.13.31a1.47,1.47,0,0,0-.1-.13c-4.69-5.09-10.29-9.48-15.33-14.23s-10.07-9.65-15-14.59q-14.23-14.29-27.6-29.4a798.48,798.48,0,0,1-51.71-64.18c-2.73-3.79-9-.37-6.39,3.73a579.35,579.35,0,0,0,49.55,68c9,10.62,18.48,20.9,28.21,30.89,7.14,7.33,14.37,15.18,22.14,22.14-2.27.44-4.53.91-6.81,1.42-2.86.65-5.73,1.26-8.61,1.76-1.54-1.37-3.26-2.6-4.94-4-3.33-2.7-6.6-5.49-9.82-8.33-6.25-5.53-12.28-11.32-18.11-17.29-11.88-12.18-22.87-25.15-33.5-38.42-22.55-28.12-43.31-57.71-64.9-86.57-13.08-17.47-26-35.06-40.55-51.36-1.84-2.06-5.09.59-3.76,2.91,9.82,17.18,21.06,33.45,32.32,49.74,11.06,16,22,32.07,33.32,47.92,20.06,28.2,40.45,56.31,64.3,81.47,6.56,6.92,13.37,13.61,20.48,20,1.66,1.49,3.41,2.9,5.11,4.36a57,57,0,0,1-7.55-1.86,72.28,72.28,0,0,0-7.5-5.37,129.4,129.4,0,0,1-10.75-8.5,190.29,190.29,0,0,1-19.34-20c-6-7-11.41-14.47-16.84-21.9q-4.19-5.74-8.38-11.5c-2.4-3.27-5.07-6.36-7.39-9.69-3.11-5.53-6.27-11-9.62-16.43-10-16.2-21.89-31.23-34.18-45.78-4.64-5.48-9.34-10.91-14-16.33a69.12,69.12,0,0,0-6.74-9.36q-4.9-6.18-9.66-12.48c-6.23-8.23-12.39-16.53-18.37-24.95-5.83-8.22-11.51-16.54-17.19-24.86-5.95-8.73-12.43-17.25-17.89-26.29a2.19,2.19,0,0,0-.93-.87c-4.89-9.06-9.74-18.14-14.86-27.08a340.39,340.39,0,0,0-32.78-47.53c-1.83-2.22-3.73-4.37-5.61-6.55-3.94-6-7.74-12-12.13-17.76q-7.62-10-15.18-20-15.35-20.42-30.33-41.09c-19.56-27.14-38.33-54.89-55.56-83.57C841.68,2758.65,832,2742,823.14,2725c-1.4-2.67-5.09-.32-4,2.32,25,58.23,60.39,111,98,161.87-8.42-7.84-16.92-15.6-25.37-23.39q-7.15-6.59-14.2-13.29c-4.21-5.94-8.43-11.89-12.47-17.94-8.87-13.26-17.36-26.69-25.69-40.3-16.51-27-31.86-54.68-45.6-83.17-26.44-54.81-50.63-114.24-54.33-175.64a237.7,237.7,0,0,1,2.07-49.94c2.49-16.46,7.5-32.52,13.48-48a2.4,2.4,0,0,0,.07-.43,27.29,27.29,0,0,1,12.07-1.91c-.39,1.21-.74,2.38-1.07,3.41a268,268,0,0,0-9.44,39.52,264.85,264.85,0,0,0-.58,80.14,209.92,209.92,0,0,0,11.68,44.28,2.47,2.47,0,0,0,4.77-1.31c-6.1-27.45-9.32-56-8.11-84.09a292.16,292.16,0,0,1,4.6-41.83q2-10.36,4.73-20.54c.85-3.15,1.77-6.29,2.73-9.4.52-1.68,1.06-3.36,1.61-5,.17-.51.35-1,.52-1.52a32.82,32.82,0,0,1,4.76,3.24,44.22,44.22,0,0,1,7.74,8.47,144.33,144.33,0,0,0-9,47.8,155.19,155.19,0,0,0,1.66,24.93c1.14,8.12,2.38,17.54,7.59,24.16,2.12,2.71,5.83.17,6.09-2.52.74-7.72-2.31-16.07-3.45-23.68a173.28,173.28,0,0,1-1.73-23.65,186.74,186.74,0,0,1,3.81-38.55,114.59,114.59,0,0,1,6.86,19c3.95,14.09,7.42,28.24,12.38,42,1,2.77,2.06,5.54,3.15,8.29-1.7,6.28.81,14.43,1.81,20.4q1.93,11.64,4.54,23.15a416.45,416.45,0,0,0,12.53,44,324.11,324.11,0,0,0,42.41,82.32,2.5,2.5,0,0,0,4.31-2.52,587.64,587.64,0,0,1-35.18-83.75,412.13,412.13,0,0,1-11.81-43.4c-.31-1.43-.58-2.87-.87-4.31A182.62,182.62,0,0,0,870.46,2606c-1.66,4.92-.39,11.56.68,16,1.75,7.36,4.71,14.55,7.35,21.63,5.28,14.13,11,28.09,17.38,41.76a551.08,551.08,0,0,0,45.1,78.84c2.12,3.09,6.92.39,5.08-3-13.8-25.27-26.46-51.38-37.7-77.88-5.55-13.1-10.82-26.34-15.7-39.7-2.43-6.68-4.87-13.39-7-20.18a57.1,57.1,0,0,1-1.74-6.84,133.57,133.57,0,0,0,23.29,13.08c.75,2.1,1.57,4.18,2.24,6.2q2.14,6.57,4.31,13.12c1.44,4.38,3,8.73,4.69,13,1.8,4.62,4.08,9.16,5.55,13.88.94,3,5.65,1.77,4.77-1.31-1.36-4.74-1.94-9.76-3-14.6q-1.43-6.75-3.21-13.42-1.68-6.2-3.34-12.38c2.88.92,5.8,1.76,8.79,2.49A115.07,115.07,0,0,0,953.2,2640c2.42,25.81,19.28,48.09,32.3,69.74,16.09,26.75,31.32,54,46.31,81.36,22.94,41.91,45.9,83.68,67.08,126.5,9,18.28,18.46,36.44,29.48,53.62,10.09,15.75,21.57,31.39,36.58,42.8a52.81,52.81,0,0,0,33.33,12.35c6,.33,13.71-.28,18.46,4.11,4.14,3.82,5.36,10.12,7.06,15.25a67.32,67.32,0,0,0,6.69,14.8c5.81,9.2,13.82,16.67,22.09,23.62C1261.6,3091.75,1271.31,3098.91,1278.8,3108.1Zm152.43,16.79c13.06,5.51,18.77,22,22,34.47,6.74,25.73,11.29,52.23,16.84,78.25,2.44,11.44,4.07,23.35,10.63,33.31,4.52,6.86,13,14.76,7.51,23.27-5.37,8.32-13.28,13.73-16.9,23.35-3.86,10.27-3,21.57-5.29,32.18-4.53,20.87-16.82,38.77-31.79,53.62s-32.41,27.61-52.16,35.31c-39,15.2-82.43,12.73-121.88.43-20.57-6.42-39.57-15.94-58.33-26.41q-29.58-16.52-57.67-35.51a967.68,967.68,0,0,1-107.83-85c-68.66-62-129.69-132-187.59-204-59.74-74.35-118.62-150.19-168.73-231.46-17.27-28-33.65-57-48.35-86.75-26-56.63-47.73-116-54-178.3-6.16-60.55,2.61-123.82,32.91-177.29,14.23-25.12,33.33-48.23,57-65a182.15,182.15,0,0,1,76.24-31c26.71-4.35,54.67-2.36,80.18,6.79,25.33,9.09,45.37,25.81,62.25,46.4,16.23,19.78,30,41.77,48.46,59.63,9.3,9,19.87,17,31.67,22.42,14.92,6.87,30.95,9.25,47,12,8,1.39,15.94,3,23.75,5.15,1.19,8.71,2.26,17.43,3.79,26.09,2.29,12.92,6.23,25.16,10.75,37.44,4.35,11.82,9.1,23.93,10.38,36.55,1.45,14.2-1.78,28.22-13.8,37-11.33,8.24-26.09,11.2-39.68,13.09s-27.13,2.38-40.71,3.48a3.81,3.81,0,0,0-.48,0c-27.7,3.33-54.71-5.56-77.23-21.54-23.38-16.58-40.16-40.86-52.1-66.59a280.08,280.08,0,0,1-15-41.32c-4.21-14.79-7.19-30-14.1-43.87-6.24-12.5-16.34-23.22-29.45-28.44-13.63-5.43-28.62-2.14-40.33,6.16a86.33,86.33,0,0,0-12.07,10.42,7.35,7.35,0,0,0-2.37,2.53l-.05.08c-14.2,15.8-23.47,36.47-28.78,56.57-7.3,27.6-8.25,56.66-6.53,85a413.59,413.59,0,0,0,52.36,177.79c28.48,50.43,67.34,94,107.42,135.43,40.54,41.92,82.84,82.32,119.29,128,40,50.13,73.14,105.28,108.77,158.5,31.56,47.15,65.85,97.38,117.17,124.8,42.7,22.81,100.29,25.8,140-5.09,43.52-33.84,39.12-92.15,53.47-140.06a113.12,113.12,0,0,1,14-30.54c.74-.56,1.47-1.15,2.24-1.67C1412.37,3124.82,1422.44,3121.18,1431.23,3124.89Zm-605.94,4.2c-3.86-9.12-12.61-14.31-17-22.87s5.12-16.76,9.23-23.42a46.1,46.1,0,0,0,3.1-6.16c22.66,28.66,45.72,57,69.47,84.79l5.46,6.35q8.25,9.57,16.63,19,3,3.43,6,6.85,19.86,22.23,40.5,43.72c2.27,2.36,4.49,4.77,6.77,7.12,5.84,6,11.8,11.9,17.75,17.81-3.13.16-6.28.26-9.44.27-20.6,0-41.16-3.47-60.27-11.25-19.63-8-37-20.93-51.8-36s-26.76-33.15-30.86-54.14C828.83,3150.52,829.61,3139.32,825.29,3129.09ZM927.7,2299.64c18.69,30.81,25.56,67.42,48.11,96.17a100.09,100.09,0,0,0,42.44,31.47,31.86,31.86,0,0,1,7.38,3.56,4.67,4.67,0,0,1-6.24-.11,5.24,5.24,0,0,0-1.79.32,4.81,4.81,0,0,0-8.93-.36c.44-2.77-1.14-5.92-4.76-5.92a5.31,5.31,0,0,0-.92.09,4.55,4.55,0,0,0-4.55-3.22c-6.43,0-6.44,10,0,10a5.52,5.52,0,0,0,.93-.1,5,5,0,0,0,.69,1.34,3.6,3.6,0,0,0-.73-.13,3.75,3.75,0,0,0-2,.09l-1.2.5-.13.1a4.63,4.63,0,0,0-4.77-4.3c-6.43,0-6.44,10,0,10a4.85,4.85,0,0,0,2.53-.68c0,.17,0,.35.07.53l.24.86a3.72,3.72,0,0,0,.89,1.7,4.5,4.5,0,0,0,2.52,1.75,5.65,5.65,0,0,0,.53,3.27,3.73,3.73,0,0,0-.3,1l-2-.4c0-.09,0-.18,0-.27a3.75,3.75,0,0,0-.09-2l-.51-1.2a5,5,0,0,0-1.79-1.79l-1.19-.51a5.21,5.21,0,0,0-2.66,0l-.86.24a3.61,3.61,0,0,0-.65.24,4.72,4.72,0,0,0-4.82-5,4.59,4.59,0,0,0-3.24,1.21,3.71,3.71,0,0,0-.89-1.67,3.65,3.65,0,0,0-1.08-1,4.89,4.89,0,0,0,.42-.69,4.8,4.8,0,0,0,2.61.72c4,0,5.52-3.88,4.53-6.81a5.19,5.19,0,0,0,2,.4c6.44,0,6.45-10,0-10a5.21,5.21,0,0,0-1.92.37c1.06-2.88-.35-6.76-4.25-6.92.61-2.83-.94-6.2-4.68-6.2-6.35,0-6.43,9.72-.24,10a5.68,5.68,0,0,0,.43,3.66c-3.13,1-4,4.86-2.56,7.42l-.23,0a4.84,4.84,0,0,1-8.45-.48,1.75,1.75,0,0,0-.24,0,1.62,1.62,0,0,1,2.6-1.76c6.35,0,6.43-9.72.23-10a5.36,5.36,0,0,0-1.25-4.82,4.9,4.9,0,0,0,2-.09l.86-.23a3.72,3.72,0,0,0,1.7-.89,3.89,3.89,0,0,0,1.29-1.41,5.62,5.62,0,0,0,.5-3.85c-.17-.4-.33-.8-.5-1.19a5,5,0,0,0-1.8-1.8l-1.19-.5a5,5,0,0,0-2.66,0l-.86.23a3.74,3.74,0,0,0-1.7.9,3.86,3.86,0,0,0-1.29,1.4,5.62,5.62,0,0,0-.5,3.85l.5,1.2a5.21,5.21,0,0,0,.85,1.06,4.89,4.89,0,0,0-.68-.07,4.63,4.63,0,0,0-4.77,4.27c-.19,0-.36,0-.55,0-3.93,0-5.45,3.72-4.59,6.62a4.94,4.94,0,0,0-3.08,5.5c-2.11-1.82-4.17-3.69-6.16-5.63a2.47,2.47,0,0,0,.38,0l.86-.23a3.72,3.72,0,0,0,1.7-.89,3.89,3.89,0,0,0,1.29-1.41,5.7,5.7,0,0,0,.6-3.32,4.16,4.16,0,0,0,1.8-1.21,4.78,4.78,0,0,0,2.67.76c6.43,0,6.44-10,0-10a4.59,4.59,0,0,0-3.59,1.54l-.29-.18c1.48-3,.08-7.46-4.25-7.46-5.5,0-6.29,7.29-2.37,9.41a5.59,5.59,0,0,0-.53,3.2l-.55.15a3.74,3.74,0,0,0-1.7.9,3.78,3.78,0,0,0-1.29,1.4,3.87,3.87,0,0,0-.53,1.49c-1.11-1.2-2.22-2.42-3.3-3.65l.75-.32a5,5,0,0,0,1.79-1.79l.51-1.19a5,5,0,0,0,0-2.66l-.24-.86a4.78,4.78,0,0,0-4.15-3.58,3.78,3.78,0,0,0-2,.09l-1.19.5a5,5,0,0,0-1.79,1.79l-.16.37c-.68-.83-1.36-1.65-2-2.49a5.12,5.12,0,0,0,1.13-1.28l.51-1.2a5.55,5.55,0,0,0,.12-.9,4.62,4.62,0,0,0,3.42,1.37,4.86,4.86,0,0,1,8.22-.38c6.43,0,6.44-10,0-10a4.84,4.84,0,0,1-8.22.38,4.63,4.63,0,0,0-4.76,4.23,3.84,3.84,0,0,0-1.32-1.21,5.62,5.62,0,0,0-3.85-.5l-1.19.5a5.23,5.23,0,0,0-.64.5l-2.44-3.25a5.5,5.5,0,0,0,1.06-4.29h.1a4.61,4.61,0,0,0,3.48-1.43,4.68,4.68,0,0,0,4.81,4.73,4.53,4.53,0,0,0,4-2.1,4.7,4.7,0,0,0,3.12,1.09c6.44,0,6.45-10,0-10a4.51,4.51,0,0,0-4,2.1,8.31,8.31,0,0,1-11.41-4.39c-3.63,0-5.21,3.18-4.75,6h-.11a4.93,4.93,0,0,0-2.18.48l-2.82-3.78c2.89-1.37,3.41-5.45,1.56-7.81,4.16-2,3.45-9.54-2.17-9.54-4.74,0-6,5.42-3.73,8.28a4.24,4.24,0,0,0-1.59,1.3c-1.46-1.87-2.95-3.7-4.45-5.53a5,5,0,0,0,.79.08c6.43,0,6.44-10,0-10a4.73,4.73,0,0,0-4.82,5.1c-1.61-1.87-3.21-3.74-4.86-5.55.13,0,.25,0,.38,0,6.44,0,6.45-10,0-10-3.36,0-5,2.72-4.8,5.33q-3.81-3.93-7.83-7.63h0c6.44,0,6.45-10,0-10-3.59,0-5.17,3.11-4.76,5.86q-4.18-3.56-8.65-6.82l.33-.78a5,5,0,0,0,0-2.66c-.16-.4-.33-.8-.5-1.2a5,5,0,0,0-1.79-1.79l-1.1-.63a4.85,4.85,0,0,0-5.55.39c-.21.14-.32.38-.5.55-1-.64-2.06-1.31-3.12-1.93,1-2.92-.5-6.82-4.53-6.82a4.54,4.54,0,0,0-4.11,2.27l-.25-.13c1.24-3-.21-7.15-4.39-7.15a4.56,4.56,0,0,0-4.55,3.25c-.91-.37-1.81-.79-2.73-1.13,2.35-2.83,1.14-8.39-3.66-8.39-3.43,0-5,2.83-4.79,5.48-1.71-.54-3.43-1-5.14-1.5,2.73-2.7,1.63-8.68-3.36-8.68-3.93,0-5.45,3.72-4.58,6.62q-3.95-.9-7.94-1.61c1.89-2.93.58-7.92-4-7.92-3.94,0-5.46,3.74-4.57,6.65-3.51-.44-7-.78-10.57-1a5.53,5.53,0,0,0-.56-1.6,4.74,4.74,0,0,0-4.81-5.22c-3.85,0-5.39,3.58-4.63,6.46-3.74,0-7.49,0-11.23.24,2.13-2.88.88-8.16-3.81-8.16-5,0-6.09,6-3.37,8.68a199.91,199.91,0,0,0-19.95,2.83c.58-2.82-1-6.16-4.7-6.16-4.61,0-5.9,5.11-3.91,8q-5.45,1.3-10.82,2.93c2.16-2.88.92-8.2-3.79-8.2-6,0-6.41,8.65-1.24,9.86q-5.06,1.66-10,3.62c.34-2.72-1.24-5.72-4.77-5.72-5.16,0-6.18,6.41-3.07,9-4.69,2.09-9.28,4.39-13.8,6.85a3.33,3.33,0,0,0-.1-.55,5.54,5.54,0,0,0-2.3-3l-1.19-.51a5.21,5.21,0,0,0-2.66,0l-1.19.51a5,5,0,0,0-1.8,1.79c-.25.45-.51.9-.77,1.34a5.64,5.64,0,0,0-.5,3.86,3.77,3.77,0,0,0,.89,1.7c.08.12.22.17.31.28l-1.53.95a4.55,4.55,0,0,0-4.55-3.23c-4.94,0-6.07,5.89-3.43,8.62-.93.67-1.88,1.32-2.8,2,.16-2.61-1.43-5.35-4.8-5.35-5.37,0-6.25,6.93-2.67,9.24a5.24,5.24,0,0,0-.7.91c-.17.4-.34.8-.5,1.2a4.35,4.35,0,0,0-.13,1c-2.29,1.92-4.51,3.9-6.71,5.92a5.56,5.56,0,0,0-1.4-.2c-3.67,0-5.24,3.26-4.73,6.05-1.89,1.89-3.78,3.77-5.61,5.73a4.52,4.52,0,0,0-4.06-2.2,5.18,5.18,0,0,0-1.14.12c.14-2.6-1.45-5.3-4.8-5.3-6.44,0-6.45,10,0,10a5.09,5.09,0,0,0,1.13-.12,5,5,0,0,0,2.44,4.72c-1,1.21-2,2.45-3,3.68a4.67,4.67,0,0,0-4.8-4.66c-6.43,0-6.44,10,0,10a4.63,4.63,0,0,0,.55-.06c-.84,1.1-1.64,2.24-2.47,3.35a4.8,4.8,0,0,0-9.59-.14c-5,1.37-4.5,9.79,1.42,9.79a5,5,0,0,0,1.55-.25c-.76,1.14-1.51,2.28-2.25,3.43a4.57,4.57,0,0,0-4.68-3.78c-3.87,0-5.4,3.62-4.61,6.5a5.15,5.15,0,0,0-1.63-.27c-6.43,0-6.45,10,0,10,3.87,0,5.4-3.62,4.61-6.51a5.2,5.2,0,0,0,1.63.28,4.61,4.61,0,0,0,.85-.09q-4.5,7.49-8.49,15.26a4.57,4.57,0,0,0-4.66-3.69c-5.4,0-6.26,7-2.59,9.29a5.16,5.16,0,0,0-.7.9l-1.54,2.69a3.66,3.66,0,0,0-.6,1.85,3.87,3.87,0,0,0,.08,1.94,4.79,4.79,0,0,0-2.82-.85,4.88,4.88,0,0,0-2.41.6,235.43,235.43,0,0,1,48-96c49.47-59.38,128.06-98.17,206.3-88.48C868.26,2249.81,907.63,2266.56,927.7,2299.64Zm76.62,139.85a4.68,4.68,0,0,0-.53-.17,4.94,4.94,0,0,0-.07-2.13c-.08-.28-.15-.57-.23-.86a3.83,3.83,0,0,0-.9-1.7s0,0-.06-.05a5.48,5.48,0,0,0,1.38.19,4.52,4.52,0,0,0,4.39-2.86,6.05,6.05,0,0,0,0,1.7A4.87,4.87,0,0,0,1004.32,2439.49Zm3.93,7.56-.51-1.19a4.78,4.78,0,0,0-.72-.94,6,6,0,0,0,0-1.8,5,5,0,0,0,2.06.41c3.55,0,5.13-3.05,4.76-5.78a4.61,4.61,0,0,0,1-.25,4.92,4.92,0,0,0,.73,1.4,5.64,5.64,0,0,0,.2,4.91,1.81,1.81,0,0,0-.23,0,4.53,4.53,0,0,0-4.4,2.87,5.33,5.33,0,0,0-1.06,3.24l-1.85-.33a3,3,0,0,0,.1-.52A3.85,3.85,0,0,0,1008.25,2447.05Zm11.45-1,.23,0a4.79,4.79,0,0,1,9.31.25,4.61,4.61,0,0,0,3.54-1.49c.21.93.43,1.85.61,2.78a5.65,5.65,0,0,0-1.11-.11,5,5,0,0,0-2.19.48,4.67,4.67,0,0,0-1.15-1l-1.2-.51a5,5,0,0,0-2.66,0l-.86.24a5.51,5.51,0,0,0-3,2.29,3.72,3.72,0,0,0-.6,1.86,4.11,4.11,0,0,0-.07.78l-.94-.17A5.62,5.62,0,0,0,1019.7,2446.1ZM963.32,2419l-.3-.09v0a3,3,0,0,0,.31,0A.29.29,0,0,1,963.32,2419ZM959,2428a4.8,4.8,0,0,0,2.66.76,2.13,2.13,0,0,0,.25,0,5.49,5.49,0,0,0-.8,4.66q-2.79-1.85-5.46-3.88A4.58,4.58,0,0,0,959,2428Zm10.83,6.63a4.55,4.55,0,0,0,1.42,1.83,6.12,6.12,0,0,0-.39.5l-.51,1.2a5.54,5.54,0,0,0-.07.57c-1.23-.62-2.44-1.25-3.64-1.93A4.44,4.44,0,0,0,969.78,2434.58Zm13.16-11.95a4.08,4.08,0,0,0-.18-.42l.34-.11A4.64,4.64,0,0,0,982.94,2422.63Zm-409.5,41.55a4.72,4.72,0,0,0-2.66-.93c.22-1.59.43-3.19.67-4.78a5.05,5.05,0,0,0,1.89.36,5.13,5.13,0,0,0,1.86-.35C574.6,2460.38,574,2462.27,573.44,2464.18Zm4.1-12.93a4.52,4.52,0,0,0-4.2-2.42c-.12,0-.23,0-.35,0q.84-4.89,1.81-9.75c.15-.74.32-1.46.47-2.2a4.52,4.52,0,0,0,4,2.16,4.61,4.61,0,0,0,3.32-1.28C580.83,2442.23,579.11,2446.71,577.54,2451.25Zm6.36-18.78a5.16,5.16,0,0,0,.54.5l.18.07c-.17.39-.33.79-.49,1.18A6,6,0,0,0,583.9,2432.47Zm-14.34,40.66a6.23,6.23,0,0,0,.89.09c.17,0,.32,0,.48,0-.84,3.25-1.61,6.52-2.34,9.79C568.87,2479.68,569.2,2476.4,569.56,2473.13Zm251.33,319.48c-1.65-3.63-3.25-7.25-5.24-10.81-3-5.38-6.1-10.67-9.26-16-5.77-9.69-11.48-19.43-17-29.25-11.34-20-22.07-40.44-31.51-61.44-14.59-32.48-26.16-66.85-31.8-102.13a484,484,0,0,1-2.79-51.07c-.08-17.11.87-34.42,5.43-51a90.71,90.71,0,0,1,8.33-20.53,66.4,66.4,0,0,1,7.12-6.72c-12.32,24-16.83,51.61-17,78.36-.21,31.24,5.92,62.56,14.66,92.43,8.92,30.47,21.09,60,34.31,88.81a831.21,831.21,0,0,0,45.67,86.53q4.58,7.47,9.35,14.82Q825.93,2798.72,820.89,2792.61ZM1346.69,3265c-22.57,42.23-74.6,52.69-117.92,40.7-52-14.39-89.33-59.54-119.19-101.86-35.72-50.59-67.3-104-103.52-154.22a839.54,839.54,0,0,0-56.5-70.37c-18.91-21-38.73-41.25-58.58-61.4-39.15-39.74-78.92-79.5-111.32-125.11-34.56-48.65-58.65-103.55-69.55-162.31-5.32-28.71-7.68-58.3-6-87.47a218.46,218.46,0,0,1,4.16-31.91c-.28,11.53.12,23,.64,34.2a441.68,441.68,0,0,0,23.45,123.2c24.84,72.14,71.84,134.43,126.36,186.92,27.42,26.39,56.57,51,82.71,78.71a342.69,342.69,0,0,1,35.44,43.57c11.5,17.1,21,35.44,30.79,53.51,9.67,17.77,20,35.08,32.2,51.22,11.83,15.6,24.73,30.31,37.6,45,12.65,14.48,25.3,29,36.48,44.68,11.52,16.14,20.63,33.65,30.53,50.78,18.22,31.54,44.25,64,83.28,67.56,9.88.9,19.68-1.1,29.27-3.25a144.9,144.9,0,0,1,14.43-2.86c4.58-.55,9.19-.41,13.79-.66,9.45-.51,18.08-2.94,24.8-9.95,6.09-6.35,9.89-14.39,13.21-22.42,1.45-3.49,2.77-6.86,5.39-9.67a45.16,45.16,0,0,1,9.75-7.52,7.59,7.59,0,0,0,1.9-1.67c7.72-5.7,13.84-13.65,18.6-22.67a121.49,121.49,0,0,0,6.63-15.46C1361.39,3218.17,1358.25,3243.34,1346.69,3265Zm-247.6-425.27c8.56-.47,16.27-2.18,23.89-6.2,15.67-8.25,27.64-22.72,37.81-36.84,12-16.58,21.86-34.59,31.17-52.76,8.09-15.8,15.52-31.93,23.62-47.73,12.4-24.19,26.06-47.8,39.05-71.68,16.72-30.76,33.56-61.47,51.38-91.61,14.47-24.45,35.47-50.27,38.17-79.56a117.35,117.35,0,0,0,33.92-5.79l-3.36,12.44c-1.19,4.44-2.26,8.93-3.21,13.43-1,4.83-1.6,9.85-3,14.59-.88,3.08,3.82,4.35,4.77,1.32,1.47-4.72,3.75-9.27,5.55-13.88q2.52-6.45,4.69-13t4.31-13.12c.68-2.05,1.52-4.17,2.27-6.31a137.75,137.75,0,0,0,18.18-9.62c1.74-1.09,3.39-2.3,5.08-3.46a53,53,0,0,1-1.52,6.21c-2,6.81-4.5,13.52-6.92,20.19-5,13.61-10.32,27.09-16,40.42-11.23,26.51-23.89,52.62-37.69,77.88-1.84,3.36,3,6.07,5.08,3a550.42,550.42,0,0,0,45.1-78.83c6.38-13.67,12.1-27.64,17.38-41.77,2.64-7.08,5.6-14.26,7.35-21.63,1.07-4.46,2.33-11,.71-15.95a175,175,0,0,0,34-41.1c-.24,1.17-.45,2.34-.7,3.51a415.24,415.24,0,0,1-11.81,43.4,588,588,0,0,1-35.18,83.74,2.5,2.5,0,0,0,4.31,2.53,324,324,0,0,0,42.4-82.33,416.32,416.32,0,0,0,12.54-44q2.6-11.52,4.54-23.15c1-6,3.49-14.08,1.81-20.35q1.91-4.84,3.64-9.74c4.91-13.85,8.27-28.06,12.32-42.15a109.93,109.93,0,0,1,6.43-17.5,186.62,186.62,0,0,1,3.81,38.53,173.17,173.17,0,0,1-1.73,23.65c-1.15,7.61-4.19,16-3.45,23.68.26,2.67,4,5.22,6.09,2.53,5.06-6.44,6.34-15.52,7.49-23.42a156.51,156.51,0,0,0,1.76-25.68,144.38,144.38,0,0,0-9-47.8,43.1,43.1,0,0,1,8.25-8.89,32.77,32.77,0,0,1,4.24-2.85c.17.52.35,1,.52,1.55.48,1.43.94,2.86,1.39,4.3q1.58,5,3,10.12,2.78,10.17,4.73,20.54a292.14,292.14,0,0,1,4.6,41.84c1.21,28.11-2,56.64-8.11,84.08a2.48,2.48,0,0,0,4.77,1.32c19.09-50.57,18.66-107.41,3.22-158.91-.71-2.38-1.38-5.48-2.37-8.43a27.44,27.44,0,0,1,11.81,1.95c0,.13,0,.24.07.37,10.77,28,16.59,56.7,16,86.72-.62,30.32-6.64,60.14-15.47,89.07-18.32,60-46.79,117-78.73,170.76-9.15,15.41-18.59,30.66-28.55,45.56-5.28,7.89-10.77,15.64-16.23,23.4-13,12.2-26.2,24.15-39.23,36.29q8.94-12.1,17.69-24.37c19.65-27.68,38.39-56,55-85.68a556.35,556.35,0,0,0,25.42-51.92c1.13-2.63-2.56-5-4-2.31-31.24,59.84-69.84,115.37-110.21,169.32q-8.67,11.6-17.44,23.12c-2.77,3.63-5.6,7.22-8.24,10.94-2.18,3.09-4,6.36-6,9.56a347.48,347.48,0,0,0-22.79,29.22c-11.35,16.42-20.7,34.08-30.18,51.62a2.34,2.34,0,0,0-.94.87c-5.32,8.83-11.64,17.13-17.45,25.65s-11.65,17.08-17.63,25.5c-5.82,8.22-11.83,16.3-17.9,24.34q-4.74,6.3-9.64,12.48a71.86,71.86,0,0,0-7.27,10.11c-11.32,13-22.55,26-32.91,39.8-4.95,6.58-9.51,13.36-13.86,20.28-.94-1.05-1.87-2.1-2.77-3.17,11-15.44,21.74-31.05,32.52-46.63,12.82-18.53,25.83-37,37-56.53,1.32-2.3-1.9-5-3.76-2.9-12.87,14.44-24.49,29.9-36.08,45.39s-23.25,31-34.74,46.63l-2.9,3.93c-11.91-16.13-21.76-33.74-31-51.52-8.25-15.92-15.81-32.19-23.88-48.21-5.5-10.9-11.33-21.66-17.25-32.37a13.35,13.35,0,0,1,1.7-1.91C1085.45,2839.48,1093.06,2840.05,1099.09,2839.71Zm87.34,169.53a50.82,50.82,0,0,1-13.58-7.71,358.43,358.43,0,0,1,28.08-38.68c25-30.12,52.65-58.13,73.36-91.54,10.88-17.54,20.12-36,30.2-54a331.06,331.06,0,0,1,32.65-48.66c24.15-29.39,52.75-54.66,80.64-80.38,55.77-51.45,106.48-109.27,136.77-179.68a429.08,429.08,0,0,0,31.53-119.66,474.9,474.9,0,0,0,3-56.3q0-4.24-.14-8.5c5.34,25,5.57,51,3.78,76.47a396.6,396.6,0,0,1-52.62,170.77c-28.24,48.57-66.1,90.42-105.05,130.55-39.38,40.59-80.3,79.89-115.74,124.08-39.27,49-72.11,102.5-106.74,154.72-6.57,9.91-13.24,20-20.12,30A33,33,0,0,1,1186.43,3009.24Zm373.9-745.51c16.31,29,14.54,65.22,13,97.31-.4,8.3-1.13,16.58-2,24.84q-2.41,15.3-6.2,30.39c-11.14,44.23-30.53,85.84-52.56,125.6-6.22,11.21-12.65,22.3-19.19,33.33-3.4,5.73-6.9,11.41-10.13,17.24-1.49,2.69-3.06,5.34-4.51,8a55.56,55.56,0,0,0-2.51,5.71q-4.74,5.76-9.63,11.39c.91-1.42,1.84-2.84,2.74-4.27a828.68,828.68,0,0,0,46.91-85.85c26.92-56.66,50.9-117.47,53.79-180.83,1.38-30.29-2.75-62.39-16.79-89.63A66.44,66.44,0,0,1,1560.33,2263.73ZM1280,3087.81c-.43-.39-.86-.8-1.29-1.18-15.81-14.16-34.15-25.44-41-46.58-3.79-11.66-8.6-22.43-21.2-26.47a38.06,38.06,0,0,0-7-1.43c31.21-45.17,59.52-92.32,91.4-137.05a817.61,817.61,0,0,1,57.45-71.93c19.4-21.59,39.76-42.29,60.12-63,40.58-41.18,81.46-82.56,114.63-130.13,35.13-50.38,59.38-107.9,69.66-168.53,5-29.63,7.4-60.13,5.09-90.15-2.11-27.32-8.24-55-22.5-78.69a118.6,118.6,0,0,0-12.38-17c-.13-.23-.24-.47-.38-.71a7.23,7.23,0,0,0-2.87-2.8c-14-14.49-32.56-24.32-52.79-15.93-29.7,12.32-35.15,46-43.07,73.36-15.53,53.68-47.28,108.83-104.58,125a100.5,100.5,0,0,1-34.22,3.55l-2.44-.23c-.9-.08-1.79-.15-2.68-.26-.16,0-.31,0-.46,0-25.5-1.88-53.82-1-76.22-13.9-38.46-22.19-5.88-73.26,1.16-103.8,2.72-11.83,4.13-23.89,5.77-35.92,17-4.7,34.58-6.3,51.67-10.46a102.13,102.13,0,0,0,35.79-16.59c21.35-15.51,36.62-37.17,52.34-58,15.61-20.68,32.4-40.12,55.51-52.6,23.83-12.87,51.19-17.9,78.1-16.76a180.43,180.43,0,0,1,79,22.2c25,13.75,46.05,33.81,62.34,57.1,34.46,49.24,48.42,110.74,46.46,170.25-2.27,69.1-24.75,135.58-53.05,198.07q-7.63,15.87-15.89,31.44c-45.47,85.79-103.34,164.22-162.82,240.69-56.62,72.78-115.11,144.41-180.22,209.83Q1295,3073.74,1280,3087.81Zm42.58-880c11-14.27,18.4-30.66,25.34-47.14s13-33.9,22.61-49.11c10.22-16.19,25.47-28.4,42.37-37.08,70.31-36.11,158.89-12.89,218.67,33.12a250.4,250.4,0,0,1,73.11,89.76,233.06,233.06,0,0,1,16,45.82,4.82,4.82,0,0,0-2.66-.76,4.76,4.76,0,0,0-2.83.86c.06-.43.12-.85.17-1.28a5,5,0,0,0-.68-2.52l-1.55-2.68a3.56,3.56,0,0,0-.78-.86c3.76-2.21,2.95-9.34-2.5-9.34a4.57,4.57,0,0,0-4.68,3.77c-1.57-3.08-3.17-6.15-4.87-9.18-1.16-2.08-2.41-4.11-3.64-6.16a5,5,0,0,0,.89.09,5.25,5.25,0,0,0,1.63-.27c-.79,2.88.73,6.5,4.61,6.5,6.43,0,6.44-10,0-10a4.88,4.88,0,0,0-1.63.28c.79-2.89-.73-6.51-4.61-6.51a4.57,4.57,0,0,0-4.68,3.77c-.74-1.15-1.5-2.28-2.25-3.41a5.29,5.29,0,0,0,1.54.24c5.91,0,6.39-8.41,1.43-9.79a4.8,4.8,0,0,0-9.59.13c-.82-1.11-1.6-2.24-2.44-3.33a4.17,4.17,0,0,0,.52.05c6.43,0,6.44-10,0-10a4.68,4.68,0,0,0-4.8,4.64c-1-1.22-2-2.47-3-3.67a5,5,0,0,0,2.41-4.7,6,6,0,0,0,1.14.11c6.44,0,6.45-10,0-10a4.75,4.75,0,0,0-4.8,5.3,6,6,0,0,0-1.14-.11,4.54,4.54,0,0,0-4.08,2.21c-1.82-1.95-3.7-3.85-5.6-5.74.52-2.79-1-6.05-4.72-6.05a5.49,5.49,0,0,0-1.39.19c-2.21-2-4.44-4.05-6.74-6a2,2,0,0,0,0-.23,3.74,3.74,0,0,0-.59-1.85,3.6,3.6,0,0,0-.79-.86c3.68-2.26,2.84-9.3-2.58-9.3-3.35,0-4.94,2.71-4.8,5.31l-.36-.28c-.79-.59-1.63-1.12-2.43-1.69,2.63-2.75,1.49-8.6-3.45-8.6a4.55,4.55,0,0,0-4.53,3.18c-.48-.31-1-.6-1.46-.9a4.92,4.92,0,0,0,1.12-2l.18-1.33a5,5,0,0,0-.69-2.52l-.76-1.34a3.89,3.89,0,0,0-1.29-1.41,3.72,3.72,0,0,0-1.7-.89,5.64,5.64,0,0,0-3.86.5l-1,.78a4.94,4.94,0,0,0-1.28,2.21l-.07.52q-6.76-3.69-13.82-6.84c3.08-2.56,2.07-8.94-3.08-8.94-3.51,0-5.09,3-4.78,5.67q-4.92-1.93-9.93-3.6c5.07-1.28,4.64-9.82-1.32-9.82-4.66,0-5.93,5.21-3.85,8.11q-5.33-1.6-10.73-2.9c2-2.92.65-8-3.94-8-3.72,0-5.28,3.33-4.7,6.15-.61-.12-1.2-.27-1.81-.38-6-1.1-12.08-1.87-18.17-2.41,2.75-2.7,1.66-8.7-3.34-8.7-4.7,0-6,5.32-3.79,8.19-3.75-.19-7.51-.27-11.26-.25.78-2.88-.75-6.49-4.62-6.49a4.75,4.75,0,0,0-4.81,5.23,5.25,5.25,0,0,0-.56,1.6c-3.53.22-7,.54-10.56,1,.87-2.91-.65-6.63-4.58-6.63-4.53,0-5.86,4.93-4,7.87-2.64.46-5.27,1-7.88,1.59.82-2.89-.7-6.55-4.6-6.55-5,0-6.08,5.9-3.42,8.63-1.34.38-2.69.68-4,1.1-.36.11-.7.25-1.06.37.18-2.63-1.41-5.39-4.8-5.39-4.79,0-6,5.52-3.68,8.36-.92.35-1.81.76-2.72,1.14a4.54,4.54,0,0,0-4.54-3.24c-4.21,0-5.65,4.26-4.36,7.22l-.24.13a4.52,4.52,0,0,0-4.16-2.33c-4.07,0-5.56,4-4.48,6.93-1,.59-2,1.24-3,1.85l-.15-.19a5,5,0,0,0-2.2-1.29l-1.33-.18a5,5,0,0,0-2.52.69l-1.1.62a4.82,4.82,0,0,0-2.39,5,3.8,3.8,0,0,0,.43,1.51q-4.44,3.18-8.65,6.67c.37-2.73-1.21-5.77-4.77-5.77-6.38,0-6.43,9.83-.14,10q-3.91,3.53-7.61,7.33a4.72,4.72,0,0,0-4.82-5c-6.44,0-6.45,10,0,10l.19,0c-.37.41-.77.79-1.13,1.21-1.21,1.37-2.36,2.78-3.53,4.18a4.72,4.72,0,0,0-4.83-5c-6.43,0-6.44,10,0,10a5.49,5.49,0,0,0,.72-.07q-2.2,2.74-4.37,5.52a4.46,4.46,0,0,0-1.6-1.3c2.24-2.86,1-8.27-3.74-8.27-5.6,0-6.33,7.58-2.16,9.54-1.85,2.35-1.34,6.44,1.56,7.81l-2.83,3.76a5.08,5.08,0,0,0-2.18-.46h-.1c.46-2.78-1.12-5.95-4.75-5.95a4.68,4.68,0,0,0-4.81,4.72,4.58,4.58,0,0,0-3.48-1.43,4.7,4.7,0,0,0-3.12,1.09,4.51,4.51,0,0,0-4-2.1c-6.44,0-6.45,10,0,10a4.65,4.65,0,0,0,3.11-1.09,4.54,4.54,0,0,0,4,2.1,4.69,4.69,0,0,0,4.81-4.72,4.58,4.58,0,0,0,3.48,1.43h.1a5.42,5.42,0,0,0,1,4.25c-.83,1.09-1.65,2.18-2.48,3.26,0,0,0-.06-.07-.08a3.89,3.89,0,0,0-1.7-.9l-1.33-.17a5,5,0,0,0-2.53.68l-1,.78a3.68,3.68,0,0,0-.3.39,4.63,4.63,0,0,0-4.77-4.19,4.84,4.84,0,0,1-8.21-.39c-6.43,0-6.44,10,0,10a4.84,4.84,0,0,1,8.21.39,4.62,4.62,0,0,0,3.44-1.39,2.11,2.11,0,0,0,0,.25,3.69,3.69,0,0,0,.6,1.86,3.76,3.76,0,0,0,1.09,1.19l-2,2.48a2.1,2.1,0,0,0-.13-.26,3.73,3.73,0,0,0-1.29-1.41,3.67,3.67,0,0,0-1.7-.89l-1.32-.18a5,5,0,0,0-2.53.68l-1,.79a5,5,0,0,0-1.29,2.2c-.07.29-.15.58-.23.86a3.78,3.78,0,0,0-.09,2,3.74,3.74,0,0,0,.59,1.85,3.89,3.89,0,0,0,1.29,1.41,4,4,0,0,0,1.14.68c-1.05,1.19-2.12,2.35-3.19,3.51a5.17,5.17,0,0,0-.52-1.33l-.79-1a4.85,4.85,0,0,0-2.2-1.28l-.55-.16a5.6,5.6,0,0,0-.53-3.2c3.91-2.12,3.14-9.41-2.37-9.41-4.33,0-5.74,4.51-4.25,7.47l-.29.17a4.59,4.59,0,0,0-3.59-1.53c-6.44,0-6.45,10,0,10a4.8,4.8,0,0,0,2.66-.76,4.37,4.37,0,0,0,1.83,1.22l-.1.78a5,5,0,0,0,.68,2.53l.78,1a4.94,4.94,0,0,0,2.21,1.28l.86.24c.11,0,.23,0,.34.06q-3,2.91-6.12,5.63a5,5,0,0,0-3.09-5.52c.87-2.9-.64-6.62-4.58-6.62a5.14,5.14,0,0,0-.55.06,4.62,4.62,0,0,0-4.77-4.27,5.7,5.7,0,0,0-.85.08c.2-.2.47-.33.62-.57a3.79,3.79,0,0,0,.9-1.7l.18-1.33a5,5,0,0,0-.68-2.53l-.79-1a5,5,0,0,0-2.2-1.29l-.86-.23a3.78,3.78,0,0,0-2-.09,4.53,4.53,0,0,0-3.26,1.88,3.77,3.77,0,0,0-.89,1.7l-.18,1.33a5,5,0,0,0,.68,2.53l.78,1a4.94,4.94,0,0,0,2.21,1.28l.86.24a3.75,3.75,0,0,0,2,.09h.06a5.39,5.39,0,0,0-1.26,4.82c-6.18.25-6.12,10,.24,10a5.1,5.1,0,0,0,1.71-.3,5,5,0,0,0,.89,2l-.24,0a4.84,4.84,0,0,1-8.45.47l-.24,0c1.45-2.56.58-6.44-2.56-7.43a5.6,5.6,0,0,0,.44-3.65c6.18-.26,6.12-10-.24-10-3.74,0-5.29,3.38-4.69,6.21-3.88.15-5.3,4-4.24,6.92a5,5,0,0,0-1.93-.37c-6.43,0-6.44,10,0,10a5,5,0,0,0,2-.41c-1,2.93.51,6.81,4.53,6.81a4.86,4.86,0,0,0,2.61-.72,4.4,4.4,0,0,0,.39.66l-.66.51a5,5,0,0,0-1.27,2.18,4.64,4.64,0,0,0-3.25-1.21,4.73,4.73,0,0,0-4.82,5.07c-.22-.09-.42-.2-.65-.27l-.86-.23a5.62,5.62,0,0,0-3.85.5,3.89,3.89,0,0,0-1.41,1.29,3.72,3.72,0,0,0-.89,1.7l-.18,1.33a5,5,0,0,0,.13.94l-2,.42a4.7,4.7,0,0,0-.34-1,5.58,5.58,0,0,0,.55-3.29,4.69,4.69,0,0,0,1.11-.47l1-.78a5,5,0,0,0,1.29-2.21c.08-.28.16-.57.23-.86a3,3,0,0,0,.1-.52,4.8,4.8,0,0,0,2.51.67c6.43,0,6.44-10,0-10a4.65,4.65,0,0,0-4.78,4.33,3.75,3.75,0,0,0-1.32-.63l-1.33-.18a5.37,5.37,0,0,0-1.39.21,5,5,0,0,0,.69-1.32,5.43,5.43,0,0,0,.93.09c6.43,0,6.44-10,0-10a4.57,4.57,0,0,0-4.55,3.22,5.31,5.31,0,0,0-.92-.09c-3.61,0-5.2,3.15-4.76,5.91a4.81,4.81,0,0,0-8.93.37,5.28,5.28,0,0,0-1.79-.32,4.64,4.64,0,0,0-3.29,1.25,4.56,4.56,0,0,0-2.72-1.12,30.63,30.63,0,0,1,7.14-3.58A100.94,100.94,0,0,0,1322.6,2207.79Zm399.46,64a5,5,0,0,0,2,.38,5.15,5.15,0,0,0,2.15-.45c.23,1.61.45,3.23.66,4.85a4.64,4.64,0,0,0-3,1C1723.29,2275.64,1722.67,2273.71,1722.06,2271.78Zm-8.8-24c-.19-.47-.39-.94-.59-1.4.09-.05.18-.07.26-.12l.52-.4A5.89,5.89,0,0,0,1713.26,2247.82Zm4.8,4.58a4.53,4.53,0,0,0,4.21-2.45q1.32,6.11,2.41,12.28a4.62,4.62,0,0,0-.65-.07,4.52,4.52,0,0,0-4.25,2.54c-1.6-4.62-3.35-9.18-5.19-13.71A4.6,4.6,0,0,0,1718.06,2252.4ZM1314.43,2236a5.34,5.34,0,0,0-.16-.53,2.24,2.24,0,0,0,.34.11C1314.55,2235.68,1314.48,2235.82,1314.43,2236Zm12.72,16.1a3.7,3.7,0,0,0-.59-1.81,3.34,3.34,0,0,0-.44-.48,4.64,4.64,0,0,0,1.47-1.85,4.41,4.41,0,0,0,3.18,2.16C1329.58,2250.77,1328.37,2251.43,1327.15,2252.06Zm7.19-19.85v0l-.29.1a.36.36,0,0,1,0-.1A3,3,0,0,0,1334.34,2232.21Zm1.17,9.8a2.13,2.13,0,0,0,.25,0,4.82,4.82,0,0,0,2.66-.76,4.52,4.52,0,0,0,3.23,1.5c-1.73,1.33-3.51,2.6-5.32,3.82A5.52,5.52,0,0,0,1335.51,2242Zm-59.38,20.41-.78-1a5,5,0,0,0-2.21-1.29l-.86-.23a3.75,3.75,0,0,0-2-.09,3.68,3.68,0,0,0-1.86.59,3.72,3.72,0,0,0-1.09,1,5.08,5.08,0,0,0-2.25-.5,5.71,5.71,0,0,0-1,.1c.2-.9.39-1.8.61-2.7a8,8,0,0,1,12.77,1.17,1.81,1.81,0,0,0,.23,0,5.65,5.65,0,0,0,0,5.4l-.88.16v0A5,5,0,0,0,1276.13,2262.42Zm11.15.76a5.34,5.34,0,0,0-1.06-3.2,4.52,4.52,0,0,0-4.4-2.86l-.24,0a5.61,5.61,0,0,0,.21-4.91,5.28,5.28,0,0,0,.73-1.39,5.08,5.08,0,0,0,1,.24c-.38,2.74,1.2,5.79,4.76,5.79a5,5,0,0,0,2.06-.42,6.18,6.18,0,0,0,0,1.92c-.1.12-.26.18-.34.31a3.79,3.79,0,0,0-.9,1.7l-.18,1.33a5,5,0,0,0,.16,1.16Zm7.54-15.26a4.94,4.94,0,0,0-.94,1.75c-.08.28-.15.57-.23.86a3.75,3.75,0,0,0-.09,2c0,.05,0,.09,0,.13-.18.06-.36.1-.53.17a4.87,4.87,0,0,0-4-5.88,6.38,6.38,0,0,0,0-1.69,4.53,4.53,0,0,0,4.39,2.85A5.32,5.32,0,0,0,1294.82,2247.92Zm431.52,38.57a5.16,5.16,0,0,0,.58.06,5.34,5.34,0,0,0,1.08-.11c.38,3.69.69,7.37,1,11.06Q1727.76,2292,1726.34,2286.49Z" transform="translate(-552.06 -2042.11)"/><path class="a" d="M1515,2138.69c-6.44,0-6.45,10,0,10S1521.46,2138.69,1515,2138.69Z" transform="translate(-552.06 -2042.11)"/><path class="a" d="M1491.46,2142.13c-6.43,0-6.44,10,0,10S1497.91,2142.13,1491.46,2142.13Z" transform="translate(-552.06 -2042.11)"/><path class="a" d="M1469.91,2149.06c-6.43,0-6.44,10,0,10S1476.36,2149.06,1469.91,2149.06Z" transform="translate(-552.06 -2042.11)"/><path class="a" d="M1456.36,2159.14c-6.44,0-6.45,10,0,10S1462.8,2159.14,1456.36,2159.14Z" transform="translate(-552.06 -2042.11)"/><path class="a" d="M1444.63,2169.72c-6.43,0-6.44,10,0,10S1451.08,2169.72,1444.63,2169.72Z" transform="translate(-552.06 -2042.11)"/><path class="a" d="M1431.66,2184.88c-6.43,0-6.44,10,0,10S1438.11,2184.88,1431.66,2184.88Z" transform="translate(-552.06 -2042.11)"/><path class="a" d="M1412.79,2207.29c-6.44,0-6.45,10,0,10S1419.23,2207.29,1412.79,2207.29Z" transform="translate(-552.06 -2042.11)"/><path class="a" d="M1401.65,2233c6.44,0,6.45-10,0-10S1395.21,2233,1401.65,2233Z" transform="translate(-552.06 -2042.11)"/><path class="a" d="M1392.18,2236.11c-6.44,0-6.45,10,0,10S1398.62,2236.11,1392.18,2236.11Z" transform="translate(-552.06 -2042.11)"/><path class="a" d="M1382.53,2246.27c-6.43,0-6.45,10,0,10S1389,2246.27,1382.53,2246.27Z" transform="translate(-552.06 -2042.11)"/><path class="a" d="M1372,2256.19c-6.44,0-6.45,10,0,10S1378.41,2256.19,1372,2256.19Z" transform="translate(-552.06 -2042.11)"/><path class="a" d="M1362.82,2264.52c-6.43,0-6.44,10,0,10S1369.27,2264.52,1362.82,2264.52Z" transform="translate(-552.06 -2042.11)"/><path class="a" d="M1349.76,2272.78c-6.43,0-6.44,10,0,10S1356.21,2272.78,1349.76,2272.78Z" transform="translate(-552.06 -2042.11)"/><path class="a" d="M1328.88,2280.87c-6.44,0-6.45,10,0,10S1335.32,2280.87,1328.88,2280.87Z" transform="translate(-552.06 -2042.11)"/><path class="a" d="M1301.09,2289.05c-6.44,0-6.45,10,0,10S1307.53,2289.05,1301.09,2289.05Z" transform="translate(-552.06 -2042.11)"/><path class="a" d="M1276.62,2292.24c-6.44,0-6.45,10,0,10S1283.06,2292.24,1276.62,2292.24Z" transform="translate(-552.06 -2042.11)"/><path class="a" d="M1560.32,2146.19a5,5,0,0,0-2.21-1.28l-1.15-.31a3.75,3.75,0,0,0-2-.09,3.65,3.65,0,0,0-1.86.59,3.7,3.7,0,0,0-1.4,1.29,3.74,3.74,0,0,0-.9,1.7l-.18,1.33a5,5,0,0,0,.69,2.52l.78,1a5,5,0,0,0,2.2,1.29l1.16.31a3.74,3.74,0,0,0,2,.09,3.81,3.81,0,0,0,1.86-.59,5.67,5.67,0,0,0,2.3-3c.05-.44.11-.89.17-1.33a5,5,0,0,0-.68-2.52Z" transform="translate(-552.06 -2042.11)"/><path class="a" d="M1599.38,2156.3c-6.44,0-6.45,10,0,10S1605.82,2156.3,1599.38,2156.3Z" transform="translate(-552.06 -2042.11)"/><path class="a" d="M1623.14,2178.94c6.44,0,6.45-10,0-10S1616.7,2178.94,1623.14,2178.94Z" transform="translate(-552.06 -2042.11)"/><path class="a" d="M1666.71,2227.86c6.44,0,6.45-10,0-10S1660.27,2227.86,1666.71,2227.86Z" transform="translate(-552.06 -2042.11)"/><path class="a" d="M1687.57,2269.38c6.44,0,6.45-10,0-10S1681.13,2269.38,1687.57,2269.38Z" transform="translate(-552.06 -2042.11)"/><path class="a" d="M1704.91,2342.07c6.43,0,6.44-10,0-10S1698.46,2342.07,1704.91,2342.07Z" transform="translate(-552.06 -2042.11)"/><path class="a" d="M1702.79,2418.14c6.43,0,6.44-10,0-10S1696.34,2418.14,1702.79,2418.14Z" transform="translate(-552.06 -2042.11)"/><path class="a" d="M1698.42,2447.86c6.43,0,6.45-10,0-10S1692,2447.86,1698.42,2447.86Z" transform="translate(-552.06 -2042.11)"/><path class="a" d="M1679.76,2493a4.89,4.89,0,0,0,2.21,1.28l1.15.32a4,4,0,0,0,2,.09,3.76,3.76,0,0,0,1.86-.6,3.7,3.7,0,0,0,1.4-1.29,3.74,3.74,0,0,0,.9-1.7l.18-1.33a5,5,0,0,0-.69-2.52l-.78-1a5,5,0,0,0-2.2-1.29l-1.16-.31a3.74,3.74,0,0,0-2-.09,3.81,3.81,0,0,0-1.86.59,5.67,5.67,0,0,0-2.3,3c-.06.45-.11.89-.17,1.33a5,5,0,0,0,.68,2.53Z" transform="translate(-552.06 -2042.11)"/><path class="a" d="M1664.52,2551.17c6.44,0,6.45-10,0-10S1658.08,2551.17,1664.52,2551.17Z" transform="translate(-552.06 -2042.11)"/><path class="a" d="M1642.36,2593.8c6.44,0,6.45-10,0-10S1635.92,2593.8,1642.36,2593.8Z" transform="translate(-552.06 -2042.11)"/><path class="a" d="M1618,2626.08a3.7,3.7,0,0,0,1.29,1.4,3.78,3.78,0,0,0,1.7.9l1.32.18a5,5,0,0,0,2.53-.69l1-.78a5,5,0,0,0,1.29-2.2c.17-.66.35-1.32.53-2a5.64,5.64,0,0,0-.5-3.86,3.86,3.86,0,0,0-1.29-1.4,3.72,3.72,0,0,0-1.7-.89l-1.33-.18a5,5,0,0,0-2.52.68l-1,.78a5,5,0,0,0-1.28,2.21l-.54,2a3.85,3.85,0,0,0-.09,2A3.66,3.66,0,0,0,1618,2626.08Z" transform="translate(-552.06 -2042.11)"/><path class="a" d="M1610.55,2648.62c6.43,0,6.44-10,0-10S1604.1,2648.62,1610.55,2648.62Z" transform="translate(-552.06 -2042.11)"/><path class="a" d="M1601.79,2665.28c6.44,0,6.45-10,0-10S1595.35,2665.28,1601.79,2665.28Z" transform="translate(-552.06 -2042.11)"/><path class="a" d="M1588,2684.81c6.43,0,6.44-10,0-10S1581.58,2684.81,1588,2684.81Z" transform="translate(-552.06 -2042.11)"/><path class="a" d="M1560.49,2723.86c6.44,0,6.45-10,0-10S1554.05,2723.86,1560.49,2723.86Z" transform="translate(-552.06 -2042.11)"/><path class="a" d="M1530.45,2764.36c6.44,0,6.45-10,0-10S1524,2764.36,1530.45,2764.36Z" transform="translate(-552.06 -2042.11)"/><path class="a" d="M1504.89,2804c6.43,0,6.45-10,0-10S1498.44,2804,1504.89,2804Z" transform="translate(-552.06 -2042.11)"/><path class="a" d="M1485.74,2824.94a3.75,3.75,0,0,0,1.28,1.4,3.89,3.89,0,0,0,1.7.9l1.33.17a5,5,0,0,0,2.53-.68l1-.78a4.89,4.89,0,0,0,1.28-2.21l.54-2a5.62,5.62,0,0,0-.5-3.85,5.67,5.67,0,0,0-3-2.3l-1.33-.17a5,5,0,0,0-2.53.68l-1,.78a4.89,4.89,0,0,0-1.28,2.21l-.54,2a5.55,5.55,0,0,0,.51,3.85Z" transform="translate(-552.06 -2042.11)"/><path class="a" d="M1476.82,2845c6.44,0,6.45-10,0-10S1470.38,2845,1476.82,2845Z" transform="translate(-552.06 -2042.11)"/><path class="a" d="M1462.16,2850c-6.44,0-6.45,10,0,10S1468.6,2850,1462.16,2850Z" transform="translate(-552.06 -2042.11)"/><path class="a" d="M1447.85,2881.52c6.44,0,6.45-10,0-10S1441.41,2881.52,1447.85,2881.52Z" transform="translate(-552.06 -2042.11)"/><path class="a" d="M1407.43,2921.31c6.44,0,6.45-10,0-10S1401,2921.31,1407.43,2921.31Z" transform="translate(-552.06 -2042.11)"/><path class="a" d="M1393.66,2940.84c6.44,0,6.45-10,0-10S1387.22,2940.84,1393.66,2940.84Z" transform="translate(-552.06 -2042.11)"/><path class="a" d="M1353.61,2987.07c6.43,0,6.44-10,0-10S1347.16,2987.07,1353.61,2987.07Z" transform="translate(-552.06 -2042.11)"/><path class="a" d="M1324.27,3017.18c6.44,0,6.45-10,0-10S1317.83,3017.18,1324.27,3017.18Z" transform="translate(-552.06 -2042.11)"/><path class="a" d="M1308.54,3026.17c-6.44,0-6.45,10,0,10S1315,3026.17,1308.54,3026.17Z" transform="translate(-552.06 -2042.11)"/><path class="a" d="M1292.26,3047.13c-6.43,0-6.44,10,0,10S1298.71,3047.13,1292.26,3047.13Z" transform="translate(-552.06 -2042.11)"/><path class="a" d="M1275.09,3063.62c-6.43,0-6.44,10,0,10S1281.54,3063.62,1275.09,3063.62Z" transform="translate(-552.06 -2042.11)"/><path class="a" d="M961.59,3246.52a4.54,4.54,0,0,0,3.95-2c-2.28-2.35-4.5-4.76-6.77-7.12C955.37,3239.78,956.3,3246.52,961.59,3246.52Z" transform="translate(-552.06 -2042.11)"/><path class="a" d="M932.41,3244.93c6.43,0,6.44-10,0-10S926,3244.93,932.41,3244.93Z" transform="translate(-552.06 -2042.11)"/><path class="a" d="M913.24,3237.61c6.44,0,6.45-10,0-10S906.8,3237.61,913.24,3237.61Z" transform="translate(-552.06 -2042.11)"/><path class="a" d="M896.59,3228.85c6.43,0,6.44-10,0-10S890.14,3228.85,896.59,3228.85Z" transform="translate(-552.06 -2042.11)"/><path class="a" d="M884,3212.75c6.43,0,6.44-10,0-10S877.59,3212.75,884,3212.75Z" transform="translate(-552.06 -2042.11)"/><path class="a" d="M861.64,3184c-6.43,0-6.45,10,0,10S868.09,3184,861.64,3184Z" transform="translate(-552.06 -2042.11)"/><path class="a" d="M846,3148c-6.44,0-6.45,10,0,10S852.47,3148,846,3148Z" transform="translate(-552.06 -2042.11)"/><path class="a" d="M843.5,3126.17c-6.43,0-6.44,10,0,10S850,3126.17,843.5,3126.17Z" transform="translate(-552.06 -2042.11)"/><path class="a" d="M835.43,3109.17c-6.44,0-6.45,10,0,10S841.87,3109.17,835.43,3109.17Z" transform="translate(-552.06 -2042.11)"/><path class="a" d="M1401.68,2253.94c-6.43,0-6.44,10,0,10S1408.13,2253.94,1401.68,2253.94Z" transform="translate(-552.06 -2042.11)"/><path class="a" d="M1376.57,2280.78c-6.44,0-6.45,10,0,10S1383,2280.78,1376.57,2280.78Z" transform="translate(-552.06 -2042.11)"/><path class="a" d="M1359.65,2292c-6.44,0-6.45,10,0,10S1366.09,2292,1359.65,2292Z" transform="translate(-552.06 -2042.11)"/><path class="a" d="M1341.88,2299.09c-6.43,0-6.44,10,0,10S1348.33,2299.09,1341.88,2299.09Z" transform="translate(-552.06 -2042.11)"/><path class="a" d="M1307.52,2301.64c-6.43,0-6.44,10,0,10S1314,2301.64,1307.52,2301.64Z" transform="translate(-552.06 -2042.11)"/><path class="a" d="M1461.92,2812.43c6.43,0,6.45-10,0-10S1455.47,2812.43,1461.92,2812.43Z" transform="translate(-552.06 -2042.11)"/><path class="a" d="M1439.05,2846.8c6.44,0,6.45-10,0-10S1432.61,2846.8,1439.05,2846.8Z" transform="translate(-552.06 -2042.11)"/><path class="a" d="M1351.67,2939.4c6.44,0,6.45-10,0-10S1345.23,2939.4,1351.67,2939.4Z" transform="translate(-552.06 -2042.11)"/><path class="a" d="M1321.25,2971.72c6.44,0,6.45-10,0-10S1314.81,2971.72,1321.25,2971.72Z" transform="translate(-552.06 -2042.11)"/><path class="a" d="M1290.14,2996.55c-6.43,0-6.44,10,0,10S1296.59,2996.55,1290.14,2996.55Z" transform="translate(-552.06 -2042.11)"/><path class="a" d="M913.88,3196.52a4.53,4.53,0,0,0,4.39-2.87q-3-3.41-6-6.85C907.52,3188.38,908.06,3196.52,913.88,3196.52Z" transform="translate(-552.06 -2042.11)"/><path class="a" d="M891,3171.35a4.58,4.58,0,0,0,4.63-3.57l-5.46-6.35C884.55,3162.26,884.81,3171.35,891,3171.35Z" transform="translate(-552.06 -2042.11)"/><path class="a" d="M1492.45,2515.49c5.8-11.87,11.68-23.72,16.58-36q3.59-9,6.75-18.17c1.06-3,2.19-6.08,3.09-9.17,1.06-3.61.63-6.84,1-10.48.24-2.56-3.6-3.41-4.76-1.28-1.51,2.78-3.56,5-4.7,8s-2,6.16-3,9.21q-3.12,9.52-6.43,19c-4.32,12.36-8.43,24.77-13.39,36.89C1486.46,2516.21,1491.13,2518.18,1492.45,2515.49Z" transform="translate(-552.06 -2042.11)"/><path class="a" d="M1482.32,2446.17c2.08-4.49,4.36-8.64,5.91-13.39,1.43-4.39,2.7-8.83,4-13.25,2.76-9.19,4.74-18.59,7.32-27.83.84-3-3.6-4.15-4.62-1.27-3.16,8.9-6.9,17.6-9.9,26.56-1.47,4.38-3,8.76-4.34,13.17-1.47,4.7-2,9.32-2.87,14.13C1477.39,2446.8,1481.07,2448.88,1482.32,2446.17Z" transform="translate(-552.06 -2042.11)"/><path class="a" d="M1453.93,2515.42a137.46,137.46,0,0,0,9.36-17.3c2.59-6.1,4.77-12.35,7.12-18.54,1-2.67-3.23-4.39-4.57-1.93-3.12,5.76-6.49,11.4-9.32,17.31a150.38,150.38,0,0,0-7.06,18.58C1448.58,2516.22,1452.52,2517.75,1453.93,2515.42Z" transform="translate(-552.06 -2042.11)"/><path class="a" d="M1394.45,2616.05a80.33,80.33,0,0,0-3.5,9.43c-.6,2.21,2.33,4.09,4,2.3,1.19-1.3,2.14-2.83,3.24-4.21s2-2.6,3-4c1.87-2.74,3.45-5.67,5-8.57,3.26-5.91,6.16-12.05,9.21-18.07,2-4-3.72-7.42-6-3.53-3.43,5.81-7.05,11.54-10.28,17.45A99.82,99.82,0,0,0,1394.45,2616.05Z" transform="translate(-552.06 -2042.11)"/><path class="a" d="M1377.27,2645c-5,7-10.4,13.59-15.25,20.65-2.41,3.51-4.7,7.11-7.06,10.66a53.91,53.91,0,0,0-3.14,5.06c-1.06,2.07-1.57,4.31-2.51,6.43-1,2.4,1.84,5.29,3.93,3,1.52-1.64,3.32-3,4.75-4.7a51.16,51.16,0,0,0,3.54-5c2.39-3.7,4.83-7.36,7.18-11.08,4.63-7.32,8.56-15,13-22.46C1383.46,2644.65,1379.16,2642.29,1377.27,2645Z" transform="translate(-552.06 -2042.11)"/><path class="a" d="M1336.28,2713.2q-26.33,36.89-51.17,74.78-12.31,18.73-24.54,37.51c-4.08,6.26-8.23,12.48-12.23,18.79-4.23,6.65-7.17,13.64-10.57,20.71-1.24,2.57,2.13,5.79,4.25,3.28,4.89-5.79,10-11.15,14.19-17.47s8.43-13,12.63-19.51q12.14-18.84,24.2-37.72,24.56-38.46,47.65-77.79C1342.38,2712.89,1338.16,2710.57,1336.28,2713.2Z" transform="translate(-552.06 -2042.11)"/><path class="a" d="M1151.2,2945.14c2.91-1.67,5.13-4.67,7-7.41,1.71-2.56,3.17-5.31,4.73-8q4.83-8.28,9.69-16.52c1.87-3.18-2.78-5.72-4.86-2.84q-5.61,7.82-11.24,15.61c-3.65,5.05-8.46,10.47-9.17,16.9C1147.1,2944.93,1149.65,2946,1151.2,2945.14Z" transform="translate(-552.06 -2042.11)"/><path class="a" d="M1345.82,2640.14c3.4-5.61,7.13-11,10.7-16.53s7.31-11.09,9.41-17.38c.91-2.73-3-5.09-4.92-2.87-4.32,5-7.16,11.06-10.07,17s-5.61,11.89-8.68,17.71C1341,2640.4,1344.44,2642.41,1345.82,2640.14Z" transform="translate(-552.06 -2042.11)"/><path class="a" d="M1380.73,2579.55l10.2-16.82c1.67-2.76,3.35-5.5,5-8.3,1.69-3,3.59-6,4.26-9.37a3.52,3.52,0,0,0-5.84-3.39c-2.55,2.33-4.14,5.47-5.78,8.45-1.56,2.83-3,5.69-4.52,8.56l-9.07,17.48C1373,2580,1378.48,2583.27,1380.73,2579.55Z" transform="translate(-552.06 -2042.11)"/><path class="a" d="M1283.64,2742.23c6.37-4.54,10.36-12.26,14.35-18.79s7.58-13.56,11.73-20.15c1.79-2.84-2.5-5.15-4.41-2.58-4.61,6.22-9.75,12-14.44,18.13-2.25,3-4.63,5.86-6.69,8.95s-4.48,6.9-5.44,10.68C1278.09,2741.07,1281.16,2744,1283.64,2742.23Z" transform="translate(-552.06 -2042.11)"/><path class="a" d="M1234.26,2810c-.29,3,3.57,4.89,6,3.41,4.44-2.76,7.38-8.28,10.08-12.63,2.94-4.74,5.73-9.58,8.56-14.39,5.6-9.49,10.55-19.28,15.74-29,2-3.72-3.19-6.61-5.57-3.26-6.4,9-13,17.81-19,27.07-3,4.54-6,9-8.8,13.64S1234.79,2804.51,1234.26,2810Z" transform="translate(-552.06 -2042.11)"/><path class="a" d="M1227.82,2823a3.56,3.56,0,0,0-4.74,1.24c-2.28,3.17-4.56,6.35-6.85,9.51-1.12,1.56-2.26,3.11-3.39,4.66-1.43,2-3.5,4.47-2.48,7.08a3.67,3.67,0,0,0,3.44,2.62c3.12-.08,4.65-2.78,6.08-5.16,1-1.69,2-3.39,3-5.08q3.06-5.07,6.14-10.13A3.51,3.51,0,0,0,1227.82,2823Z" transform="translate(-552.06 -2042.11)"/><path class="a" d="M1348.77,2531.64a2.9,2.9,0,0,0,3.92-1c2.08-3.55,4.23-7.07,6.38-10.58a40.67,40.67,0,0,0,2.79-5.41c.94-2.19,2.08-4.32,2.34-6.72a3,3,0,0,0-1.88-2.78,3.09,3.09,0,0,0-3.33.63c-1.62,1.43-2.65,3.65-3.76,5.48a41,41,0,0,0-2.63,5.26c-1.59,3.76-3.19,7.51-4.85,11.23A3,3,0,0,0,1348.77,2531.64Z" transform="translate(-552.06 -2042.11)"/><path class="a" d="M1252.89,2687.28a2.46,2.46,0,0,0,3-1c3.09-4.24,6.51-8.2,8.89-12.91s4.55-9.42,6.76-14.16c1.62-3.46-3-6.3-5.17-3-2.88,4.45-5.8,8.88-8.54,13.43s-4.36,9.8-6.37,14.8A2.39,2.39,0,0,0,1252.89,2687.28Z" transform="translate(-552.06 -2042.11)"/><path class="a" d="M1210.09,2768.23c4.94-2.84,7.42-9.48,10-14.3,2.88-5.3,5.79-10.59,8.56-15.94,5.55-10.73,10.83-21.61,16.2-32.43,2-3.93-3.63-7.3-5.93-3.47-6.22,10.33-12.54,20.6-18.59,31-3,5.22-5.91,10.51-8.82,15.79-2.65,4.79-7,10.58-6.79,16.26A3.58,3.58,0,0,0,1210.09,2768.23Z" transform="translate(-552.06 -2042.11)"/><path class="a" d="M1168.17,2833.56a75.31,75.31,0,0,0,7.83-8.91c2.28-3.29,4.42-6.74,6.5-10.17,4.1-6.8,7.51-13.9,11.33-20.86,1.74-3.16-2.66-5.5-4.73-2.76-4.81,6.38-9.93,12.44-14.48,19-2.21,3.2-4.36,6.46-6.41,9.77-2.16,3.47-3.45,7.26-5,11C1162.05,2833.49,1166.25,2835.58,1168.17,2833.56Z" transform="translate(-552.06 -2042.11)"/><path class="a" d="M1281.26,2640.92c6.44,0,6.45-10,0-10S1274.82,2640.92,1281.26,2640.92Z" transform="translate(-552.06 -2042.11)"/><path class="a" d="M1294.18,2615.34c6.83,0,6.84-10.63,0-10.63S1287.33,2615.34,1294.18,2615.34Z" transform="translate(-552.06 -2042.11)"/><path class="a" d="M1308.75,2585.65c5.16,0,5.17-8,0-8S1303.58,2585.65,1308.75,2585.65Z" transform="translate(-552.06 -2042.11)"/><path class="a" d="M1340.4,2552.61c5.8,0,5.81-9,0-9S1334.59,2552.61,1340.4,2552.61Z" transform="translate(-552.06 -2042.11)"/><path class="a" d="M1342.84,2597.44a4.12,4.12,0,0,0-2.14-.58,4.63,4.63,0,0,0-3,1.24,3.14,3.14,0,0,0-.88,1.37,3.05,3.05,0,0,0-.36,1.63l.15,1.13a4.12,4.12,0,0,0,1.09,1.87c.28.23.57.45.86.67a4.22,4.22,0,0,0,2.14.58,3.16,3.16,0,0,0,1.63-.37,3.85,3.85,0,0,0,2.25-2.24,3.18,3.18,0,0,0,.36-1.64l-.15-1.13a4.23,4.23,0,0,0-1.09-1.87Z" transform="translate(-552.06 -2042.11)"/><path class="a" d="M1142.9,2853.46a2.17,2.17,0,0,0,.53,1,1.44,1.44,0,0,0,.52.52,2.17,2.17,0,0,0,1,.53l.78.1.77-.1a2.17,2.17,0,0,0,1-.53,2.19,2.19,0,0,0,.76-.81l1-1.4a3.58,3.58,0,0,0,0-3.58l-.55-.72a3.56,3.56,0,0,0-1.57-.91,2.7,2.7,0,0,0-1.41-.06,2.57,2.57,0,0,0-1.31.42,3.51,3.51,0,0,0-1.76,3.06c0,.57.1,1.14.16,1.71C1142.84,2852.94,1142.87,2853.2,1142.9,2853.46Z" transform="translate(-552.06 -2042.11)"/><path class="a" d="M1121.26,2873c6.27,0,6.28-9.74,0-9.74S1115,2873,1121.26,2873Z" transform="translate(-552.06 -2042.11)"/><path class="a" d="M1099.6,2878.54c6.74,0,6.75-10.47,0-10.47S1092.86,2878.54,1099.6,2878.54Z" transform="translate(-552.06 -2042.11)"/><path class="a" d="M1383.42,2177a3.89,3.89,0,0,0-1.29-1.41,3.72,3.72,0,0,0-1.7-.89l-1.33-.18a5,5,0,0,0-2.52.68l-1,.78a5.13,5.13,0,0,0-1.28,2.21c-.08.29-.16.57-.23.86a3.75,3.75,0,0,0-.09,2,3.65,3.65,0,0,0,.59,1.86,5.54,5.54,0,0,0,3,2.3l1.33.18a5,5,0,0,0,2.52-.68l1-.78a5.05,5.05,0,0,0,1.29-2.21l.23-.86a3.78,3.78,0,0,0,.09-2A3.74,3.74,0,0,0,1383.42,2177Z" transform="translate(-552.06 -2042.11)"/><path class="a" d="M1390.73,2155.51c-6.43,0-6.44,10,0,10S1397.18,2155.51,1390.73,2155.51Z" transform="translate(-552.06 -2042.11)"/><path class="a" d="M1407.06,2139.62c-6.43,0-6.44,10,0,10S1413.51,2139.62,1407.06,2139.62Z" transform="translate(-552.06 -2042.11)"/><path class="a" d="M1416.07,2133.18a3.78,3.78,0,0,0-.09,2,3.72,3.72,0,0,0,.6,1.86l.78,1a5,5,0,0,0,2.2,1.29l1.33.17a5,5,0,0,0,2.53-.68l1.09-.63a5.13,5.13,0,0,0,1.79-6.84l-.78-1a4.91,4.91,0,0,0-2.2-1.28l-1.33-.18a5,5,0,0,0-2.53.68l-1.09.63a3.75,3.75,0,0,0-1.4,1.28A3.89,3.89,0,0,0,1416.07,2133.18Z" transform="translate(-552.06 -2042.11)"/><path class="a" d="M1440.82,2127.37c6.44,0,6.45-10,0-10S1434.38,2127.37,1440.82,2127.37Z" transform="translate(-552.06 -2042.11)"/><path class="a" d="M1457.24,2118c6.43,0,6.44-10,0-10S1450.79,2118,1457.24,2118Z" transform="translate(-552.06 -2042.11)"/><path class="a" d="M1383.21,2152.38c6.44,0,6.45-10,0-10S1376.77,2152.38,1383.21,2152.38Z" transform="translate(-552.06 -2042.11)"/><path class="a" d="M1366.63,2164.19l-1,.78a4.91,4.91,0,0,0-1.28,2.2l-.24.86a3.78,3.78,0,0,0-.09,2,5.1,5.1,0,0,0,3.59,4.15l1.32.18a5,5,0,0,0,2.53-.68l1-.78a5.05,5.05,0,0,0,1.29-2.21c.07-.28.15-.57.23-.86a5.62,5.62,0,0,0-.5-3.85,3.86,3.86,0,0,0-1.29-1.4,3.74,3.74,0,0,0-1.7-.9l-1.33-.18A5,5,0,0,0,1366.63,2164.19Z" transform="translate(-552.06 -2042.11)"/><path class="a" d="M1362,2176.33c-6.44,0-6.45,10,0,10S1368.42,2176.33,1362,2176.33Z" transform="translate(-552.06 -2042.11)"/><path class="a" d="M1351.75,2200.19c6.43,0,6.44-10,0-10S1345.3,2200.19,1351.75,2200.19Z" transform="translate(-552.06 -2042.11)"/><path class="a" d="M1342.1,2183.33a5.49,5.49,0,0,0,3,2.29l1.32.18a5,5,0,0,0,2.53-.68l1-.78a5.05,5.05,0,0,0,1.29-2.21c.07-.28.15-.57.23-.86a5.62,5.62,0,0,0-.5-3.85,3.86,3.86,0,0,0-1.29-1.4,3.79,3.79,0,0,0-1.7-.9l-1.33-.18a5.1,5.1,0,0,0-2.53.68c-.33.27-.67.53-1,.79a4.91,4.91,0,0,0-1.28,2.2l-.24.86a3.78,3.78,0,0,0-.09,2A3.72,3.72,0,0,0,1342.1,2183.33Z" transform="translate(-552.06 -2042.11)"/><path class="a" d="M1357,2167.42c6.44,0,6.45-10,0-10S1350.51,2167.42,1357,2167.42Z" transform="translate(-552.06 -2042.11)"/><path class="a" d="M1365.14,2147.47c6.44,0,6.45-10,0-10S1358.7,2147.47,1365.14,2147.47Z" transform="translate(-552.06 -2042.11)"/><path class="a" d="M1376,2124.54c6.44,0,6.45-10,0-10S1369.55,2124.54,1376,2124.54Z" transform="translate(-552.06 -2042.11)"/><path class="a" d="M1394.38,2135.08c6.43,0,6.44-10,0-10S1387.93,2135.08,1394.38,2135.08Z" transform="translate(-552.06 -2042.11)"/><path class="a" d="M1413.45,2122.71c6.43,0,6.44-10,0-10S1407,2122.71,1413.45,2122.71Z" transform="translate(-552.06 -2042.11)"/><path class="a" d="M1335.29,2208.7a4.61,4.61,0,0,0,4.74,4c6.33,0,6.43-9.67.28-10a4.62,4.62,0,0,0-4.74-4C1329.23,2198.73,1329.14,2208.4,1335.29,2208.7Z" transform="translate(-552.06 -2042.11)"/><path class="a" d="M1658.87,2161.51c6.43,0,6.44-10,0-10S1652.42,2161.51,1658.87,2161.51Z" transform="translate(-552.06 -2042.11)"/><path class="a" d="M1668.76,2171c6.43,0,6.45-10,0-10S1662.32,2171,1668.76,2171Z" transform="translate(-552.06 -2042.11)"/><path class="a" d="M1605.29,2120.88c6.44,0,6.45-10,0-10S1598.85,2120.88,1605.29,2120.88Z" transform="translate(-552.06 -2042.11)"/><path class="a" d="M1627.94,2129.3c6.44,0,6.45-10,0-10S1621.5,2129.3,1627.94,2129.3Z" transform="translate(-552.06 -2042.11)"/><path class="a" d="M1643.6,2142.62c6.43,0,6.44-10,0-10S1637.15,2142.62,1643.6,2142.62Z" transform="translate(-552.06 -2042.11)"/><path class="a" d="M1526.89,2100.71c6.43,0,6.44-10,0-10S1520.44,2100.71,1526.89,2100.71Z" transform="translate(-552.06 -2042.11)"/><path class="a" d="M1570.74,2110.36c6.44,0,6.45-10,0-10S1564.3,2110.36,1570.74,2110.36Z" transform="translate(-552.06 -2042.11)"/><path class="a" d="M1585.51,2101.9c6.43,0,6.45-10,0-10S1579.06,2101.9,1585.51,2101.9Z" transform="translate(-552.06 -2042.11)"/><path class="a" d="M1465.41,2103.91a5,5,0,0,0,2.2,1.29l1.06.28a5.62,5.62,0,0,0,3.85-.5,3.89,3.89,0,0,0,1.41-1.29,3.72,3.72,0,0,0,.89-1.7l.18-1.33a5,5,0,0,0-.68-2.52c-.26-.34-.52-.68-.79-1a5,5,0,0,0-2.2-1.29l-1.06-.29a3.75,3.75,0,0,0-2-.09,3.66,3.66,0,0,0-1.86.6,5.59,5.59,0,0,0-2.3,3l-.18,1.33a5,5,0,0,0,.69,2.53Z" transform="translate(-552.06 -2042.11)"/><path class="a" d="M1433,2100.13c6.43,0,6.45-10,0-10S1426.51,2100.13,1433,2100.13Z" transform="translate(-552.06 -2042.11)"/><path class="a" d="M1405,2102.75c6.44,0,6.45-10,0-10S1398.6,2102.75,1405,2102.75Z" transform="translate(-552.06 -2042.11)"/><path class="a" d="M1447.82,2087.17c6.43,0,6.44-10,0-10S1441.37,2087.17,1447.82,2087.17Z" transform="translate(-552.06 -2042.11)"/><path class="a" d="M782.35,2335.36c6.44,0,6.45-10,0-10S775.91,2335.36,782.35,2335.36Z" transform="translate(-552.06 -2042.11)"/><path class="a" d="M805.9,2338.79c6.44,0,6.45-10,0-10S799.46,2338.79,805.9,2338.79Z" transform="translate(-552.06 -2042.11)"/><path class="a" d="M827.45,2345.72c6.44,0,6.45-10,0-10S821,2345.72,827.45,2345.72Z" transform="translate(-552.06 -2042.11)"/><path class="a" d="M841,2355.81c6.44,0,6.45-10,0-10S834.57,2355.81,841,2355.81Z" transform="translate(-552.06 -2042.11)"/><path class="a" d="M852.74,2366.39c6.43,0,6.44-10,0-10S846.29,2366.39,852.74,2366.39Z" transform="translate(-552.06 -2042.11)"/><path class="a" d="M865.71,2381.55c6.43,0,6.44-10,0-10S859.26,2381.55,865.71,2381.55Z" transform="translate(-552.06 -2042.11)"/><path class="a" d="M884.58,2404c6.43,0,6.44-10,0-10S878.13,2404,884.58,2404Z" transform="translate(-552.06 -2042.11)"/><path class="a" d="M895.72,2419.62c6.43,0,6.44-10,0-10S889.27,2419.62,895.72,2419.62Z" transform="translate(-552.06 -2042.11)"/><path class="a" d="M905.19,2432.78c6.44,0,6.45-10,0-10S898.75,2432.78,905.19,2432.78Z" transform="translate(-552.06 -2042.11)"/><path class="a" d="M914.84,2442.94c6.43,0,6.44-10,0-10S908.39,2442.94,914.84,2442.94Z" transform="translate(-552.06 -2042.11)"/><path class="a" d="M925.4,2452.86c6.43,0,6.44-10,0-10S919,2452.86,925.4,2452.86Z" transform="translate(-552.06 -2042.11)"/><path class="a" d="M934.55,2461.19c6.43,0,6.44-10,0-10S928.1,2461.19,934.55,2461.19Z" transform="translate(-552.06 -2042.11)"/><path class="a" d="M947.61,2469.44c6.43,0,6.44-10,0-10S941.16,2469.44,947.61,2469.44Z" transform="translate(-552.06 -2042.11)"/><path class="a" d="M968.49,2477.54c6.43,0,6.45-10,0-10S962,2477.54,968.49,2477.54Z" transform="translate(-552.06 -2042.11)"/><path class="a" d="M996.28,2485.72c6.44,0,6.45-10,0-10S989.84,2485.72,996.28,2485.72Z" transform="translate(-552.06 -2042.11)"/><path class="a" d="M1020.75,2488.91c6.43,0,6.44-10,0-10S1014.3,2488.91,1020.75,2488.91Z" transform="translate(-552.06 -2042.11)"/><path class="a" d="M736.27,2338.92a5,5,0,0,0,1.79,1.79l1.19.51a5,5,0,0,0,2.66,0l1.15-.32a4.82,4.82,0,0,0,3.59-4.15,4,4,0,0,0-.09-2l-.51-1.19a5,5,0,0,0-1.79-1.79l-1.2-.51a5,5,0,0,0-2.65,0l-1.16.31a3.89,3.89,0,0,0-1.7.9,5.16,5.16,0,0,0-1.79,5.26Z" transform="translate(-552.06 -2042.11)"/><path class="a" d="M698,2353c6.43,0,6.44-10,0-10S691.54,2353,698,2353Z" transform="translate(-552.06 -2042.11)"/><path class="a" d="M674.23,2365.6c6.43,0,6.44-10,0-10S667.78,2365.6,674.23,2365.6Z" transform="translate(-552.06 -2042.11)"/><path class="a" d="M630.66,2404.53c-6.44,0-6.45,10,0,10S637.1,2404.53,630.66,2404.53Z" transform="translate(-552.06 -2042.11)"/><path class="a" d="M609.79,2446c-6.43,0-6.44,10,0,10S616.24,2446,609.79,2446Z" transform="translate(-552.06 -2042.11)"/><path class="a" d="M592.46,2518.74c-6.44,0-6.45,10,0,10S598.9,2518.74,592.46,2518.74Z" transform="translate(-552.06 -2042.11)"/><path class="a" d="M594.58,2594.81c-6.43,0-6.44,10,0,10S601,2594.81,594.58,2594.81Z" transform="translate(-552.06 -2042.11)"/><path class="a" d="M599,2624.52c-6.44,0-6.45,10,0,10S605.39,2624.52,599,2624.52Z" transform="translate(-552.06 -2042.11)"/><path class="a" d="M618.39,2673.57a5,5,0,0,0-1.79-1.79l-1.2-.5a5,5,0,0,0-2.66,0l-1.15.31a3.72,3.72,0,0,0-1.7.89,3.89,3.89,0,0,0-1.29,1.41,5.62,5.62,0,0,0-.5,3.85l.5,1.19a5.09,5.09,0,0,0,1.8,1.8l1.19.5a5,5,0,0,0,2.66,0l1.15-.31a3.74,3.74,0,0,0,1.7-.9,3.7,3.7,0,0,0,1.29-1.4,3.65,3.65,0,0,0,.59-1.86,3.75,3.75,0,0,0-.09-2C618.73,2674.37,618.56,2674,618.39,2673.57Z" transform="translate(-552.06 -2042.11)"/><path class="a" d="M632.85,2727.84c-6.44,0-6.45,10,0,10S639.29,2727.84,632.85,2727.84Z" transform="translate(-552.06 -2042.11)"/><path class="a" d="M655,2770.47c-6.44,0-6.45,10,0,10S661.45,2770.47,655,2770.47Z" transform="translate(-552.06 -2042.11)"/><path class="a" d="M679.31,2806.92a5.59,5.59,0,0,0-2.3-3,3.66,3.66,0,0,0-1.86-.6,3.75,3.75,0,0,0-2,.09l-1.2.51a5,5,0,0,0-1.79,1.79l-.5,1.19a5,5,0,0,0,0,2.66c.17.66.35,1.32.53,2a3.74,3.74,0,0,0,.9,1.7,3.7,3.7,0,0,0,1.4,1.29,3.65,3.65,0,0,0,1.86.59,3.75,3.75,0,0,0,2-.09l1.2-.5a5,5,0,0,0,1.79-1.79c.17-.4.34-.8.5-1.2a5,5,0,0,0,0-2.66C679.67,2808.24,679.49,2807.58,679.31,2806.92Z" transform="translate(-552.06 -2042.11)"/><path class="a" d="M686.82,2825.29c-6.43,0-6.45,10,0,10S693.26,2825.29,686.82,2825.29Z" transform="translate(-552.06 -2042.11)"/><path class="a" d="M695.58,2842c-6.44,0-6.45,10,0,10S702,2842,695.58,2842Z" transform="translate(-552.06 -2042.11)"/><path class="a" d="M709.34,2861.47c-6.43,0-6.44,10,0,10S715.79,2861.47,709.34,2861.47Z" transform="translate(-552.06 -2042.11)"/><path class="a" d="M736.88,2900.53c-6.44,0-6.45,10,0,10S743.32,2900.53,736.88,2900.53Z" transform="translate(-552.06 -2042.11)"/><path class="a" d="M766.91,2941c-6.43,0-6.44,10,0,10S773.36,2941,766.91,2941Z" transform="translate(-552.06 -2042.11)"/><path class="a" d="M792.48,2980.61c-6.44,0-6.45,10,0,10S798.92,2980.61,792.48,2980.61Z" transform="translate(-552.06 -2042.11)"/><path class="a" d="M811.6,3005.78a3.72,3.72,0,0,0-.89-1.7,3.89,3.89,0,0,0-1.41-1.29,5.62,5.62,0,0,0-3.85-.5l-1.19.5a5.09,5.09,0,0,0-1.8,1.8l-.5,1.19a5,5,0,0,0,0,2.66c.18.66.36,1.31.53,2a3.83,3.83,0,0,0,.9,1.7,5.15,5.15,0,0,0,5.25,1.79l1.2-.5a5,5,0,0,0,1.79-1.8l.51-1.19a5.21,5.21,0,0,0,0-2.66Z" transform="translate(-552.06 -2042.11)"/><path class="a" d="M820.55,3021.64c-6.44,0-6.45,10,0,10S827,3021.64,820.55,3021.64Z" transform="translate(-552.06 -2042.11)"/><path class="a" d="M835.21,3036.69c-6.43,0-6.44,10,0,10S841.66,3036.69,835.21,3036.69Z" transform="translate(-552.06 -2042.11)"/><path class="a" d="M849.51,3058.19c-6.43,0-6.44,10,0,10S856,3058.19,849.51,3058.19Z" transform="translate(-552.06 -2042.11)"/><path class="a" d="M889.94,3098c-6.44,0-6.45,10,0,10S896.38,3098,889.94,3098Z" transform="translate(-552.06 -2042.11)"/><path class="a" d="M903.7,3117.51c-6.43,0-6.44,10,0,10S910.15,3117.51,903.7,3117.51Z" transform="translate(-552.06 -2042.11)"/><path class="a" d="M943.76,3163.74c-6.43,0-6.44,10,0,10S950.21,3163.74,943.76,3163.74Z" transform="translate(-552.06 -2042.11)"/><path class="a" d="M973.1,3193.84c-6.44,0-6.45,10,0,10S979.54,3193.84,973.1,3193.84Z" transform="translate(-552.06 -2042.11)"/><path class="a" d="M988.83,3212.84c-6.43,0-6.44,10,0,10S995.28,3212.84,988.83,3212.84Z" transform="translate(-552.06 -2042.11)"/><path class="a" d="M1005.1,3233.8c-6.43,0-6.44,10,0,10S1011.55,3233.8,1005.1,3233.8Z" transform="translate(-552.06 -2042.11)"/><path class="a" d="M1022.27,3260.29c6.44,0,6.45-10,0-10S1015.83,3260.29,1022.27,3260.29Z" transform="translate(-552.06 -2042.11)"/><path class="a" d="M1058.59,3282.73c-6.44,0-6.45,10,0,10S1065,3282.73,1058.59,3282.73Z" transform="translate(-552.06 -2042.11)"/><path class="a" d="M1102.41,3319.47c-6.43,0-6.44,10,0,10S1108.86,3319.47,1102.41,3319.47Z" transform="translate(-552.06 -2042.11)"/><path class="a" d="M1143.41,3347.94a5.06,5.06,0,0,0-1.8-1.79l-1.19-.5a5,5,0,0,0-2.66,0l-2,.53a3.74,3.74,0,0,0-1.7.9,3.86,3.86,0,0,0-1.29,1.4,5.62,5.62,0,0,0-.5,3.85c.17.4.34.8.5,1.2a5.06,5.06,0,0,0,1.8,1.79l1.19.5a5,5,0,0,0,2.66,0l2-.53a3.74,3.74,0,0,0,1.7-.9,5.15,5.15,0,0,0,1.79-5.25Z" transform="translate(-552.06 -2042.11)"/><path class="a" d="M1158.23,3361.42c-6.43,0-6.44,10,0,10S1164.68,3361.42,1158.23,3361.42Z" transform="translate(-552.06 -2042.11)"/><path class="a" d="M1176.3,3373.43c-6.43,0-6.44,10,0,10S1182.75,3373.43,1176.3,3373.43Z" transform="translate(-552.06 -2042.11)"/><path class="a" d="M1199.38,3388.32c-6.43,0-6.44,10,0,10S1205.83,3388.32,1199.38,3388.32Z" transform="translate(-552.06 -2042.11)"/><path class="a" d="M1228.91,3403.56c-6.43,0-6.45,10,0,10S1235.36,3403.56,1228.91,3403.56Z" transform="translate(-552.06 -2042.11)"/><path class="a" d="M1259.87,3416.3c-6.43,0-6.44,10,0,10S1266.32,3416.3,1259.87,3416.3Z" transform="translate(-552.06 -2042.11)"/><path class="a" d="M1284.22,3420.27c-6.44,0-6.45,10,0,10S1290.66,3420.27,1284.22,3420.27Z" transform="translate(-552.06 -2042.11)"/><path class="a" d="M1335.77,3423.18c-6.43,0-6.44,10,0,10S1342.22,3423.18,1335.77,3423.18Z" transform="translate(-552.06 -2042.11)"/><path class="a" d="M1365,3421.6c-6.44,0-6.45,10,0,10S1371.4,3421.6,1365,3421.6Z" transform="translate(-552.06 -2042.11)"/><path class="a" d="M1384.12,3414.28c-6.43,0-6.44,10,0,10S1390.57,3414.28,1384.12,3414.28Z" transform="translate(-552.06 -2042.11)"/><path class="a" d="M1400.78,3405.52c-6.43,0-6.44,10,0,10S1407.23,3405.52,1400.78,3405.52Z" transform="translate(-552.06 -2042.11)"/><path class="a" d="M1413.33,3399.42c6.43,0,6.45-10,0-10S1406.88,3399.42,1413.33,3399.42Z" transform="translate(-552.06 -2042.11)"/><path class="a" d="M1435.73,3380.64c6.43,0,6.44-10,0-10S1429.28,3380.64,1435.73,3380.64Z" transform="translate(-552.06 -2042.11)"/><path class="a" d="M1451.34,3334.67c-6.44,0-6.45,10,0,10S1457.78,3334.67,1451.34,3334.67Z" transform="translate(-552.06 -2042.11)"/><path class="a" d="M1453.87,3312.83c-6.44,0-6.45,10,0,10S1460.31,3312.83,1453.87,3312.83Z" transform="translate(-552.06 -2042.11)"/><path class="a" d="M1461.94,3305.83c6.43,0,6.45-10,0-10S1455.49,3305.83,1461.94,3305.83Z" transform="translate(-552.06 -2042.11)"/><path class="a" d="M895.68,2450.6c6.44,0,6.45-10,0-10S889.24,2450.6,895.68,2450.6Z" transform="translate(-552.06 -2042.11)"/><path class="a" d="M920.8,2467.45c-6.43,0-6.44,10,0,10S927.25,2467.45,920.8,2467.45Z" transform="translate(-552.06 -2042.11)"/><path class="a" d="M937.72,2488.7c6.44,0,6.45-10,0-10S931.28,2488.7,937.72,2488.7Z" transform="translate(-552.06 -2042.11)"/><path class="a" d="M955.48,2495.75c6.44,0,6.45-10,0-10S949,2495.75,955.48,2495.75Z" transform="translate(-552.06 -2042.11)"/><path class="a" d="M989.84,2498.3c6.44,0,6.45-10,0-10S983.4,2498.3,989.84,2498.3Z" transform="translate(-552.06 -2042.11)"/><path class="a" d="M835.45,2989.1c-6.44,0-6.45,10,0,10S841.89,2989.1,835.45,2989.1Z" transform="translate(-552.06 -2042.11)"/><path class="a" d="M858.31,3023.47c-6.43,0-6.44,10,0,10S864.76,3023.47,858.31,3023.47Z" transform="translate(-552.06 -2042.11)"/><path class="a" d="M945.69,3116.07c-6.43,0-6.44,10,0,10S952.14,3116.07,945.69,3116.07Z" transform="translate(-552.06 -2042.11)"/><path class="a" d="M976.12,3148.38c-6.44,0-6.45,10,0,10S982.56,3148.38,976.12,3148.38Z" transform="translate(-552.06 -2042.11)"/><path class="a" d="M1007.22,3183.22c-6.43,0-6.44,10,0,10S1013.67,3183.22,1007.22,3183.22Z" transform="translate(-552.06 -2042.11)"/><path class="a" d="M1383.49,3383.18c6.43,0,6.44-10,0-10S1377,3383.18,1383.49,3383.18Z" transform="translate(-552.06 -2042.11)"/><path class="a" d="M1406.41,3358c6.44,0,6.45-10,0-10S1400,3358,1406.41,3358Z" transform="translate(-552.06 -2042.11)"/><path class="a" d="M1422.24,3326.66c6.44,0,6.45-10,0-10S1415.8,3326.66,1422.24,3326.66Z" transform="translate(-552.06 -2042.11)"/><path class="a" d="M1436,3287.75c6.43,0,6.44-10,0-10S1429.57,3287.75,1436,3287.75Z" transform="translate(-552.06 -2042.11)"/><path class="a" d="M1449.77,3278.6c6.43,0,6.44-10,0-10S1443.32,3278.6,1449.77,3278.6Z" transform="translate(-552.06 -2042.11)"/><path class="a" d="M1352.1,3387.12c-6.43,0-6.44,10,0,10S1358.55,3387.12,1352.1,3387.12Z" transform="translate(-552.06 -2042.11)"/><path class="a" d="M796.39,2663.22q-3.18-9.13-6.22-18.31c-1-3.06-1.89-6.18-3-9.21-1.17-3.31-3.28-5.63-4.92-8.65-1.15-2.12-5-1.27-4.75,1.29.31,3.37-.17,6.47.76,9.81s2.17,6.58,3.29,9.84q3.18,9.16,6.76,18.16c4.9,12.28,10.77,24.14,16.58,36,1.3,2.66,6,.76,4.85-2.05C804.82,2688,800.7,2675.57,796.39,2663.22Z" transform="translate(-552.06 -2042.11)"/><path class="a" d="M812.31,2603.65c-3-9-6.74-17.65-9.9-26.56-1-2.86-5.46-1.73-4.62,1.28,2.58,9.24,4.55,18.64,7.31,27.82,1.33,4.42,2.61,8.87,4,13.26,1.54,4.75,3.83,8.9,5.9,13.39,1.24,2.68,4.94.66,4.48-1.89-.84-4.62-1.31-9.09-2.71-13.62S813.83,2608.2,812.31,2603.65Z" transform="translate(-552.06 -2042.11)"/><path class="a" d="M840.85,2681.63c-2.83-5.91-6.2-11.55-9.32-17.31-1.32-2.44-5.6-.77-4.57,1.92,2.35,6.2,4.53,12.45,7.12,18.55a137.4,137.4,0,0,0,9.35,17.3c1.4,2.31,5.37.82,4.48-1.89A150.85,150.85,0,0,0,840.85,2681.63Z" transform="translate(-552.06 -2042.11)"/><path class="a" d="M902.92,2802.72a97.33,97.33,0,0,0-4.65-9.17c-3.23-5.92-6.85-11.65-10.28-17.45-2.3-3.89-8-.46-6,3.52,3.06,6,5.95,12.16,9.21,18.07,1.61,2.91,3.18,5.84,5.06,8.57.94,1.37,2,2.68,3,4s2,2.92,3.24,4.22c1.63,1.79,4.56-.09,4-2.3A79.67,79.67,0,0,0,902.92,2802.72Z" transform="translate(-552.06 -2042.11)"/><path class="a" d="M945.55,2868a50.82,50.82,0,0,0-3.15-5.06c-2.35-3.55-4.64-7.15-7-10.66-4.85-7.06-10.28-13.69-15.25-20.66-1.89-2.65-6.19-.3-4.45,2.6,4.45,7.43,8.37,15.15,13,22.47,2.28,3.59,4.64,7.14,7,10.72a53.68,53.68,0,0,0,3.77,5.35c1.43,1.71,3.23,3.05,4.75,4.69,2.07,2.24,5-.6,3.92-3C947.12,2872.3,946.6,2870.06,945.55,2868Z" transform="translate(-552.06 -2042.11)"/><path class="a" d="M1041.15,3037.47c4.25,6.33,9.3,11.67,14.2,17.47,2.1,2.49,5.5-.68,4.25-3.29-3.4-7.06-6.35-14.06-10.57-20.71-3.86-6.07-7.85-12.06-11.77-18.09q-12.46-19.12-25-38.21-24.88-37.87-51.17-74.77c-1.88-2.63-6.1-.31-4.41,2.58q23,39.38,47.65,77.79,12.06,18.89,24.2,37.71C1032.72,3024.46,1036.84,3031,1041.15,3037.47Z" transform="translate(-552.06 -2042.11)"/><path class="a" d="M1129.63,3097.08c-2.07-2.88-6.73-.34-4.85,2.84q4.86,8.25,9.69,16.51c1.55,2.66,3,5.41,4.73,8,1.84,2.73,4.06,5.74,7,7.41,1.55.89,4.11-.21,3.88-2.23-.7-6.43-5.51-11.84-9.16-16.89Q1135.24,3104.89,1129.63,3097.08Z" transform="translate(-552.06 -2042.11)"/><path class="a" d="M1223.87,3178.75c-1.51-2-3.24-3.76-4.88-5.61-3.16-3.53-6.29-7.08-9.44-10.62a3.52,3.52,0,0,0-4.65-.28c-1.25,1-2,3.16-.91,4.57q4.3,5.63,8.6,11.26c1.52,2,3,4,4.6,6s3.76,3.21,5.66,4.68a2.89,2.89,0,0,0,4.54-3.5A39.73,39.73,0,0,0,1223.87,3178.75Z" transform="translate(-552.06 -2042.11)"/><path class="a" d="M1253,3214.12c-3.51-3.55-7.33-6.83-11-10.2a3.14,3.14,0,0,0-4.1-.25c-1.1.88-1.76,2.78-.8,4,3.11,4.11,6.11,8.36,9.41,12.31,1.59,1.9,3.26,3.7,5,5.49,1.84,1.94,4,4.63,6.75,5.2,2,.41,4.62-.94,4.35-3.31-.35-3.09-2.49-5.38-4.46-7.64C1256.44,3217.83,1254.79,3215.92,1253,3214.12Z" transform="translate(-552.06 -2042.11)"/><path class="a" d="M946.43,2807c-2.91-5.93-5.76-11.95-10.07-17-1.91-2.23-5.83.14-4.92,2.86,2.1,6.3,5.82,11.85,9.41,17.39s7.3,10.91,10.7,16.52a2.06,2.06,0,0,0,3.56-2.07C952,2818.91,949.32,2812.92,946.43,2807Z" transform="translate(-552.06 -2042.11)"/><path class="a" d="M922.44,2762.82q-4.55-8.73-9.07-17.47c-1.49-2.87-3-5.74-4.52-8.56-1.65-3-3.24-6.13-5.79-8.46a3.52,3.52,0,0,0-5.83,3.4c.66,3.39,2.57,6.41,4.26,9.36,1.6,2.8,3.28,5.55,5,8.31q5.1,8.4,10.19,16.82C918.89,2769.93,924.42,2766.66,922.44,2762.82Z" transform="translate(-552.06 -2042.11)"/><path class="a" d="M1013.19,2914.46c-2.07-3.09-4.44-6-6.69-8.95-4.69-6.16-9.83-11.91-14.44-18.13-1.91-2.57-6.2-.27-4.41,2.58,4.15,6.59,7.66,13.5,11.72,20.15s8,14.24,14.36,18.79c2.48,1.77,5.56-1.15,4.89-3.77C1017.67,2921.35,1015.34,2917.67,1013.19,2914.46Z" transform="translate(-552.06 -2042.11)"/><path class="a" d="M1046.79,2987c2.78,4.49,5.77,10.24,10.36,13.09,2.39,1.48,6.25-.4,6-3.42-.52-5.28-3.95-10.26-6.69-14.68-2.94-4.75-6-9.41-9.08-14.09-6-9.26-12.6-18.08-19-27.08-2.38-3.34-7.57-.46-5.58,3.26,5.2,9.71,10.15,19.5,15.74,29C1041.25,2977.68,1043.94,2982.37,1046.79,2987Z" transform="translate(-552.06 -2042.11)"/><path class="a" d="M1083.57,3034.74a3.67,3.67,0,0,0,3.44-2.62c1-2.62-1-5.11-2.49-7.08l-3.39-4.66-6.84-9.51a3.46,3.46,0,0,0-6,3.5c2,3.37,4.1,6.75,6.14,10.13,1,1.69,2,3.39,3,5.08C1078.92,3032,1080.44,3034.66,1083.57,3034.74Z" transform="translate(-552.06 -2042.11)"/><path class="a" d="M948.59,2718.31a2.92,2.92,0,0,0,1-3.92c-1.66-3.73-3.26-7.48-4.85-11.24a41.5,41.5,0,0,0-2.63-5.25c-1.12-1.84-2.15-4.05-3.77-5.49a3.07,3.07,0,0,0-3.32-.63,3,3,0,0,0-1.88,2.79c.26,2.39,1.4,4.53,2.33,6.72a41.83,41.83,0,0,0,2.8,5.4c2.15,3.52,4.29,7,6.37,10.59A2.92,2.92,0,0,0,948.59,2718.31Z" transform="translate(-552.06 -2042.11)"/><path class="a" d="M1032.55,2860.05c2.39,4.71,5.8,8.67,8.9,12.91a2.45,2.45,0,0,0,3,1,2.4,2.4,0,0,0,1.41-2.86c-2-5-3.58-10.16-6.37-14.79s-5.66-9-8.54-13.44c-2.13-3.27-6.8-.44-5.18,3C1028,2850.63,1030.19,2855.38,1032.55,2860.05Z" transform="translate(-552.06 -2042.11)"/><path class="a" d="M1052.48,2892.23c5.37,10.82,10.64,21.69,16.2,32.42,2.77,5.36,5.68,10.64,8.56,15.95,2.62,4.82,5.09,11.45,10,14.29a3.58,3.58,0,0,0,5.33-3c.26-5.67-4.14-11.47-6.79-16.26-2.91-5.28-5.8-10.57-8.83-15.79-6-10.43-12.36-20.71-18.58-31C1056.11,2884.93,1050.52,2888.29,1052.48,2892.23Z" transform="translate(-552.06 -2042.11)"/><path class="a" d="M1114.87,3001.15c2,3.32,4.11,6.62,6.28,9.84a73.65,73.65,0,0,0,8,9.24c1.92,2,6.13-.07,5-2.89-1.5-3.64-2.74-7.31-4.79-10.7s-4.34-6.8-6.62-10.1c-4.56-6.57-9.67-12.63-14.49-19-2.06-2.74-6.46-.41-4.72,2.76C1107.36,2987.25,1110.76,2994.35,1114.87,3001.15Z" transform="translate(-552.06 -2042.11)"/><path class="a" d="M1016.11,2827.58c6.43,0,6.44-10,0-10S1009.66,2827.58,1016.11,2827.58Z" transform="translate(-552.06 -2042.11)"/><path class="a" d="M1003.19,2802c6.84,0,6.85-10.62,0-10.62S996.34,2802,1003.19,2802Z" transform="translate(-552.06 -2042.11)"/><path class="a" d="M988.62,2772.32c5.16,0,5.17-8,0-8S983.45,2772.32,988.62,2772.32Z" transform="translate(-552.06 -2042.11)"/><path class="a" d="M957,2739.27c5.8,0,5.81-9,0-9S951.16,2739.27,957,2739.27Z" transform="translate(-552.06 -2042.11)"/><path class="a" d="M953.67,2790.77l.86.67a4.21,4.21,0,0,0,2.14.57,3.05,3.05,0,0,0,1.63-.36,3.09,3.09,0,0,0,1.37-.88,4.63,4.63,0,0,0,1.24-3l-.15-1.13a4.17,4.17,0,0,0-1.09-1.87l-.86-.67a4.35,4.35,0,0,0-2.14-.58,3.29,3.29,0,0,0-1.64.37,3.87,3.87,0,0,0-2.24,2.24,3.21,3.21,0,0,0-.37,1.64c.05.38.1.75.16,1.13A4.17,4.17,0,0,0,953.67,2790.77Z" transform="translate(-552.06 -2042.11)"/><path class="a" d="M1152.13,3034.22a3.57,3.57,0,0,0-1.89,0,2.67,2.67,0,0,0-1.2.63,2.58,2.58,0,0,0-.91,1,3.5,3.5,0,0,0,0,3.57c.33.47.66.94,1,1.4l.46.59a2.06,2.06,0,0,0,.94.6,1.34,1.34,0,0,0,.73.2,2.22,2.22,0,0,0,1.17-.05l.69-.29.59-.46a2.11,2.11,0,0,0,.61-.94,2.25,2.25,0,0,0,.25-1.12c0-.57.11-1.14.16-1.72a3.61,3.61,0,0,0-.49-1.78,3.51,3.51,0,0,0-1.27-1.27Z" transform="translate(-552.06 -2042.11)"/><path class="a" d="M1176.11,3049.93c-6.27,0-6.28,9.74,0,9.74S1182.38,3049.93,1176.11,3049.93Z" transform="translate(-552.06 -2042.11)"/><path class="a" d="M1197.77,3065.2c6.73,0,6.74-10.47,0-10.47S1191,3065.2,1197.77,3065.2Z" transform="translate(-552.06 -2042.11)"/><path class="a" d="M1213.64,3083.3c7.14,0,7.16-11.1,0-11.1S1206.49,3083.3,1213.64,3083.3Z" transform="translate(-552.06 -2042.11)"/><path class="a" d="M1217.14,3091.27a3.24,3.24,0,0,0-1.66.08,3.29,3.29,0,0,0-1.42.74,3.25,3.25,0,0,0-1.07,1.17l-.42,1a4.15,4.15,0,0,0,0,2.21l.42,1a4.12,4.12,0,0,0,1.5,1.49l1.19.54a9.37,9.37,0,0,0,1.2.51,7.22,7.22,0,0,0,1.33.18l.56,0a3.64,3.64,0,0,0,3.13-1.8,3.64,3.64,0,0,0,0-3.65l-.33-.46a6.69,6.69,0,0,0-.79-1l-.81-.62-.07,0-.14-.1-1.07-.76A3.09,3.09,0,0,0,1217.14,3091.27Z" transform="translate(-552.06 -2042.11)"/><path class="a" d="M1233.36,3114.24a5,5,0,0,0,1.77,1.76,6.23,6.23,0,0,0,3.39,1.19,1.49,1.49,0,0,0,.69-.08l.68-.09.09,0,.21,0a1.76,1.76,0,0,0,.4-.06,4.72,4.72,0,0,0,2.54-1.95c.15-.34.29-.68.43-1a4.13,4.13,0,0,0,0-2.26,2.5,2.5,0,0,0-.15-.38,11.41,11.41,0,0,0-.64-1.51,3.78,3.78,0,0,0-1.27-1.39,2.36,2.36,0,0,0-.54-.4l-.11-.07-.26-.15-.49-.28a3.69,3.69,0,0,0-1.83-.58,3.63,3.63,0,0,0-2,.09,5.5,5.5,0,0,0-3,2.26l-.49,1.17a4.86,4.86,0,0,0,0,2.62C1233,3113.45,1233.2,3113.84,1233.36,3114.24Z" transform="translate(-552.06 -2042.11)"/><path class="a" d="M1255.53,3128.41c6.36,0,6.37-9.9,0-9.9S1249.15,3128.41,1255.53,3128.41Z" transform="translate(-552.06 -2042.11)"/><path class="a" d="M1262.52,3154.31c6.6,0,6.61-10.26,0-10.26S1255.9,3154.31,1262.52,3154.31Z" transform="translate(-552.06 -2042.11)"/><path class="a" d="M1269.68,3167.69a2,2,0,0,0-.75-.76,2.18,2.18,0,0,0-.92-.53,2.09,2.09,0,0,0-1.06-.29,3.26,3.26,0,0,0-1.67.07l-1,.43-.85.65-.66.85-.42,1-.15,1.12a3.2,3.2,0,0,0,.36,1.61,2.08,2.08,0,0,0,.54.93,3,3,0,0,0,.87.8l0,0,.52.67a2.57,2.57,0,0,0,1.06.69,1.75,1.75,0,0,0,.84.22,2.47,2.47,0,0,0,1.32-.06l.79-.33.67-.52a2.45,2.45,0,0,0,.68-1.06,2.56,2.56,0,0,0,.27-1.19l.28-.69.15-1.11a3.11,3.11,0,0,0-.36-1.62A2.1,2.1,0,0,0,1269.68,3167.69Z" transform="translate(-552.06 -2042.11)"/><path class="a" d="M1274.63,3189.76c-5.16,0-5.17,8,0,8S1279.8,3189.76,1274.63,3189.76Z" transform="translate(-552.06 -2042.11)"/><path class="a" d="M1281.14,3221.58a3.84,3.84,0,0,0,1.4,1.28l.2.12.11.15a5.58,5.58,0,0,0,.61.67l.36.35a3.05,3.05,0,0,0,5.1-1.35c0-.15.08-.3.13-.45a5.68,5.68,0,0,0,.19-.93l0-.21.07-.14c.17-.39.34-.79.5-1.19l.18-1.32a3.7,3.7,0,0,0-.43-1.91,4.91,4.91,0,0,0-1.53-2,2.41,2.41,0,0,0-1.1-.64,2.37,2.37,0,0,0-1.25-.34,3.75,3.75,0,0,0-2,.09l-1.18.5-1,.77-.78,1c-.16.4-.33.79-.5,1.19l-.18,1.32a3.82,3.82,0,0,0,.43,1.92A2.5,2.5,0,0,0,1281.14,3221.58Z" transform="translate(-552.06 -2042.11)"/><path class="a" d="M1296.57,3237.31c4.45,0,4.46-6.93,0-6.93S1292.1,3237.31,1296.57,3237.31Z" transform="translate(-552.06 -2042.11)"/><path class="a" d="M1256.51,3190.51l-.47-.61a2.31,2.31,0,0,0-1-.62,1.45,1.45,0,0,0-.76-.21,2.33,2.33,0,0,0-1.2,0l-.72.31-.62.47a2.28,2.28,0,0,0-.62,1,2.24,2.24,0,0,0-.26,1.17v1.71a3.49,3.49,0,0,0,.47,1.76,3.43,3.43,0,0,0,1.26,1.25l.83.36a3.63,3.63,0,0,0,1.85,0,3.94,3.94,0,0,0,2.09-1.61,3.51,3.51,0,0,0,0-3.52Z" transform="translate(-552.06 -2042.11)"/><path class="a" d="M1244.37,3164a2.29,2.29,0,0,0-.27-.27l-.29-.26a3.61,3.61,0,0,0-1.57-.91,3.53,3.53,0,0,0-3.44.91,3.43,3.43,0,0,0-.91,1.56l-.12.37a2.24,2.24,0,0,0-.1.37l-.12.76a4.38,4.38,0,0,0,1.12,4.25,4.38,4.38,0,0,0,7.32-1.93,4.56,4.56,0,0,0,0-2.32,4.39,4.39,0,0,0-1.13-1.93Z" transform="translate(-552.06 -2042.11)"/><path class="a" d="M1238,3149.63a4,4,0,0,0,0-4.07l-1-1.4-.53-.69a2.65,2.65,0,0,0-1.1-.71,1.73,1.73,0,0,0-.86-.23,2.62,2.62,0,0,0-1.36.06l-.82.35-.69.53a2.56,2.56,0,0,0-.7,1.1,2.66,2.66,0,0,0-.3,1.31l-.15,1.72a3.92,3.92,0,0,0,.55,2,4.08,4.08,0,0,0,1.44,1.45l1,.41a4.13,4.13,0,0,0,2.15,0,4.47,4.47,0,0,0,2.41-1.86Z" transform="translate(-552.06 -2042.11)"/><path class="a" d="M1214.37,3130.66c-5.13,0-5.14,8,0,8S1219.5,3130.66,1214.37,3130.66Z" transform="translate(-552.06 -2042.11)"/><path class="a" d="M1201.22,3109.63a4.46,4.46,0,0,0-3-.39l-.92.39a4,4,0,0,0-1.39,1.39l-.12.28a6.13,6.13,0,0,0-.53,1.34l-.15.77a4.93,4.93,0,0,0,0,2.53,4.85,4.85,0,0,0,1.23,2.11,4.77,4.77,0,0,0,8-2.11,4.72,4.72,0,0,0,0-2.53,4.65,4.65,0,0,0-1.22-2.1l-.52-.59A8,8,0,0,0,1201.22,3109.63Z" transform="translate(-552.06 -2042.11)"/><path class="a" d="M1187,3100.62a3.34,3.34,0,0,0,1.21,1.21l.8.33a3.4,3.4,0,0,0,1.79,0,2.47,2.47,0,0,0,1.14-.6,2.52,2.52,0,0,0,.86-.94,3.35,3.35,0,0,0,0-3.39l-.82-1.5-.46-.6a2.19,2.19,0,0,0-1-.61,1.49,1.49,0,0,0-.74-.2,2.22,2.22,0,0,0-1.17,0l-.71.3-.59.46a2.19,2.19,0,0,0-.61.95,2.09,2.09,0,0,0-.25,1.13c0,.57,0,1.14,0,1.71A3.46,3.46,0,0,0,1187,3100.62Z" transform="translate(-552.06 -2042.11)"/><path class="a" d="M923.09,2364.86a3.74,3.74,0,0,0-.9-1.7,3.7,3.7,0,0,0-1.4-1.29,3.65,3.65,0,0,0-1.86-.59,3.85,3.85,0,0,0-2,.08l-1.2.51a5,5,0,0,0-1.79,1.79c-.17.4-.34.8-.5,1.2a5,5,0,0,0,0,2.66c.07.28.15.57.23.86a3.77,3.77,0,0,0,.89,1.7,3.86,3.86,0,0,0,1.41,1.28,3.66,3.66,0,0,0,1.86.6,3.75,3.75,0,0,0,2-.09l1.19-.51a5,5,0,0,0,1.8-1.79c.17-.4.33-.8.5-1.19a5,5,0,0,0,0-2.66C923.24,2365.43,923.17,2365.14,923.09,2364.86Z" transform="translate(-552.06 -2042.11)"/><path class="a" d="M906.63,2342.17c-6.43,0-6.44,10,0,10S913.08,2342.17,906.63,2342.17Z" transform="translate(-552.06 -2042.11)"/><path class="a" d="M890.31,2326.28c-6.44,0-6.45,10,0,10S896.75,2326.28,890.31,2326.28Z" transform="translate(-552.06 -2042.11)"/><path class="a" d="M871.06,2323.08a5.06,5.06,0,0,0,1.8,1.79l1.09.63a5.14,5.14,0,0,0,6.84-1.8l.51-1.19a5.21,5.21,0,0,0,0-2.66l-.51-1.19a5.06,5.06,0,0,0-1.79-1.8l-1.1-.62a3.66,3.66,0,0,0-1.85-.6,3.78,3.78,0,0,0-2,.09,5.67,5.67,0,0,0-3,2.3c-.17.4-.33.8-.5,1.19a5,5,0,0,0,0,2.66Z" transform="translate(-552.06 -2042.11)"/><path class="a" d="M856.55,2314c6.43,0,6.44-10,0-10S850.1,2314,856.55,2314Z" transform="translate(-552.06 -2042.11)"/><path class="a" d="M840.13,2304.64c6.44,0,6.45-10,0-10S833.69,2304.64,840.13,2304.64Z" transform="translate(-552.06 -2042.11)"/><path class="a" d="M914.15,2339c6.44,0,6.45-10,0-10S907.71,2339,914.15,2339Z" transform="translate(-552.06 -2042.11)"/><path class="a" d="M923.89,2352.65c-.17.39-.33.79-.5,1.19a5,5,0,0,0,0,2.66l.23.86a5.67,5.67,0,0,0,2.3,3,5.62,5.62,0,0,0,3.85.5l1.2-.5a5.06,5.06,0,0,0,1.79-1.8c.17-.39.34-.79.5-1.19a5,5,0,0,0,0-2.66c-.07-.29-.15-.57-.23-.86a3.72,3.72,0,0,0-.89-1.7,3.89,3.89,0,0,0-1.41-1.29,5.62,5.62,0,0,0-3.85-.5l-1.19.5A5,5,0,0,0,923.89,2352.65Z" transform="translate(-552.06 -2042.11)"/><path class="a" d="M935.39,2363c-6.43,0-6.44,10,0,10S941.84,2363,935.39,2363Z" transform="translate(-552.06 -2042.11)"/><path class="a" d="M945.62,2386.85c6.44,0,6.45-10,0-10S939.18,2386.85,945.62,2386.85Z" transform="translate(-552.06 -2042.11)"/><path class="a" d="M957.34,2399.38a4.63,4.63,0,0,0,4.74-4c6.14-.29,6.07-10-.28-10a4.62,4.62,0,0,0-4.74,4C950.92,2389.7,951,2399.38,957.34,2399.38Z" transform="translate(-552.06 -2042.11)"/><path class="a" d="M946.13,2368.8a5.67,5.67,0,0,0,2.3,3,5.62,5.62,0,0,0,3.85.5l1.2-.5a5.06,5.06,0,0,0,1.79-1.8l.51-1.19a5.21,5.21,0,0,0,0-2.66l-.24-.86a3.72,3.72,0,0,0-.89-1.7,3.89,3.89,0,0,0-1.41-1.29,5.62,5.62,0,0,0-3.85-.5l-1.19.5a5.09,5.09,0,0,0-1.8,1.8l-.5,1.19a5,5,0,0,0,0,2.66Z" transform="translate(-552.06 -2042.11)"/><path class="a" d="M940.41,2354.08c6.44,0,6.45-10,0-10S934,2354.08,940.41,2354.08Z" transform="translate(-552.06 -2042.11)"/><path class="a" d="M932.22,2334.13c6.44,0,6.45-10,0-10S925.78,2334.13,932.22,2334.13Z" transform="translate(-552.06 -2042.11)"/><path class="a" d="M921.38,2311.21c6.43,0,6.44-10,0-10S914.93,2311.21,921.38,2311.21Z" transform="translate(-552.06 -2042.11)"/><path class="a" d="M903,2321.75c6.43,0,6.44-10,0-10S896.54,2321.75,903,2321.75Z" transform="translate(-552.06 -2042.11)"/><path class="a" d="M883.92,2309.37c6.43,0,6.44-10,0-10S877.47,2309.37,883.92,2309.37Z" transform="translate(-552.06 -2042.11)"/><path class="a" d="M638.5,2338.17c-6.44,0-6.45,10,0,10S644.94,2338.17,638.5,2338.17Z" transform="translate(-552.06 -2042.11)"/><path class="a" d="M628.61,2347.66c-6.44,0-6.45,10,0,10S635.05,2347.66,628.61,2347.66Z" transform="translate(-552.06 -2042.11)"/><path class="a" d="M692.07,2297.55c-6.43,0-6.44,10,0,10S698.52,2297.55,692.07,2297.55Z" transform="translate(-552.06 -2042.11)"/><path class="a" d="M669.42,2306c-6.43,0-6.44,10,0,10S675.87,2306,669.42,2306Z" transform="translate(-552.06 -2042.11)"/><path class="a" d="M653.77,2319.29c-6.43,0-6.44,10,0,10S660.22,2319.29,653.77,2319.29Z" transform="translate(-552.06 -2042.11)"/><path class="a" d="M770.48,2277.38c-6.43,0-6.45,10,0,10S776.93,2277.38,770.48,2277.38Z" transform="translate(-552.06 -2042.11)"/><path class="a" d="M726.62,2287c-6.43,0-6.44,10,0,10S733.07,2287,726.62,2287Z" transform="translate(-552.06 -2042.11)"/><path class="a" d="M711.86,2278.57c-6.44,0-6.45,10,0,10S718.3,2278.57,711.86,2278.57Z" transform="translate(-552.06 -2042.11)"/><path class="a" d="M823.05,2289.85a5,5,0,0,0,1.8,1.79l1.19.51a5,5,0,0,0,2.66,0l1-.29a5.54,5.54,0,0,0,3-2.3,3.66,3.66,0,0,0,.6-1.85,4,4,0,0,0-.09-2l-.51-1.19a5.06,5.06,0,0,0-1.79-1.8l-1.2-.5a5,5,0,0,0-2.65,0l-1.06.29a3.72,3.72,0,0,0-1.7.89,5.16,5.16,0,0,0-1.79,5.26C822.72,2289.05,822.88,2289.45,823.05,2289.85Z" transform="translate(-552.06 -2042.11)"/><path class="a" d="M864.41,2286.8c6.43,0,6.44-10,0-10S858,2286.8,864.41,2286.8Z" transform="translate(-552.06 -2042.11)"/><path class="a" d="M892.32,2289.42c6.44,0,6.45-10,0-10S885.88,2289.42,892.32,2289.42Z" transform="translate(-552.06 -2042.11)"/><path class="a" d="M849.55,2273.83c6.43,0,6.45-10,0-10S843.1,2273.83,849.55,2273.83Z" transform="translate(-552.06 -2042.11)"/></svg>