<svg xmlns="http://www.w3.org/2000/svg" viewBox="0 0 1358.34 1206.03"><defs><style>.a{fill:#3c4669;}</style></defs><path class="a" d="M1951.42,2821c.25,2.54.56,5.09.9,7.63a224.55,224.55,0,0,0,8.51,37.3,263.76,263.76,0,0,0,14.3,35.64,306.39,306.39,0,0,0,14.81,26.9q4,6.51,8.33,12.81a336.44,336.44,0,0,0,88.09,87.35c35.49,24.24,76.66,40.93,119.93,42.86,2.7.12,5.39.18,8.09.18q8.07,0,16.13-.71c2.68-.24,5.36-.52,8-.87.34,0,.67-.12,1-.19s.66,0,1-.07a189.71,189.71,0,0,0,66.42-22.49c10.93-6.09,20.69-13.64,30.36-21.19,5.8-4.52,11.57-9,17.54-13.26,23.59-16.62,50.16-31.34,69.42-53.21a116.35,116.35,0,0,0,7.78-9.84,70.69,70.69,0,0,0,12.55-31.9q.43-3.41.54-6.86t-.13-7c-.15-2.33-.42-4.68-.79-7a5.7,5.7,0,0,0-.64-1.82,4.1,4.1,0,0,0-.29-.4,6.3,6.3,0,0,0-.89-1.1l-.32-.26a6.74,6.74,0,0,0-1.34-.88l-.19-.1a8.51,8.51,0,0,0-1.8-.62h0a7.63,7.63,0,0,0,1.16-1.44l.16-.29a8.38,8.38,0,0,0,.62-1.4c.05-.15.1-.3.14-.46a8.56,8.56,0,0,0,.25-1.43c0-.18,0-.35.06-.52a9.38,9.38,0,0,0-.14-2v0q-1.71-8.91-3.41-17.83a6.27,6.27,0,0,0-1.88-3.47,8.18,8.18,0,0,0-10.65.16c-3.65,3.43-9,5.26-14.38,5.36-6.88.13-13.73-2.6-16.85-8.48a11.71,11.71,0,0,1-1-2.53,11.86,11.86,0,0,1-.39-2.64,15.87,15.87,0,0,1,5.67-12.21,18.2,18.2,0,0,1,2.37-1.76,19.83,19.83,0,0,1,7-2.57c7.3-1.12,15.15,1.78,21.26,5.68,4.34,2.77,9.49-.12,11-4.48a79.77,79.77,0,0,0,3.56-14.26q.55-3.63.78-7.31c.16-2.44.2-4.9.13-7.36a7.62,7.62,0,0,0-1.4-4.35,6.84,6.84,0,0,0-3.21-2.39,8.61,8.61,0,0,0-8.2,1.44,19.21,19.21,0,0,1-2.92,1.89,19.84,19.84,0,0,1-2.25,1,21.19,21.19,0,0,1-2.25.75,22.4,22.4,0,0,1-4.13.76,17,17,0,0,1-11.54-2.95,13.84,13.84,0,0,1-2.54-2.48c-2.31-2.93-3-7-2.59-11.1a23.58,23.58,0,0,1,1.93-7.1c.21-.45.45-.87.67-1.3a26.33,26.33,0,0,1,2.17-3.59,21.62,21.62,0,0,1,3.62-3.83,17.89,17.89,0,0,1,3.62-2.27,16,16,0,0,1,6.64-1.59h0c.14,0,.28,0,.42,0a20.36,20.36,0,0,1,4.53.57,22.93,22.93,0,0,1,3.14,1,22,22,0,0,1,6.69,4.15,19.74,19.74,0,0,1,2.2,2.37,18.61,18.61,0,0,1,3.09,5.67,8.69,8.69,0,0,0,1.39,2.64,7.15,7.15,0,0,0,7.91,2.32,7.94,7.94,0,0,0,2.21-1.12,7.68,7.68,0,0,0,1.8-1.84,8.39,8.39,0,0,0,1.42-4c.64-6.7,3.12-13.14,5.27-19.47a6.71,6.71,0,0,0,.26-1.18,7.09,7.09,0,0,0,0-1.22,7.2,7.2,0,0,0-.19-1.22,8.07,8.07,0,0,0-1-2.31,7.55,7.55,0,0,0-1.59-1.87,5.94,5.94,0,0,0-1-.67c-5.22-2.85-10.73-5.18-16-7.93-1.76-.92-3.49-1.88-5.18-2.93-5.29-3.28-11.52-8.76-13.41-15.16a14.6,14.6,0,0,1-.52-2.79c-.35-4.36,1.75-5.71,4.45-5.55a15.41,15.41,0,0,1,7.23,2.87c.3.2.57.41.83.62a118.39,118.39,0,0,1,10.47,9.73c3.34,3.44,6.54,7,9.67,10.54a6.36,6.36,0,0,0,2.8,1.76,8,8,0,0,0,5.4-.15,6.51,6.51,0,0,0,2.41-1.61c1-1,2-2.09,3.12-3.15s2.18-2.15,3.24-3.26a43.65,43.65,0,0,0,3-3.46,21.83,21.83,0,0,0,2.34-3.72c3.27-6.69-.67-13.41-3.41-19.5q-3.3-7.34-6.67-14.64t-6.86-14.54q-7-14.55-14.56-28.81t-16-28a409.06,409.06,0,0,0-28.24-40.76q-5.13-6.49-10.56-12.73t-11.13-12a320.38,320.38,0,0,0-37-32,210.35,210.35,0,0,0-26.12-16.66q-6.78-3.64-13.79-6.78a210.7,210.7,0,0,0-74.54-17.89,220.88,220.88,0,0,0-23.16-.05,238.21,238.21,0,0,0-89.3,22.48c-2.33,1.09-4.64,2.23-6.93,3.39a204,204,0,0,0-33.34,20.92c-2.22,1.74-4.38,3.56-6.5,5.42a128.47,128.47,0,0,0-19.91,21.95q-4.21,5.88-7.83,12.13a199.69,199.69,0,0,0-12.53,26.12c-3.41,8.58-6.39,17.31-9.32,26.06s-5.81,17.52-9,26.16c-7.65,20.46-18.08,38.61-30.52,56.51-9.25,13.32-17.13,27.19-22.47,42.25a132.54,132.54,0,0,0-4.46,15.49q-.82,3.76-1.47,7.55-1.28,7.58-1.81,15.2A180.48,180.48,0,0,0,1951.42,2821Zm20.62-62c.57-1.76,1.21-3.51,1.87-5.25.18-.49.34-1,.53-1.48s.4-.92.58-1.39h0l1.35,1.63,5.16,6.23a1.7,1.7,0,0,0,.39.27h0c-.08.15-.17.29-.24.44s-.21.41-.31.61q-1.79,3.45-3.46,7c-.27.56-.53,1.12-.79,1.68-.4.85-.76,1.7-1.14,2.55l0-.06a56.79,56.79,0,0,0-3.61-5.25c-.56-.72-1.14-1.42-1.75-2.1h0c.33-1.17.67-2.33,1-3.49C1971.78,2759.82,1971.89,2759.36,1972,2758.91Zm10.5-23.43c.14.18.29.35.43.52l5.43,6.77a3.49,3.49,0,0,0,2,1h0c-1.79,3-3.52,6-5.23,9.13v0l-4-5.07c-.8-1-1.56-2.07-2.45-3-.24-.24-.5-.44-.75-.67C1979.37,2741.2,1980.91,2738.32,1982.54,2735.48Zm9.43-15,1.21,1.49q2.91,3.59,5.81,7.16c.08.1.2.14.29.22l0,0q-2.73,4.31-5.39,8.66l0,0c-.1-.16-.17-.32-.29-.48q-2.4-3-4.78-6l-2.22-2.8Q1989.23,2724.58,1992,2720.52Zm-23.27,50.9c.64.73,1.27,1.46,1.9,2.2s1,1.21,1.5,1.83l.3.39,0,0,.08.11.76,1c0,.05.09.08.13.13h0c-.79,1.9-1.53,3.81-2.25,5.73-.16.43-.34.84-.5,1.26-.07-.09-.09-.22-.18-.31l-3.29-3.76-.07-.05,0-.24q.49-3.21,1.14-6.39c0-.22.07-.44.12-.65.09-.44.19-.88.28-1.32Zm-2.46,15.49v-.06a1.79,1.79,0,0,0,0-.23h0l.18.28a2.8,2.8,0,0,0,1.53,1.18,2.72,2.72,0,0,0,1.3,0s0,0,0,0c-.46,1.35-.93,2.7-1.35,4.07-.12.39-.26.78-.38,1.17-.78,2.6-1.47,5.23-2.1,7.87Q1965.53,2794,1966.24,2786.91Zm441.11,118.19c1.22-1.08,2.32-2.67,3.58-3.64a37.93,37.93,0,0,1,7-4.21,33.64,33.64,0,0,1,3.43-1.38c.53-.18,1.07-.32,1.61-.48s1.18-.34,1.78-.48,1.47-.32,2.22-.45l1-.16c.9-.13,1.81-.24,2.72-.31-2.41,1.38-4.84,2.75-7.28,4.08s-5.13,2.74-7.73,4a43.17,43.17,0,0,1-5.58,2.69,8,8,0,0,1-1.93.39,3.29,3.29,0,0,1-.82-.1Zm16.69,28.68c0-.15.06-.29.07-.43.7-6-.19-12-1.59-17.85.29-.16.59-.3.88-.45a2.11,2.11,0,0,0,.53.82,2.86,2.86,0,0,0,2,.84l.76-.11a2.81,2.81,0,0,0,1.26-.73l1.4-1.65c.3-.35.57-.72.85-1.08-.13,1.55-.3,3.08-.57,4.59a3.52,3.52,0,0,0-.74.49l-.52.48a6.13,6.13,0,0,0-.88,1c-.26.36-.51.73-.76,1.1l-1.58,2.26a2.18,2.18,0,0,0-.34,1.08,2.15,2.15,0,0,0,0,1.15,3,3,0,0,0,1.33,1.73,3.67,3.67,0,0,0,.81.27A59.91,59.91,0,0,1,2424,2933.78Zm-11.88-50.33c-1.18.53-2.34,1.1-3.48,1.72,0-.09,0-.17,0-.26a10.19,10.19,0,0,0,.08-1.47l.38,0C2410.16,2883.52,2411.16,2883.49,2412.16,2883.45Zm16.35-60.39c-.19,1.21-.47,2.41-.73,3.6l-.05,0a48.79,48.79,0,0,0-6.41-2.06h0a38.38,38.38,0,0,0,7.21-1.51Zm2.22-63.16a32.48,32.48,0,0,0-29.84,7c-15.07,13.32-18.22,40.12-.46,52.52a28.88,28.88,0,0,0,7,3.57c0,.13,0,.25,0,.38a36,36,0,0,0-6.06,1c-10.84,2.85-20.34,11.75-23.15,22.71-4.24,16.54,6.76,30,21.34,34.67a3.32,3.32,0,0,0-.12,1.09,6,6,0,0,0,.3,1.84c.1.25.2.49.31.74a6.93,6.93,0,0,0,.61,1.31,1.3,1.3,0,0,1,.14.26c.13.25.25.5.38.74.27.54.54,1.08.82,1.62-6.18,4.6-11.87,11.1-10.31,18.87s8.7,11.77,16,11.84l0,.08c5.41,8.23,3,20.4-.76,28.85a105.43,105.43,0,0,1-7.75,14c-3.48,3-7.05,5.79-10.63,8.44-12.67,9.43-26,17.83-39,26.84-15.06,10.45-28.42,23-44.14,32.54a180,180,0,0,1-67.93,24.35c-81.63,10-158.47-38.21-209.21-98.86-23.45-28-42.38-60.74-53.38-95.69a125.61,125.61,0,0,1-2.46-29.23c.9-23.36,9.06-45.24,20.26-65.52,11.78-21.31,26-41.13,39-61.71a346.08,346.08,0,0,0,18-31.74c6.56-13.34,11.18-27.36,16.53-41.19,5.24-13.55,12.31-26,22.12-36.78A138.73,138.73,0,0,1,2120.1,2569c22.47-13.41,49.1-23.49,75.25-26.22a131,131,0,0,1,65.23,9.68c20.29,8.67,38.5,22.06,54.52,37.2,34.64,32.75,60.75,73.51,85.48,113.91q4.27,7,8.52,14a9.17,9.17,0,0,0,1.15,1.52,21.08,21.08,0,0,0-1,2.77c-3.38,11.92,4.14,24.33,12.87,31.93A57.74,57.74,0,0,0,2430.73,2759.9Zm-381.54-165.53c.93-2,1.91-3.94,2.92-5.89l.45-.8h0a3,3,0,0,0,.93.48,3.13,3.13,0,0,0,2.32-.31,3.07,3.07,0,0,0,1.08-4.11l-1-1.92h0a131.07,131.07,0,0,1,8-11.93h0c.66.9,1.31,1.82,2,2.72,2.88,3.93,5.86,7.78,8.83,11.63a2.1,2.1,0,0,0,1.58.84s0,0,0,0a124.29,124.29,0,0,0-10.25,13.32.22.22,0,0,1-.05.08v0a6.09,6.09,0,0,0-.93-1.14,13.13,13.13,0,0,0-1.38-1.08,3.64,3.64,0,0,0-2.26-.69,2.58,2.58,0,0,0-2,1,2.46,2.46,0,0,0-.46,2.26c.08.23.16.44.26.66a3.66,3.66,0,0,0,.87,1.19c.24.25.47.51.69.79l-.46-.61c.31.41.64.8,1,1.2a13.14,13.14,0,0,1,1.21,2l0,.11a0,0,0,0,1,0,0c-2.13,3.75-4,7.6-5.76,11.53l0,0c-2.34-3.65-4.68-7.3-6.93-11-1-1.68-2-3.39-3-5.09C2047.58,2597.87,2048.37,2596.11,2049.19,2594.37Zm-5.36,12.45.85,1.23c3.15,4.43,6.45,8.75,9.8,13l0,0c-1.5,3.71-2.91,7.46-4.26,11.24l0,0c-1.86-2.65-3.78-5.26-5.81-7.78-1.34-1.65-2.71-3.26-4.12-4.85-.28-.32-.58-.63-.88-.94C2040.82,2614.74,2042.28,2610.76,2043.83,2606.82Zm373.37,27.32c-.35,2-.41,4.12-.73,5.93-.58,3.33-1.38,6.62-2.26,9.88a103.58,103.58,0,0,1-7,19.07,1.64,1.64,0,0,0,2.83,1.65,80.33,80.33,0,0,0,10.1-19.07,71.66,71.66,0,0,0,2.39-8.6h0c1.81,3.07,3.56,6.18,5.3,9.3h0c-.52,2.52-1.09,5-1.76,7.51a115.22,115.22,0,0,1-6,17.15c-1.07,2.36,2.12,4.35,3.55,2.07a92.44,92.44,0,0,0,8.58-17.21c.11-.31.2-.62.31-.93h0c1.55,2.89,3.12,5.77,4.64,8.68h0c-.23.52-.44,1-.62,1.58l-1.21,3.61c-.83,2.45-1.65,4.9-2.48,7.36a3.09,3.09,0,0,0,2.14,3.77,3.16,3.16,0,0,0,3.78-2.14l2.29-6.48h0q2.76,5.46,5.44,11l0,.09-.16.52c-.38,1.16-.76,2.33-1.18,3.48a54.28,54.28,0,0,1-2.86,6.66,56.87,56.87,0,0,1-6.73,10.28l-.33-.12-.41-.14a25.51,25.51,0,0,0-3.7-.81l-.45-.06a23.62,23.62,0,0,0-3.75-.15l-.28,0a21.89,21.89,0,0,0-3.8.55h0c-4.64-7.64-9.29-15.3-14-22.93h0q-4.08-6.6-8.25-13.15c-1.2-1.89-2.42-3.78-3.63-5.67l-1.05-1.62h0a50.72,50.72,0,0,0,3.59-6.81,86.89,86.89,0,0,0,5.17-13.51,178.18,178.18,0,0,0,4.75-22.78Q2413.46,2628,2417.2,2634.14Zm29.27,81.65a45.51,45.51,0,0,0-5.21-3.79h0a54.51,54.51,0,0,0,7.21-9.48,49.11,49.11,0,0,0,2.59-5c1.63,3.45,3.23,6.91,4.83,10.37a2.12,2.12,0,0,0-1.52.63l-3.14,3.9a2.43,2.43,0,0,0-.61,1.05c0,.21,0,.42-.08.62a2.25,2.25,0,0,0,.93,1.86,1.72,1.72,0,0,0,.8.42,1.78,1.78,0,0,0,.94,0,1.74,1.74,0,0,0,.88-.29,2.28,2.28,0,0,0,.85-.84l2.63-3.78h0c1.21,2.65,2.43,5.29,3.64,7.95h0a4.63,4.63,0,0,0-1,1.38l-.76,1.47c-.53,1-1.06,2-1.58,3a3.93,3.93,0,0,0-.35,1.05c-1.48-1.5-2.94-3-4.46-4.49C2450.94,2719.89,2448.77,2717.76,2446.47,2715.79Zm-77.1-144.24q7.13,7.32,13.73,15.06a3.32,3.32,0,0,0-.15.64c-.19,2.23-.41,4.45-.55,6.68a24.34,24.34,0,0,0,.26,7.13,2.73,2.73,0,0,0,2.6,2,2.84,2.84,0,0,0,2.6-2,24.91,24.91,0,0,0,1.21-7.13.28.28,0,0,0,0-.09c2.44,3,4.84,6.1,7.15,9.2,2.61,3.48,5.11,7,7.59,10.59.37.54.77,1.06,1.14,1.6h0c-1.6,9-3.27,18-6.11,26.72a77,77,0,0,1-5.21,12.48c-.68,1.29-1.47,2.51-2.24,3.75h0q-2.7-4.1-5.47-8.16c-1.44-2.13-2.91-4.25-4.38-6.36-.9-1.3-1.79-2.59-2.7-3.88.06-.41.12-.81.21-1.21.61-2.89,1.51-5.73,2.32-8.57,1.6-5.61,3.2-11.19,4.6-16.85.8-3.21-3.79-4.39-4.89-1.35-2,5.48-3.79,11-5.59,16.58-.5,1.54-1,3.1-1.5,4.65h0q-1.41-1.94-2.85-3.85-3.8-5.11-7.71-10.12c-1-1.24-2-2.48-2.94-3.71h0c.38-2.29.74-4.59,1-6.89a165.56,165.56,0,0,0,1.3-17.37,173.45,173.45,0,0,0-1.73-27.7c1,.92,1.93,1.87,2.89,2.81Q2366.72,2568.83,2369.37,2571.55ZM2306.18,2524c4.56,2.31,9,4.81,13.41,7.46h0s0,.09,0,.14l1.22,3a1.76,1.76,0,0,0,.41.79,1.82,1.82,0,0,0,.66.6,1.75,1.75,0,0,0,.86.28,1.84,1.84,0,0,0,.93-.05,2.34,2.34,0,0,0,1.38-1.06,1.46,1.46,0,0,0,.07-.19h0q6.62,4.28,13,9,6.06,4.53,11.85,9.44c1.51,1.28,3,2.58,4.47,3.9a3.18,3.18,0,0,0-.21,1.65,154.46,154.46,0,0,1,1.37,32.16,156.8,156.8,0,0,1-1.76,15.72c0,.11,0,.22-.07.33l-2.17-2.57c-1-1.14-2-2.27-3-3.4q-4.65-5.31-9.51-10.44c-.48-.51-1-1-1.44-1.54s-1.19-1.2-1.78-1.8v0c-.23-3.28-.27-6.56-.55-9.84a111.69,111.69,0,0,0-4.63-23.17c-1-3.26-6-1.91-5.12,1.42a98.07,98.07,0,0,1,2.91,24.19v.14a246.87,246.87,0,0,0-23.58-19.92v0c-.55-2.22-1.3-4.41-1.79-6.23-1.26-4.63-2.65-9.24-4.31-13.74a188.84,188.84,0,0,0-11.1-24.26c1.8.68,3.6,1.36,5.39,2.09Q2299.75,2520.71,2306.18,2524ZM2216,2503.5c2.54,0,5.08,0,7.61.09h0c0,.12.09.23.14.34s.13.33.19.5c.17.45.32.9.49,1.35.33.83.61,1.68.86,2.54a2.1,2.1,0,0,0,4.11-.55,23.64,23.64,0,0,0-.56-3.95q9.75.53,19.39,2c.87,2,1.66,4.06,2.41,6.11.94,2.54,2.12,5,3.09,7.44a2,2,0,1,0,3.92-1.08c-.24-1.36-.51-2.72-.82-4.07a22.49,22.49,0,0,0-1.56-4.24c-.52-1.13-1.11-2.22-1.72-3.3a196.23,196.23,0,0,1,19.18,4.34q3.45,1,6.87,2.07c.79.26,1.57.55,2.36.82a2.52,2.52,0,0,0,.11,2,191.09,191.09,0,0,1,9.9,26.71c1.05,3.52,2,7.07,2.88,10.63v0a182.64,182.64,0,0,0-27.08-14.66v0c-.09-.24-.17-.49-.26-.73q-1-2.82-2.05-5.64a3,3,0,0,0-3.61-2,3,3,0,0,0-2,3.6c.22.63.45,1.26.68,1.88v0a150.27,150.27,0,0,0-21.45-6.36v0c-.15-.51-.31-1-.49-1.51a44.25,44.25,0,0,0-1.74-4.29,37.08,37.08,0,0,0-4.2-6.9,2.51,2.51,0,0,0-3.34-.88,2.49,2.49,0,0,0-.87,3.34,36,36,0,0,1,1.88,3.52c.15.3.28.6.42.91l0,.1c.06.13.11.26.16.39.23.57.44,1.16.64,1.74.26.76.45,1.54.66,2.31v0a134.71,134.71,0,0,0-19.18-1.76v0c-1.61-3.12-3.32-6.18-4.73-9.41a100.35,100.35,0,0,1-4.54-12.84c1.69-.1,3.38-.21,5.07-.28C2211.23,2503.57,2213.63,2503.51,2216,2503.5Zm-39.47,3.86a2.4,2.4,0,0,0,.11.23c0,.08.27.69.13.29s.09.22.12.29l.22.61c.13.38.25.76.36,1.15a19.77,19.77,0,0,1,.53,2.4,2.06,2.06,0,0,0,2.27,1.49,2.09,2.09,0,0,0,1.8-2,22.7,22.7,0,0,0-.57-5.32c4.33-.71,8.67-1.32,13-1.77.95-.1,1.9-.17,2.85-.25a.22.22,0,0,1,0,.08,120.19,120.19,0,0,0,7.53,21.76l0,0a151.34,151.34,0,0,0-16.88,1.61s0,0,0,0h0a10.68,10.68,0,0,0-.68-4c-.17-.45-.36-.89-.56-1.32a6.16,6.16,0,0,0-.84-1.18,8.92,8.92,0,0,0-1.18-1.2,2.52,2.52,0,0,0-1.64-.68,2.46,2.46,0,0,0-1.41.5,2.18,2.18,0,0,0-.83,1.21,2.59,2.59,0,0,0,.23,1.79v0c.25.63.42,1.29.64,1.93a11.88,11.88,0,0,1,.39,1.79,10.68,10.68,0,0,1,0,1.13,2.54,2.54,0,0,0,.2,1v0c-4.69.88-9.35,2-14,3.2v0q-2.26-6.06-4.23-12.23c-.76-2.36-1.56-4.72-2.32-7.08-.21-.64-.41-1.28-.62-1.92Q2168.87,2508.8,2176.55,2507.36Zm-84.15,35.15h0l.22.35q.74,1.26,1.35,2.58l.3.67s.06.15.09.21c.19.47.37.95.55,1.43a2.68,2.68,0,1,0,5.16-1.43,39.11,39.11,0,0,0-2.51-6.24c-.14-.27-.3-.52-.45-.79h0a199.88,199.88,0,0,1,22.35-12.9h0c.13.22.23.45.37.67a23.57,23.57,0,0,0,2.91,3.83,2.84,2.84,0,0,0,4.84-2,3.26,3.26,0,0,0-.83-2l-.09-.11a21.54,21.54,0,0,1-1.83-3h0c2-.93,4-1.83,6.06-2.69,1.73-.74,3.49-1.43,5.24-2.12l1.2,2.29a2.8,2.8,0,0,0,3.49,1.14,2.67,2.67,0,0,0,1.34-1.14,2.74,2.74,0,0,0,.28-2.16l-.9-2.17c3.35-1.22,6.72-2.38,10.12-3.44.83-.26,1.67-.48,2.5-.73.3.81.63,1.6.92,2.36,1,2.44,1.91,4.86,2.94,7.26,1.61,3.74,3.29,7.46,5,11.17v0q-6.73,2-13.33,4.45v0c-.24-.43-.47-.86-.71-1.28-.36-.66-.77-1.29-1.16-1.93a2.16,2.16,0,0,0-2.66-.87,2.08,2.08,0,0,0-1.23,2.51c.34.86.67,1.73,1.06,2.57l.3.67v0q-6.37,2.49-12.59,5.28c-20.2,9.08-39.29,21.57-54.34,37.88a0,0,0,0,0,0,0,2.24,2.24,0,0,0-.19-.61c-2.25-4.28-4.5-8.56-6.86-12.78q-1.42-2.58-2.9-5.13h0c2.37-2.8,4.86-5.51,7.49-8.09h0c.15.27.3.54.46.81a77.23,77.23,0,0,0,4.87,7.39,2.73,2.73,0,0,0,3.64,1,2.7,2.7,0,0,0,1-3.63,76.35,76.35,0,0,1-4.1-7.68c-.27-.57-.52-1.15-.77-1.73l-.25-.59h0c2-1.73,4-3.42,6.06-5C2088.58,2545.29,2090.47,2543.89,2092.4,2542.51Zm-59.3,94.9c1.33-4,2.65-8,4-11.95.93,1,1.87,2.06,2.76,3.12,2.68,3.2,5,6.3,7.42,9.8a3.26,3.26,0,0,0,.57.6s0,0,0,0c-.48,1.38-1,2.75-1.45,4.12a241.34,241.34,0,0,1-14.33,32.55v0l-3.93-6.17c-.78-1.22-1.53-2.49-2.36-3.68-.42-.6-.85-1.2-1.29-1.78a5.75,5.75,0,0,0-.67-.76C2027.17,2654.73,2030.19,2646.08,2033.1,2637.41Zm-11.71,31.85c.89,1.13,1.83,2.21,2.75,3.31l5.61,6.68a2.26,2.26,0,0,0,.31.23h0c-8.42,15.33-18,29.93-27.44,44.66v0l-4.44-6c-.8-1.08-1.6-2.17-2.41-3.25,5.68-8.27,11.37-16.54,16.11-25.4.35-.67.68-1.35,1-2,.28.32.56.63.82,1a31.89,31.89,0,0,1,2.62,4.09,3.28,3.28,0,0,0,4.46,1.17,3.32,3.32,0,0,0,1.17-4.46,35.32,35.32,0,0,0-3.73-5.43,20.69,20.69,0,0,0-2-2.13l-.34-.29c.72-1.5,1.44-3,2.13-4.52C2019.24,2674.35,2020.33,2671.81,2021.39,2669.26Z" transform="translate(-1859.97 -2223.67)"/><path class="a" d="M2455.73,2472.3a164.3,164.3,0,0,0,17.26,61.38c3.45,6.93,7.3,13.64,11.38,20.21,2.72,4.38,5.54,8.71,8.41,13,4.31,6.43,8.75,12.78,13.14,19.13,1.59,2.31,3.2,4.61,4.79,6.92,3.28,4.73,6.52,9.5,9.41,14.47,3.66,6.29,7,12.75,10.44,19.16,7.81,14.58,15.87,29.11,26.14,42.13,1.09,1.38,2.23,2.77,3.42,4.13.59.68,1.19,1.36,1.81,2,8,8.7,18,16.13,30.11,16.67,11.17.5,21.46-5.08,32.4-6.13,4-.39,7.5-3.17,7.5-7.5h0a7.6,7.6,0,0,0-2.23-5.28,7.36,7.36,0,0,0-3.78-2.09,6.67,6.67,0,0,0-1.49-.13c-.34,0-.56,0-.67,0s-.12,0,0,0a5.34,5.34,0,0,1-.84-.46,3.19,3.19,0,0,1-.44-.34l-.36-.36-.2-.2a21.61,21.61,0,0,1-3.77-5.51,27.55,27.55,0,0,1-1.23-2.65c-.37-.89-.7-1.8-1-2.74-.35-1.1-.64-2.22-.91-3.34-.09-.4-.16-.8-.23-1.2,0-.09,0-.17,0-.31a27,27,0,0,1,1.21-9.73c.19-.62.42-1.23.66-1.83,2.43-6,7.13-10.87,13.86-12.58a22,22,0,0,1,7.14-.59,23.87,23.87,0,0,1,3.57.55,24.66,24.66,0,0,1,3.45,1.09,22.65,22.65,0,0,1,6.15,3.67,19.92,19.92,0,0,1,4.58,5.5q.48.87.87,1.77a20.45,20.45,0,0,1,1.54,5.57c.09.64.14,1.27.17,1.91a23.26,23.26,0,0,1-.16,3.82,24.27,24.27,0,0,1-1.41,5.56,23.78,23.78,0,0,1-6.53,9.4c-4.82,4.21-1.3,11.6,4.18,12.68a8.35,8.35,0,0,0,1.12.13q3.11.11,6.15.46a78.66,78.66,0,0,1,17.82,4.31,6.32,6.32,0,0,0,4.33-.09,8.09,8.09,0,0,0,2.56-1.51,7.32,7.32,0,0,0,2.34-3.64c.48-1.91.85-4.2,1.22-6.67a114.22,114.22,0,0,1,2.29-12.48,29.42,29.42,0,0,1,3-7.46,14.43,14.43,0,0,1,1.33-1.91,11.61,11.61,0,0,1,7.93-4.41,7.83,7.83,0,0,1,1.09,0,4.31,4.31,0,0,1,2.64.73,5,5,0,0,1,1.25,2.91,22.23,22.23,0,0,1-.21,5.46,65.64,65.64,0,0,1-3,12.81,75.6,75.6,0,0,1-5.3,12,7.59,7.59,0,0,0-.71,5.66,7.84,7.84,0,0,0,1.24,2.55,8.52,8.52,0,0,0,2.17,2.05l4.4,2.94,3.3,2.2a6.29,6.29,0,0,0,5,1,8.67,8.67,0,0,0,6-5.45c2.44-6.73,5-14,10.2-19.08,2.94-2.87,8-5.16,12.25-3.94a7.11,7.11,0,0,1,1.73.74c2.42,1.42,3.2,4,3.17,6.74a22.74,22.74,0,0,1-1.72,7.76,64.54,64.54,0,0,1-3.7,7.45c-.49.86-1,1.71-1.47,2.56a102,102,0,0,0-5.09,9.51c-.43,1-.83,1.94-1.19,3a5.32,5.32,0,0,0-.29,1.21,8,8,0,0,0,3.73,7.26q4.72,3.06,9.44,6.13c2.9,1.88,7.13,1,9.45-1.47a6.15,6.15,0,0,0,1.57-3,18.16,18.16,0,0,1,2.79-6.7c5.71-8.4,17.89-10.85,25.81-2.39,4.23,4.52,5.9,10.89,3.58,16.74a18.53,18.53,0,0,1-5.49,7.39,16,16,0,0,1-8.42,3.63c-3.7.36-8,3.16-7.5,7.5,1.31,12.29,12,19.88,24.07,19.65,7.12-.14,14.16-1.78,21-3.89,4.13-1.26,8.19-2.7,12.18-4.09,5.71-2,11.46-3.75,17.22-5.49s11.54-3.44,17.3-5.27c13.88-4.42,27.49-9.62,40.88-15.36a424.72,424.72,0,0,0,64.9-35q3.53-2.31,7-4.69a201.47,201.47,0,0,0,19.66-15.19,110.57,110.57,0,0,0,31.82-46.17,123.53,123.53,0,0,0,4.36-14.69c6.32-27.32,3.65-56.52-3.32-84q-1.84-7.26-4.17-14.41a197.45,197.45,0,0,0-18.55-40.92,200.68,200.68,0,0,0-18.32-25.37q-5-6-10.41-11.66c-3.58-3.8-7.27-7.52-11-11.17-7.94-7.73-16.07-15.43-24.65-22.56a181.37,181.37,0,0,0-27.33-19.13,121.31,121.31,0,0,0-22.19-9.77q-3.86-1.23-7.79-2.15c-3-.69-6-1.2-9-1.61-9.08-1.23-18.26-1.52-27.33-2.93-22.45-3.51-41.73-15.93-61.15-26.89a219,219,0,0,0-32.14-15.1,159.46,159.46,0,0,0-34.4-8.6,193,193,0,0,0-27.24-1.61c-6,.05-12.09.37-18.12.91-3,.27-6,.6-9,1-30.08,3.78-59.75,12.75-88.08,22.58-10.62,3.68-21.36,7.35-32,11.36-5.3,2-10.56,4.1-15.76,6.33s-10.32,4.58-15.34,7.12c-14.17,7.14-27.62,16.48-37.72,28.72a79.37,79.37,0,0,0-8.89,13.24C2456.56,2426,2454.07,2449.82,2455.73,2472.3ZM2768.82,2688a32.35,32.35,0,0,0-8.59,3.85,35.47,35.47,0,0,0,3.44-9.92c1.79-10.47-1.51-21.75-11.84-26.39-9.21-4.14-20.24-1.76-27.94,4.44-.27.22-.51.48-.77.71,2.34-14.2-.25-27.77-16.79-28.8-9.1-.57-18.31,4.49-23.3,12-4.86,7.26-6.06,15.89-7.58,24.34-2.15-.56-4.31-1-6.49-1.45a39.8,39.8,0,0,0,3.13-24.65c-2.52-13.07-12.72-23.15-25.29-26.91s-27.11-.72-36.4,8.93a39,39,0,0,0-9.67,35.52,49.65,49.65,0,0,0,6.21,14.67c-4.94,1.29-9.89,2.37-14.9,2.23l-1.09-.11-1.1-.21c-.69-.18-1.37-.38-2.06-.58-.05,0-1.28-.48-1.36-.49a40.47,40.47,0,0,1-6.66-4c-11.61-9.15-19.66-22.66-26.95-35.26-7.1-12.27-13.25-25.08-20.49-37.27-9.59-16.14-21.35-31-31.53-46.77s-19.26-32.26-24.64-50.31a142.93,142.93,0,0,1-5.94-46.57,81.47,81.47,0,0,1,10.76-24.45c15.83-24.41,42.34-40.83,69.17-50.7,15-5.53,30.77-9.79,46.24-14,16.1-4.35,32.5-8.07,49.12-9.77,32.26-3.29,65.3,1.18,91.67,21.36,14.25,10.91,26.79,23.89,41.89,33.72,15.59,10.14,33.27,14.86,51.44,17.86s36.93,4.61,53.93,11.83c15.11,6.4,27.59,17.43,37.95,30,10,12,17.78,25.77,25.05,39.55a323.56,323.56,0,0,1,17,37.41c9.23,24.73,16,52.68,11.41,78.47a79.08,79.08,0,0,1-14.49,34.18c-9.41,12.59-22.57,21.51-36.51,28.4-17.4,8.61-35.63,15.88-53.61,23.16a538.26,538.26,0,0,1-56.6,19.84c-3.7,1-7.41,2-11.14,2.89a33.46,33.46,0,0,0,2.57-4.94c4.49-11,1.72-23.24-6-32.08A31,31,0,0,0,2768.82,2688Zm-201.33-328.67-.06-1c3.19-1.16,6.37-2.31,9.57-3.45,0,.71,0,1.43,0,2.14v0c-3.17,1-6.34,2-9.48,3.1v0C2567.52,2359.85,2567.5,2359.58,2567.49,2359.31Zm97.15-19.22-.91,0v0c0-2.26,0-4.51.08-6.76,0-.51.08-1,.13-1.54,2.11-.28,4.23-.54,6.34-.77-.19,3-.39,6-.59,9v0C2668,2340.08,2666.32,2340.07,2664.64,2340.09Zm-6.83-7.37c0,.13,0,.27,0,.4,0,2.4.1,4.78.25,7.17v0c-2.18.11-4.36.26-6.54.43v0c.3-1.66.55-3.33.74-5,.09-.7.16-1.41.23-2.12l.25,0,2.93-.5C2656.37,2332.93,2657.09,2332.83,2657.81,2332.72Zm-75.91,20.44c8-2.81,16.12-5.52,24.26-8l-.23,3.51v0c-8.08,2-16.1,4.36-24,6.84v0c0-.61,0-1.22,0-1.83Zm28.31-5.56.51-3.87q9.62-2.88,19.34-5.32c0,.53,0,1.07,0,1.6,0,1.15,0,2.3.05,3.45v0q-10,1.73-19.94,4.13Zm25-4.95c0-.88,0-1.76,0-2.64s0-1.91.06-2.87q5.82-1.36,11.66-2.52c0,.31,0,.62,0,.92,0,1.88-.13,3.76-.3,5.64v0c-3.84.39-7.66.89-11.48,1.47Zm129,2.61h0a17.09,17.09,0,0,0-1,2.74c-.42,1.45-.85,2.9-1.28,4.35q-1.29,4.35-2.57,8.7a2.68,2.68,0,0,0,1.85,3.27,2.72,2.72,0,0,0,3.27-1.86l2.94-8.6,1.47-4.3c.2-.56.37-1.11.51-1.66h0c4.21,2.23,8.36,4.58,12.5,6.95h0a10,10,0,0,0-.27,1.08l-.57,2.71c-.38,1.84-.58,3.74-.85,5.6a2,2,0,0,0,1.12,2.28,1.9,1.9,0,0,0,2.41-.79c.8-1.82,1.69-3.62,2.38-5.48.3-.82.6-1.63.91-2.45h0q4,2.31,8,4.57h0a5.28,5.28,0,0,0-.64,1.28L2794,2365c-.35,1-.71,2-1.09,3-.18.48-.37.95-.56,1.42l-.12.28,0,.08-.29.66c-.43,1-.89,1.93-1.36,2.88a2.19,2.19,0,1,0,3.78,2.2c1.14-1.77,2.2-3.6,3.16-5.48.46-.91.89-1.82,1.29-2.76a18.8,18.8,0,0,0,.92-2.33h0c3.78,2.06,7.58,4.05,11.47,5.88s7.77,3.5,11.75,5a6,6,0,0,0-.41,1.09c-.29,1.07-.57,2.14-.87,3.21l-1.79,6.53a1.8,1.8,0,0,0,1,2.12,1.78,1.78,0,0,0,2.24-.74q1.45-3,2.89-5.94c.48-1,1-2,1.46-3a9.93,9.93,0,0,0,.61-1.51l2.3.74c-.11.36-.23.75-.34,1.09-.88,2.6-1.71,5.22-2.56,7.82-1.7,5.22-3.27,10.47-4.86,15.72-.71,2.33,3,4,4,1.7,2.15-5.08,4.32-10.15,6.36-15.28,1-2.56,2.05-5.12,3.06-7.69.2-.52.45-1.08.7-1.66,1.51.35,3,.67,4.55.94-.48,1.48-1,3-1.45,4.43q-1.77,5.35-3.53,10.72a2.49,2.49,0,0,0,1.72,3,2.52,2.52,0,0,0,3-1.72q2.05-5.17,4.1-10.36c.68-1.73,1.37-3.46,2.05-5.18h0c1.54.19,3.08.36,4.63.52l1.46.13c-.19.62-.39,1.24-.58,1.86-.81,2.65-1.63,5.29-2.44,7.94a2.32,2.32,0,0,0,1.6,2.83,2.38,2.38,0,0,0,2.84-1.61c1.07-2.52,2.13-5.05,3.2-7.58l1.22-2.91c2.82.24,5.64.51,8.45.83l-1.59,5.3a3.2,3.2,0,0,0,2.21,3.89,3.25,3.25,0,0,0,3.89-2.21q1-3,2-6.08c.89.15,1.77.32,2.66.5.46.09.92.16,1.38.26,1.4.3,2.76.72,4.13,1.09h0c0,.1-.06.21-.1.31-.51,1.56-1.06,3.11-1.51,4.69-.9,3.22-1.8,6.44-2.79,9.63a2.33,2.33,0,0,0,4.25,1.79c1.38-3,2.83-6,4.3-9,.71-1.46,1.33-3,2-4.48.13-.31.28-.62.42-.93h0q3.83,1.33,7.51,2.95c1.38.61,2.76,1.2,4.12,1.87-.4.89-.79,1.78-1.18,2.68q-1.77,4-3.53,8.1a3,3,0,0,0,1,4,3,3,0,0,0,4-1l4.1-8,1.39-2.73c3.23,1.81,6.36,3.79,9.45,5.86a23.92,23.92,0,0,0-1.16,2.39l-1.86,4.11c-1.26,2.78-2.55,5.55-3.83,8.32a2.27,2.27,0,1,0,3.91,2.29c1.53-2.63,3.05-5.26,4.61-7.87l2.3-3.86c.34-.58.73-1.22,1.09-1.87q5.64,4.1,11,8.57l.72.61a10.52,10.52,0,0,0-2.89,3.3q-1.33,2.15-2.48,4.39a62.76,62.76,0,0,0-4,9.78,2.8,2.8,0,0,0,1.93,3.41,2.84,2.84,0,0,0,3.41-1.93c.5-1.25,1-2.44,1.76-3.93s1.51-2.89,2.36-4.28,1.7-2.68,2.63-4a13.12,13.12,0,0,0,1.76-2.92q2.79,2.4,5.53,4.85c-.11.19-.23.36-.34.55-.89,1.46-1.69,3-2.48,4.52-1.61,3.13-2.8,6.53-4.11,9.79a2.06,2.06,0,0,0,1.21,2.46,2.08,2.08,0,0,0,2.61-.85,49.87,49.87,0,0,1,2.56-4.28c.94-1.38,1.94-2.72,2.87-4.12.82-1.24,1.68-2.44,2.54-3.66q4.82,4.44,9.47,9.07a15.31,15.31,0,0,1-.71,1.47l-1.74,3.12a2.38,2.38,0,0,0,2.69,3.5,2.63,2.63,0,0,0,1.42-1.1c.72-1,1.41-2.11,2.15-3.14q5,5.11,9.69,10.47a3.79,3.79,0,0,0-.61.23c-1.5.69-2.34,2.12-3.23,3.44-.73,1.07-1.36,2.2-2.05,3.29-1.36,2.15-2.8,4.25-4.32,6.28a2.56,2.56,0,0,0,4,3.1,74.15,74.15,0,0,0,5.15-5.77,36.81,36.81,0,0,0,2.62-3.48,10.32,10.32,0,0,0,1.6-3.43c2.51,3,4.92,6,7.28,9.11a19.21,19.21,0,0,0-3.75,4.36l-3.51,5c-2.34,3.34-4.62,6.71-7,10-1.52,2,1.91,4.72,3.55,2.75,2.62-3.14,5.36-6.15,8.05-9.22,1.31-1.48,2.61-3,3.91-4.45a30.09,30.09,0,0,0,2.6-3.25c2.24,3.12,4.4,6.3,6.44,9.55-.4.69-.78,1.36-1.15,1.95q-1.86,3-3.7,6.08l-7.65,12.57a2.65,2.65,0,0,0,.94,3.58,2.68,2.68,0,0,0,3.58-.94l8.4-12.13q1.68-2.41,3.35-4.84,3.41,5.92,6.33,12.14l-.3.25a13.61,13.61,0,0,0-1.29,1.34q-1.41,1.72-2.69,3.55a47.08,47.08,0,0,0-3.82,6.5,3.16,3.16,0,1,0,5.46,3.19,48.7,48.7,0,0,1,3.89-6.22l.43-.57.25-.32,1-1.16.21.46c2.36,5.73,4.44,11.62,6.29,17.59a24.38,24.38,0,0,0-3.11,4.23c-1.06,1.65-2.09,3.31-3.14,5l-6.39,10.07a2.46,2.46,0,1,0,4.25,2.48l6.87-9.56,3.33-4.63.28-.39c1.68,6.12,3.09,12.32,4.25,18.54-.51.64-1,1.27-1.42,1.82-1.63,2-3.17,4.15-4.68,6.28q-4.31,6.06-8.12,12.46a2.42,2.42,0,0,0,4.18,2.44c2.76-3.94,5.65-7.78,8.71-11.49.89-1.07,1.8-2.12,2.71-3.17.19,1.31.4,2.62.57,3.93.34,2.67.6,5.35.81,8a7.61,7.61,0,0,0-1.07,1c-.74.91-1.45,1.84-2.1,2.82a32.68,32.68,0,0,0-3,5.65,3.24,3.24,0,0,0,.33,2.49,3.31,3.31,0,0,0,1.92,1.48,3.24,3.24,0,0,0,2.49-.33l.65-.5a3.24,3.24,0,0,0,.83-1.42l-.27.62c.17-.39.39-.76.58-1.14,0,3.36-.06,6.72-.3,10.07-.2,2.84-.53,5.66-.92,8.48h0c-.44.74-.9,1.47-1.34,2.21l-8.37,13.94c-1.16,1.93,1.65,3.42,2.93,1.72l4.58-6.07c-.64,2.69-1.35,5.37-2.19,8q-1.08,3.39-2.37,6.68a102.5,102.5,0,0,1-28.3,39.87l-.08.07c-1.77,1.52-3.6,3-5.45,4.41s-3.5,2.63-5.28,3.9l.67-.87c.89-1.16,1.77-2.35,2.61-3.56.39-.56.78-1.12,1.15-1.69.7-1,1.37-2.1,2-3.17.46-.76.93-1.51,1.37-2.28s.91-1.67,1.36-2.51c.53-1,1.08-2,1.58-3,.15-.3.27-.61.42-.91.67-1.41,1.32-2.83,1.93-4.28.9-2.17,1.68-4.38,2.41-6.59l0-.05,5.4-5.69,4.61-4.86c1.7-1.78,3.49-3.53,4.35-5.89.74-2-1.74-3.43-3.38-2.6-2.08,1.05-3.51,3-5,4.78l-3.23,3.88,0,0c4.72-22.34,1.95-46.1-4-68-7.46-27.56-19.88-54.22-34.56-78.73l0,0c.16-.18.39-.3.51-.52l2.31-3.07c.38-.51.72-1,1.05-1.56a4.45,4.45,0,0,0,.63-1.51,5.36,5.36,0,0,0,.17-1.54,2.67,2.67,0,0,0-3.34-2.54,5.22,5.22,0,0,0-2.68,1.56c-.61.67-1.16,1.37-1.7,2.09-.23.32-.47.63-.7.94l0,0q-3.6-5.7-7.58-11.22h0a2.71,2.71,0,0,0,1.24-1.12l1.56-3.15a11.71,11.71,0,0,0,.62-1.45,5.49,5.49,0,0,0,.14-.81c0-.27.07-.54.11-.81a4,4,0,0,0,0-1.55c0-.12,0-.24-.05-.35a2,2,0,0,0-1.26-1.41,2.19,2.19,0,0,0-1.93.11,7.19,7.19,0,0,0-1.68,1.33,6.93,6.93,0,0,0-1.35,1.84l-1.16,2.34v0q-3.11-4-6.44-7.77v0a2,2,0,0,0,.24-.27l1.91-3.4c.31-.56.63-1.11.9-1.69l.4-.84a5,5,0,0,0,.41-1c0-.17,0-.34.07-.51l.09-.69a2,2,0,0,0-.22-1,2.49,2.49,0,0,0-1.07-1.24,3.12,3.12,0,0,0-1.31-.35,2.72,2.72,0,0,0-1.83.76l-.4.32a4.59,4.59,0,0,0-.7.88c-.17.25-.33.51-.5.77-.35.54-.66,1.1-1,1.65-.4.72-.8,1.44-1.21,2.16v0a123.87,123.87,0,0,0-11.83-10.84,105.78,105.78,0,0,0-22.8-13.75v0c.63-1.7,1.26-3.41,1.95-5.09l.32-.77.15-.36v0h0l.05-.13-.05.12a15.5,15.5,0,0,0,.8-2.19,9.69,9.69,0,0,0,.25-2.4,8.66,8.66,0,0,1,.07-1.49,2.17,2.17,0,0,0-4-1.67l-.29.46-.1.17-.46.56a9.67,9.67,0,0,0-1.34,1.91,19.92,19.92,0,0,0-1.3,4.05c-.38,1.6-.7,3.2-1,4.8v0c-3.51-1.37-7.09-2.6-10.74-3.66v0c.46-1.25.91-2.5,1.36-3.76.33-.9.68-1.79.92-2.71a4.65,4.65,0,0,0,.15-2.53,7.82,7.82,0,0,0-.59-1.46,2.12,2.12,0,0,0-2.83-.75,6.48,6.48,0,0,0-1.34,1,5.39,5.39,0,0,0-1.19,2.19,26.08,26.08,0,0,0-.81,2.74l-1.05,3.86v0q-3.47-.85-7-1.55c-19-3.75-38.64-5-57.12-11.14-17.53-5.87-31.58-17.77-45.45-29.54-4.81-4.09-9.65-8-14.6-11.65v0c.33-.83.66-1.65.94-2.49.36-1,.67-2.06.93-3.11.39-1.6.69-3.37-.13-4.87s-3.39-2-4.58-.59a4.28,4.28,0,0,0-1,1.66,10.26,10.26,0,0,0-.18,1.37.31.31,0,0,1,0,.1v0q-.12.74-.18,1.47a10.31,10.31,0,0,1-.16,1.48s0,.07,0,.09c0,.28-.09.57-.14.86s-.12.43-.16.66v0c-2.8-1.93-5.63-3.8-8.56-5.53v0c1.28-4.32,2.68-8.59,4.18-12.84.81-2.29,1.66-4.57,2.47-6.86.13-.37.27-.75.41-1.12,3,.89,6,1.89,8.91,3-.37,1-.73,2-1,3.1-.75,2.66-1,5.41-1.54,8.1a1.37,1.37,0,0,0,2.63.73,55,55,0,0,1,3.45-6.91c.52-1,1.06-2,1.59-3.06q3.6,1.51,7.13,3.21C2762.88,2344.57,2763.54,2344.92,2764.21,2345.26ZM2704,2329.91h0c-.11.72-.23,1.44-.33,2.17q-.52,4-1.07,8c-.19,1.45.35,3.09,2,3.46,1.34.3,3.22-.41,3.46-2,.4-2.69.81-5.38,1.21-8.06.16-1.06.3-2.11.44-3.15h0c3.71.31,7.4.72,11.08,1.28h0c-.12.63-.23,1.25-.34,1.88-.36,2-.73,4-1.09,6.05a2.38,2.38,0,0,0,4.6,1.26l1.35-6,.54-2.35h0c2.94.54,5.87,1.18,8.78,1.9h0c-.09.37-.19.76-.29,1.12-.66,2.33-1.24,4.68-1.82,7-1,4-1.93,8-2.91,12v0a110.17,110.17,0,0,0-14.87-6.74,122.82,122.82,0,0,0-21.38-5.55v0a2.05,2.05,0,0,0,.26-.56c.51-2.9,1-5.79,1.52-8.69.19-1.09.39-2.18.57-3.26l1.66,0C2699.6,2329.69,2701.81,2329.79,2704,2329.91Zm-15.09-.2h.14c-.09.55-.18,1.1-.28,1.64-.48,2.85-1,5.69-1.46,8.54a4.38,4.38,0,0,0,0,1.4,0,0,0,0,1,0,0q-5.73-.74-11.5-1v0q.42-4.67.86-9.33c0-.17,0-.34.05-.51,1.15-.1,2.3-.22,3.45-.3Q2684.58,2329.85,2688.94,2329.71Zm-134.76,33.48,8.93-3.28h0c.09.53.17,1.07.26,1.61v0l-1.3.44c-17.88,6.08-35.43,14-51,24.59,0,0,0,0,0,0a2.33,2.33,0,0,0,.64-1.62c0-.9,0-1.8,0-2.7C2525,2374.22,2539.69,2368.55,2554.18,2363.19Zm-69.49,43.5c.66-1,1.33-1.94,2-2.88.89-1.18,1.81-2.35,2.78-3.49.45-.52.88-1.05,1.34-1.56.71-.79,1.5-1.54,2.25-2.3a1.84,1.84,0,0,0,1.41.62,2,2,0,0,0,2-2c0-.65,0-1.29,0-1.93,1.58-1.42,3.2-2.81,4.93-4.12s3.58-2.59,5.42-3.82a2.45,2.45,0,0,0,2.41,2.15,2.58,2.58,0,0,0,.83-.19h.07a135.65,135.65,0,0,0-27.43,24.71c-.89,1.06-1.73,2.15-2.57,3.24-.32.41-.66.82-1,1.24-.07.08-.12.17-.19.26s0,0,0-.08c.67-1.39,1.37-2.76,2.12-4.1.52-.94,1.07-1.86,1.62-2.77S2484,2407.67,2484.69,2406.69Z" transform="translate(-1859.97 -2223.67)"/><path class="a" d="M3086.17,2781.34c-12.79-7.71-27-14-41.79-16.6q-3.06-.54-6.1-.87a100.11,100.11,0,0,0-12.08-.59,132.82,132.82,0,0,0-18.84,1.61q-5.58.84-11.2,2-12.52,2.58-24.81,6.05c-8.2,2.29-16.32,4.85-24.37,7.62-16.1,5.55-31.93,12-47.5,18.79q-5.86,2.58-11.69,5.25-11.65,5.34-23.16,11-5.76,2.82-11.49,5.68c-3.6,1.8-7.45,3.49-11.17,5.36a57.11,57.11,0,0,0-10.48,6.48,23,23,0,0,0-6.12,7.72c-.36.73-.68,1.48-1,2.25a27.25,27.25,0,0,0-1.58,7.28,28.38,28.38,0,0,0,0,4.61,37.74,37.74,0,0,0,.66,4.6,65.07,65.07,0,0,0,2.6,8.89,8.07,8.07,0,0,0,.88,1.7,8.87,8.87,0,0,0,.59.78,8.51,8.51,0,0,0,6.79,3.13,5.81,5.81,0,0,0,2.28-.66,6.16,6.16,0,0,0,1.24-.84,7.28,7.28,0,0,0,.76-.8l.11-.12a18.51,18.51,0,0,1,2.71-2.61,18.08,18.08,0,0,1,2.95-1.94,20.44,20.44,0,0,1,11.75-1.93,23.71,23.71,0,0,1,7.06,2,21.91,21.91,0,0,1,9.3,7.89,15.12,15.12,0,0,1,2.51,7.31,12.53,12.53,0,0,1-.08,2.45,13.42,13.42,0,0,1-5,8.69c-6.59,5.39-15.63,3.62-22.19-.74a6.48,6.48,0,0,0-3.29-1.07,7.94,7.94,0,0,0-7.73,5.56,44.17,44.17,0,0,0-1.76,10.55,53,53,0,0,0,.63,10.69,5.72,5.72,0,0,0,.43,1.44c1.24,2.67,4.52,4.1,7.4,4a7.15,7.15,0,0,0,1.4-.18,85,85,0,0,1,11.16-1.88,75,75,0,0,1,11.32-.28l1.09.1.88.13c.45.06.94.15,1.45.25a24.46,24.46,0,0,1,2.55.65c.3.1.59.2.87.31,2.25.86,3.88,2.16,2.73,4.06-1.07,1.74-5,2.57-6.77,3.06a36.88,36.88,0,0,1-4.68,1,37.57,37.57,0,0,1-4.76.41,39.66,39.66,0,0,1-9.87-1,38.84,38.84,0,0,1-9.28-3.51,8.36,8.36,0,0,0-4.24-.93,8,8,0,0,0-2.86.64,6.11,6.11,0,0,0-3.16,3q-2.45,5.17-4.91,10.35c-3,6.24,1.88,12.06,8.47,11a28.85,28.85,0,0,1,14.25,1.17,21.85,21.85,0,0,1,2.61,1.17,19.21,19.21,0,0,1,4.63,3.42,16.55,16.55,0,0,1,2.72,3.67,14.55,14.55,0,0,1,1.76,6.27,11.77,11.77,0,0,1-.55,4.18,10.16,10.16,0,0,1-.84,1.95,13.32,13.32,0,0,1-2.07,2.82,14.29,14.29,0,0,1-2.65,2.14,15.84,15.84,0,0,1-6.41,2.23,16.37,16.37,0,0,1-3.43.06,16,16,0,0,1-3.36-.64,14.43,14.43,0,0,1-5.9-3.48,28.73,28.73,0,0,1-2.11-2.31,54.63,54.63,0,0,1-5.12-7.83c-.56-1-1.1-2-1.68-3a20.75,20.75,0,0,0-1.87-2.75,9.27,9.27,0,0,0-3.89-2.89,9.14,9.14,0,0,0-1.75-.47,9.24,9.24,0,0,0-3.19.06,16.47,16.47,0,0,0-7.52,4l-.2.16a32.16,32.16,0,0,0-8.33,11.86c-.18.48-.34,1-.46,1.41a18.27,18.27,0,0,0-.66,3.65c0,.59-.05,1.18,0,1.75a18.33,18.33,0,0,0,.54,3.79,21.6,21.6,0,0,0,.67,2.21c.16.41.32.82.49,1.23s.49,1.08.76,1.61.58,1.1.89,1.63a88.27,88.27,0,0,0,6.54,9.18l3.8,4.92c4.5,5.83,9,11.65,13.6,17.39,13.13,16.4,27.1,32.18,43.37,45.55a184.09,184.09,0,0,0,24.08,16.59c18.61,10.68,39.19,17.66,61,18.22,2.12.06,4.25.11,6.37.15l1.52,0,5.18.1,1.6,0c1.82,0,3.64,0,5.46,0h1.16c6.78,0,13.58-.13,20.35-.52l.9-.06q3-.18,5.91-.43l.93-.08c2.21-.2,4.42-.42,6.61-.69l.19,0,.67,0c.4,0,.79,0,1.19,0s1.05,0,1.58,0l1.07-.07c.58,0,1.17-.09,1.76-.16l.82-.1c.67-.08,1.35-.18,2-.29l.44-.08a72.08,72.08,0,0,0,12.39-3.42l.27-.06c1.87-.5,3.74-1,5.59-1.62l.25-.07c1.92-.61,3.83-1.25,5.73-1.95,1.72-.63,3.42-1.29,5.12-2a143,143,0,0,0,28.86-15.78c3-2.12,5.86-4.37,8.63-6.73a116.44,116.44,0,0,0,11.72-11.47,106.66,106.66,0,0,0,10-13.11q1.5-2.31,2.88-4.73a138.63,138.63,0,0,0,8-16.62c1.54-3.8,3-7.66,4.29-11.54s2.58-7.8,3.8-11.71q.91-2.94,1.8-5.87c3.27-10.72,6.24-21.52,8.72-32.45,6.65-29.21,10.55-60.71,6-90.66a148.43,148.43,0,0,0-3.38-16.15c-.71-2.66-1.51-5.3-2.38-7.92a128.22,128.22,0,0,0-6.3-15.44,112,112,0,0,0-19.39-27.89,124,124,0,0,0-19.36-16.64Q3089.84,2783.56,3086.17,2781.34Zm27.65,212.18c-.31,1-.66,1.91-1,2.88h0c-1-.21-2.08-.34-3.13-.49l-4.5-.64h0c.38-2.18.75-4.35,1.07-6.52q.53-3.59,1-7.17h0a40.89,40.89,0,0,1,4.95.08l1,.1.52.07,1.54.23c.65.1,1.27.18,1.9.24C3116.06,2986.05,3115,2989.81,3113.82,2993.52Zm-9.28,25.82c-.66,1.52-1.35,3-2.06,4.52l0,0q-1.07,2.22-2.22,4.4h0c-.32-.14-.61-.32-.93-.44a8.68,8.68,0,0,0-2.47-.45,1.08,1.08,0,0,0-.18,0h0q1.05-2.88,2-5.79c.22-.65.43-1.3.64-2,.26-.85.51-1.71.77-2.57h0c1.2.29,2.4.62,3.61.86l1.3.26h0v0C3104.84,3018.61,3104.7,3019,3104.54,3019.34Zm-11.86,21.06h0l-.23-.08-1-.25a1.42,1.42,0,0,0,.08-.18c.51-1.1,1-2.2,1.49-3.31.36-.83.72-1.67,1.07-2.51l.52-1.29h0a3.76,3.76,0,0,0,.94,0l-.3,0a9.4,9.4,0,0,1,2.37,0h.09Q3095.39,3036.71,3092.68,3040.4Zm-3.56,4.38h0l.09,0h0l-.33.4Zm-16.89-253c-.32-.24-.66-.47-1-.71q-2.17-1.58-4.42-3.05l-.19-.12,0,0c.07,0,.14.06.2.1l.42.19c3.23,1.57,6.37,3.3,9.46,5.11.7.42,1.4.83,2.1,1.26a21.2,21.2,0,0,0-1.94.87h0c-.49-.41-1-.79-1.5-1.19C3074.36,2793.4,3073.31,2792.55,3072.23,2791.75Zm9.1,7.57c.4-.11.81-.22,1.22-.3a6.61,6.61,0,0,1,.89-.15l.29,0c.53,0,1.06,0,1.59,0,2.63,1.85,5.2,3.77,7.66,5.83a53.25,53.25,0,0,0-5.6.83h0c-1.94-2.13-4-4.19-6.05-6.15Zm10.14,10.91c.63,0,1.25-.08,1.88-.1,1.86-.06,3.74,0,5.61-.09,1.78,1.73,3.49,3.54,5.14,5.4-1.21.11-2.42.2-3.63.32a3.15,3.15,0,0,0-2,.82,2.7,2.7,0,0,0-.78,2.36s0,.06,0,.09,0,.07,0,.11a96.55,96.55,0,0,0-6.33-8.91Zm38.73,68.54h0a20.58,20.58,0,0,0-2.07-.28,13.7,13.7,0,0,0-4.81.53,2.07,2.07,0,0,0-1.42,2.5,2.09,2.09,0,0,0,2.5,1.42,2.8,2.8,0,0,0,.34-.05h.06a8.49,8.49,0,0,1,.88,0,9.74,9.74,0,0,1,1.32.08,10.61,10.61,0,0,1,2.41.65l-.59-.24,1.32.54a5.71,5.71,0,0,0,.58.21h0c.21,2.91.34,5.84.41,8.77h0l-.75-.08a29.89,29.89,0,0,0-3.78-.17,35.83,35.83,0,0,0-8,1,2.7,2.7,0,0,0-1.87,3.29,2.77,2.77,0,0,0,3.3,1.87l.53-.09.19,0,.16,0,.54-.06q.81-.09,1.62-.12a27.57,27.57,0,0,1,3.52,0l1.44.14.58.09.93.17c.53.1,1,.25,1.58.35h.06c-.05,4.18-.25,8.36-.54,12.53h0a24.24,24.24,0,0,0-3.3,0l-4.62.15a2.38,2.38,0,1,0,0,4.76l4.62.15c.94,0,1.93.1,2.89,0h0c-.16,1.76-.33,3.53-.53,5.29q-.81,7.14-2,14.17h-.18c-2.28.05-4.55.18-6.82.41-3.58.37-7.12,1-10.64,1.71h0q.09-3,.17-5.92c.44-16.24,1.51-32.54,1.71-48.8h0a2.54,2.54,0,0,0,.39,0l.46,0a3.73,3.73,0,0,0,1.58-.4,5.34,5.34,0,0,0,1-.73,2.32,2.32,0,0,0,0-3.28,5.34,5.34,0,0,0-1-.73,4,4,0,0,0-1.51-.4l-.53-.06c-.11,0-.23,0-.34,0h0c0-.79,0-1.57,0-2.36,0-2.7-.12-5.39-.27-8.08h0a39.42,39.42,0,0,1,10.12-.69,29.74,29.74,0,0,1,4.72.57c.66.12,1.32.27,2,.41h0Q3129.62,2873.3,3130.2,2878.77Zm-27.79-51.31c-1.11-2.29-2.37-4.52-3.69-6.72l0,0h0a2.86,2.86,0,0,0,2.42.49q3.32-.62,6.61-1.31,2.13,2.73,4.07,5.63c-.67.08-1.35.16-2,.26a37.42,37.42,0,0,0-7.28,1.94h0C3102.5,2827.69,3102.46,2827.57,3102.41,2827.46Zm5.87,182.44c-.1.27-.22.55-.32.83-.38,1.05-.78,2.09-1.18,3.14l-1.76-.67c-1.16-.43-2.34-.79-3.52-1.17h0c1-3.82,1.92-7.67,2.7-11.52h0l4.17.78c.89.17,1.78.31,2.67.45h0C3110.12,3004.46,3109.25,3007.2,3108.28,3009.9Zm14.62-49.47a8.88,8.88,0,0,0-1.63-1.12,14.76,14.76,0,0,0-2.94-1.13,18,18,0,0,0-5.62-.56,3.65,3.65,0,0,0-2.44,1,3.46,3.46,0,0,0,0,4.89,3.33,3.33,0,0,0,2.44,1,15,15,0,0,1,3,0,23,23,0,0,1,2.46.56c.44.12.88.26,1.31.42s1,.27,1.43.42a2.87,2.87,0,0,0,.58.07c-.88,3.59-1.74,7.2-2.72,10.77a20.23,20.23,0,0,0-6.42-1,37.06,37.06,0,0,0-4.47.09h0c1.11-10.91,1.68-21.86,2.06-32.83h0c3.59-.15,7.19-.2,10.79-.13,1.94,0,3.87.1,5.81.18,0,0,0,.05,0,.08Q3124.92,2951.8,3122.9,2960.43Zm4-100.51c-1.62-.21-3.24-.31-4.76-.38a46.33,46.33,0,0,0-10.9.84h0c-.39-3.74-.93-7.46-1.66-11.14l0,0a3,3,0,0,0,2,.72c1.44-.08,2.88-.09,4.31,0,.72,0,1.44.08,2.15.15l.92.09.38,0h0c1.63.28,3.28.67,4.94,1h0c1,2.87,1.8,5.78,2.54,8.71Zm-5.46-16.57-.27,0a48.44,48.44,0,0,0-9.55-.56,3.91,3.91,0,0,0-3.06,1.82l0,0a91.7,91.7,0,0,0-3.55-11.25h0a33.42,33.42,0,0,1,5.76-1,43.79,43.79,0,0,1,5.25,0q1.62,2.88,3,5.84c.83,1.73,1.63,3.48,2.37,5.24ZM2935.86,3084.7a128.16,128.16,0,0,1-39.15-16.32,159.57,159.57,0,0,1-16.69-11.81c-15.7-12.9-29.27-28.05-42-43.83-6.19-7.68-12.2-15.5-18.23-23.31-1.92-2.49-6.28-6.56-6.18-10,0-1.48,1.1-3.24,2.45-4.83.7,1.21,1.4,2.43,2.17,3.59a48.81,48.81,0,0,0,7.21,8.93,28.66,28.66,0,0,0,14.08,7.45c10.45,2,22.13-1.23,29.32-9.31a27.9,27.9,0,0,0,1.63-34.67,33.3,33.3,0,0,0-3.83-4.53c9.5-1.27,21.68-4.77,24.8-14.9,3.4-11-5.51-20.91-15.73-23.47l-.14,0a31.31,31.31,0,0,0,2.7-1.77,28.29,28.29,0,0,0,9-35c-8.18-17.76-32.44-26-49.55-17.43a15.06,15.06,0,0,1,.19-3.55c1-5.74,7.21-7.78,11.84-10.13,14-7.12,28.08-14.09,42.34-20.7,28.62-13.25,58-25,88.57-33.1,12-3.18,24.41-6.37,36.88-7.46a95.38,95.38,0,0,1,46.81,20.3c21.69,17.5,32.68,42.15,33.13,69.83.28,17.36-1.73,34.74-2.47,52.08-.77,17.85-1,35.72-2.81,53.5-2.76,26.51-9.93,54-25.26,76.2a80.68,80.68,0,0,1-25.52,23.88,79.29,79.29,0,0,1-17.31,7.49c-4.89,1.47-9.77,2.45-14.56,3.89a282.76,282.76,0,0,1-32.26,1.51C2963.49,3087.22,2949.42,3087.73,2935.86,3084.7Z" transform="translate(-1859.97 -2223.67)"/><path class="a" d="M2827.37,3142.86q-.93-3-2-5.88-1.29-3.58-2.71-7.08a191.45,191.45,0,0,0-9.72-20.39c-1.21-2.19-2.47-4.36-3.76-6.5a192.22,192.22,0,0,0-12.83-18.61c-13.3-17.06-26.87-34.06-40.91-50.62-7.63-9-15.36-17.9-23.34-26.52-.85-.92-1.72-1.89-2.61-2.86s-2-2.14-3-3.17l-.24-.22a32.15,32.15,0,0,0-6.12-5,8.66,8.66,0,0,0-4.53-1.32,6.9,6.9,0,0,0-1.44.15,9.73,9.73,0,0,0-4.09,2,14.45,14.45,0,0,0-1.26,1.12c-6.42,6.35-12.77,12-20.58,16.65a7.22,7.22,0,0,0-1.38,1.06,7.77,7.77,0,0,0-2.23,4.47,7.19,7.19,0,0,0,2.09,6.25c1.74,1.66,3.49,3.35,5.21,5.07,1.11,1.12,2.18,2.26,3.23,3.43a49.21,49.21,0,0,1,4.6,5.8,30.57,30.57,0,0,1,3.83,7.48c0,.06,0,.17.07.3.08.41.19,1.09.32,1.75h0c-1.27-.49-2.73-1.13-3.41-1.45h0l-.35-.16,0,0a37.91,37.91,0,0,1-6.68-4.63,42.82,42.82,0,0,1-3.19-3.12,42.1,42.1,0,0,1-2.79-3.36h0c-1.52-2.71-3.11-5.39-4.81-8a7.57,7.57,0,0,0-4.32-3.34,7.64,7.64,0,0,0-8.63,10.91c.66,1.4,1.41,2.76,2.19,4.09l.58,1c.81,1.31,1.64,2.59,2.55,3.82h0c.89,1.62,1.75,3.24,2.57,4.89l.09.17c.84,1.69,1.65,3.41,2.42,5.14,1.26,2.85,5.13,9.12,2.15,11.73h0l-.38.23-.07,0c-.07-.08-.08-.12-.2-.25l-.39-.44,0,0a.88.88,0,0,0-.14-.14h0l-.09-.14a37.1,37.1,0,0,1-2.3-4,57.51,57.51,0,0,1-2.94-6.75l-.49-1.27c-.61-1.56-1.21-3.14-1.85-4.7s-1.32-3.1-2.09-4.59a17.83,17.83,0,0,0-3.87-5.2,11.12,11.12,0,0,0-1.77-1.26,8.52,8.52,0,0,0-1.16-.53,8.41,8.41,0,0,0-2.32-.51,11.57,11.57,0,0,0-1.18,0,25.16,25.16,0,0,0-3.58.44l-1.23.21-12.69,2.11a5.82,5.82,0,0,0-4.2,2.83,8.13,8.13,0,0,0-1,3.2,10.33,10.33,0,0,0,.22,3.42,9.29,9.29,0,0,0,.51,1.57c.53,1.21,1.07,2.47,1.59,3.77.78,1.94,1.52,4,2.15,6,.21.69.4,1.38.58,2.08a36,36,0,0,1,1.09,6.27,22.45,22.45,0,0,1-.75,8.18,18,18,0,0,1-2.87,5.66,20.33,20.33,0,0,1-11,7.17,21.31,21.31,0,0,1-13.15-.54,17,17,0,0,1-7.33-6.14,24.65,24.65,0,0,1-1.58-2.57,24,24,0,0,1-1.19-2.46c-.29-.72-.44-1.5-.69-2.23.09-1.35,0-2.74,0-4.09.09-3.81.35-7.63.78-11.42.07-.67.05-.63.09-.9s.08-.43.18-1,.24-1.38.4-2.06c.06-.26.18-.59.29-.91h0a7.16,7.16,0,0,0,1.08-1.53l0-.06a8.64,8.64,0,0,0,1-3.58,1.64,1.64,0,0,0,0-.22,8.44,8.44,0,0,0-.13-1.82s0-.07,0-.11a8,8,0,0,0-.49-1.53l-.16-.36a6.8,6.8,0,0,0-.94-1.43l-.1-.1a6.5,6.5,0,0,0-1.25-1,3.38,3.38,0,0,0-.41-.24,6.62,6.62,0,0,0-1.81-.7c-1.55-.34-3.12-.74-4.71-1.16-4.78-1.24-9.7-2.61-14.45-2.87a10.83,10.83,0,0,0-4.52.68c-4,1.56-6.55,5.56-7,10.24-.94,9.33-.88,20-5.31,28.64a27,27,0,0,1-2.19,3.58,11.84,11.84,0,0,1-3.1,2.91,5.68,5.68,0,0,1-2,.81,2.9,2.9,0,0,1-2-.37c-1.38-.83-1.77-3.26-1.79-5.8s.32-5.21.42-6.5a53.5,53.5,0,0,1,3.12-14.23c.3-.83.61-1.65,1-2.46.71-1.68,1.49-3.31,2.35-4.91a54.14,54.14,0,0,1,5.13-7.83,9.22,9.22,0,0,0,1.79-7.95,6,6,0,0,0-3.31-3.82q-2.46-1.17-5-2.21a90.09,90.09,0,0,0-10.21-3.57q-2.61-.75-5.28-1.32a8.33,8.33,0,0,0-4.81.34,7.43,7.43,0,0,0-3.66,3.11c-.14.22-.35.56-.63,1-1.61,2.5-5.43,8.11-9.72,13.74-.32.43-.64.85-1,1.27s-.84,1.09-1.27,1.62c-.72.91-1.45,1.8-2.17,2.67s-1.57,1.86-2.34,2.72c-.92,1-1.81,2-2.67,2.83l0,0a29,29,0,0,1-3,2.6c-1.52,1.13-2.8,1.69-3.72,1.43a1.59,1.59,0,0,1-.9-.73,4.63,4.63,0,0,1-.58-1.56,10.11,10.11,0,0,1,.17-3.87,26.81,26.81,0,0,1,1.28-4.22c.79-2.07,1.7-4,2.31-5.28a113.75,113.75,0,0,1,6-11.16,102.45,102.45,0,0,1,7.23-10.39,10.16,10.16,0,0,0,2.16-5,6.34,6.34,0,0,0,0-1.74,5.1,5.1,0,0,0-1-2.35q-2.76-3.71-5.41-7.47t-5.22-7.6c-1.58-2.35-3.1-4.74-4.58-7.15-.67-1.1-1.36-2.19-2-3.3-.74-1.32-1.45-2.65-2.08-4h0q-.06-.2-.09-.33h0a7.76,7.76,0,0,0-1.73-4.85.76.76,0,0,0-.11-.14,7.93,7.93,0,0,0-.62-.67l-.15-.13a8.44,8.44,0,0,0-1.14-.85c-.16-.1-.31-.2-.47-.28s-.34-.15-.51-.23-.42-.17-.64-.23l-.47-.14a7.94,7.94,0,0,0-.83-.13l-.36,0a6.34,6.34,0,0,0-1.23.06l-.28.06a6.14,6.14,0,0,0-1,.26l-.41.16a7.77,7.77,0,0,0-.91.46,4,4,0,0,0-.39.23,8.82,8.82,0,0,0-1.24,1h0c-5.61,5.2-11.3,10.33-17,15.44l-9.9,8.85c-6,5.37-12,10.74-18,16.18s-11.84,10.93-17.62,16.54q-4.33,4.2-8.58,8.51c-8.86,9-17.46,18.34-25.7,28s-16.1,19.61-23.5,29.86q-2.74,3.8-5.42,7.7c-3.55,5.21-7,10.54-10.18,16a194.64,194.64,0,0,0-12.68,25.45,149,149,0,0,0-6,17.93,104.55,104.55,0,0,0-3.6,26.24,78.55,78.55,0,0,0,.48,8.81c.17,1.61.4,3.2.67,4.77a90.22,90.22,0,0,0,9.34,26.64c.74,1.42,1.51,2.82,2.32,4.22a152.93,152.93,0,0,0,11.12,16.75q3.06,4,6.35,7.81a159.49,159.49,0,0,0,14.13,14.35q3.75,3.36,7.71,6.48a158.52,158.52,0,0,0,16.54,11.44,144.54,144.54,0,0,0,20.29,10.08,186,186,0,0,0,21.3,7.1c14.47,3.92,29.39,6.4,44.35,8.53,22.35,3.18,44.66,6.1,67.09,5.63a196,196,0,0,0,22.47-1.7c2.76-.38,5.49-.86,8.22-1.38,6.49-1.24,12.9-2.78,19.32-4.3l3.12-.72c4.72-1.09,9.46-2.1,14.24-2.9.68-.12,1.37-.26,2.06-.36.38-.06.75-.07,1.13-.12a65.43,65.43,0,0,1,11-.56h0c12,.39,23.59,3.52,35.72,5a81.81,81.81,0,0,0,9.64.61,98.67,98.67,0,0,0,19.27-1.84c16-3,31.52-9.54,45.45-16.95q4.31-2.3,8.54-4.78c5.65-3.33,11.2-6.93,16.56-10.82q4-2.93,7.88-6.05a146.45,146.45,0,0,0,27.18-28.46,107,107,0,0,0,6.06-9.56c1.85-3.28,3.55-6.66,5.1-10.1C2836.17,3203.4,2836.66,3172.37,2827.37,3142.86Zm-123.5-120.59q1.9-1.36,3.73-2.81l.12.85a4.43,4.43,0,0,0,.32,1.2c.28.76.6,1.5.93,2.23.48,1.06,1,2.08,1.55,3.12a2.9,2.9,0,0,0,.84.95,15.81,15.81,0,0,0-1.3,1.54A84.76,84.76,0,0,0,2703.87,3022.27Zm12.75,1.91a3.69,3.69,0,0,0-.3-.71c-.5-1-1-2.06-1.53-3.06-.27-.49-.55-1-.86-1.45a7.13,7.13,0,0,0-.89-1.23c-.2-.21-.41-.4-.61-.6a2.83,2.83,0,0,0-1.18-.66c.82-.71,1.63-1.42,2.42-2.15a16.23,16.23,0,0,0,1.75,3.45c.65,1.06,1.3,2.12,1.92,3.2.45.77.84,1.58,1.23,2.39A19.6,19.6,0,0,0,2716.62,3024.18Zm7.5-2c-.17-.73-.41-1.44-.64-2.15l1.88,2.07C2725,3022.15,2724.54,3022.17,2724.12,3022.21Zm-65.66,31.54c.3.57.6,1.14.87,1.73l.09.21c.12.31.25.61.37.92.34.84.67,1.69,1,2.54.09.24.19.48.29.73a1.46,1.46,0,0,0-.22,0,9.58,9.58,0,0,0-1.78.77,5.13,5.13,0,0,0-1.15.82,74.16,74.16,0,0,0-2.16-7.3Zm-68.05,15.31c-.14.05-.24.12-.37.17a10.26,10.26,0,0,1-1.24,0l-.64-.19a10.26,10.26,0,0,1-1-.56c.16-.94.3-1.89.44-2.84,0,0,0,.08,0,.12a2.82,2.82,0,0,0,1.68,1.29,3,3,0,0,0,1.92-.19c-.06.7-.1,1.39-.14,2.09A4.54,4.54,0,0,0,2590.41,3069.06Zm-2-13,.71.15a7.44,7.44,0,0,0-.57,1.62l-.15.71C2588.38,3057.81,2588.37,3056.93,2588.37,3056ZM2591,3069h0Zm-44-14.37-.06,0-1.61-.6a1.7,1.7,0,0,0,.29-.36q1.93-4.18,3.89-8.38c.42-.91.84-1.82,1.27-2.73.61.19,1.22.38,1.83.59A71.5,71.5,0,0,0,2547,3054.62Zm-37.8-31.66-1.4-1.28c-2.59-2.43-5.19-4.85-7.74-7.33l-3.41-3.34,2.07-4c1.09-2.1,2.33-4.25,3.37-6.45.33.5.65,1,.95,1.45s.55.8.82,1.21l-.85,1.65c-.41.8-.71,1.66-1,2.49l-.78,1.95a3.14,3.14,0,0,0,.32,2.45,3.18,3.18,0,0,0,1.9,1.47,3.27,3.27,0,0,0,2.45-.32l.65-.5a3.22,3.22,0,0,0,.81-1.41c.22-.53.46-1.07.68-1.61,1.73,2.52,3.5,5,5.3,7.47C2511.91,3018.89,2510.55,3020.91,2509.24,3023Zm-13.47-23.66c-.76,1.57-1.47,3.16-2.22,4.71-.42.89-.85,1.78-1.28,2.68l-2.23-2.18.3-.27C2492.16,3002.61,2494,3000.94,2495.77,2999.3Zm14.21-15.19.06.13a.81.81,0,0,0,.06.13.43.43,0,0,0,0,.05s0,0,0,0a2.37,2.37,0,0,1-.15-.33h0a2,2,0,0,0-.1-.21v0l-.09-.23h0l.06.14Zm249.9,296c-20.06,13-43.65,24.14-67.89,25.46-13.71.75-26.75-3.33-40.24-5-16.06-2-31.64,1.68-47.15,5.49-27.85,6.86-55.41,7.36-83.8,4.07-29.35-3.41-60.49-6.65-87.94-18.24a143.15,143.15,0,0,1-58.23-45.54c-7-9.35-13.79-19.88-17.39-31.07a71.14,71.14,0,0,1-2.52-31.23c3-23,14.52-44.5,27.1-63.63,13.75-20.91,29.74-39.9,46.91-57.83q11-10.38,22-20.71c4.85-4.5,9.63-9.14,14.67-13.44,3.8-3.24,8.5-6.5,13.71-6.33a19.19,19.19,0,0,1,12.14,5.37c3.85,3.53,6,8,9.05,12.06-.36.82-.77,1.61-1.11,2.44-3.53,8.52-5.19,19.93,1.51,27.42,8.51,9.52,21.4,4.43,29.13-3.12a101.89,101.89,0,0,0,7.07-7.72c1.72,1.38,3.43,2.79,5.07,4.29a9.76,9.76,0,0,0,2.12,1.91c-.19,1-.41,1.92-.56,2.9-1.72,10.91-2.82,26.86,9.06,32.51,11.72,5.58,23.68-2.51,28.75-13.08a67,67,0,0,0,4-11.05l.65.47a12.9,12.9,0,0,0,2.8,1.47,5.52,5.52,0,0,0,1.48.73,5.75,5.75,0,0,0,1,.19,30.08,30.08,0,0,0,3.12,9.93c6.17,11.82,17.93,18.84,31.29,18.14,11.85-.62,23.18-6.69,29.22-17.11a33.49,33.49,0,0,0,4.39-18.18l.33-.14a12.62,12.62,0,0,1,1.35-.46,12.09,12.09,0,0,0,1.73-.42l-1.4.19a5.88,5.88,0,0,0,3.05-.91l.67-.51c2.36,5,5.41,9.87,10.37,12.4,9.16,4.67,21-2.56,22.67-12.26a19.51,19.51,0,0,0,.19-5.22c4.82,1.77,9.95,2.27,14.58-.18,9.1-4.82,7-15.88,3.65-23.88,2.58-2.62,5.76-4.49,9.66-4.13,5,.46,9.16,4.19,12.53,7.57,9.86,9.86,18.7,21.09,27.54,31.87,18,21.95,34.66,45.53,44.57,72.34a160.32,160.32,0,0,1,6.53,22.53c.59,2.77,1,5.57,1.35,8.37a101.45,101.45,0,0,1-7.95,45.77C2800.07,3248.29,2781.45,3266.06,2759.88,3280.07Z" transform="translate(-1859.97 -2223.67)"/><path class="a" d="M2613.66,2800.48c-6.44,0-6.45,10,0,10S2620.1,2800.48,2613.66,2800.48Z" transform="translate(-1859.97 -2223.67)"/><path class="a" d="M2634.86,2817.44c-6.43,0-6.44,10,0,10S2641.31,2817.44,2634.86,2817.44Z" transform="translate(-1859.97 -2223.67)"/><path class="a" d="M2619.31,2827.39a5.53,5.53,0,0,0-3.53-1.47l-1.33.18a5.05,5.05,0,0,0-2.21,1.29l-.78,1a5,5,0,0,0-.68,2.52v2.13a3.74,3.74,0,0,0,.43,1.92,4.45,4.45,0,0,0,2.64,2.64,3.78,3.78,0,0,0,1.93.44l1.33-.18a5,5,0,0,0,2.2-1.29l.78-1a5,5,0,0,0,.69-2.52v-2.13a3.84,3.84,0,0,0-.43-1.92A3.71,3.71,0,0,0,2619.31,2827.39Z" transform="translate(-1859.97 -2223.67)"/><path class="a" d="M2596.69,2852.89c6.44,0,6.45-10,0-10S2590.25,2852.89,2596.69,2852.89Z" transform="translate(-1859.97 -2223.67)"/><path class="a" d="M2617.9,2864.1l-1.33.17a5.05,5.05,0,0,0-2.21,1.29l-2.12,2.12a3.69,3.69,0,0,0-1,1.61,3.77,3.77,0,0,0-.43,1.93,5.59,5.59,0,0,0,1.46,3.53l1,.78a5,5,0,0,0,2.53.69l1.33-.18a5,5,0,0,0,2.2-1.29c.71-.7,1.42-1.41,2.12-2.12a3.71,3.71,0,0,0,1-1.61,4.52,4.52,0,0,0,0-3.85,3.71,3.71,0,0,0-1-1.61l-1-.78A5,5,0,0,0,2617.9,2864.1Z" transform="translate(-1859.97 -2223.67)"/><path class="a" d="M2639.1,2855.61c-6.43,0-6.44,10,0,10S2645.55,2855.61,2639.1,2855.61Z" transform="translate(-1859.97 -2223.67)"/><path class="a" d="M2666.67,2832.29c-6.43,0-6.44,10,0,10S2673.12,2832.29,2666.67,2832.29Z" transform="translate(-1859.97 -2223.67)"/><path class="a" d="M2647.18,2797.07a5,5,0,0,0,2.53.68h2.12a3.68,3.68,0,0,0,1.93-.43,4.52,4.52,0,0,0,2.64-2.64,3.88,3.88,0,0,0,.43-1.93l-.18-1.33a5,5,0,0,0-1.29-2.2l-1-.78a5,5,0,0,0-2.52-.69h-2.12a5.52,5.52,0,0,0-3.54,1.47,5.59,5.59,0,0,0-1.46,3.53l.18,1.33a4.94,4.94,0,0,0,1.28,2.21Z" transform="translate(-1859.97 -2223.67)"/><path class="a" d="M2694.24,2828.05c-6.43,0-6.44,10,0,10S2700.69,2828.05,2694.24,2828.05Z" transform="translate(-1859.97 -2223.67)"/><path class="a" d="M2679.4,2889.54c-6.44,0-6.45,10,0,10S2685.84,2889.54,2679.4,2889.54Z" transform="translate(-1859.97 -2223.67)"/><path class="a" d="M2579.73,2893.78c-6.44,0-6.45,10,0,10S2586.17,2893.78,2579.73,2893.78Z" transform="translate(-1859.97 -2223.67)"/><path class="a" d="M2548.62,2842.94a5.52,5.52,0,0,0,3.54,1.47l1.33-.18a5,5,0,0,0,2.2-1.29l.79-1a5,5,0,0,0,.68-2.52v-2.12a3.88,3.88,0,0,0-.43-1.93,4.5,4.5,0,0,0-2.65-2.64,3.62,3.62,0,0,0-1.92-.43l-1.33.18a4.94,4.94,0,0,0-2.21,1.28l-.78,1a5,5,0,0,0-.68,2.53v2.12a3.72,3.72,0,0,0,.43,1.92A3.78,3.78,0,0,0,2548.62,2842.94Z" transform="translate(-1859.97 -2223.67)"/><path class="a" d="M2590.33,2751.7c-6.43,0-6.45,10,0,10S2596.77,2751.7,2590.33,2751.7Z" transform="translate(-1859.97 -2223.67)"/><path class="a" d="M2628.5,2855c6.44,0,6.45-10,0-10S2622.06,2855,2628.5,2855Z" transform="translate(-1859.97 -2223.67)"/><path class="a" d="M2647.59,2895.3c6.43,0,6.44-10,0-10S2641.14,2895.3,2647.59,2895.3Z" transform="translate(-1859.97 -2223.67)"/><path class="a" d="M2670.91,2862c-6.43,0-6.44,10,0,10S2677.36,2862,2670.91,2862Z" transform="translate(-1859.97 -2223.67)"/><path class="a" d="M2706.56,2782.23a5,5,0,0,0,2.53.68h2.12a3.84,3.84,0,0,0,1.92-.43,4.56,4.56,0,0,0,2.65-2.65,3.82,3.82,0,0,0,.43-1.92l-.18-1.33a5.05,5.05,0,0,0-1.29-2.21l-1-.78a5,5,0,0,0-2.52-.68h-2.12a4.8,4.8,0,0,0-4.57,3.07,3.68,3.68,0,0,0-.43,1.93c.06.44.11.88.17,1.33a5,5,0,0,0,1.29,2.2Z" transform="translate(-1859.97 -2223.67)"/><path class="a" d="M2747.26,2853.49c-6.44,0-6.45,10,0,10S2753.7,2853.49,2747.26,2853.49Z" transform="translate(-1859.97 -2223.67)"/><path class="a" d="M2681.52,2937.72c6.43,0,6.44-10,0-10S2675.07,2937.72,2681.52,2937.72Z" transform="translate(-1859.97 -2223.67)"/><path class="a" d="M2628.5,2952.56c6.44,0,6.45-10,0-10S2622.06,2952.56,2628.5,2952.56Z" transform="translate(-1859.97 -2223.67)"/><path class="a" d="M2537.31,2905.91c6.44,0,6.45-10,0-10S2530.87,2905.91,2537.31,2905.91Z" transform="translate(-1859.97 -2223.67)"/><path class="a" d="M2535.19,2781.39c-6.43,0-6.44,10,0,10S2541.64,2781.39,2535.19,2781.39Z" transform="translate(-1859.97 -2223.67)"/><path class="a" d="M2146.06,3114.5c-6.43,0-6.44,10,0,10S2152.51,3114.5,2146.06,3114.5Z" transform="translate(-1859.97 -2223.67)"/><path class="a" d="M2172,3125.46c-6.44,0-6.45,10,0,10S2178.41,3125.46,2172,3125.46Z" transform="translate(-1859.97 -2223.67)"/><path class="a" d="M2192.89,3129.44c-6.44,0-6.45,10,0,10S2199.33,3129.44,2192.89,3129.44Z" transform="translate(-1859.97 -2223.67)"/><path class="a" d="M2207.83,3132.43c-6.44,0-6.45,10,0,10S2214.27,3132.43,2207.83,3132.43Z" transform="translate(-1859.97 -2223.67)"/><path class="a" d="M2220.78,3136.42c-6.44,0-6.45,10,0,10S2227.22,3136.42,2220.78,3136.42Z" transform="translate(-1859.97 -2223.67)"/><path class="a" d="M2239.71,3143.39a4.86,4.86,0,0,1-8-3c-6.44,0-6.45,10,0,10a4.86,4.86,0,0,1,8,3C2246.14,3153.39,2246.15,3143.39,2239.71,3143.39Z" transform="translate(-1859.97 -2223.67)"/><path class="a" d="M2254.65,3146.38c-6.44,0-6.45,10,0,10S2261.09,3146.38,2254.65,3146.38Z" transform="translate(-1859.97 -2223.67)"/><path class="a" d="M2264.61,3160.32c-6.43,0-6.44,10,0,10S2271.06,3160.32,2264.61,3160.32Z" transform="translate(-1859.97 -2223.67)"/><path class="a" d="M2270.59,3170.29c-6.44,0-6.45,10,0,10S2277,3170.29,2270.59,3170.29Z" transform="translate(-1859.97 -2223.67)"/><path class="a" d="M2274.57,3180.25c-6.43,0-6.44,10,0,10S2281,3180.25,2274.57,3180.25Z" transform="translate(-1859.97 -2223.67)"/><path class="a" d="M2280.55,3196.19c-6.43,0-6.44,10,0,10S2287,3196.19,2280.55,3196.19Z" transform="translate(-1859.97 -2223.67)"/><path class="a" d="M2287.52,3209.14c-6.43,0-6.44,10,0,10S2294,3209.14,2287.52,3209.14Z" transform="translate(-1859.97 -2223.67)"/><path class="a" d="M2295.49,3229.06c-6.43,0-6.44,10,0,10S2301.94,3229.06,2295.49,3229.06Z" transform="translate(-1859.97 -2223.67)"/><path class="a" d="M2304.46,3245c-6.44,0-6.45,10,0,10S2310.9,3245,2304.46,3245Z" transform="translate(-1859.97 -2223.67)"/><path class="a" d="M2282,3176.83l1,.78a5,5,0,0,0,2.52.68h1a3.62,3.62,0,0,0,1.92-.43,4.5,4.5,0,0,0,2.65-2.64,3.88,3.88,0,0,0,.43-1.93l-.18-1.32a5,5,0,0,0-1.29-2.21l-1-.78a5,5,0,0,0-2.52-.69h-1a3.88,3.88,0,0,0-1.93.43,3.83,3.83,0,0,0-1.6,1,3.71,3.71,0,0,0-1,1.61,3.84,3.84,0,0,0-.43,1.92l.18,1.33A5,5,0,0,0,2282,3176.83Z" transform="translate(-1859.97 -2223.67)"/><path class="a" d="M2276.57,3153.35c-6.44,0-6.45,10,0,10S2283,3153.35,2276.57,3153.35Z" transform="translate(-1859.97 -2223.67)"/><path class="a" d="M2263.62,3150.4c6.43,0,6.44-10,0-10S2257.17,3150.4,2263.62,3150.4Z" transform="translate(-1859.97 -2223.67)"/><path class="a" d="M2243.69,3129.44c-6.43,0-6.44,10,0,10S2250.14,3129.44,2243.69,3129.44Z" transform="translate(-1859.97 -2223.67)"/><path class="a" d="M2270.59,3127.45c-6.44,0-6.45,10,0,10S2277,3127.45,2270.59,3127.45Z" transform="translate(-1859.97 -2223.67)"/><path class="a" d="M2279.55,3138.41c-6.43,0-6.44,10,0,10S2286,3138.41,2279.55,3138.41Z" transform="translate(-1859.97 -2223.67)"/><path class="a" d="M2288.52,3122.47c-6.43,0-6.45,10,0,10S2295,3122.47,2288.52,3122.47Z" transform="translate(-1859.97 -2223.67)"/><path class="a" d="M2316,3100a5.53,5.53,0,0,0-3.53-1.46l-1.33.18a5.13,5.13,0,0,0-2.21,1.28l-.78,1a5,5,0,0,0-.68,2.52v1a3.72,3.72,0,0,0,.43,1.92,3.78,3.78,0,0,0,1,1.61,5.52,5.52,0,0,0,3.54,1.47l1.33-.18a5,5,0,0,0,2.2-1.29l.79-1a5,5,0,0,0,.68-2.52v-1a3.88,3.88,0,0,0-.43-1.93A3.77,3.77,0,0,0,2316,3100Z" transform="translate(-1859.97 -2223.67)"/><path class="a" d="M2325.38,3098.6l1.33-.18a5,5,0,0,0,2.2-1.29c.27-.33.53-.67.79-1a5,5,0,0,0,.68-2.52v-1a5.53,5.53,0,0,0-1.47-3.53,3.68,3.68,0,0,0-1.6-1,3.88,3.88,0,0,0-1.93-.43l-1.33.18a5.05,5.05,0,0,0-2.21,1.29l-.78,1a5,5,0,0,0-.68,2.52v1a4.84,4.84,0,0,0,3.07,4.57A3.88,3.88,0,0,0,2325.38,3098.6Z" transform="translate(-1859.97 -2223.67)"/><path class="a" d="M2335.34,3078.64c-6.43,0-6.44,10,0,10S2341.79,3078.64,2335.34,3078.64Z" transform="translate(-1859.97 -2223.67)"/><path class="a" d="M2370.21,3047.75c-6.44,0-6.45,10,0,10S2376.65,3047.75,2370.21,3047.75Z" transform="translate(-1859.97 -2223.67)"/><path class="a" d="M2390.13,3032.81c-6.43,0-6.44,10,0,10S2396.58,3032.81,2390.13,3032.81Z" transform="translate(-1859.97 -2223.67)"/><path class="a" d="M3081.56,2541.68c6.43,0,6.44-10,0-10S3075.11,2541.68,3081.56,2541.68Z" transform="translate(-1859.97 -2223.67)"/><path class="a" d="M3083.72,2569.73c6.43,0,6.44-10,0-10S3077.27,2569.73,3083.72,2569.73Z" transform="translate(-1859.97 -2223.67)"/><path class="a" d="M3085.87,2591.31c6.44,0,6.45-10,0-10S3079.43,2591.31,3085.87,2591.31Z" transform="translate(-1859.97 -2223.67)"/><path class="a" d="M3085.87,2596.41c-6.43,0-6.44,10,0,10S3092.32,2596.41,3085.87,2596.41Z" transform="translate(-1859.97 -2223.67)"/><path class="a" d="M3079.4,2643.09c6.44,0,6.45-10,0-10S3073,2643.09,3079.4,2643.09Z" transform="translate(-1859.97 -2223.67)"/><path class="a" d="M3070.77,2664.67c6.44,0,6.45-10,0-10S3064.33,2664.67,3070.77,2664.67Z" transform="translate(-1859.97 -2223.67)"/><path class="a" d="M3062.14,2684.09c6.43,0,6.44-10,0-10S3055.69,2684.09,3062.14,2684.09Z" transform="translate(-1859.97 -2223.67)"/><path class="a" d="M3049.19,2697c6.44,0,6.45-10,0-10S3042.75,2697,3049.19,2697Z" transform="translate(-1859.97 -2223.67)"/><path class="a" d="M3040.56,2703.51c6.44,0,6.45-10,0-10S3034.12,2703.51,3040.56,2703.51Z" transform="translate(-1859.97 -2223.67)"/><path class="a" d="M3021.14,2706.46c-6.43,0-6.44,10,0,10S3027.59,2706.46,3021.14,2706.46Z" transform="translate(-1859.97 -2223.67)"/><path class="a" d="M2993.09,2721.56c-6.43,0-6.44,10,0,10S2999.54,2721.56,2993.09,2721.56Z" transform="translate(-1859.97 -2223.67)"/><path class="a" d="M2956.41,2732.35c-6.43,0-6.44,10,0,10S2962.86,2732.35,2956.41,2732.35Z" transform="translate(-1859.97 -2223.67)"/><path class="a" d="M3060,2712.14c6.44,0,6.45-10,0-10S3053.54,2712.14,3060,2712.14Z" transform="translate(-1859.97 -2223.67)"/><path class="a" d="M3077.24,2718.61c6.44,0,6.45-10,0-10S3070.8,2718.61,3077.24,2718.61Z" transform="translate(-1859.97 -2223.67)"/><path class="a" d="M3092.35,2727.24c6.43,0,6.44-10,0-10S3085.9,2727.24,3092.35,2727.24Z" transform="translate(-1859.97 -2223.67)"/><path class="a" d="M3105.29,2740.19c6.44,0,6.45-10,0-10S3098.85,2740.19,3105.29,2740.19Z" transform="translate(-1859.97 -2223.67)"/><path class="a" d="M3122.56,2759.61c6.43,0,6.44-10,0-10S3116.11,2759.61,3122.56,2759.61Z" transform="translate(-1859.97 -2223.67)"/><path class="a" d="M3139.82,2779c6.43,0,6.44-10,0-10S3133.37,2779,3139.82,2779Z" transform="translate(-1859.97 -2223.67)"/><path class="a" d="M3072.93,2689.19c-6.44,0-6.45,10,0,10S3079.37,2689.19,3072.93,2689.19Z" transform="translate(-1859.97 -2223.67)"/><path class="a" d="M2792.43,2282.76c6.43,0,6.44-10,0-10S2786,2282.76,2792.43,2282.76Z" transform="translate(-1859.97 -2223.67)"/><path class="a" d="M2816.16,2289.23c6.44,0,6.45-10,0-10S2809.72,2289.23,2816.16,2289.23Z" transform="translate(-1859.97 -2223.67)"/><path class="a" d="M2834.2,2292.08l1,.78a5,5,0,0,0,2.52.69h2.16a3.84,3.84,0,0,0,1.92-.43,4.56,4.56,0,0,0,2.65-2.65,3.84,3.84,0,0,0,.43-1.92l-.18-1.33a5,5,0,0,0-1.29-2.21l-1-.78a5,5,0,0,0-2.52-.68h-2.16a3.68,3.68,0,0,0-1.93.43,5.13,5.13,0,0,0-3.07,4.57l.18,1.32A4.89,4.89,0,0,0,2834.2,2292.08Z" transform="translate(-1859.97 -2223.67)"/><path class="a" d="M2859.32,2302.18c6.43,0,6.44-10,0-10S2852.87,2302.18,2859.32,2302.18Z" transform="translate(-1859.97 -2223.67)"/><path class="a" d="M2874.42,2306.49c6.43,0,6.44-10,0-10S2868,2306.49,2874.42,2306.49Z" transform="translate(-1859.97 -2223.67)"/><path class="a" d="M2898.15,2317.28c6.44,0,6.45-10,0-10S2891.71,2317.28,2898.15,2317.28Z" transform="translate(-1859.97 -2223.67)"/><path class="a" d="M2930.52,2336.7c6.43,0,6.45-10,0-10S2924.07,2336.7,2930.52,2336.7Z" transform="translate(-1859.97 -2223.67)"/><path class="a" d="M2837.74,2300.81c-6.44,0-6.45,10,0,10S2844.18,2300.81,2837.74,2300.81Z" transform="translate(-1859.97 -2223.67)"/><path class="a" d="M2863.63,2321.6c6.44,0,6.45-10,0-10S2857.19,2321.6,2863.63,2321.6Z" transform="translate(-1859.97 -2223.67)"/><path class="a" d="M2995.25,2399.27c6.44,0,6.45-10,0-10S2988.81,2399.27,2995.25,2399.27Z" transform="translate(-1859.97 -2223.67)"/><path class="a" d="M3014.67,2418.69c6.44,0,6.45-10,0-10S3008.23,2418.69,3014.67,2418.69Z" transform="translate(-1859.97 -2223.67)"/><path class="a" d="M2583.13,2276.28c6.43,0,6.44-10,0-10S2576.68,2276.28,2583.13,2276.28Z" transform="translate(-1859.97 -2223.67)"/><path class="a" d="M2611.18,2269.81c6.43,0,6.44-10,0-10S2604.73,2269.81,2611.18,2269.81Z" transform="translate(-1859.97 -2223.67)"/><path class="a" d="M2479.56,2323.75c6.43,0,6.44-10,0-10S2473.11,2323.75,2479.56,2323.75Z" transform="translate(-1859.97 -2223.67)"/><path class="a" d="M2406.2,2509.32c6.43,0,6.44-10,0-10S2399.75,2509.32,2406.2,2509.32Z" transform="translate(-1859.97 -2223.67)"/><path class="a" d="M2419.14,2537.37c6.44,0,6.45-10,0-10S2412.7,2537.37,2419.14,2537.37Z" transform="translate(-1859.97 -2223.67)"/><path class="a" d="M2432.09,2558.94c6.43,0,6.44-10,0-10S2425.64,2558.94,2432.09,2558.94Z" transform="translate(-1859.97 -2223.67)"/><path class="a" d="M2440.72,2571.89c6.43,0,6.45-10,0-10S2434.28,2571.89,2440.72,2571.89Z" transform="translate(-1859.97 -2223.67)"/><path class="a" d="M2475.24,2628c6.44,0,6.45-10,0-10S2468.8,2628,2475.24,2628Z" transform="translate(-1859.97 -2223.67)"/><path class="a" d="M2490.35,2650.36c-6.44,0-6.45,10,0,10S2496.79,2650.36,2490.35,2650.36Z" transform="translate(-1859.97 -2223.67)"/><path class="a" d="M2829.11,3074.63c6.43,0,6.44-10,0-10S2822.66,3074.63,2829.11,3074.63Z" transform="translate(-1859.97 -2223.67)"/><path class="a" d="M2848.53,3088.37c-6.44,0-6.45,10,0,10S2855,3088.37,2848.53,3088.37Z" transform="translate(-1859.97 -2223.67)"/><path class="a" d="M2859.32,3101.32c-6.44,0-6.45,10,0,10S2865.76,3101.32,2859.32,3101.32Z" transform="translate(-1859.97 -2223.67)"/><path class="a" d="M2892.37,3136.52l-.18-1.33a5,5,0,0,0-1.29-2.2l-1-.78a5,5,0,0,0-2.52-.69h-2.16a5.52,5.52,0,0,0-3.54,1.47,3.69,3.69,0,0,0-1,1.61,3.74,3.74,0,0,0-.43,1.92l.18,1.33a4.89,4.89,0,0,0,1.28,2.21l1,.78a5,5,0,0,0,2.53.68h2.16a3.64,3.64,0,0,0,1.92-.43,4.45,4.45,0,0,0,2.64-2.64A3.78,3.78,0,0,0,2892.37,3136.52Z" transform="translate(-1859.97 -2223.67)"/><path class="a" d="M2896,3144.47c-6.44,0-6.45,10,0,10S2902.44,3144.47,2896,3144.47Z" transform="translate(-1859.97 -2223.67)"/><path class="a" d="M2904.63,3129.37c-6.44,0-6.45,10,0,10S2911.07,3129.37,2904.63,3129.37Z" transform="translate(-1859.97 -2223.67)"/><path class="a" d="M2924.05,3131.52c-6.44,0-6.45,10,0,10S2930.49,3131.52,2924.05,3131.52Z" transform="translate(-1859.97 -2223.67)"/><path class="a" d="M2911.1,3142.31c-6.43,0-6.44,10,0,10S2917.55,3142.31,2911.1,3142.31Z" transform="translate(-1859.97 -2223.67)"/><path class="a" d="M2951.69,3135.21c-6.44,0-6.45,10,0,10S2958.13,3135.21,2951.69,3135.21Z" transform="translate(-1859.97 -2223.67)"/><path class="a" d="M3012.74,3126.28c-6.43,0-6.44,10,0,10S3019.19,3126.28,3012.74,3126.28Z" transform="translate(-1859.97 -2223.67)"/><path class="a" d="M3050,3117.34c-6.43,0-6.44,10,0,10S3056.42,3117.34,3050,3117.34Z" transform="translate(-1859.97 -2223.67)"/><path class="a" d="M3067.84,3112.88c-6.43,0-6.44,10,0,10S3074.29,3112.88,3067.84,3112.88Z" transform="translate(-1859.97 -2223.67)"/><path class="a" d="M3134.85,3059.27c-6.43,0-6.44,10,0,10S3141.3,3059.27,3134.85,3059.27Z" transform="translate(-1859.97 -2223.67)"/><path class="a" d="M3151.23,3042.46c6.44,0,6.45-10,0-10S3144.79,3042.46,3151.23,3042.46Z" transform="translate(-1859.97 -2223.67)"/><path class="a" d="M3160.17,3024.59c6.43,0,6.44-10,0-10S3153.72,3024.59,3160.17,3024.59Z" transform="translate(-1859.97 -2223.67)"/><path class="a" d="M3167.61,3003.74c6.44,0,6.45-10,0-10S3161.17,3003.74,3167.61,3003.74Z" transform="translate(-1859.97 -2223.67)"/><path class="a" d="M1920.56,2917.28c6.43,0,6.44-10,0-10S1914.11,2917.28,1920.56,2917.28Z" transform="translate(-1859.97 -2223.67)"/><path class="a" d="M1946.9,2961.73c6.44,0,6.45-10,0-10S1940.46,2961.73,1946.9,2961.73Z" transform="translate(-1859.97 -2223.67)"/><path class="a" d="M1958.43,2971.49c-6.44,0-6.45,10,0,10S1964.87,2971.49,1958.43,2971.49Z" transform="translate(-1859.97 -2223.67)"/><path class="a" d="M1970,2986.31c-6.43,0-6.44,10,0,10S1976.4,2986.31,1970,2986.31Z" transform="translate(-1859.97 -2223.67)"/><path class="a" d="M1994.65,3012.66c-6.43,0-6.44,10,0,10S2001.1,3012.66,1994.65,3012.66Z" transform="translate(-1859.97 -2223.67)"/><path class="a" d="M1894,2780.79a3.69,3.69,0,0,0,1.61,1,3.62,3.62,0,0,0,1.92.43l1.33-.18a4.94,4.94,0,0,0,2.21-1.28l.78-1a5,5,0,0,0,.68-2.53v-1.64a5.13,5.13,0,0,0-5-5l-1.33.18a4.91,4.91,0,0,0-2.2,1.28l-.78,1a5,5,0,0,0-.69,2.53v1.64a3.88,3.88,0,0,0,.43,1.93A3.71,3.71,0,0,0,1894,2780.79Z" transform="translate(-1859.97 -2223.67)"/><path class="a" d="M1900.8,2737.8c6.43,0,6.44-10,0-10S1894.35,2737.8,1900.8,2737.8Z" transform="translate(-1859.97 -2223.67)"/><path class="a" d="M2167.55,2443.05c6.43,0,6.44-10,0-10S2161.1,2443.05,2167.55,2443.05Z" transform="translate(-1859.97 -2223.67)"/><path class="a" d="M2215.3,2436.47c6.43,0,6.44-10,0-10S2208.85,2436.47,2215.3,2436.47Z" transform="translate(-1859.97 -2223.67)"/><path class="a" d="M2243.29,2438.11c6.44,0,6.45-10,0-10S2236.85,2438.11,2243.29,2438.11Z" transform="translate(-1859.97 -2223.67)"/><path class="a" d="M2284.46,2444.7c6.43,0,6.44-10,0-10S2278,2444.7,2284.46,2444.7Z" transform="translate(-1859.97 -2223.67)"/><path class="a" d="M2404.66,2415.06c6.43,0,6.44-10,0-10S2398.21,2415.06,2404.66,2415.06Z" transform="translate(-1859.97 -2223.67)"/><path class="a" d="M2416.18,2390.36c6.44,0,6.45-10,0-10S2409.74,2390.36,2416.18,2390.36Z" transform="translate(-1859.97 -2223.67)"/><path class="a" d="M2427.71,2375.54c6.44,0,6.45-10,0-10S2421.27,2375.54,2427.71,2375.54Z" transform="translate(-1859.97 -2223.67)"/><path class="a" d="M2452.41,2354.14c6.43,0,6.45-10,0-10S2446,2354.14,2452.41,2354.14Z" transform="translate(-1859.97 -2223.67)"/><path class="a" d="M2328.25,3276.62c-6.44,0-6.45,10,0,10S2334.69,3276.62,2328.25,3276.62Z" transform="translate(-1859.97 -2223.67)"/><path class="a" d="M2349.67,3296.61c-6.43,0-6.44,10,0,10S2356.12,3296.61,2349.67,3296.61Z" transform="translate(-1859.97 -2223.67)"/><path class="a" d="M2568.23,3363.75c-6.43,0-6.44,10,0,10S2574.68,3363.75,2568.23,3363.75Z" transform="translate(-1859.97 -2223.67)"/><path class="a" d="M2619.66,3362.33c-6.43,0-6.45,10,0,10S2626.11,3362.33,2619.66,3362.33Z" transform="translate(-1859.97 -2223.67)"/><path class="a" d="M2639.66,3358c-6.44,0-6.45,10,0,10S2646.1,3358,2639.66,3358Z" transform="translate(-1859.97 -2223.67)"/><path class="a" d="M2656.8,3356.61c-6.43,0-6.44,10,0,10S2663.25,3356.61,2656.8,3356.61Z" transform="translate(-1859.97 -2223.67)"/><path class="a" d="M2678.23,3358c-6.44,0-6.45,10,0,10S2684.67,3358,2678.23,3358Z" transform="translate(-1859.97 -2223.67)"/><path class="a" d="M2728.23,3348c-6.44,0-6.45,10,0,10S2734.67,3348,2728.23,3348Z" transform="translate(-1859.97 -2223.67)"/><path class="a" d="M2762.51,3335.18c-6.43,0-6.45,10,0,10S2769,3335.18,2762.51,3335.18Z" transform="translate(-1859.97 -2223.67)"/><path class="a" d="M2833.93,3288c-6.43,0-6.44,10,0,10S2840.38,3288,2833.93,3288Z" transform="translate(-1859.97 -2223.67)"/><path class="a" d="M2845.36,3275.19c-6.43,0-6.44,10,0,10S2851.81,3275.19,2845.36,3275.19Z" transform="translate(-1859.97 -2223.67)"/><path class="a" d="M2853.93,3259.47c-6.43,0-6.44,10,0,10S2860.38,3259.47,2853.93,3259.47Z" transform="translate(-1859.97 -2223.67)"/><path class="a" d="M2862.5,3245.19c-6.43,0-6.44,10,0,10S2869,3245.19,2862.5,3245.19Z" transform="translate(-1859.97 -2223.67)"/><path class="a" d="M2871.08,3219.48c-6.44,0-6.45,10,0,10S2877.52,3219.48,2871.08,3219.48Z" transform="translate(-1859.97 -2223.67)"/><path class="a" d="M2878.22,3192.33c-6.44,0-6.45,10,0,10S2884.66,3192.33,2878.22,3192.33Z" transform="translate(-1859.97 -2223.67)"/><path class="a" d="M2882.5,3170.91c-6.43,0-6.44,10,0,10S2889,3170.91,2882.5,3170.91Z" transform="translate(-1859.97 -2223.67)"/><path class="a" d="M2808.22,3309.47c-6.43,0-6.44,10,0,10S2814.67,3309.47,2808.22,3309.47Z" transform="translate(-1859.97 -2223.67)"/><path class="a" d="M3218.23,2926.32a8.26,8.26,0,0,0-.43-2.34c-.18-55.36-14.31-111.32-41.73-159.29-14.85-26-34-49.9-57.26-68.83q-4.47-3.63-9.11-7.06a47.09,47.09,0,0,1-4.2-3c-2.21-2.07-1.83-2.14-.62-5.06a304.48,304.48,0,0,0,10.58-28.65,243.37,243.37,0,0,0,10-57.61c4-78.39-31.58-153.11-83.18-210.34-50.16-55.62-115.89-98.2-185.18-125.9-68.15-27.26-143-39.94-216.27-32.4a385.8,385.8,0,0,0-205.88,85.78c-15.81,13-32.15,27.09-44.75,43.28-10.06,12.92-17.89,28.27-30.34,39.16-2.06,1.8-4.45,3.77-7.08,4.66-4.75,1.62-11.38-1.39-16.08-2.36-11.21-2.32-22.56-4-33.94-5.22-23.44-2.58-47.19-4.29-70.79-3.7-85.86,2.13-169.69,36.69-235.22,91.69a370.89,370.89,0,0,0-42,41.37c-72.62,84.82-105.6,200.65-91.64,311.19a2.25,2.25,0,0,0-.26,1.25c2.33,30.47,7.42,60.88,16.68,90a369.35,369.35,0,0,0,35.47,78.55c29.68,49.32,70.32,91.28,117.12,124.59,48.06,34.21,102.34,59.34,158.78,76.22,7.42,2.22,14.95,4.07,22.37,6.28,3.6,1.08,7,2.39,9.53,5.34,2.73,3.22,4.51,7.38,6.56,11,8,14.29,16.39,28.35,25.52,41.94,17.29,25.73,37.22,49.83,60.81,70,56.72,48.61,130.39,71.9,202.92,84.3,9.78,1.67,19.32,3.08,29.26,3.16a5.81,5.81,0,0,0,1.47-.17c38.1,6.65,77.32,6.66,115.73,3,64.34-6.17,131.48-17.62,184.08-57.83a274.66,274.66,0,0,0,66.58-73.7,289.59,289.59,0,0,0,22.44-44.74c3-7.59,5.68-15.3,8.08-23.1,2.17-7,5.62-10.69,13-11.76,6.29-.91,12.81-.12,19.13-.15a189.7,189.7,0,0,0,25-1.84,201.6,201.6,0,0,0,46.94-12.3,237.56,237.56,0,0,0,83-55.78c50.4-52,76.63-121.21,83.76-192.52A207.69,207.69,0,0,0,3218.23,2926.32Zm-1332.9-234.91q2.3-9.82,5.07-19.51a383.69,383.69,0,0,1,50.77-109.16q2.8-4.12,5.71-8.17,8.74-12.12,18.48-23.48t20.66-22a382.94,382.94,0,0,1,126.29-82q14.08-5.58,28.56-10t29.23-7.56c8.52-1.83,17.1-3.26,25.71-4.36s17.25-1.86,25.91-2.31q8.67-.45,17.35-.52c2.89,0,5.79,0,8.68,0q8.68.11,17.37.53c2.9.15,5.79.31,8.68.51,11.57.76,23.11,1.91,34.59,3.34s22.52,3.62,33.68,6.12c6.37,1.43,12,1.32,17.43-.93a27.85,27.85,0,0,0,2.71-1.3,30.84,30.84,0,0,0,2.71-1.69c6.75-4.66,12.34-10.76,17.4-17.33,2.53-3.29,4.92-6.7,7.27-10.11s4.62-6.82,6.94-10.12q2-2.88,4.17-5.64a215.11,215.11,0,0,1,24.15-25.56c3.45-3.18,7-6.29,10.46-9.37a381.92,381.92,0,0,1,48.88-36.48,360.77,360.77,0,0,1,73.43-35.14q12.86-4.45,26-7.94a375.13,375.13,0,0,1,39.26-8.13,399.76,399.76,0,0,1,66.48-4.4,439.81,439.81,0,0,1,79.55,8.69q13.09,2.64,26,6c1.9.5,3.78,1.05,5.67,1.57q8.23,2.27,16.38,4.82c10,3.12,19.83,6.52,29.58,10.27A504.79,504.79,0,0,1,2986.66,2352c54.65,45.17,100,104.27,117.1,173.77q1.71,6.94,3,14a229.62,229.62,0,0,1-6.7,111.12c-2.23,7.08-5.2,13.82-7.91,20.68-.9,2.29-1.77,4.58-2.58,6.91a17.13,17.13,0,0,0-1,5.39,13.23,13.23,0,0,0,.31,2.93c1.22,5.62,6,9.69,11.42,13.57,4.32,3.12,8.45,6.49,12.49,10a220.08,220.08,0,0,1,19.09,18.56c22.78,25.05,39.93,55,51.65,87a309.27,309.27,0,0,1,9.9,32.57,321.62,321.62,0,0,1,7.65,44.42.41.41,0,0,0,0,.11c.42,4.14.74,8.3,1,12.47.06,1.07.1,2.15.16,3.22.17,3.27.3,6.54.37,9.82,0,1,0,2.05.05,3.08,0,3.52,0,7-.05,10.55,0,.72,0,1.43,0,2.15-.12,4.23-.31,8.47-.6,12.7v0l0,.59c-.75,7.39-1.6,14.76-2.64,22.12-.34,2.38-.71,4.77-1.11,7.15-.18,1.1-.31,2.2-.51,3.3-.56,3.18-1.22,6.36-1.87,9.53l-.27,1.26h0c-.68,3-1.43,5.92-2.21,8.86-.13.5-.25,1-.39,1.49-.71,2.65-1.49,5.29-2.29,7.91l-.75,2.44q-1.14,3.57-2.38,7.11c-.38,1.08-.76,2.15-1.16,3.22-.78,2.13-1.58,4.26-2.42,6.37-.53,1.31-1.08,2.62-1.63,3.93-.79,1.89-1.58,3.77-2.42,5.63-.71,1.56-1.46,3.11-2.2,4.67s-1.53,3.22-2.33,4.81c-1,1.92-2,3.81-3,5.7-.67,1.22-1.3,2.46-2,3.67-1.76,3.09-3.58,6.14-5.49,9.14a.35.35,0,0,0,0,.08,185.68,185.68,0,0,1-25.44,31.66l-.15.15a190.7,190.7,0,0,1-14.93,13.4q-2.59,2.08-5.25,4.1c-2.49,1.87-5,3.67-7.61,5.43-2.92,2-5.88,3.93-8.9,5.78s-5.92,3.49-8.94,5.14q-2.76,1.5-5.56,2.93c-5,2.53-10,4.9-15.19,7.07-2,.86-4.13,1.7-6.21,2.51-27.08,10.48-56.36,16.12-85.73,17.28-2.63.11-5.26.16-7.89.17s-5.27,0-7.9-.07-5.27-.11-7.9-.19c-5.27-.14-10.54-.31-15.8-.35a188.57,188.57,0,0,0-23.64,1c-4.44.52-6.94,3.05-7.5,7.5-.84,6.66-1.81,13.35-3,20a339.45,339.45,0,0,1-9.07,39.54q-2.88,9.71-6.47,19.13a214.64,214.64,0,0,1-12.66,27.35,185.07,185.07,0,0,1-10.66,17q-2.89,4.11-6.06,8.08a167.24,167.24,0,0,1-13.71,15.19,200.9,200.9,0,0,1-34.49,26.86c-30.94,19.2-66.71,30.86-102.51,37.77q-10.74,2.09-21.45,3.61-11.8,1.71-23.71,3c-23.81,2.56-47.83,3.95-71.66,4.65q-6,.18-12,.27t-12,.07q-6,0-12-.13a524.87,524.87,0,0,1-60-4.47,386,386,0,0,1-51.32-10.48c-4.24-1.18-8.46-2.42-12.64-3.76a307.74,307.74,0,0,1-30.42-11.53,262.67,262.67,0,0,1-64.59-40.27,268,268,0,0,1-22.32-21.36,241.25,241.25,0,0,1-30.88-41.1,183.74,183.74,0,0,1-15.14-31.44l-2.87-8.07a243.09,243.09,0,0,0-9.52-23.87A79.83,79.83,0,0,0,2251,3182a39.36,39.36,0,0,0-11.78-10.68c-.82-.46-1.65-.87-2.49-1.24-5.64-2.49-11.77-3.15-17.85-4.1l-.84-.13c-5.3-.86-10.57-1.9-15.81-3-2.94-.62-5.87-1.24-8.78-1.94-2.52-.6-5-1.29-7.53-2-5.21-1.38-10.39-2.85-15.53-4.48q-5.71-1.82-11.35-3.82c-3.76-1.35-7.49-2.75-11.2-4.23s-7.36-3.05-11-4.69-7.2-3.36-10.76-5.11c-7.13-3.51-14.18-7.18-21.29-10.76-3.52-1.78-7.05-3.53-10.57-5.29-21.13-10.54-42.16-21-61.62-34.4q-4.87-3.34-9.6-6.94-4.26-3.26-8.42-6.62-8.34-6.74-16.29-13.92a400.14,400.14,0,0,1-37.22-38.49q-10.24-12.12-19.38-25-6.09-8.62-11.65-17.56a363.16,363.16,0,0,1-24.5-46.52,359.4,359.4,0,0,1-20.13-59.89C1871.26,2812.38,1871.6,2750.31,1885.33,2691.41Zm366.45,544.2q-6.29-10.44-12.21-21.1c-4.79-8.55-9.93-14.84-19.4-18.28-7.2-2.62-14.89-4.12-22.26-6.24q-10.59-3-21.06-6.49-21.07-6.95-41.59-15.47a523.5,523.5,0,0,1-76.12-39.34c-47.44-29.69-90.23-67.79-122.75-113.51-6.78-9.53-13.11-19.42-19-29.58l.27.43c1.2,1.91,2.39,3.83,3.63,5.72a401.26,401.26,0,0,0,74.6,85.17c5.12,4.36,10.38,8.56,15.72,12.62,1.52,1.15,3.06,2.29,4.6,3.42a324.13,324.13,0,0,0,35.39,22.68c5.36,3,10.8,5.75,16.26,8.52,9.1,4.61,18.27,9.07,27.39,13.64q5.52,2.76,11,5.56c7.31,3.71,14.63,7.4,22.08,10.84,3.72,1.72,7.48,3.38,11.29,5,4.86,2,9.79,3.86,14.74,5.65q8.89,3.18,17.93,5.89c5,1.47,9.93,2.87,14.95,4.12,4.34,1.07,8.71,2,13.09,2.94,3.44.7,6.88,1.38,10.34,2,7.21,1.25,16.4,1.14,22.6,5.54,8.48,6,13.08,17.5,16.73,26.83,2.43,6.19,4.55,12.5,6.81,18.76,1.55,4.33,3.16,8.64,5,12.85h0c1.51,3.43,3.13,6.81,4.82,10.16.33.64.69,1.28,1,1.92q2.18,4.18,4.51,8.29c.26.45.54.89.8,1.34q2.61,4.47,5.42,8.82l.33.52q3.09,4.74,6.39,9.35c.08.11.15.22.23.32-2.58-3.22-5.12-6.49-7.58-9.8C2268.42,3262.09,2259.85,3249,2251.78,3235.61Zm718.83-35.31c-15.56-.37-31.29,2.51-37.68,18.62-3,7.46-4.9,15.34-7.74,22.87q-4.08,10.8-9.13,21.19a269,269,0,0,1-56.29,77.44,225.56,225.56,0,0,1-77.51,48.7c-29.19,10.75-60.08,16.18-90.78,20.54-38.12,5.41-76.95,7.85-115.41,5.19-9.29-.64-18.51-1.71-27.68-3.08-.7-.19-1.39-.35-2.09-.53-2.06-.52-4.13-1-6.21-1.48l-3.76-.81c-1.54-.32-3.08-.62-4.62-.92-8.19-1.58-16.44-2.91-24.66-4.36l.55.07c5.82.66,11.65,1.19,17.49,1.65l2.93.22q17.33,1.28,34.71,1.51l3.13,0q17.23.18,34.47-.47l3.57-.14c11.33-.46,22.65-1.15,33.94-2l4-.31q8.34-.66,16.64-1.43c11.25-1.05,22.53-2.34,33.77-4q11.23-1.64,22.41-3.76a389.49,389.49,0,0,0,44-11,303.15,303.15,0,0,0,31.71-11.92c3.44-1.53,6.86-3.12,10.24-4.8a245.9,245.9,0,0,0,29.5-17.15,202.71,202.71,0,0,0,47.17-44.08,185,185,0,0,0,12.18-18,219.08,219.08,0,0,0,16.07-33.39,293.29,293.29,0,0,0,12.85-43.25,1.62,1.62,0,0,0,0-.19q1-4.65,1.89-9.32c.28-1.49.54-3,.8-4.46s.57-3.16.83-4.75c.34-2,.66-4.08,1-6.13l.39-2.56q.55-3.77,1.08-7.55h0c2.42-.17,4.85-.29,7.27-.37h.2c11.57-.35,23.18.22,34.78.41l.85,0c2.11,0,4.22,0,6.33,0h2c2.66,0,5.32-.09,8-.22,5.42-.27,10.83-.71,16.23-1.25a298.55,298.55,0,0,0,41.29-7c3.66-.91,7.31-1.91,10.94-3,.55-.17,1.11-.32,1.66-.48q5.26-1.57,10.46-3.38l1.65-.58c3.57-1.26,7.13-2.59,10.65-4l.41-.17q5.61-2.28,11.09-4.82l.05,0c3.63-1.69,7.2-3.48,10.74-5.35l.67-.35q5.31-2.84,10.46-5.94l.13-.08a211.7,211.7,0,0,0,20.4-14l.12-.08C3090,3171.83,3033.05,3201.79,2970.61,3200.3Z" transform="translate(-1859.97 -2223.67)"/><path class="a" d="M2776.33,2381.24a1.74,1.74,0,0,0,2.08-1.19l.39-1a4,4,0,0,1,.19-.48c.05-.12,0-.09,0,.08l.15-.26,1-1.71a19.53,19.53,0,0,0,.85-1.79,5.87,5.87,0,0,0,.73-2.8,2.07,2.07,0,0,0-1.25-1.86,2.05,2.05,0,0,0-2.22.42,5.87,5.87,0,0,0-1.38,2.5c-.21.66-.45,1.31-.6,2s-.29,1.35-.43,2a14.22,14.22,0,0,1-.68,2A1.71,1.71,0,0,0,2776.33,2381.24Z" transform="translate(-1859.97 -2223.67)"/><path class="a" d="M2786.76,2388.94a1.94,1.94,0,0,0,1.49-.2,2.26,2.26,0,0,0,.89-1.15l1.36-3.42c.54-1.36,1.32-2.87.9-4.36a2.05,2.05,0,0,0-1.42-1.42,2.15,2.15,0,0,0-2,.52,4.8,4.8,0,0,0-1.27,2.35c-.14.58-.29,1.16-.43,1.75-.3,1.18-.59,2.37-.89,3.55A2,2,0,0,0,2786.76,2388.94Z" transform="translate(-1859.97 -2223.67)"/><path class="a" d="M2863.06,2410.71a3,3,0,0,0,3.6-2l.93-3.39c.16-.55.28-1.11.39-1.67a11.08,11.08,0,0,0,.2-1.39,5.59,5.59,0,0,0-.13-1.47c0,.22.07.45.1.68a16.76,16.76,0,0,1-.06-1.74,2,2,0,0,0-3.79-1c-.3.49-.58,1-.93,1.47l.4-.52a7,7,0,0,0-1.35,2.46c-.19.54-.36,1.08-.51,1.64l-.9,3.39A3,3,0,0,0,2863.06,2410.71Z" transform="translate(-1859.97 -2223.67)"/><path class="a" d="M2947.07,2453.42a1.89,1.89,0,0,0,2.49-.15l1.71-1.8.41-.42.22-.24.19-.24a1.11,1.11,0,0,0,.27-.47l.15-.35c.07-.18.14-.35.22-.53a2.6,2.6,0,0,0,.18-1,1.63,1.63,0,0,0-.65-1.28,1.18,1.18,0,0,0-.56-.3,1.61,1.61,0,0,0-.87,0,3.89,3.89,0,0,0-1.36.69,3.41,3.41,0,0,0-.6.46c-.17.2-.32.43-.48.64l-.36.5-1.44,2a1.36,1.36,0,0,0-.23.7,1.51,1.51,0,0,0,0,.76A1.91,1.91,0,0,0,2947.07,2453.42Z" transform="translate(-1859.97 -2223.67)"/><path class="a" d="M2985.32,2526.43a2.53,2.53,0,0,0,1.69-.7l1.9-1.87a11.38,11.38,0,0,0,.9-.94l.42-.53a3.75,3.75,0,0,0,.49-.69l.15-.32c.07-.17.15-.34.22-.52a1.64,1.64,0,0,0,0-.85,2.09,2.09,0,0,0-.59-1.24,2.75,2.75,0,0,0-.95-.55,2.24,2.24,0,0,0-1.66.22l-.29.14a3.61,3.61,0,0,0-.69.49l-.52.42a12,12,0,0,0-.95.94l-1.84,1.93a2.47,2.47,0,0,0-.7,1.68,2.42,2.42,0,0,0,.7,1.69A2.37,2.37,0,0,0,2985.32,2526.43Z" transform="translate(-1859.97 -2223.67)"/><path class="a" d="M3002.84,2596.61a2.1,2.1,0,0,0,1.64.22,2.38,2.38,0,0,0,1.27-1l.73-1.1c.26-.37.47-.78.69-1.17a24.66,24.66,0,0,0,1.13-2.45,1.75,1.75,0,0,0,.16-1.25,1.71,1.71,0,0,0-.58-.84,1.62,1.62,0,0,0-2.13.13l-1,1c-.14.14-.29.28-.43.43s-.47.59-.7.89-.55.69-.8,1.05l-.79,1.17a2.18,2.18,0,0,0-.21,1.64A2.12,2.12,0,0,0,3002.84,2596.61Z" transform="translate(-1859.97 -2223.67)"/><path class="a" d="M2425.78,2699.44a2.3,2.3,0,0,0,1.7-.7l2-2.56,1-1.24a7.55,7.55,0,0,0,.75-1.12l.39-.73a2.15,2.15,0,0,0-.55-2.75,2,2,0,0,0-1.29-.46,2.36,2.36,0,0,0-1.5.63,9.83,9.83,0,0,0-1.17,1l-1,1.28-2,2.5a1.94,1.94,0,0,0-.5.77,1.86,1.86,0,0,0-.2.93,2.46,2.46,0,0,0,.7,1.7A2.42,2.42,0,0,0,2425.78,2699.44Z" transform="translate(-1859.97 -2223.67)"/><path class="a" d="M2944.85,3195.46a1.84,1.84,0,0,0,.79.5,1.69,1.69,0,0,0,.94.21l.65-.08a2.57,2.57,0,0,0,1.08-.63l.38-.5a2.41,2.41,0,0,0,.33-1.23c0-.13,0-.25,0-.38a1.15,1.15,0,0,0,0-.19v-.11l-.09-.64a.13.13,0,0,0,0-.06c-.05-.24-.12-.48-.17-.71l-.23-.54a1.7,1.7,0,0,0-.57-.62,1.16,1.16,0,0,0-.49-.29,1.7,1.7,0,0,0-.86-.19l-.59.08-.53.22a1.76,1.76,0,0,0-.63.58,1.64,1.64,0,0,0-.4.76l-.18.71a7.14,7.14,0,0,0-.11,1.38,1.69,1.69,0,0,0,.21.94A1.78,1.78,0,0,0,2944.85,3195.46Z" transform="translate(-1859.97 -2223.67)"/><path class="a" d="M2937.55,3195.41c4.1,0,4.1-6.37,0-6.37S2933.45,3195.41,2937.55,3195.41Z" transform="translate(-1859.97 -2223.67)"/><path class="a" d="M2931.53,3205.89c4,0,4-6.25,0-6.25S2927.5,3205.89,2931.53,3205.89Z" transform="translate(-1859.97 -2223.67)"/><path class="a" d="M2928.52,3220.35c3.27,0,3.28-5.08,0-5.08S2925.25,3220.35,2928.52,3220.35Z" transform="translate(-1859.97 -2223.67)"/><path class="a" d="M2922.5,3234.1a1.25,1.25,0,0,0,0-2.5A1.25,1.25,0,0,0,2922.5,3234.1Z" transform="translate(-1859.97 -2223.67)"/><path class="a" d="M2956.13,3191.92c.09.31.18.61.26.92l.24.55a1.76,1.76,0,0,0,.59.65,1.08,1.08,0,0,0,.51.29,1.69,1.69,0,0,0,.89.2l.61-.08.55-.23a1.87,1.87,0,0,0,.65-.6,1.73,1.73,0,0,0,.41-.78l.26-.92,0,.1a2.7,2.7,0,0,0,.31-1.15,2.74,2.74,0,0,0-.38-1.39,2.75,2.75,0,0,0-4.75,0,2.74,2.74,0,0,0-.38,1.39,2.7,2.7,0,0,0,.31,1.15Z" transform="translate(-1859.97 -2223.67)"/><path class="a" d="M2968.38,3194.51l.65.5a3.18,3.18,0,0,0,1.62.44c.8-.06,1.58-.1,2.36-.23a3.3,3.3,0,0,0,1.39-.42l.3-.2a3.57,3.57,0,0,0,.72-.62,1.83,1.83,0,0,0,.51-.8,1.73,1.73,0,0,0,.21-.95c0-.22,0-.44-.08-.66a2.5,2.5,0,0,0-.64-1.1,4.28,4.28,0,0,0-1-.82l-.71-.3-.11,0-.17,0-.4-.06c-.78-.13-1.56-.18-2.36-.24a2.54,2.54,0,0,0-1.24.28,2.34,2.34,0,0,0-1,.67,2.37,2.37,0,0,0-.67,1,2.49,2.49,0,0,0-.28,1.24l.12.85A3.23,3.23,0,0,0,2968.38,3194.51Z" transform="translate(-1859.97 -2223.67)"/><path class="a" d="M2982.69,3195.24l.43.33a2.13,2.13,0,0,0,1.08.29l.76-.06a2.45,2.45,0,0,0,.69-.12l.19-.06.35-.12.44-.18a1.47,1.47,0,0,0,.51-.48.79.79,0,0,0,.24-.4,1.45,1.45,0,0,0,.16-.71c0-.16-.05-.32-.07-.49l-.18-.43a1.42,1.42,0,0,0-.48-.52,1.38,1.38,0,0,0-.62-.33l-.35-.12-.18-.05a2.24,2.24,0,0,0-.7-.13l-.76-.06a1.53,1.53,0,0,0-.82.19,1.49,1.49,0,0,0-.69.44,1.6,1.6,0,0,0-.44.68,1.67,1.67,0,0,0-.18.82c0,.19,0,.38.07.57A2.29,2.29,0,0,0,2982.69,3195.24Z" transform="translate(-1859.97 -2223.67)"/><path class="a" d="M2996.23,3195a1.25,1.25,0,0,0,0-2.5A1.25,1.25,0,0,0,2996.23,3195Z" transform="translate(-1859.97 -2223.67)"/><path class="a" d="M2915,3252.47a1.56,1.56,0,0,0,0-3.12A1.56,1.56,0,0,0,2915,3252.47Z" transform="translate(-1859.97 -2223.67)"/><path class="a" d="M3005.28,3192.21a2,2,0,0,0,.93.55,2.13,2.13,0,0,0,1.12,0l.7-.18.35-.08c.12,0,.23-.08.35-.12l.41-.17a1.3,1.3,0,0,0,.48-.45.77.77,0,0,0,.22-.38,1.24,1.24,0,0,0,.15-.66l-.06-.45-.17-.41a1.89,1.89,0,0,0-1-.79,1.61,1.61,0,0,0-.35-.12l-.35-.09-.7-.17a2.13,2.13,0,0,0-1.12,0,2.08,2.08,0,0,0-.93.54l-.33.43a2.09,2.09,0,0,0-.29,1.06,1.67,1.67,0,0,0,.18.82A1.57,1.57,0,0,0,3005.28,3192.21Z" transform="translate(-1859.97 -2223.67)"/><path class="a" d="M3026.33,3186.52a1.82,1.82,0,0,0,0-3.63A1.82,1.82,0,0,0,3026.33,3186.52Z" transform="translate(-1859.97 -2223.67)"/></svg>